<svg width="458" height="341" viewBox="0 0 458 341" fill="none" xmlns="http://www.w3.org/2000/svg">
<path opacity="0.673437" fill-rule="evenodd" clip-rule="evenodd" d="M363.839 322.225C411.563 296.743 481.403 275.671 449.9 222.607C418.397 169.542 475.896 -11.7948 373.74 16.9726C329.254 29.5 278.889 -1.44252 229.105 0.388C164.567 2.761 102.548 35.6431 71.524 35.6431C16.5674 35.6431 -36.8943 213.438 35.557 269.158C108.008 324.878 86.411 355.961 164.029 333.262C241.646 310.564 316.114 347.708 363.839 322.225Z" fill="#F3F5F8"/>
<mask id="mask0" mask-type="alpha" maskUnits="userSpaceOnUse" x="0" y="0" width="458" height="341">
<path fill-rule="evenodd" clip-rule="evenodd" d="M363.839 322.225C411.563 296.743 481.403 275.671 449.9 222.607C418.397 169.542 475.896 -11.7948 373.74 16.9726C329.254 29.5 278.889 -1.44252 229.105 0.388C164.567 2.761 102.548 35.6431 71.524 35.6431C16.5674 35.6431 -36.8943 213.438 35.557 269.158C108.008 324.878 86.411 355.961 164.029 333.262C241.646 310.564 316.114 347.708 363.839 322.225Z" fill="white"/>
</mask>
<g mask="url(#mask0)">
</g>
<path d="M383.724 127.596C366.359 121.413 347.025 165.245 340.7 170.86C334.375 176.476 329.459 175.165 325.53 183.996C321.602 192.827 335.919 209.741 331.858 215.831C327.798 221.921 304.646 235.494 301.859 253.381C299.071 271.268 302.6 287.592 319.444 295.488C336.287 303.383 353.494 297.798 364.344 280.444C375.195 263.089 366.359 245.529 366.359 235.852C366.359 226.175 385.253 211.7 388.239 201.538C391.225 191.377 385.8 188.289 383.724 172.843C381.647 157.398 401.088 133.779 383.724 127.596Z" fill="#CCF2D7"/>
<path d="M382 131.089C382 122.065 366.616 144.38 357.561 157.994C348.506 171.608 337.385 182.251 335.425 189.558C333.465 196.864 340.199 216.613 336.948 220.207C333.697 223.8 313.589 243.491 309.855 256.388C306.121 269.285 315.361 290.483 323.255 293.711C331.15 296.939 348.28 272.452 350.426 253.333C352.572 234.214 349.067 234.193 355.474 201.482C361.881 168.77 382 140.113 382 131.089Z" fill="#9CD2AA"/>
<path d="M383 140.271C383 136.661 369.934 170.004 364.998 185.408C360.062 200.812 360.893 197.299 356.924 221.643C352.956 245.986 356.539 254.224 350.683 273.217C344.828 292.21 337.982 292.21 334 296" stroke="white"/>
<path d="M352.845 209.844C353.882 211.276 349.479 202.485 346.822 198.034C344.166 193.583 341.436 190 341 190" stroke="white"/>
<path d="M361.189 217.782C360.102 219.199 363.783 213.454 370.072 207.999C376.362 202.545 383.542 198 384 198" stroke="white"/>
<path d="M336.11 286C336.11 286 338.276 277.936 335.168 263.608C332.06 249.28 327 244 327 244" stroke="white"/>
<path d="M367 251C367 251 363.492 254.538 360.254 258.274C357.017 262.01 354 266 354 266" stroke="white"/>
<path d="M382 172L370 182" stroke="white"/>
<path d="M100.821 76.8644C122.388 69.2269 146.402 123.372 154.257 130.309C162.113 137.246 168.219 135.626 173.098 146.535C177.977 157.445 160.196 178.339 165.239 185.862C170.282 193.385 199.036 210.151 202.499 232.247C205.961 254.342 201.577 274.508 180.658 284.261C159.738 294.014 138.367 287.115 124.891 265.677C111.414 244.239 122.388 222.547 122.388 210.593C122.388 198.639 98.9218 180.758 95.213 168.206C91.5042 155.653 98.2427 151.838 100.821 132.758C103.4 113.678 79.2548 84.5019 100.821 76.8644Z" fill="#CCF2D7"/>
<path d="M103.042 81.6185C103.042 70.4173 122.202 98.1163 133.479 115.015C144.756 131.914 158.605 145.124 161.047 154.194C163.488 163.263 155.101 187.776 159.15 192.237C163.198 196.697 188.242 221.138 192.892 237.147C197.543 253.156 186.035 279.468 176.203 283.475C166.371 287.481 145.037 257.086 142.364 233.355C139.691 209.623 144.057 209.598 136.078 168.994C128.099 128.391 103.042 92.8197 103.042 81.6185Z" fill="#9CD2AA"/>
<path d="M102.128 92.3465C102.128 87.8653 118.507 129.255 124.695 148.376C130.882 167.497 129.841 163.137 134.816 193.355C139.791 223.573 135.299 233.798 142.639 257.374C149.98 280.951 158.562 280.951 163.553 285.656" stroke="white"/>
<path d="M140.242 177.812C138.919 179.543 144.534 168.911 147.922 163.528C151.31 158.144 154.79 153.81 155.347 153.81" stroke="white"/>
<path d="M129.149 187.812C130.471 189.543 125.996 182.527 118.348 175.865C110.7 169.203 101.97 163.653 101.413 163.653" stroke="white"/>
<path d="M160.636 273.644C160.636 273.644 157.953 263.561 161.803 245.644C165.652 227.726 171.92 221.124 171.92 221.124" stroke="white"/>
<path d="M121.67 229.135C121.67 229.135 125.917 233.507 129.837 238.122C133.757 242.737 137.409 247.667 137.409 247.667" stroke="white"/>
<path d="M103.286 131.612L118.301 144.511" stroke="white"/>
<path d="M75.8959 172.126C88.8987 164.759 110.494 196.92 116.334 200.498C122.174 204.077 125.918 202.341 130.295 208.816C134.672 215.291 125.61 230.769 129.708 235.044C133.806 239.319 154.204 246.86 158.94 260.703C163.677 274.545 163.149 288.035 150.803 296.691C138.456 305.346 123.928 303.325 112.825 291.042C101.722 278.758 106.316 263.538 104.958 255.837C103.6 248.135 86.4766 239.276 82.6653 231.61C78.8541 223.943 82.7545 220.721 82.2455 208.136C81.7365 195.551 62.8931 179.492 75.8959 172.126Z" fill="#9FD7AE"/>
<path d="M77.5358 175.101C76.2632 167.884 91.8626 183.535 101.112 193.131C110.361 202.727 120.863 209.652 123.48 215.216C126.097 220.78 123.432 237.536 126.57 239.946C129.708 242.356 148.761 255.234 153.602 265.016C158.444 274.798 153.954 293.071 148.019 296.779C142.084 300.488 124.765 283.348 120.332 268.363C115.898 253.379 118.733 252.862 108.934 227.614C99.1351 202.367 78.8084 182.318 77.5358 175.101Z" fill="#7AB689"/>
<path d="M77.6836 181.698C77.1772 178.827 92.3576 203.497 98.4864 215.049C104.615 226.602 103.454 223.926 110.059 242.727C116.664 261.527 114.938 268.587 122.31 282.865C129.681 297.142 135.185 296.172 138.917 298.622" stroke="white"/>
<path d="M112.269 233.13C111.616 234.408 114.009 226.845 115.571 222.954C117.133 219.063 118.875 215.845 119.233 215.782" stroke="white"/>
<path d="M106.135 240.254C107.171 241.222 103.535 237.196 97.93 233.754C92.3245 230.311 86.1595 227.706 85.8067 227.768" stroke="white"/>
<path d="M136.433 291.952C136.433 291.952 133.593 285.825 134.027 273.97C134.462 262.116 137.707 257.203 137.707 257.203" stroke="white"/>
<path d="M106.076 267.858C106.076 267.858 109.225 270.177 112.197 272.688C115.168 275.198 118.008 277.939 118.008 277.939" stroke="white"/>
<path d="M83.1445 206.914L94.3818 213.056" stroke="white"/>
<rect x="125" y="35" width="208" height="272" fill="#E2EEFF"/>
<rect x="126.5" y="36.5" width="205" height="269" stroke="white" stroke-opacity="0.451285" stroke-width="3"/>
<rect x="155" y="89" width="49" height="4" fill="white"/>
<rect x="155" y="101" width="73" height="4" fill="white"/>
<rect x="245.5" y="89.5" width="31" height="29" fill="white" stroke="#7A8A9D"/>
<rect x="276.5" y="118.5" width="32" height="29" fill="white" stroke="#7A8A9D"/>
<rect x="244.5" y="118.5" width="32" height="29" fill="white" stroke="#7A8A9D"/>
<rect x="213.5" y="118.5" width="32" height="29" fill="white" stroke="#7A8A9D"/>
<rect x="181.5" y="118.5" width="32" height="29" fill="white" stroke="#7A8A9D"/>
<rect x="149.5" y="118.5" width="32" height="29" fill="white" stroke="#7A8A9D"/>
<rect x="276.5" y="147.5" width="32" height="29" fill="white" stroke="#7A8A9D"/>
<rect x="244.5" y="147.5" width="32" height="29" fill="white" stroke="#7A8A9D"/>
<rect x="213.5" y="147.5" width="32" height="29" fill="white" stroke="#7A8A9D"/>
<rect x="181.5" y="147.5" width="32" height="29" fill="white" stroke="#7A8A9D"/>
<rect x="149.5" y="147.5" width="32" height="29" fill="white" stroke="#7A8A9D"/>
<rect x="276.5" y="176.5" width="32" height="29" fill="white" stroke="#7A8A9D"/>
<rect x="244.5" y="176.5" width="32" height="29" fill="white" stroke="#7A8A9D"/>
<rect x="213.5" y="176.5" width="32" height="29" fill="white" stroke="#7A8A9D"/>
<rect x="181.5" y="176.5" width="32" height="29" fill="white" stroke="#7A8A9D"/>
<rect x="149.5" y="176.5" width="32" height="29" fill="white" stroke="#7A8A9D"/>
<rect x="276.5" y="205.5" width="32" height="29" fill="white" stroke="#7A8A9D"/>
<rect x="244.5" y="205.5" width="32" height="29" fill="white" stroke="#7A8A9D"/>
<rect x="213.5" y="205.5" width="32" height="29" fill="white" stroke="#7A8A9D"/>
<rect x="181.5" y="205.5" width="32" height="29" fill="white" stroke="#7A8A9D"/>
<rect x="149.5" y="205.5" width="32" height="29" fill="white" stroke="#7A8A9D"/>
<rect x="276.5" y="234.5" width="32" height="29" fill="white" stroke="#7A8A9D"/>
<rect x="244.5" y="234.5" width="32" height="29" fill="white" stroke="#7A8A9D"/>
<rect x="213.5" y="234.5" width="32" height="29" fill="white" stroke="#7A8A9D"/>
<rect x="181.5" y="234.5" width="32" height="29" fill="white" stroke="#7A8A9D"/>
<rect x="149.5" y="234.5" width="32" height="29" fill="white" stroke="#7A8A9D"/>
<rect x="276.5" y="89.5" width="32" height="29" fill="white" stroke="#7A8A9D"/>
<path d="M338.543 273.837C338.543 273.837 344.624 261.278 346.339 255.177C348.054 249.077 350.282 238.284 350.282 238.284C350.282 238.284 346.735 239.393 346.735 237.248C346.735 235.104 350.721 230.458 350.721 230.458C350.721 230.458 351.363 216.91 349.224 206.729C347.084 196.549 345.675 193.318 342.724 192.405C339.774 191.491 329.062 209.546 327.916 212.281C326.771 215.015 332.249 217.246 331.023 219.206C329.796 221.167 323.401 219.206 323.401 219.206L328.666 273.837H338.543Z" fill="#11228B"/>
<mask id="mask1" mask-type="alpha" maskUnits="userSpaceOnUse" x="323" y="192" width="28" height="82">
<path d="M338.543 273.837C338.543 273.837 344.624 261.278 346.339 255.177C348.054 249.077 350.282 238.284 350.282 238.284C350.282 238.284 346.735 239.393 346.735 237.248C346.735 235.104 350.721 230.458 350.721 230.458C350.721 230.458 351.363 216.91 349.224 206.729C347.084 196.549 345.675 193.318 342.724 192.405C339.774 191.491 329.062 209.546 327.916 212.281C326.771 215.015 332.249 217.246 331.023 219.206C329.796 221.167 323.401 219.206 323.401 219.206L328.666 273.837H338.543Z" fill="white"/>
</mask>
<g mask="url(#mask1)">
<path d="M347.522 250.486C346.837 247.754 343.873 261.954 341.673 260.905C339.474 259.856 339.874 247.983 339.026 246.435C338.178 244.887 337.884 250.486 335.967 250.486C334.05 250.486 334.53 247.805 331.975 246.435C329.42 245.066 328.207 232.388 326.491 245.407C324.776 258.426 323.235 272.103 327.644 279.297C332.054 286.491 340.887 283.432 345.607 276.592C350.326 269.751 348.207 253.218 347.522 250.486Z" fill="black" fill-opacity="0.0866169"/>
<path d="M330.417 272.979C330.417 272.979 331.966 249.338 335.192 228.463C338.418 207.588 342.705 193.463 342.705 193.463" stroke="black" stroke-opacity="0.043733"/>
</g>
<path d="M314.916 273.923C314.916 273.923 303.23 252.548 300.205 243.844C297.18 235.141 296.484 220.883 296.484 220.883C296.484 220.883 301.824 220.547 301.824 219.015C301.824 217.483 296.484 214.84 296.484 214.84C296.484 214.84 296.366 200.361 297.798 192.819C299.23 185.277 300.953 182.06 303.278 182.06C305.603 182.06 314.916 194.673 314.916 194.673C314.916 194.673 314.028 201.187 314.916 202.546C315.804 203.905 318.141 199.608 318.141 199.608C318.141 199.608 323.087 208.358 325.149 213.996C327.211 219.634 329.636 222.206 330.999 241.379C332.362 260.551 329.589 276.441 329.589 276.441L314.916 273.923Z" fill="#4C5DC7"/>
<mask id="mask2" mask-type="alpha" maskUnits="userSpaceOnUse" x="296" y="182" width="36" height="95">
<path d="M314.916 273.923C314.916 273.923 303.23 252.548 300.205 243.844C297.18 235.141 296.484 220.883 296.484 220.883C296.484 220.883 301.824 220.547 301.824 219.015C301.824 217.483 296.484 214.84 296.484 214.84C296.484 214.84 296.366 200.361 297.798 192.819C299.23 185.277 300.953 182.06 303.278 182.06C305.603 182.06 314.916 194.673 314.916 194.673C314.916 194.673 314.028 201.187 314.916 202.546C315.804 203.905 318.141 199.608 318.141 199.608C318.141 199.608 323.087 208.358 325.149 213.996C327.211 219.634 329.636 222.206 330.999 241.379C332.362 260.551 329.589 276.441 329.589 276.441L314.916 273.923Z" fill="white"/>
</mask>
<g mask="url(#mask2)">
<path opacity="0.140848" d="M322.689 273.084C322.689 273.084 312.218 235.882 308.838 220.257C305.457 204.632 303.002 181.871 303.002 181.871" stroke="black"/>
<path d="M328.786 227.769C326.733 231.962 325.212 232.639 325.212 237.212C325.212 241.784 329.334 243.037 328.786 246.297C328.238 249.558 326.77 246.941 323.025 250.224C319.281 253.507 317.407 255.52 315.77 257.709C314.133 259.898 316.006 262.955 313.122 263.466C310.237 263.978 306.574 254.001 306.574 259.339C306.574 264.676 303.601 273.768 313.122 279.836C322.642 285.904 331.303 293.447 336.281 278.271C341.258 263.095 331.233 227.481 330.94 225.511C330.648 223.54 330.838 223.577 328.786 227.769Z" fill="black" fill-opacity="0.10612"/>
</g>
<path d="M327 307C344.121 307 358 306.328 358 305.5C358 304.672 344.121 304 327 304C309.879 304 296 304.672 296 305.5C296 306.328 309.879 307 327 307Z" fill="black" fill-opacity="0.1"/>
<path d="M307.022 273.488C307.022 273.488 309.177 274.857 309.177 276.168C309.177 277.478 310.931 296.971 311.408 299.434C311.885 301.896 314.51 303.903 314.51 303.903H341.633C341.633 303.903 343.728 301.271 344.339 299.434C344.949 297.596 345.57 277.658 345.751 276.168C345.932 274.678 347.622 273.488 347.622 273.488H307.022Z" fill="#B9DAFF"/>
<mask id="mask3" mask-type="alpha" maskUnits="userSpaceOnUse" x="307" y="273" width="41" height="31">
<path d="M307.022 273.488C307.022 273.488 309.177 274.857 309.177 276.168C309.177 277.478 310.931 296.971 311.408 299.434C311.885 301.896 314.51 303.903 314.51 303.903H341.633C341.633 303.903 343.728 301.271 344.339 299.434C344.949 297.596 345.57 277.658 345.751 276.168C345.932 274.678 347.622 273.488 347.622 273.488H307.022Z" fill="white"/>
</mask>
<g mask="url(#mask3)">
<path d="M298.671 272.732C298.671 272.732 300.982 274.201 300.982 275.607C300.982 277.013 302.864 297.925 303.376 300.567C303.888 303.209 306.703 305.361 306.703 305.361H335.802C335.802 305.361 338.049 302.538 338.704 300.567C339.359 298.596 340.025 277.206 340.219 275.607C340.413 274.008 342.226 272.732 342.226 272.732H298.671Z" fill="#C2DDFD"/>
</g>
<path d="M155.5 154C156.328 154 157 153.328 157 152.5C157 151.672 156.328 151 155.5 151C154.672 151 154 151.672 154 152.5C154 153.328 154.672 154 155.5 154Z" fill="#593DFF"/>
<path d="M160.5 154C161.328 154 162 153.328 162 152.5C162 151.672 161.328 151 160.5 151C159.672 151 159 151.672 159 152.5C159 153.328 159.672 154 160.5 154Z" fill="#FF7E8E"/>
<path d="M155.5 183C156.328 183 157 182.328 157 181.5C157 180.672 156.328 180 155.5 180C154.672 180 154 180.672 154 181.5C154 182.328 154.672 183 155.5 183Z" fill="#593DFF"/>
<path d="M250.5 183C251.328 183 252 182.328 252 181.5C252 180.672 251.328 180 250.5 180C249.672 180 249 180.672 249 181.5C249 182.328 249.672 183 250.5 183Z" fill="#593DFF"/>
<path d="M219.5 154C220.328 154 221 153.328 221 152.5C221 151.672 220.328 151 219.5 151C218.672 151 218 151.672 218 152.5C218 153.328 218.672 154 219.5 154Z" fill="#593DFF"/>
<path d="M219.5 212C220.328 212 221 211.328 221 210.5C221 209.672 220.328 209 219.5 209C218.672 209 218 209.672 218 210.5C218 211.328 218.672 212 219.5 212Z" fill="#593DFF"/>
<path d="M250.5 241C251.328 241 252 240.328 252 239.5C252 238.672 251.328 238 250.5 238C249.672 238 249 238.672 249 239.5C249 240.328 249.672 241 250.5 241Z" fill="#593DFF"/>
<path d="M187.5 241C188.328 241 189 240.328 189 239.5C189 238.672 188.328 238 187.5 238C186.672 238 186 238.672 186 239.5C186 240.328 186.672 241 187.5 241Z" fill="#593DFF"/>
<path d="M192.5 241C193.328 241 194 240.328 194 239.5C194 238.672 193.328 238 192.5 238C191.672 238 191 238.672 191 239.5C191 240.328 191.672 241 192.5 241Z" fill="#FF7E8E"/>
<path d="M282.5 125C283.328 125 284 124.328 284 123.5C284 122.672 283.328 122 282.5 122C281.672 122 281 122.672 281 123.5C281 124.328 281.672 125 282.5 125Z" fill="#593DFF"/>
</svg>
