<svg width="458" height="341" viewBox="0 0 458 341" fill="none" xmlns="http://www.w3.org/2000/svg">
<path opacity="0.673437" fill-rule="evenodd" clip-rule="evenodd" d="M363.839 322.225C411.563 296.743 481.403 275.671 449.9 222.607C418.397 169.542 475.896 -11.7948 373.74 16.9726C329.254 29.5 278.889 -1.44252 229.105 0.388C164.567 2.761 102.548 35.6431 71.524 35.6431C16.5674 35.6431 -36.8943 213.438 35.557 269.158C108.008 324.878 86.411 355.961 164.029 333.262C241.646 310.564 316.114 347.708 363.839 322.225Z" fill="#F3F5F8"/>
<mask id="mask0" mask-type="alpha" maskUnits="userSpaceOnUse" x="0" y="0" width="458" height="341">
<path fill-rule="evenodd" clip-rule="evenodd" d="M363.839 322.225C411.563 296.743 481.403 275.671 449.9 222.607C418.397 169.542 475.896 -11.7948 373.74 16.9726C329.254 29.5 278.889 -1.44252 229.105 0.388C164.567 2.761 102.548 35.6431 71.524 35.6431C16.5674 35.6431 -36.8943 213.438 35.557 269.158C108.008 324.878 86.411 355.961 164.029 333.262C241.646 310.564 316.114 347.708 363.839 322.225Z" fill="white"/>
</mask>
<g mask="url(#mask0)">
<path d="M199.035 200.283L210.672 194.364L226.22 195.765L231.71 199.592L221.136 209.734L199.035 200.283Z" fill="#0D1839"/>
<path d="M198.102 199.886C198.102 199.886 200.435 194.594 215.551 194.178C230.667 193.762 232.833 199.769 232.833 199.769L230.627 201.007C230.627 201.007 225.76 198.43 215.551 198.084C207.645 197.816 201.275 201.112 201.275 201.112L198.102 199.886Z" fill="url(#paint0_linear)"/>
<path d="M198.193 199.528L202.656 233.947C202.656 233.947 207.722 234.749 216.711 234.749C225.699 234.749 228.363 233.947 228.363 233.947L232.805 199.528C232.805 199.528 226.306 201.972 216.711 201.972C207.115 201.972 198.193 199.528 198.193 199.528Z" fill="url(#paint1_linear)"/>
<path d="M208.089 118.072C208.089 118.072 210.362 141.095 211.208 155.405C212.054 169.715 212.67 186.834 212.67 195.56C212.67 197.099 212.67 200.688 212.67 200.688H221.066C221.066 200.688 222.168 189.613 221.066 165.175C219.965 140.736 213.735 118.072 213.735 118.072H208.089Z" fill="url(#paint2_linear)"/>
<mask id="mask1" mask-type="alpha" maskUnits="userSpaceOnUse" x="208" y="118" width="14" height="83">
<path d="M208.089 118.072C208.089 118.072 210.362 141.095 211.208 155.405C212.054 169.715 212.67 186.834 212.67 195.56C212.67 197.099 212.67 200.688 212.67 200.688H221.066C221.066 200.688 222.168 189.613 221.066 165.175C219.965 140.736 213.735 118.072 213.735 118.072H208.089Z" fill="white"/>
</mask>
<g mask="url(#mask1)">
<path opacity="0.176897" d="M214.463 120.982C213.113 117.113 210.74 122.798 211.094 124.374C211.447 125.949 216.062 125.6 215.698 126.488C215.334 127.375 209.796 126.62 209.796 127.539C209.796 128.458 215.698 129.175 215.698 130.156C215.698 131.137 209.444 130.356 209.796 131.472C210.147 132.587 216.978 133.336 216.978 134.215C216.978 135.093 209.546 134.196 209.796 134.991C210.045 135.785 217.919 135.661 217.919 137.207C217.919 138.753 209.558 139.479 209.796 141.162C210.033 142.845 218.352 142.489 218.825 143.615C219.297 144.741 211.986 145.144 211.986 146.381C211.986 147.617 219.061 147.178 218.825 148.565C218.588 149.953 210.773 149.665 211.094 151.607C211.414 153.549 219.809 154.417 220.02 155.808C220.231 157.2 211.8 156.299 211.986 157.497C212.172 158.695 220.733 159.127 220.733 160.402C220.733 161.677 211.986 161.067 211.986 162.601C211.986 164.135 220.546 164.605 220.733 166.528C220.921 168.45 212.471 168.583 212.771 170.662C213.072 172.742 221.673 172.661 221.862 174.34C222.051 176.019 213.824 175.859 213.562 177.7C213.299 179.541 220.733 180.186 220.733 182.257C220.733 184.328 213.562 184.4 213.562 185.999C213.562 187.598 220.941 187.364 220.733 188.665C220.526 189.966 212.771 189.138 212.771 190.949C212.771 192.76 216.96 201.169 220.733 195.879C224.507 190.589 229.322 195.486 227.243 170.662C225.165 145.838 215.812 124.85 214.463 120.982Z" fill="url(#paint3_linear)"/>
</g>
<path d="M194 115.752C194 115.752 216.711 116.632 226.852 115.752C236.993 114.872 252 137 252 137C252 137 239.698 109.829 226.852 111.053C214.006 112.277 194 115.752 194 115.752Z" fill="url(#paint4_linear)"/>
<path d="M217 118.004C217 118.004 223.214 117.812 227.615 128.346C232.015 138.881 234 156 234 156C234 156 231.937 132.427 228.886 125.125C225.836 117.822 217 118.004 217 118.004Z" fill="url(#paint5_linear)"/>
<path d="M217.254 116.836C217.254 116.836 222.898 114.23 231.065 122.208C239.232 130.186 247.748 145.168 247.748 145.168C247.748 145.168 236.639 124.276 230.977 118.746C225.316 113.216 217.254 116.836 217.254 116.836Z" fill="url(#paint6_linear)"/>
<path d="M218.151 120.246C218.151 120.246 223.133 117.949 230.281 124.853C237.43 131.758 244.851 144.758 244.851 144.758C244.851 144.758 235.177 126.626 230.221 121.84C225.266 117.054 218.151 120.246 218.151 120.246Z" fill="url(#paint7_linear)"/>
<path d="M207 114.739C207 114.739 217.046 106.92 220.062 108.173C223.078 109.425 225 121.829 225 121.829V157C225 157 223.196 127.424 220.062 119.49C216.928 111.556 207 114.739 207 114.739Z" fill="url(#paint8_linear)"/>
<path d="M200 85.2225C200 85.2225 202.253 83.5907 204.506 84.5138C205.299 84.8386 206.462 90.0758 206.698 97.6173C206.882 103.479 208.98 121 208.98 121C208.98 121 211 101.515 211 94.3653C211 87.2158 208.477 79 205.5 79C202.523 79 200 85.2225 200 85.2225Z" fill="url(#paint9_linear)"/>
<path d="M209 117.005C209 117.005 191.478 103.29 183.309 105.15C175.14 107.01 170.249 142 170.249 142C170.249 142 168.383 104.827 180.499 99.9003C192.615 94.9737 209 117.005 209 117.005Z" fill="url(#paint10_linear)"/>
<path d="M209.492 114.33C209.492 114.33 209.299 119.561 211.076 129.117C212.854 138.674 215.507 146.669 215.507 146.669C215.507 146.669 215.181 135.188 213.733 127.403C212.285 119.618 209.492 114.33 209.492 114.33Z" fill="url(#paint11_linear)"/>
<path d="M209 115C209 115 209.912 121.872 214.641 133.988C219.369 146.104 225 156 225 156C225 156 221.919 141.069 218.067 131.199C214.216 121.329 209 115 209 115Z" fill="url(#paint12_linear)"/>
<path d="M210 111C210 111 224.824 100.728 236.381 99.0767C247.937 97.425 261 102.759 261 102.759C261 102.759 250.834 89.9711 236.381 93.9401C221.927 97.909 210 111 210 111Z" fill="url(#paint13_linear)"/>
<path d="M209.106 118.005C209.106 118.005 210.238 125.842 209.583 140.319C208.929 154.796 206.893 166.995 206.893 166.995C206.893 166.995 205.368 149.736 205.901 137.942C206.434 126.149 209.106 118.005 209.106 118.005Z" fill="url(#paint14_linear)"/>
<path d="M207 109.707C207 109.707 198.339 111.983 195.99 117.396C195.016 119.64 193.345 125.754 193.117 134.897C192.978 140.461 194.184 155 194.184 155C194.184 155 189.913 136.912 191.371 124.473C192.829 112.035 199.81 107 199.81 107L207 109.707Z" fill="url(#paint15_linear)"/>
<path d="M209 120.063C209 120.063 213.756 103.632 223.884 102.752C234.013 101.872 249 124 249 124C249 124 236.714 96.8288 223.884 98.0528C211.055 99.2768 209 120.063 209 120.063Z" fill="url(#paint16_linear)"/>
<path d="M208.73 115C210.104 115 205.823 119.913 205.005 124.554C204.187 129.195 202.904 155 202.904 155C202.904 155 200.134 137.328 201.394 126.584C202.655 115.841 207.357 115 208.73 115Z" fill="url(#paint17_linear)"/>
<path d="M209 121C209 121 203.912 92.5935 199.909 88.1978C195.905 83.8022 187 88.1978 187 88.1978C187 88.1978 192.456 87.6932 195.419 89.7995C198.381 91.9058 209 121 209 121Z" fill="url(#paint18_linear)"/>
<path d="M208 115C208 115 198.331 120.88 191.826 130.517C185.321 140.154 181 155 181 155C181 155 182.269 138.798 189.299 128.384C196.328 117.97 208 115 208 115Z" fill="url(#paint19_linear)"/>
<path d="M204.945 112.568C205.63 114.244 199.685 113.07 199.685 122.832C199.685 132.595 202.211 159 202.211 159C202.211 159 195.654 128.996 196.019 118.65C196.385 108.305 204.26 110.893 204.945 112.568Z" fill="url(#paint20_linear)"/>
<path d="M210 115.493C210 115.493 204.557 116.228 203.107 119.847C201.656 123.466 199.527 154 199.527 154C199.527 154 198.134 128.377 200.422 118.789C202.709 109.201 210 115.493 210 115.493Z" fill="url(#paint21_linear)"/>
<path d="M202 109C202 109 193.244 112.824 191.642 118.313C190.039 123.802 189.292 157 189.292 157C189.292 157 185.537 133.921 186.065 123.224C186.593 112.527 192.651 109 192.651 109H202Z" fill="url(#paint22_linear)"/>
<path d="M200.502 110.886C200.502 110.886 191.051 109.49 186.783 113.295C182.515 117.1 164.289 144.858 164.289 144.858C164.289 144.858 173.335 123.296 179.451 114.504C185.567 105.713 192.574 105.932 192.574 105.932L200.502 110.886Z" fill="url(#paint23_linear)"/>
<path d="M207.715 121.951C206.803 122.457 209.595 107.462 197.358 101.087C185.122 94.7114 169.754 96.1153 169.754 96.1153C169.754 96.1153 193.363 93.2025 201.049 99.0413C208.734 104.88 208.628 121.445 207.715 121.951Z" fill="url(#paint24_linear)"/>
<path d="M208.508 116.826C209.418 117.33 205.787 98.0752 218.024 91.6405C230.261 85.2058 244.294 87.4981 244.294 87.4981C244.294 87.4981 222.04 83.7219 214.347 89.6025C206.655 95.4831 207.599 116.322 208.508 116.826Z" fill="url(#paint25_linear)"/>
<path d="M218.139 113.271C218.139 113.271 234.106 108.984 239.042 110.166C243.977 111.347 260.712 124.626 260.712 124.626C260.712 124.626 249.738 110.215 241.289 105.887C232.839 101.558 218.162 108.325 218.162 108.325L218.139 113.271Z" fill="url(#paint26_linear)"/>
<path d="M207 114.324C207 115.367 195.24 105.656 183.731 113.267C172.222 120.879 166 135 166 135C166 135 174.898 112.939 183.731 109.048C192.564 105.157 207 113.28 207 114.324Z" fill="url(#paint27_linear)"/>
<path d="M208 118C208 118 220.179 89.8715 229.466 88.792C238.754 87.7125 249 113.235 249 113.235C249 113.235 240.078 80.5652 228.313 82.0659C216.549 83.5667 208 118 208 118Z" fill="url(#paint28_linear)"/>
<path d="M208 115.005C208 115.005 214.579 114.797 219.239 126.163C223.898 137.53 226 156 226 156C226 156 223.815 130.566 220.585 122.687C217.356 114.808 208 115.005 208 115.005Z" fill="url(#paint29_linear)"/>
<path d="M209 113.005C209 113.005 215.579 112.797 220.239 124.163C224.898 135.53 227 154 227 154C227 154 224.815 128.566 221.585 120.687C218.356 112.808 209 113.005 209 113.005Z" fill="url(#paint30_linear)"/>
<path d="M447.594 268.98C450.941 268.419 450.93 263.604 447.58 263.06L231.869 228L88 249.068L152.873 268.881L302.576 293.267L447.594 268.98Z" fill="#F2F2F2"/>
<path d="M289.172 296.766C295.577 297.984 302.158 297.937 308.545 296.629L446.663 268.337C447.297 268.207 447.753 267.649 447.753 267.001C447.753 263.594 444.664 261.022 441.313 261.638L311.096 285.585C303.015 287.071 294.731 287.058 286.655 285.547L88.3678 248.443C87.1372 248.213 86 249.157 86 250.409V256.478C86 257.439 86.6828 258.264 87.6264 258.443L289.172 296.766Z" fill="url(#paint31_linear)"/>
<path d="M349.5 286C350.328 286 351 285.105 351 284C351 282.895 350.328 282 349.5 282C348.672 282 348 282.895 348 284C348 285.105 348.672 286 349.5 286Z" fill="black" fill-opacity="0.197435"/>
<path d="M215.263 267.888L260.677 260.843L204.355 251L160 256.753L215.263 267.888Z" fill="black" fill-opacity="0.116225"/>
<path d="M340.514 267.898L399.368 258.604L240.596 233L182 241.312L340.514 267.898Z" fill="black" fill-opacity="0.153448"/>
<path d="M374.128 277.138C373.666 277.236 373.336 277.644 373.336 278.116V279.479C373.336 280.106 373.907 280.579 374.523 280.461L383.372 278.778C383.843 278.688 384.185 278.276 384.185 277.795V276.235C384.185 275.599 383.599 275.124 382.977 275.256L374.128 277.138Z" fill="#7A7A7A"/>
<mask id="mask2" mask-type="alpha" maskUnits="userSpaceOnUse" x="373" y="275" width="12" height="6">
<path d="M374.128 277.138C373.666 277.236 373.336 277.644 373.336 278.116V279.479C373.336 280.106 373.907 280.579 374.523 280.461L383.372 278.778C383.843 278.688 384.185 278.276 384.185 277.795V276.235C384.185 275.599 383.599 275.124 382.977 275.256L374.128 277.138Z" fill="white"/>
</mask>
<g mask="url(#mask2)">
<path d="M384.174 278.238L374 277.31L376.869 273H384.719L384.174 278.238Z" fill="#2F2F2F"/>
</g>
<path d="M387.188 274.43C386.741 274.539 386.426 274.94 386.426 275.401V276.933C386.426 277.57 387.013 278.044 387.635 277.911L396.456 276.024C396.917 275.925 397.247 275.518 397.247 275.046V273.244C397.247 272.596 396.639 272.119 396.009 272.273L387.188 274.43Z" fill="#7A7A7A"/>
<mask id="mask3" mask-type="alpha" maskUnits="userSpaceOnUse" x="386" y="272" width="12" height="6">
<path d="M387.188 274.43C386.741 274.539 386.426 274.94 386.426 275.401V276.933C386.426 277.57 387.013 278.044 387.635 277.911L396.456 276.024C396.917 275.925 397.247 275.518 397.247 275.046V273.244C397.247 272.596 396.639 272.119 396.009 272.273L387.188 274.43Z" fill="white"/>
</mask>
<g mask="url(#mask3)">
<path d="M397.174 275.238L387 274.31L389.869 270H397.719L397.174 275.238Z" fill="#2F2F2F"/>
</g>
<path d="M400.046 272.678C400.046 272.202 400.382 271.791 400.848 271.697L423.656 267.103C424.275 266.979 424.854 267.452 424.854 268.084V269.017C424.854 269.488 424.525 269.896 424.064 269.995L401.257 274.913C400.634 275.048 400.046 274.573 400.046 273.936V272.678Z" fill="#7A7A7A"/>
<mask id="mask4" mask-type="alpha" maskUnits="userSpaceOnUse" x="400" y="267" width="25" height="8">
<path d="M400.046 272.678C400.046 272.202 400.382 271.791 400.848 271.697L423.656 267.103C424.275 266.979 424.854 267.452 424.854 268.084V269.017C424.854 269.488 424.525 269.896 424.064 269.995L401.257 274.913C400.634 275.048 400.046 274.573 400.046 273.936V272.678Z" fill="white"/>
</mask>
<g mask="url(#mask4)">
<path d="M425.123 270.238L414 269.31L417.137 265H425.719L425.123 270.238Z" fill="#2F2F2F"/>
</g>
<path d="M353.663 281.856C353.663 281.379 354 280.969 354.468 280.876L370.092 277.76C370.711 277.637 371.288 278.11 371.288 278.741V280.081C371.288 280.555 370.955 280.964 370.491 281.06L354.866 284.301C354.245 284.429 353.663 283.955 353.663 283.321V281.856Z" fill="#7A7A7A"/>
<mask id="mask5" mask-type="alpha" maskUnits="userSpaceOnUse" x="353" y="277" width="19" height="8">
<path d="M353.663 281.856C353.663 281.379 354 280.969 354.468 280.876L370.092 277.76C370.711 277.637 371.288 278.11 371.288 278.741V280.081C371.288 280.555 370.955 280.964 370.491 281.06L354.866 284.301C354.245 284.429 353.663 283.955 353.663 283.321V281.856Z" fill="white"/>
</mask>
<g mask="url(#mask5)">
<path d="M371.532 280.713L361.357 279.786L364.226 275.476H372.076L371.532 280.713Z" fill="#2F2F2F"/>
</g>
<path d="M448.722 262.963C450.837 263.299 452.84 261.909 453.268 259.811L491.007 74.5973C492.04 69.5283 488.063 64.8266 482.893 65.0047L281.3 71.9527C277.733 72.0756 274.68 74.5455 273.814 78.0073L236 229.229L448.722 262.963Z" fill="url(#paint32_linear)"/>
<path d="M283.269 81.3369L477.586 77L444.465 251.16L248 219.099L283.269 81.3369Z" fill="white"/>
<path d="M301.758 108.669L366.928 107.669L345.173 200.131L281.755 192.085L301.758 108.669Z" fill="#593DFF"/>
</g>
<path d="M355.057 209.539C355.057 209.539 361 212.179 361 217.22C361 219.138 358.105 222.005 354.271 225.296C352.725 226.623 350.416 227.751 349.026 229.326C344.802 234.115 339.973 238.261 340.265 241.637C340.558 245.013 341.942 247.24 342.637 250.571C343.411 254.279 344.774 267.837 344.774 267.837C344.774 267.837 344.945 265.709 342.637 265.709C341.116 265.709 338.563 257.342 336.31 250.571C335.146 247.071 333.581 244.084 333.291 242.716C332.44 238.7 333.58 229.501 335.083 223.082C336.587 216.663 339.375 216.042 340.265 212.933C341.156 209.825 340.265 205 340.265 205L355.057 209.539Z" fill="#ECD0B2"/>
<mask id="mask6" mask-type="alpha" maskUnits="userSpaceOnUse" x="333" y="205" width="28" height="63">
<path d="M355.057 209.539C355.057 209.539 361 212.179 361 217.22C361 219.138 358.105 222.005 354.271 225.296C352.725 226.623 350.416 227.751 349.026 229.326C344.802 234.115 339.973 238.261 340.265 241.637C340.558 245.013 341.942 247.24 342.637 250.571C343.411 254.279 344.774 267.837 344.774 267.837C344.774 267.837 344.945 265.709 342.637 265.709C341.116 265.709 338.563 257.342 336.31 250.571C335.146 247.071 333.581 244.084 333.291 242.716C332.44 238.7 333.58 229.501 335.083 223.082C336.587 216.663 339.375 216.042 340.265 212.933C341.156 209.825 340.265 205 340.265 205L355.057 209.539Z" fill="white"/>
</mask>
<g mask="url(#mask6)">
<path opacity="0.264174" d="M342.188 232.195C343.978 232.461 344.253 234.927 342.567 235.582C342.217 235.718 341.833 235.738 341.47 235.64L339.202 235.029C338.525 234.846 337.813 234.842 337.135 235.016L335.701 235.383C334.763 235.624 333.78 235.203 333.306 234.359C332.436 232.81 333.727 230.936 335.485 231.198L342.188 232.195Z" fill="black" fill-opacity="0.156788"/>
</g>
<path d="M358 218.055C358 218.055 357.57 219.209 357.403 226.623C357.235 234.037 356.535 233.412 356.479 241.587C356.424 249.762 355.919 259.916 355.864 262.252C355.808 264.589 352.71 263.289 352.71 263.289C352.71 263.289 350.822 247.937 350.392 240.672C349.961 233.407 350.392 224.2 350.392 224.2L358 218.055Z" fill="#E8CFB4"/>
<mask id="mask7" mask-type="alpha" maskUnits="userSpaceOnUse" x="350" y="218" width="9" height="46">
<path d="M358 218.055C358 218.055 357.57 219.209 357.403 226.623C357.235 234.037 356.535 233.412 356.479 241.587C356.424 249.762 355.919 259.916 355.864 262.252C355.808 264.589 352.71 263.289 352.71 263.289C352.71 263.289 350.822 247.937 350.392 240.672C349.961 233.407 350.392 224.2 350.392 224.2L358 218.055Z" fill="white"/>
</mask>
<g mask="url(#mask7)">
<path opacity="0.0813616" d="M360.912 221.922C362.525 222.031 366.395 220.985 361.721 226.392C357.048 231.798 351.416 235.861 349.003 235.698C346.59 235.535 345.618 229.45 349.003 225.534C352.388 221.617 359.298 221.813 360.912 221.922Z" fill="black"/>
</g>
<path d="M326.34 222.984C325.674 222.832 327.051 221.725 327.282 220.143C327.512 218.561 326.958 218.144 327.186 217.189C327.414 216.233 327.977 216.439 328.813 213.383C329.649 210.327 329.709 207.894 329.709 207.894L333.768 209.617C333.768 209.617 331.955 213.127 331.288 215.535C330.621 217.942 331.521 219.528 330.391 220.827C329.262 222.127 327.007 223.136 326.34 222.984Z" fill="#FFEDDA"/>
<mask id="mask8" mask-type="alpha" maskUnits="userSpaceOnUse" x="326" y="207" width="8" height="16">
<path d="M326.34 222.984C325.674 222.832 327.051 221.725 327.282 220.143C327.512 218.561 326.958 218.144 327.186 217.189C327.414 216.233 327.977 216.439 328.813 213.383C329.649 210.327 329.709 207.894 329.709 207.894L333.768 209.617C333.768 209.617 331.955 213.127 331.288 215.535C330.621 217.942 331.521 219.528 330.391 220.827C329.262 222.127 327.007 223.136 326.34 222.984Z" fill="white"/>
</mask>
<g mask="url(#mask8)">
<path d="M327.422 224.993C326.673 224.816 328.204 223.594 328.445 221.828C328.687 220.062 328.061 219.59 328.306 218.524C328.551 217.459 329.184 217.695 330.087 214.289C330.991 210.882 331.031 208.163 331.031 208.163L335.599 210.134C335.599 210.134 333.606 214.038 332.885 216.721C332.164 219.404 333.19 221.186 331.939 222.626C330.687 224.066 328.171 225.17 327.422 224.993Z" fill="#F8E7D5"/>
</g>
<path d="M347.163 170.335C347.163 170.335 345.907 173.715 342.752 173.715C339.597 173.715 341.036 176.552 337.102 178.854C333.168 181.156 333.338 199.275 332.087 202.401C330.836 205.526 329.009 209.631 329.009 209.631L333.338 211.903C333.338 211.903 335.602 203.648 336.47 202.401C337.338 201.153 340.121 181.864 340.121 181.864C340.121 181.864 336.681 184.216 338.401 189.021C340.121 193.826 339.929 196.089 340.121 198.576C340.313 201.063 338.401 204.856 338.401 204.856C338.401 204.856 345.314 207.314 349.237 207.648C353.161 207.983 358.815 206.401 358.815 206.401L357.795 200.441C357.795 200.441 361.392 201.129 362.419 200.441C363.446 199.753 362.07 180.186 360.667 177.528C359.264 174.87 355.697 173.284 354.626 172.677C353.555 172.07 354.229 170.335 352.919 170.335C351.608 170.335 347.163 170.335 347.163 170.335Z" fill="#FFDF6E"/>
<mask id="mask9" mask-type="alpha" maskUnits="userSpaceOnUse" x="329" y="170" width="34" height="42">
<path d="M347.163 170.335C347.163 170.335 345.907 173.715 342.752 173.715C339.597 173.715 341.036 176.552 337.102 178.854C333.168 181.156 333.338 199.275 332.087 202.401C330.836 205.526 329.009 209.631 329.009 209.631L333.338 211.903C333.338 211.903 335.602 203.648 336.47 202.401C337.338 201.153 340.121 181.864 340.121 181.864C340.121 181.864 336.681 184.216 338.401 189.021C340.121 193.826 339.929 196.089 340.121 198.576C340.313 201.063 338.401 204.856 338.401 204.856C338.401 204.856 345.314 207.314 349.237 207.648C353.161 207.983 358.815 206.401 358.815 206.401L357.795 200.441C357.795 200.441 361.392 201.129 362.419 200.441C363.446 199.753 362.07 180.186 360.667 177.528C359.264 174.87 355.697 173.284 354.626 172.677C353.555 172.07 354.229 170.335 352.919 170.335C351.608 170.335 347.163 170.335 347.163 170.335Z" fill="white"/>
</mask>
<g mask="url(#mask9)">
<path d="M339.633 206.735C343.268 206.339 343.848 200.224 344.216 198.222C344.584 196.22 340.978 197.06 341.924 194.284C342.871 191.509 345.632 192.554 347.237 189.362C348.842 186.17 348.534 184.24 348.365 181.474C348.195 178.708 345.918 178.619 346.429 176.177C346.94 173.735 351.784 174.994 350.334 172.061C348.885 169.129 346.398 168.06 341.924 167.064C337.451 166.069 340.451 164.659 332.508 168.095C324.565 171.532 321.343 168.929 317.3 177.718C313.257 186.506 311.282 193.335 317.3 201.154C323.318 208.973 335.998 207.131 339.633 206.735Z" fill="black" fill-opacity="0.0562443"/>
<path d="M360.772 201.183C360.772 201.183 360.001 197.707 359.558 193.356C359.438 192.167 359.541 190.234 359.558 189.172C359.605 186.349 359.448 184.284 359.133 184.12C358.7 183.895 357.933 188.365 357.933 191.586C357.933 194.807 357.584 200.634 357.584 200.634L360.772 201.183Z" fill="black" fill-opacity="0.181253"/>
<path opacity="0.257366" d="M338.069 183.873C338.693 183.995 339.469 183.871 339.469 183.101C339.469 182.33 338.666 181.393 338.069 181.277C337.471 181.16 336.77 181.926 336.77 182.575C336.77 183.224 337.444 183.751 338.069 183.873Z" fill="black" fill-opacity="0.0944577"/>
</g>
<path d="M362.497 191.603C363.252 190.568 362.939 188.011 362.497 183.39C362.343 181.783 362.918 179.75 362.497 177.686C362.129 175.887 360.53 172.346 359.964 170.559C358.347 165.462 357.4 159.989 357.228 159.425C356.725 157.785 354.111 154.786 352.317 154.336C350.522 153.887 348.922 153.771 347.45 154.735C345.979 155.698 346.381 156.887 346.159 158.318C345.938 159.749 348.276 163.24 348.97 164.702C349.665 166.164 349.675 169.776 349.675 169.776C349.675 169.776 352.405 177.382 353.91 180.429C354.763 182.156 356.446 184.299 357.228 185.556C360.283 190.469 361.754 192.621 362.497 191.603Z" fill="#805E40"/>
<mask id="mask10" mask-type="alpha" maskUnits="userSpaceOnUse" x="346" y="154" width="17" height="38">
<path d="M362.497 191.603C363.252 190.568 362.939 188.011 362.497 183.39C362.343 181.783 362.918 179.75 362.497 177.686C362.129 175.887 360.53 172.346 359.964 170.559C358.347 165.462 357.4 159.989 357.228 159.425C356.725 157.785 354.111 154.786 352.317 154.336C350.522 153.887 348.922 153.771 347.45 154.735C345.979 155.698 346.381 156.887 346.159 158.318C345.938 159.749 348.276 163.24 348.97 164.702C349.665 166.164 349.675 169.776 349.675 169.776C349.675 169.776 352.405 177.382 353.91 180.429C354.763 182.156 356.446 184.299 357.228 185.556C360.283 190.469 361.754 192.621 362.497 191.603Z" fill="white"/>
</mask>
<g mask="url(#mask10)">
<path opacity="0.425112" d="M365.944 183.244C366.699 182.208 366.386 179.651 365.944 175.03C365.79 173.423 366.365 171.39 365.944 169.327C365.576 167.527 363.978 163.986 363.411 162.199C361.794 157.102 360.848 151.63 360.675 151.066C360.172 149.425 357.558 146.426 355.764 145.976C353.97 145.527 353.853 145.013 352.381 145.976C350.91 146.94 349.739 148.468 349.518 149.9C349.296 151.331 350.203 154.725 350.898 156.187C351.592 157.649 353.964 156.467 355.764 162.199C357.564 167.931 356.48 169.471 357.985 172.517C359.49 175.564 361.339 175.531 362.12 176.788C365.176 181.701 365.202 184.261 365.944 183.244Z" fill="#937154"/>
</g>
<path d="M347.887 166.854C348.358 167.131 347.957 167.926 348.093 168.456L349 172L347.378 171.234C347.378 171.234 347.777 169.429 347.378 168.808C346.98 168.187 346.081 167.736 345.498 166.381C345.157 165.589 345.05 164.455 345.019 163.65C345.005 163.268 345.447 163.082 345.725 163.345C345.808 163.423 345.917 163.466 346.031 163.466H346.048C346.28 163.466 346.48 163.628 346.534 163.854C346.728 164.662 347.227 166.483 347.849 166.832C347.862 166.839 347.875 166.847 347.887 166.854Z" fill="#FFEDDA"/>
<path d="M345.044 267.537C345.445 268.148 349.232 268.161 352.045 267.537C353.483 267.219 354.009 266.335 355.056 266.105C356.543 265.778 357.036 267.705 357.712 267.537C358.446 267.356 359.286 265.072 358.905 264.49C358.171 263.372 359.985 261.212 355.056 262.296C350.128 263.379 344.44 266.615 345.044 267.537Z" fill="#1B163D"/>
<path d="M333.044 268.537C333.445 269.148 337.232 269.161 340.045 268.537C341.483 268.219 342.009 267.335 343.056 267.105C344.543 266.778 345.036 268.705 345.712 268.537C346.446 268.356 347.286 266.072 346.905 265.49C346.171 264.372 347.985 262.212 343.056 263.296C338.128 264.379 332.44 267.615 333.044 268.537Z" fill="#1B163D"/>
<path d="M344.078 166.22C344.407 167.668 348.345 168.789 348.874 167.288C349.343 165.955 348.349 163.599 348.396 162.146C348.443 160.694 346.699 161.77 346.5 161.515C345.777 160.592 347.007 160.492 346.817 159.773C346.627 159.055 345.347 158.762 344.942 159.22C344.537 159.678 343.75 164.771 344.078 166.22Z" fill="#FFEDDA"/>
<path d="M356.664 271.936C355.316 272.195 356.289 271.638 353.291 270.84C350.293 270.041 346.7 270.462 347.02 269.368C347.34 268.274 351.045 267 354.414 267C357.783 267 360.411 268.198 360.945 269.368C361.478 270.537 358.012 271.676 356.664 271.936Z" fill="black" fill-opacity="0.0578295"/>
<path d="M344.664 271.936C343.316 272.195 344.289 271.638 341.291 270.84C338.293 270.041 334.7 270.462 335.02 269.368C335.34 268.274 339.045 267 342.414 267C345.783 267 348.411 268.198 348.945 269.368C349.478 270.537 346.012 271.676 344.664 271.936Z" fill="black" fill-opacity="0.0578295"/>
<path d="M327.351 232.439C332.015 230.344 336.303 217.746 338.694 209.357C339.846 205.317 344.175 202.941 348.154 204.287C349.434 204.72 350.821 204.788 352.136 204.474C356.039 203.544 359.917 206.123 360.668 210.065C362.223 218.224 364.895 230.437 367.142 231.558C369.056 232.514 365.466 232.223 361.963 231.786C358.392 231.34 354.77 231.354 351.23 232.009L349.553 232.319C346.644 232.858 343.658 232.825 340.761 232.224C336.953 231.434 333.015 231.665 329.269 232.711C326.093 233.597 323.481 234.177 327.351 232.439Z" fill="#F36576"/>
<mask id="mask11" mask-type="alpha" maskUnits="userSpaceOnUse" x="325" y="203" width="43" height="31">
<path d="M327.351 232.439C332.015 230.344 336.303 217.746 338.694 209.357C339.846 205.317 344.175 202.941 348.154 204.287C349.434 204.72 350.821 204.788 352.136 204.474C356.039 203.544 359.917 206.123 360.668 210.065C362.223 218.224 364.895 230.437 367.142 231.558C369.056 232.514 365.466 232.223 361.963 231.786C358.392 231.34 354.77 231.354 351.23 232.009L349.553 232.319C346.644 232.858 343.658 232.825 340.761 232.224C336.953 231.434 333.015 231.665 329.269 232.711C326.093 233.597 323.481 234.177 327.351 232.439Z" fill="white"/>
</mask>
<g mask="url(#mask11)">
<path opacity="0.276897" d="M343.998 203.52C343.998 203.52 348.052 208.474 348.052 210.98C348.052 213.486 346.479 218.18 346.479 218.18C346.479 218.18 347.814 222.174 350.468 224.169C353.122 226.164 359.483 228.86 359.483 228.86L369.536 234.977L356.66 246.476L329.428 238.846V224.998L323.636 210.143C323.636 210.143 325.54 198.782 329.428 197.517C333.317 196.252 343.998 203.52 343.998 203.52Z" fill="black" fill-opacity="0.235705"/>
</g>
<path d="M373.261 159.847L364.985 158.89L359.99 165.531C359.503 166.177 360.243 167.029 360.951 166.638L373.261 159.847Z" fill="#CED6FF"/>
<path d="M383.643 151H379.357C379.16 151 379 151.224 379 151.5C379 151.776 379.16 152 379.357 152H383.643C383.84 152 384 151.776 384 151.5C384 151.224 383.84 151 383.643 151Z" fill="white"/>
<path d="M383.643 152H379.357C379.16 152 379 152.149 379 152.333C379 152.517 379.16 152.666 379.357 152.666H379.75C379.919 153.442 380.651 154 381.5 154C382.349 154 383.081 153.442 383.25 152.666H383.643C383.84 152.666 384 152.517 384 152.333C384 152.149 383.84 152 383.643 152Z" fill="white"/>
<path fill-rule="evenodd" clip-rule="evenodd" d="M377.575 139.432C378.614 138.488 380.032 137.971 381.5 138.001C382.968 137.971 384.386 138.488 385.425 139.432C386.463 140.376 387.032 141.666 386.999 143.001C386.999 144.481 386.119 145.778 385.343 146.921C384.887 147.593 384.449 148.239 384.223 148.86C384.124 149.134 384.066 149.403 384.066 149.667C384.066 149.851 383.902 150 383.699 150H379.301C379.098 150 378.934 149.851 378.934 149.667C378.934 148.804 378.314 147.889 377.657 146.921C376.881 145.778 376.001 144.481 376.001 143.001C375.968 141.666 376.537 140.376 377.575 139.432ZM383.359 149.333C383.594 148.336 384.057 147.395 384.719 146.571C385.479 145.451 386.266 144.292 386.266 143.001C386.31 141.84 385.822 140.714 384.918 139.893C384.015 139.071 382.777 138.628 381.5 138.668C380.223 138.628 378.985 139.071 378.082 139.893C377.178 140.714 376.69 141.84 376.735 143.001C376.735 144.292 377.521 145.451 378.282 146.571C378.943 147.395 379.407 148.336 379.642 149.333H383.359Z" fill="white"/>
<path d="M390.36 142.085C389.927 137.133 385.562 133.47 380.61 133.903C375.659 134.337 371.996 138.702 372.429 143.653" stroke="white" stroke-width="3" stroke-dasharray="1 4"/>
<path d="M269.287 210.055C269.287 210.055 269.947 211.219 270.205 218.693C270.462 226.168 270.119 228.411 270.205 236.653C270.29 244.895 270.119 250.949 270.205 253.305C270.29 255.661 277.411 255.661 277.411 255.661C277.411 255.661 279.452 240.183 280.114 232.858C280.776 225.533 280.971 216.251 280.971 216.251L269.287 210.055Z" fill="#171E52"/>
<mask id="mask12" mask-type="alpha" maskUnits="userSpaceOnUse" x="269" y="210" width="12" height="46">
<path d="M269.287 210.055C269.287 210.055 269.947 211.219 270.205 218.693C270.462 226.168 270.119 228.411 270.205 236.653C270.29 244.895 270.119 250.949 270.205 253.305C270.29 255.661 277.411 255.661 277.411 255.661C277.411 255.661 279.452 240.183 280.114 232.858C280.776 225.533 280.971 216.251 280.971 216.251L269.287 210.055Z" fill="white"/>
</mask>
<g mask="url(#mask12)">
<path opacity="0.0813616" d="M269.747 210.938C268.083 211.047 264.092 209.993 268.912 215.444C273.732 220.895 279.539 224.991 282.028 224.826C284.516 224.662 285.519 218.527 282.028 214.579C278.536 210.631 271.411 210.828 269.747 210.938Z" fill="black"/>
</g>
<path d="M271.702 198.272C271.702 198.272 269 203.977 269 208.876C269 210.74 271.895 213.527 275.729 216.725C277.275 218.014 279.584 219.11 280.974 220.641C285.198 225.295 287.004 231.018 286.757 232.315C286.51 233.613 285.751 234.183 285.055 237.421C284.281 241.024 281.985 254.928 281.985 254.928C281.985 254.928 285.055 256 287.363 256C288.884 256 291.437 247.869 293.69 241.288C294.854 237.886 296.419 234.984 296.709 233.654C297.56 229.751 296.42 220.812 294.917 214.573C293.413 208.335 290.625 207.731 289.735 204.71C288.844 201.689 289.735 197 289.735 197L271.702 198.272Z" fill="#1A2366"/>
<path d="M311.8 150.074C311.092 149.688 311.459 151.769 310.445 153.379C309.431 154.989 308.618 154.931 308.085 155.973C307.551 157.015 308.208 157.271 306.595 160.687C304.982 164.104 303.16 166.349 303.16 166.349L308.085 167.979C308.085 167.979 309.182 163.385 310.445 160.687C311.708 157.99 313.728 157.264 313.728 155.203C313.728 153.143 312.507 150.46 311.8 150.074Z" fill="#FFEDDA"/>
<mask id="mask13" mask-type="alpha" maskUnits="userSpaceOnUse" x="303" y="150" width="11" height="18">
<path d="M311.8 150.074C311.092 149.688 311.459 151.769 310.445 153.379C309.431 154.989 308.618 154.931 308.085 155.973C307.551 157.015 308.208 157.271 306.595 160.687C304.982 164.104 303.16 166.349 303.16 166.349L308.085 167.979C308.085 167.979 309.182 163.385 310.445 160.687C311.708 157.99 313.728 157.264 313.728 155.203C313.728 153.143 312.507 150.46 311.8 150.074Z" fill="white"/>
</mask>
<g mask="url(#mask13)">
<path d="M314.178 149.086C313.375 148.648 313.792 151.009 312.641 152.836C311.49 154.663 310.568 154.596 309.963 155.779C309.357 156.961 310.102 157.251 308.272 161.128C306.442 165.005 304.375 167.552 304.375 167.552L309.963 169.401C309.963 169.401 311.208 164.189 312.641 161.128C314.074 158.067 316.365 157.244 316.365 154.906C316.365 152.568 314.981 149.524 314.178 149.086Z" fill="#F8E7D5"/>
</g>
<path d="M281.846 163.335C283.13 163.567 282.05 164.814 283.595 164.814C285.14 164.814 289.021 165.223 292.541 165.677C296.06 166.132 299.454 167.87 300.363 167.87C301.273 167.87 302.464 165.677 302.464 165.677L307.778 167.87C307.778 167.87 305.728 173.977 304.749 174.931C303.769 175.884 289.88 175.884 289.88 175.884C289.88 175.884 290.423 177.413 289.88 182.33C289.337 187.247 288.334 189.089 288.148 191.576C287.962 194.063 289.213 196.485 289.213 196.485C289.213 196.485 283.121 200.314 279.323 200.649C275.525 200.983 271.138 198.075 271.138 198.075V193.065C271.138 193.065 264.445 193.753 263.451 193.065C262.457 192.377 264.275 173.186 265.633 170.528C266.991 167.87 273.069 166.285 274.106 165.677C275.143 165.07 274.49 163.335 275.759 163.335C277.028 163.335 280.562 163.102 281.846 163.335Z" fill="#8FC3FF"/>
<mask id="mask14" mask-type="alpha" maskUnits="userSpaceOnUse" x="263" y="163" width="45" height="38">
<path d="M281.846 163.335C283.13 163.567 282.05 164.814 283.595 164.814C285.14 164.814 289.021 165.223 292.541 165.677C296.06 166.132 299.454 167.87 300.363 167.87C301.273 167.87 302.464 165.677 302.464 165.677L307.778 167.87C307.778 167.87 305.728 173.977 304.749 174.931C303.769 175.884 289.88 175.884 289.88 175.884C289.88 175.884 290.423 177.413 289.88 182.33C289.337 187.247 288.334 189.089 288.148 191.576C287.962 194.063 289.213 196.485 289.213 196.485C289.213 196.485 283.121 200.314 279.323 200.649C275.525 200.983 271.138 198.075 271.138 198.075V193.065C271.138 193.065 264.445 193.753 263.451 193.065C262.457 192.377 264.275 173.186 265.633 170.528C266.991 167.87 273.069 166.285 274.106 165.677C275.143 165.07 274.49 163.335 275.759 163.335C277.028 163.335 280.562 163.102 281.846 163.335Z" fill="white"/>
</mask>
<g mask="url(#mask14)">
<path d="M277.282 199.735C279.73 199.339 280.12 193.224 280.368 191.222C280.616 189.22 278.188 190.06 278.825 187.284C279.462 184.509 281.322 185.554 282.402 182.362C283.483 179.17 283.276 177.24 283.161 174.474C283.047 171.708 281.514 171.619 281.858 169.177C282.202 166.735 285.463 167.994 284.488 165.061C283.512 162.129 281.837 161.06 278.825 160.064C275.813 159.069 277.833 157.659 272.485 161.095C267.137 164.532 264.968 161.929 262.246 170.718C259.524 179.506 258.194 186.335 262.246 194.154C266.298 201.973 274.835 200.131 277.282 199.735Z" fill="black" fill-opacity="0.0562443"/>
<path d="M268.156 194.183C268.156 194.183 268.903 190.707 269.332 186.356C269.448 185.167 269.348 183.234 269.332 182.172C269.287 179.349 269.438 177.284 269.743 177.12C270.163 176.895 270.905 181.365 270.905 184.586C270.905 187.807 271.243 193.634 271.243 193.634L268.156 194.183Z" fill="black" fill-opacity="0.181253"/>
<path opacity="0.257366" d="M290.134 176.873C289.53 176.995 288.779 176.871 288.779 176.101C288.779 175.33 289.556 174.393 290.134 174.277C290.713 174.16 291.392 174.926 291.392 175.575C291.392 176.224 290.739 176.751 290.134 176.873Z" fill="black" fill-opacity="0.0944577"/>
</g>
<path d="M276.121 160.408C274.152 157.796 273.675 154.084 274.196 152.439C274.716 150.794 277.424 147.788 279.283 147.337C281.141 146.886 282.799 146.77 284.323 147.736C285.848 148.702 285.431 149.894 285.661 151.329C285.89 152.763 287.539 160.504 286.82 161.97C286.101 163.435 282.019 162.816 282.019 162.816C282.019 162.816 278.09 163.019 276.121 160.408Z" fill="#4D341D"/>
<path d="M284.447 258.665C284.16 259.82 278.444 260.961 275.484 260.9C272.524 260.838 270.85 259.79 271.199 258.389C271.547 256.988 269.328 255.005 274.039 255.103C278.75 255.201 284.735 257.51 284.447 258.665Z" fill="#141030"/>
<path d="M276.155 159.452C275.547 159.369 275 159.839 275 160.453V164H281.791C281.791 164 281.422 162.246 281.791 161.642C282.161 161.039 282.996 160.601 283.537 159.285C283.857 158.508 283.956 157.393 283.983 156.61C283.996 156.254 283.58 156.085 283.327 156.335C283.25 156.41 283.147 156.453 283.039 156.453H283.024C282.811 156.453 282.627 156.603 282.58 156.811C282.402 157.587 281.937 159.381 281.355 159.722C280.824 160.034 277.838 159.681 276.155 159.452Z" fill="#FFEDDA"/>
<path d="M292.959 261.311C292.401 262.362 286.579 262.087 283.721 261.311C280.864 260.535 279.494 259.113 280.17 257.838C280.847 256.563 279.174 254.102 283.721 255.337C288.269 256.572 293.517 260.26 292.959 261.311Z" fill="#1B163D"/>
<path d="M285.917 158.452C285.57 159.947 284.846 160.692 284.287 159.142C283.728 157.593 284.56 155.446 284.287 153.871C284.014 152.296 282.822 152.54 283.023 151.798C283.224 151.057 284.576 150.754 285.004 151.227C285.432 151.699 286.265 156.957 285.917 158.452Z" fill="#FFEDDA"/>
<path d="M266.026 261.949C267.278 262.156 266.374 261.711 269.158 261.072C271.942 260.433 275.278 260.769 274.981 259.894C274.684 259.019 271.244 258 268.116 258C264.987 258 262.546 258.958 262.051 259.894C261.556 260.83 264.775 261.741 266.026 261.949Z" fill="black" fill-opacity="0.0578295"/>
<rect opacity="0.660268" x="310" y="127.628" width="36" height="3" rx="1.5" transform="rotate(-1 310 127.628)" fill="white"/>
<rect opacity="0.660268" x="308" y="134.628" width="36" height="3" rx="1.5" transform="rotate(-1 308 134.628)" fill="white"/>
<rect opacity="0.660268" x="305" y="141.628" width="36" height="3" rx="1.5" transform="rotate(-1 305 141.628)" fill="white"/>
<rect opacity="0.660268" x="302" y="148.628" width="36" height="3" rx="1.5" transform="rotate(-1 302 148.628)" fill="white"/>
<rect opacity="0.660268" x="300" y="155.628" width="36" height="3" rx="1.5" transform="rotate(-1 300 155.628)" fill="white"/>
<path opacity="0.673437" fill-rule="evenodd" clip-rule="evenodd" d="M363.839 322.225C411.563 296.743 481.403 275.671 449.9 222.607C418.397 169.542 475.896 -11.7948 373.74 16.9726C329.254 29.5 278.889 -1.44252 229.105 0.388C164.567 2.761 102.548 35.6431 71.524 35.6431C16.5674 35.6431 -36.8943 213.438 35.557 269.158C108.008 324.878 86.411 355.961 164.029 333.262C241.646 310.564 316.114 347.708 363.839 322.225Z" fill="#F3F5F8"/>
<mask id="mask15" mask-type="alpha" maskUnits="userSpaceOnUse" x="0" y="0" width="458" height="341">
<path fill-rule="evenodd" clip-rule="evenodd" d="M363.839 322.225C411.563 296.743 481.403 275.671 449.9 222.607C418.397 169.542 475.896 -11.7948 373.74 16.9726C329.254 29.5 278.889 -1.44252 229.105 0.388C164.567 2.761 102.548 35.6431 71.524 35.6431C16.5674 35.6431 -36.8943 213.438 35.557 269.158C108.008 324.878 86.411 355.961 164.029 333.262C241.646 310.564 316.114 347.708 363.839 322.225Z" fill="white"/>
</mask>
<g mask="url(#mask15)">
<path d="M199.035 200.284L210.672 194.365L226.22 195.766L231.71 199.592L221.136 209.734L199.035 200.284Z" fill="#0D1839"/>
<path d="M198.102 199.886C198.102 199.886 200.435 194.594 215.551 194.178C230.667 193.762 232.833 199.769 232.833 199.769L230.627 201.008C230.627 201.008 225.76 198.43 215.551 198.084C207.645 197.816 201.275 201.112 201.275 201.112L198.102 199.886Z" fill="url(#paint33_linear)"/>
<path d="M198.193 199.528L202.656 233.947C202.656 233.947 207.722 234.749 216.711 234.749C225.699 234.749 228.363 233.947 228.363 233.947L232.805 199.528C232.805 199.528 226.306 201.972 216.711 201.972C207.115 201.972 198.193 199.528 198.193 199.528Z" fill="url(#paint34_linear)"/>
<path d="M208.089 118.073C208.089 118.073 210.362 141.096 211.208 155.405C212.054 169.715 212.67 186.834 212.67 195.56C212.67 197.099 212.67 200.688 212.67 200.688H221.066C221.066 200.688 222.168 189.613 221.066 165.175C219.965 140.736 213.735 118.073 213.735 118.073H208.089Z" fill="url(#paint35_linear)"/>
<mask id="mask16" mask-type="alpha" maskUnits="userSpaceOnUse" x="208" y="118" width="14" height="83">
<path d="M208.089 118.073C208.089 118.073 210.362 141.096 211.208 155.405C212.054 169.715 212.67 186.834 212.67 195.56C212.67 197.099 212.67 200.688 212.67 200.688H221.066C221.066 200.688 222.168 189.613 221.066 165.175C219.965 140.736 213.735 118.073 213.735 118.073H208.089Z" fill="white"/>
</mask>
<g mask="url(#mask16)">
<path opacity="0.176897" d="M214.463 120.982C213.113 117.114 210.74 122.798 211.094 124.374C211.447 125.949 216.062 125.601 215.698 126.488C215.334 127.375 209.796 126.62 209.796 127.539C209.796 128.459 215.698 129.175 215.698 130.157C215.698 131.138 209.444 130.357 209.796 131.472C210.147 132.587 216.978 133.337 216.978 134.215C216.978 135.093 209.546 134.196 209.796 134.991C210.045 135.786 217.919 135.661 217.919 137.207C217.919 138.753 209.558 139.479 209.796 141.162C210.033 142.845 218.352 142.489 218.825 143.615C219.297 144.741 211.986 145.144 211.986 146.381C211.986 147.618 219.061 147.178 218.825 148.566C218.588 149.953 210.773 149.665 211.094 151.607C211.414 153.55 219.809 154.417 220.02 155.808C220.231 157.2 211.8 156.299 211.986 157.497C212.172 158.696 220.733 159.127 220.733 160.402C220.733 161.677 211.986 161.067 211.986 162.601C211.986 164.136 220.546 164.606 220.733 166.528C220.921 168.45 212.471 168.583 212.771 170.662C213.072 172.742 221.673 172.661 221.862 174.34C222.051 176.02 213.824 175.859 213.562 177.7C213.299 179.541 220.733 180.186 220.733 182.257C220.733 184.328 213.562 184.4 213.562 185.999C213.562 187.598 220.941 187.364 220.733 188.665C220.526 189.966 212.771 189.138 212.771 190.949C212.771 192.76 216.96 201.169 220.733 195.88C224.507 190.59 229.322 195.486 227.243 170.662C225.165 145.838 215.812 124.851 214.463 120.982Z" fill="url(#paint36_linear)"/>
</g>
<path d="M194 115.752C194 115.752 216.711 116.633 226.852 115.752C236.993 114.872 252 137 252 137C252 137 239.698 109.829 226.852 111.053C214.006 112.277 194 115.752 194 115.752Z" fill="url(#paint37_linear)"/>
<path d="M217 118.005C217 118.005 223.214 117.812 227.615 128.347C232.015 138.881 234 156 234 156C234 156 231.937 132.428 228.886 125.125C225.836 117.823 217 118.005 217 118.005Z" fill="url(#paint38_linear)"/>
<path d="M217.253 116.836C217.253 116.836 222.897 114.23 231.064 122.208C239.231 130.186 247.747 145.169 247.747 145.169C247.747 145.169 236.638 124.276 230.976 118.746C225.315 113.216 217.253 116.836 217.253 116.836Z" fill="url(#paint39_linear)"/>
<path d="M218.15 120.246C218.15 120.246 223.132 117.95 230.28 124.854C237.429 131.758 244.85 144.758 244.85 144.758C244.85 144.758 235.176 126.626 230.22 121.84C225.265 117.054 218.15 120.246 218.15 120.246Z" fill="url(#paint40_linear)"/>
<path d="M207 114.739C207 114.739 217.046 106.921 220.062 108.173C223.078 109.426 225 121.829 225 121.829V157C225 157 223.196 127.425 220.062 119.49C216.928 111.556 207 114.739 207 114.739Z" fill="url(#paint41_linear)"/>
<path d="M200 85.2227C200 85.2227 202.253 83.5909 204.506 84.5141C205.299 84.8389 206.462 90.076 206.698 97.6176C206.882 103.48 208.98 121 208.98 121C208.98 121 211 101.515 211 94.3656C211 87.2161 208.477 79.0002 205.5 79.0002C202.523 79.0002 200 85.2227 200 85.2227Z" fill="url(#paint42_linear)"/>
<path d="M209 117.006C209 117.006 191.478 103.29 183.309 105.15C175.14 107.011 170.249 142 170.249 142C170.249 142 168.383 104.827 180.499 99.9006C192.615 94.9739 209 117.006 209 117.006Z" fill="url(#paint43_linear)"/>
<path d="M209.492 114.331C209.492 114.331 209.299 119.561 211.076 129.117C212.854 138.674 215.507 146.67 215.507 146.67C215.507 146.67 215.181 135.188 213.733 127.403C212.285 119.618 209.492 114.331 209.492 114.331Z" fill="url(#paint44_linear)"/>
<path d="M209 115C209 115 209.912 121.873 214.641 133.988C219.369 146.104 225 156 225 156C225 156 221.919 141.069 218.067 131.199C214.216 121.33 209 115 209 115Z" fill="url(#paint45_linear)"/>
<path d="M210 111C210 111 224.824 100.729 236.381 99.077C247.937 97.4252 261 102.759 261 102.759C261 102.759 250.834 89.9714 236.381 93.9403C221.927 97.9092 210 111 210 111Z" fill="url(#paint46_linear)"/>
<path d="M209.106 118.005C209.106 118.005 210.238 125.842 209.583 140.319C208.929 154.796 206.893 166.995 206.893 166.995C206.893 166.995 205.368 149.736 205.901 137.942C206.434 126.149 209.106 118.005 209.106 118.005Z" fill="url(#paint47_linear)"/>
<path d="M207 109.708C207 109.708 198.339 111.983 195.99 117.397C195.016 119.64 193.345 125.754 193.117 134.897C192.978 140.461 194.184 155 194.184 155C194.184 155 189.913 136.912 191.371 124.473C192.829 112.035 199.81 107 199.81 107L207 109.708Z" fill="url(#paint48_linear)"/>
<path d="M209 120.063C209 120.063 213.756 103.633 223.884 102.752C234.013 101.872 249 124 249 124C249 124 236.714 96.829 223.884 98.053C211.055 99.277 209 120.063 209 120.063Z" fill="url(#paint49_linear)"/>
<path d="M208.73 115C210.104 115 205.823 119.913 205.005 124.554C204.187 129.195 202.904 155 202.904 155C202.904 155 200.134 137.328 201.394 126.584C202.655 115.841 207.357 115 208.73 115Z" fill="url(#paint50_linear)"/>
<path d="M209 121C209 121 203.912 92.5938 199.909 88.1981C195.905 83.8024 187 88.1981 187 88.1981C187 88.1981 192.456 87.6935 195.419 89.7997C198.381 91.906 209 121 209 121Z" fill="url(#paint51_linear)"/>
<path d="M208 115C208 115 198.331 120.88 191.826 130.517C185.321 140.154 181 155 181 155C181 155 182.269 138.798 189.299 128.384C196.328 117.97 208 115 208 115Z" fill="url(#paint52_linear)"/>
<path d="M204.945 112.569C205.63 114.245 199.685 113.07 199.685 122.833C199.685 132.595 202.211 159 202.211 159C202.211 159 195.654 128.996 196.019 118.651C196.385 108.305 204.26 110.893 204.945 112.569Z" fill="url(#paint53_linear)"/>
<path d="M210 115.493C210 115.493 204.557 116.228 203.107 119.848C201.656 123.467 199.527 154 199.527 154C199.527 154 198.134 128.377 200.422 118.789C202.709 109.201 210 115.493 210 115.493Z" fill="url(#paint54_linear)"/>
<path d="M202 109C202 109 193.244 112.825 191.642 118.313C190.039 123.802 189.292 157 189.292 157C189.292 157 185.537 133.921 186.065 123.224C186.593 112.527 192.651 109 192.651 109H202Z" fill="url(#paint55_linear)"/>
<path d="M200.502 110.886C200.502 110.886 191.051 109.49 186.783 113.295C182.515 117.101 164.289 144.859 164.289 144.859C164.289 144.859 173.335 123.296 179.451 114.505C185.567 105.713 192.574 105.932 192.574 105.932L200.502 110.886Z" fill="url(#paint56_linear)"/>
<path d="M207.715 121.951C206.802 122.457 209.594 107.463 197.357 101.087C185.121 94.7116 169.753 96.1155 169.753 96.1155C169.753 96.1155 193.362 93.2028 201.048 99.0415C208.733 104.88 208.627 121.445 207.715 121.951Z" fill="url(#paint57_linear)"/>
<path d="M208.507 116.826C209.417 117.33 205.786 98.0754 218.023 91.6407C230.26 85.2061 244.293 87.4984 244.293 87.4984C244.293 87.4984 222.039 83.7221 214.346 89.6027C206.654 95.4833 207.598 116.322 208.507 116.826Z" fill="url(#paint58_linear)"/>
<path d="M218.138 113.271C218.138 113.271 234.105 108.984 239.041 110.166C243.976 111.347 260.711 124.626 260.711 124.626C260.711 124.626 249.737 110.215 241.288 105.887C232.838 101.558 218.161 108.325 218.161 108.325L218.138 113.271Z" fill="url(#paint59_linear)"/>
<path d="M207 114.324C207 115.368 195.24 105.656 183.731 113.268C172.222 120.879 166 135 166 135C166 135 174.898 112.939 183.731 109.048C192.564 105.157 207 113.28 207 114.324Z" fill="url(#paint60_linear)"/>
<path d="M208 118C208 118 220.179 89.8717 229.466 88.7922C238.754 87.7128 249 113.235 249 113.235C249 113.235 240.078 80.5654 228.313 82.0662C216.549 83.5669 208 118 208 118Z" fill="url(#paint61_linear)"/>
<path d="M208 115.005C208 115.005 214.579 114.797 219.239 126.163C223.898 137.53 226 156 226 156C226 156 223.815 130.567 220.585 122.688C217.356 114.809 208 115.005 208 115.005Z" fill="url(#paint62_linear)"/>
<path d="M209 113.005C209 113.005 215.579 112.797 220.239 124.163C224.898 135.53 227 154 227 154C227 154 224.815 128.567 221.585 120.688C218.356 112.809 209 113.005 209 113.005Z" fill="url(#paint63_linear)"/>
<path d="M447.594 268.98C450.941 268.419 450.93 263.604 447.58 263.06L231.869 228L88 249.068L152.873 268.881L302.576 293.267L447.594 268.98Z" fill="#F2F2F2"/>
<path d="M289.172 296.766C295.577 297.984 302.158 297.937 308.545 296.629L446.663 268.337C447.297 268.207 447.753 267.649 447.753 267.001V267.001C447.753 263.594 444.664 261.022 441.313 261.638L311.096 285.585C303.015 287.071 294.731 287.058 286.655 285.547L88.3678 248.443C87.1372 248.213 86 249.157 86 250.409V256.478C86 257.439 86.6828 258.264 87.6264 258.443L289.172 296.766Z" fill="url(#paint64_linear)"/>
<path d="M349.5 286C350.328 286 351 285.105 351 284C351 282.895 350.328 282 349.5 282C348.672 282 348 282.895 348 284C348 285.105 348.672 286 349.5 286Z" fill="black" fill-opacity="0.197435"/>
<path d="M215.263 267.888L260.677 260.843L204.355 251L160 256.753L215.263 267.888Z" fill="black" fill-opacity="0.116225"/>
<path d="M340.514 267.898L399.368 258.604L240.596 233L182 241.312L340.514 267.898Z" fill="black" fill-opacity="0.153448"/>
<path d="M374.128 277.138C373.666 277.236 373.336 277.644 373.336 278.116V279.479C373.336 280.106 373.907 280.579 374.523 280.461L383.372 278.778C383.843 278.688 384.185 278.276 384.185 277.795V276.235C384.185 275.599 383.599 275.124 382.977 275.256L374.128 277.138Z" fill="#7A7A7A"/>
<mask id="mask17" mask-type="alpha" maskUnits="userSpaceOnUse" x="373" y="275" width="12" height="6">
<path d="M374.128 277.138C373.666 277.236 373.336 277.644 373.336 278.116V279.479C373.336 280.106 373.907 280.579 374.523 280.461L383.372 278.778C383.843 278.688 384.185 278.276 384.185 277.795V276.235C384.185 275.599 383.599 275.124 382.977 275.256L374.128 277.138Z" fill="white"/>
</mask>
<g mask="url(#mask17)">
<path d="M384.174 278.238L374 277.31L376.869 273H384.719L384.174 278.238Z" fill="#2F2F2F"/>
</g>
<path d="M387.188 274.43C386.741 274.539 386.426 274.94 386.426 275.401V276.933C386.426 277.57 387.013 278.044 387.635 277.911L396.456 276.024C396.917 275.925 397.247 275.518 397.247 275.046V273.244C397.247 272.596 396.639 272.119 396.009 272.273L387.188 274.43Z" fill="#7A7A7A"/>
<mask id="mask18" mask-type="alpha" maskUnits="userSpaceOnUse" x="386" y="272" width="12" height="6">
<path d="M387.188 274.43C386.741 274.539 386.426 274.94 386.426 275.401V276.933C386.426 277.57 387.013 278.044 387.635 277.911L396.456 276.024C396.917 275.925 397.247 275.518 397.247 275.046V273.244C397.247 272.596 396.639 272.119 396.009 272.273L387.188 274.43Z" fill="white"/>
</mask>
<g mask="url(#mask18)">
<path d="M397.174 275.238L387 274.31L389.869 270H397.719L397.174 275.238Z" fill="#2F2F2F"/>
</g>
<path d="M400.046 272.678C400.046 272.202 400.382 271.791 400.848 271.697L423.656 267.103C424.275 266.979 424.854 267.452 424.854 268.084V269.017C424.854 269.488 424.525 269.896 424.064 269.995L401.257 274.913C400.634 275.048 400.046 274.573 400.046 273.936V272.678Z" fill="#7A7A7A"/>
<mask id="mask19" mask-type="alpha" maskUnits="userSpaceOnUse" x="400" y="267" width="25" height="8">
<path d="M400.046 272.678C400.046 272.202 400.382 271.791 400.848 271.697L423.656 267.103C424.275 266.979 424.854 267.452 424.854 268.084V269.017C424.854 269.488 424.525 269.896 424.064 269.995L401.257 274.913C400.634 275.048 400.046 274.573 400.046 273.936V272.678Z" fill="white"/>
</mask>
<g mask="url(#mask19)">
<path d="M425.123 270.238L414 269.31L417.137 265H425.719L425.123 270.238Z" fill="#2F2F2F"/>
</g>
<path d="M353.663 281.856C353.663 281.379 354 280.969 354.468 280.876L370.092 277.76C370.711 277.637 371.288 278.11 371.288 278.741V280.081C371.288 280.555 370.955 280.964 370.491 281.06L354.866 284.301C354.245 284.429 353.663 283.955 353.663 283.321V281.856Z" fill="#7A7A7A"/>
<mask id="mask20" mask-type="alpha" maskUnits="userSpaceOnUse" x="353" y="277" width="19" height="8">
<path d="M353.663 281.856C353.663 281.379 354 280.969 354.468 280.876L370.092 277.76C370.711 277.637 371.288 278.11 371.288 278.741V280.081C371.288 280.555 370.955 280.964 370.491 281.06L354.866 284.301C354.245 284.429 353.663 283.955 353.663 283.321V281.856Z" fill="white"/>
</mask>
<g mask="url(#mask20)">
<path d="M371.532 280.713L361.357 279.786L364.226 275.476H372.076L371.532 280.713Z" fill="#2F2F2F"/>
</g>
<path d="M448.722 262.963C450.837 263.299 452.84 261.909 453.268 259.811L491.007 74.5973C492.04 69.5283 488.063 64.8266 482.893 65.0047L281.3 71.9527C277.733 72.0756 274.68 74.5455 273.814 78.0073L236 229.229L448.722 262.963Z" fill="url(#paint65_linear)"/>
<path d="M283.269 81.3369L477.586 77L444.465 251.16L248 219.099L283.269 81.3369Z" fill="white"/>
<path d="M301.758 108.669L366.928 107.669L345.173 200.131L281.755 192.085L301.758 108.669Z" fill="#593DFF"/>
</g>
<path d="M355.057 209.539C355.057 209.539 361 212.179 361 217.22C361 219.138 358.105 222.005 354.271 225.296C352.725 226.623 350.416 227.751 349.026 229.326C344.802 234.115 339.973 238.261 340.265 241.637C340.558 245.013 341.942 247.24 342.637 250.571C343.411 254.279 344.774 267.837 344.774 267.837C344.774 267.837 344.945 265.709 342.637 265.709C341.116 265.709 338.563 257.342 336.31 250.571C335.146 247.071 333.581 244.084 333.291 242.716C332.44 238.7 333.58 229.501 335.083 223.082C336.587 216.663 339.375 216.042 340.265 212.933C341.156 209.825 340.265 205 340.265 205L355.057 209.539Z" fill="#ECD0B2"/>
<mask id="mask21" mask-type="alpha" maskUnits="userSpaceOnUse" x="333" y="205" width="28" height="63">
<path d="M355.057 209.539C355.057 209.539 361 212.179 361 217.22C361 219.138 358.105 222.005 354.271 225.296C352.725 226.623 350.416 227.751 349.026 229.326C344.802 234.115 339.973 238.261 340.265 241.637C340.558 245.013 341.942 247.24 342.637 250.571C343.411 254.279 344.774 267.837 344.774 267.837C344.774 267.837 344.945 265.709 342.637 265.709C341.116 265.709 338.563 257.342 336.31 250.571C335.146 247.071 333.581 244.084 333.291 242.716C332.44 238.7 333.58 229.501 335.083 223.082C336.587 216.663 339.375 216.042 340.265 212.933C341.156 209.825 340.265 205 340.265 205L355.057 209.539Z" fill="white"/>
</mask>
<g mask="url(#mask21)">
<path opacity="0.264174" d="M342.188 232.195C343.978 232.461 344.253 234.927 342.567 235.582V235.582C342.217 235.718 341.833 235.738 341.47 235.64L339.202 235.029C338.525 234.846 337.813 234.842 337.135 235.016L335.701 235.383C334.763 235.624 333.78 235.203 333.306 234.359V234.359C332.436 232.81 333.727 230.936 335.485 231.198L342.188 232.195Z" fill="black" fill-opacity="0.156788"/>
</g>
<path d="M358 218.055C358 218.055 357.57 219.209 357.403 226.623C357.235 234.037 356.535 233.412 356.479 241.587C356.424 249.762 355.919 259.916 355.864 262.252C355.808 264.589 352.71 263.289 352.71 263.289C352.71 263.289 350.822 247.937 350.392 240.672C349.961 233.407 350.392 224.2 350.392 224.2L358 218.055Z" fill="#E8CFB4"/>
<mask id="mask22" mask-type="alpha" maskUnits="userSpaceOnUse" x="350" y="218" width="9" height="46">
<path d="M358 218.055C358 218.055 357.57 219.209 357.403 226.623C357.235 234.037 356.535 233.412 356.479 241.587C356.424 249.762 355.919 259.916 355.864 262.252C355.808 264.589 352.71 263.289 352.71 263.289C352.71 263.289 350.822 247.937 350.392 240.672C349.961 233.407 350.392 224.2 350.392 224.2L358 218.055Z" fill="white"/>
</mask>
<g mask="url(#mask22)">
<path opacity="0.0813616" d="M360.912 221.922C362.525 222.031 366.395 220.985 361.721 226.391C357.048 231.798 351.416 235.86 349.003 235.698C346.59 235.535 345.618 229.45 349.003 225.533C352.388 221.617 359.298 221.813 360.912 221.922Z" fill="black"/>
</g>
<path d="M326.339 222.984C325.673 222.832 327.05 221.725 327.281 220.143C327.511 218.561 326.957 218.144 327.185 217.189C327.413 216.233 327.976 216.439 328.812 213.383C329.648 210.327 329.708 207.894 329.708 207.894L333.767 209.617C333.767 209.617 331.954 213.127 331.287 215.535C330.62 217.942 331.52 219.528 330.39 220.827C329.261 222.127 327.006 223.136 326.339 222.984Z" fill="#FFEDDA"/>
<mask id="mask23" mask-type="alpha" maskUnits="userSpaceOnUse" x="326" y="207" width="8" height="16">
<path d="M326.339 222.984C325.673 222.832 327.05 221.725 327.281 220.143C327.511 218.561 326.957 218.144 327.185 217.189C327.413 216.233 327.976 216.439 328.812 213.383C329.648 210.327 329.708 207.894 329.708 207.894L333.767 209.617C333.767 209.617 331.954 213.127 331.287 215.535C330.62 217.942 331.52 219.528 330.39 220.827C329.261 222.127 327.006 223.136 326.339 222.984Z" fill="white"/>
</mask>
<g mask="url(#mask23)">
<path d="M327.421 224.993C326.672 224.816 328.203 223.594 328.444 221.828C328.686 220.062 328.06 219.59 328.305 218.524C328.55 217.459 329.183 217.695 330.086 214.289C330.99 210.882 331.03 208.163 331.03 208.163L335.598 210.134C335.598 210.134 333.605 214.038 332.884 216.721C332.163 219.404 333.189 221.186 331.938 222.626C330.686 224.066 328.17 225.17 327.421 224.993Z" fill="#F8E7D5"/>
</g>
<path d="M347.163 170.335C347.163 170.335 345.907 173.715 342.752 173.715C339.597 173.715 341.036 176.552 337.102 178.854C333.168 181.156 333.338 199.275 332.087 202.401C330.836 205.526 329.009 209.631 329.009 209.631L333.338 211.903C333.338 211.903 335.602 203.648 336.47 202.401C337.338 201.153 340.121 181.864 340.121 181.864C340.121 181.864 336.681 184.216 338.401 189.021C340.121 193.826 339.929 196.089 340.121 198.576C340.313 201.063 338.401 204.856 338.401 204.856C338.401 204.856 345.314 207.314 349.237 207.648C353.161 207.983 358.815 206.401 358.815 206.401L357.795 200.441C357.795 200.441 361.392 201.129 362.419 200.441C363.446 199.753 362.07 180.186 360.667 177.528C359.264 174.87 355.697 173.284 354.626 172.677C353.555 172.07 354.229 170.335 352.919 170.335C351.608 170.335 347.163 170.335 347.163 170.335Z" fill="#FFDF6E"/>
<mask id="mask24" mask-type="alpha" maskUnits="userSpaceOnUse" x="329" y="170" width="34" height="42">
<path d="M347.163 170.335C347.163 170.335 345.907 173.715 342.752 173.715C339.597 173.715 341.036 176.552 337.102 178.854C333.168 181.156 333.338 199.275 332.087 202.401C330.836 205.526 329.009 209.631 329.009 209.631L333.338 211.903C333.338 211.903 335.602 203.648 336.47 202.401C337.338 201.153 340.121 181.864 340.121 181.864C340.121 181.864 336.681 184.216 338.401 189.021C340.121 193.826 339.929 196.089 340.121 198.576C340.313 201.063 338.401 204.856 338.401 204.856C338.401 204.856 345.314 207.314 349.237 207.648C353.161 207.983 358.815 206.401 358.815 206.401L357.795 200.441C357.795 200.441 361.392 201.129 362.419 200.441C363.446 199.753 362.07 180.186 360.667 177.528C359.264 174.87 355.697 173.284 354.626 172.677C353.555 172.07 354.229 170.335 352.919 170.335C351.608 170.335 347.163 170.335 347.163 170.335Z" fill="white"/>
</mask>
<g mask="url(#mask24)">
<path d="M339.633 206.735C343.268 206.339 343.848 200.223 344.216 198.222C344.584 196.22 340.978 197.06 341.924 194.284C342.871 191.509 345.632 192.553 347.237 189.362C348.842 186.17 348.534 184.24 348.365 181.474C348.195 178.708 345.918 178.619 346.429 176.177C346.94 173.734 351.784 174.993 350.334 172.061C348.885 169.129 346.398 168.059 341.924 167.064C337.451 166.069 340.451 164.658 332.508 168.095C324.565 171.531 321.343 168.929 317.3 177.717C313.257 186.506 311.282 193.335 317.3 201.154C323.318 208.973 335.998 207.131 339.633 206.735Z" fill="black" fill-opacity="0.0562443"/>
<path d="M360.772 201.183C360.772 201.183 360.001 197.707 359.558 193.356C359.438 192.167 359.541 190.234 359.558 189.172C359.605 186.349 359.448 184.284 359.133 184.12C358.7 183.895 357.933 188.365 357.933 191.586C357.933 194.807 357.584 200.634 357.584 200.634L360.772 201.183Z" fill="black" fill-opacity="0.181253"/>
<path opacity="0.257366" d="M338.069 183.873C338.693 183.995 339.469 183.871 339.469 183.101C339.469 182.33 338.666 181.393 338.069 181.277C337.471 181.16 336.77 181.926 336.77 182.575C336.77 183.224 337.444 183.751 338.069 183.873Z" fill="black" fill-opacity="0.0944577"/>
</g>
<path d="M362.497 191.603C363.252 190.568 362.939 188.011 362.497 183.39C362.343 181.783 362.918 179.75 362.497 177.686C362.129 175.887 360.53 172.346 359.964 170.559C358.347 165.462 357.4 159.989 357.228 159.425C356.725 157.785 354.111 154.786 352.317 154.336C350.522 153.887 348.922 153.771 347.45 154.735C345.979 155.698 346.381 156.887 346.159 158.318C345.938 159.749 348.276 163.24 348.97 164.702C349.665 166.164 349.675 169.776 349.675 169.776C349.675 169.776 352.405 177.382 353.91 180.429C354.763 182.156 356.446 184.299 357.228 185.556C360.283 190.469 361.754 192.621 362.497 191.603Z" fill="#805E40"/>
<mask id="mask25" mask-type="alpha" maskUnits="userSpaceOnUse" x="346" y="154" width="17" height="38">
<path d="M362.497 191.603C363.252 190.568 362.939 188.011 362.497 183.39C362.343 181.783 362.918 179.75 362.497 177.686C362.129 175.887 360.53 172.346 359.964 170.559C358.347 165.462 357.4 159.989 357.228 159.425C356.725 157.785 354.111 154.786 352.317 154.336C350.522 153.887 348.922 153.771 347.45 154.735C345.979 155.698 346.381 156.887 346.159 158.318C345.938 159.749 348.276 163.24 348.97 164.702C349.665 166.164 349.675 169.776 349.675 169.776C349.675 169.776 352.405 177.382 353.91 180.429C354.763 182.156 356.446 184.299 357.228 185.556C360.283 190.469 361.754 192.621 362.497 191.603Z" fill="white"/>
</mask>
<g mask="url(#mask25)">
<path opacity="0.425112" d="M365.943 183.244C366.698 182.208 366.385 179.651 365.943 175.03C365.789 173.423 366.365 171.39 365.943 169.327C365.575 167.527 363.977 163.986 363.41 162.199C361.793 157.102 360.847 151.63 360.674 151.066C360.171 149.425 357.557 146.426 355.763 145.976C353.969 145.527 353.852 145.013 352.38 145.976C350.909 146.94 349.738 148.468 349.517 149.9C349.295 151.331 350.202 154.725 350.897 156.187C351.591 157.649 353.963 156.467 355.763 162.199C357.563 167.931 356.48 169.471 357.984 172.517C359.489 175.564 361.338 175.531 362.119 176.788C365.175 181.701 365.201 184.261 365.943 183.244Z" fill="#937154"/>
</g>
<path d="M347.887 166.854C348.358 167.131 347.957 167.926 348.093 168.456L349 172L347.378 171.234C347.378 171.234 347.777 169.429 347.378 168.808C346.98 168.187 346.081 167.736 345.498 166.381C345.157 165.589 345.05 164.455 345.019 163.65C345.005 163.268 345.447 163.082 345.725 163.345V163.345C345.808 163.423 345.917 163.466 346.031 163.466H346.048C346.28 163.466 346.48 163.628 346.534 163.854C346.728 164.662 347.227 166.483 347.849 166.832C347.862 166.839 347.875 166.847 347.887 166.854Z" fill="#FFEDDA"/>
<path d="M345.044 267.537C345.445 268.148 349.232 268.161 352.045 267.537C353.483 267.219 354.009 266.335 355.056 266.105C356.543 265.778 357.036 267.705 357.712 267.537C358.446 267.356 359.286 265.072 358.905 264.49C358.171 263.372 359.985 261.212 355.056 262.296C350.128 263.379 344.44 266.615 345.044 267.537Z" fill="#1B163D"/>
<path d="M333.044 268.537C333.445 269.148 337.232 269.161 340.045 268.537C341.483 268.219 342.009 267.335 343.056 267.105C344.543 266.778 345.036 268.705 345.712 268.537C346.446 268.356 347.286 266.072 346.905 265.49C346.171 264.372 347.985 262.212 343.056 263.296C338.128 264.379 332.44 267.615 333.044 268.537Z" fill="#1B163D"/>
<path d="M344.078 166.22C344.407 167.668 348.345 168.789 348.874 167.288C349.343 165.955 348.349 163.599 348.396 162.146C348.443 160.694 346.699 161.77 346.5 161.515C345.777 160.592 347.007 160.492 346.817 159.773C346.627 159.055 345.347 158.762 344.942 159.22C344.537 159.678 343.75 164.771 344.078 166.22Z" fill="#FFEDDA"/>
<path d="M356.664 271.936C355.316 272.195 356.289 271.638 353.291 270.84C350.293 270.041 346.7 270.462 347.02 269.368C347.34 268.274 351.045 267 354.414 267C357.783 267 360.411 268.198 360.945 269.368C361.478 270.537 358.012 271.676 356.664 271.936Z" fill="black" fill-opacity="0.0578295"/>
<path d="M344.664 271.936C343.316 272.195 344.289 271.638 341.291 270.84C338.293 270.041 334.7 270.462 335.02 269.368C335.34 268.274 339.045 267 342.414 267C345.783 267 348.411 268.198 348.945 269.368C349.478 270.537 346.012 271.676 344.664 271.936Z" fill="black" fill-opacity="0.0578295"/>
<path d="M327.351 232.439C332.015 230.344 336.303 217.746 338.694 209.357C339.846 205.317 344.175 202.941 348.154 204.287V204.287C349.434 204.72 350.821 204.788 352.136 204.474V204.474C356.039 203.544 359.917 206.123 360.668 210.065C362.223 218.224 364.895 230.437 367.142 231.558C369.056 232.514 365.466 232.223 361.963 231.786C358.392 231.34 354.77 231.354 351.23 232.009L349.553 232.319C346.644 232.858 343.658 232.825 340.761 232.224V232.224C336.953 231.434 333.015 231.665 329.269 232.711C326.093 233.597 323.481 234.177 327.351 232.439Z" fill="#F36576"/>
<mask id="mask26" mask-type="alpha" maskUnits="userSpaceOnUse" x="325" y="203" width="43" height="31">
<path d="M327.351 232.439C332.015 230.344 336.303 217.746 338.694 209.357C339.846 205.317 344.175 202.941 348.154 204.287V204.287C349.434 204.72 350.821 204.788 352.136 204.474V204.474C356.039 203.544 359.917 206.123 360.668 210.065C362.223 218.224 364.895 230.437 367.142 231.558C369.056 232.514 365.466 232.223 361.963 231.786C358.392 231.34 354.77 231.354 351.23 232.009L349.553 232.319C346.644 232.858 343.658 232.825 340.761 232.224V232.224C336.953 231.434 333.015 231.665 329.269 232.711C326.093 233.597 323.481 234.177 327.351 232.439Z" fill="white"/>
</mask>
<g mask="url(#mask26)">
<path opacity="0.276897" d="M343.997 203.52C343.997 203.52 348.051 208.474 348.051 210.98C348.051 213.486 346.479 218.18 346.479 218.18C346.479 218.18 347.813 222.174 350.467 224.169C353.121 226.164 359.482 228.86 359.482 228.86L369.535 234.977L356.659 246.476L329.427 238.846V224.998L323.635 210.143C323.635 210.143 325.539 198.782 329.427 197.517C333.316 196.252 343.997 203.52 343.997 203.52Z" fill="black" fill-opacity="0.235705"/>
</g>
<path d="M373.261 159.847L364.985 158.89L359.99 165.531C359.503 166.177 360.243 167.029 360.951 166.638L373.261 159.847Z" fill="#CED6FF"/>
<path d="M383.643 151H379.357C379.16 151 379 151.224 379 151.5C379 151.776 379.16 152 379.357 152H383.643C383.84 152 384 151.776 384 151.5C384 151.224 383.84 151 383.643 151Z" fill="white"/>
<path d="M383.643 152H379.357C379.16 152 379 152.149 379 152.333C379 152.517 379.16 152.666 379.357 152.666H379.75C379.919 153.442 380.651 154 381.5 154C382.349 154 383.081 153.442 383.25 152.666H383.643C383.84 152.666 384 152.517 384 152.333C384 152.149 383.84 152 383.643 152Z" fill="white"/>
<path fill-rule="evenodd" clip-rule="evenodd" d="M377.576 139.432C378.614 138.488 380.032 137.971 381.5 138.001C382.969 137.971 384.387 138.488 385.425 139.432C386.463 140.377 387.033 141.666 386.999 143.001C386.999 144.481 386.12 145.778 385.343 146.922C384.687 147.889 384.067 148.804 384.067 149.667C384.067 149.851 383.903 150 383.7 150H379.301C379.098 150 378.934 149.851 378.934 149.667C378.934 148.804 378.314 147.889 377.658 146.922C376.881 145.778 376.001 144.481 376.001 143.001C375.968 141.666 376.538 140.377 377.576 139.432ZM383.359 149.333C383.593 148.336 384.057 147.395 384.718 146.571C385.479 145.451 386.265 144.292 386.265 143.001C386.31 141.84 385.822 140.714 384.918 139.893C384.015 139.071 382.777 138.628 381.5 138.668C380.223 138.628 378.985 139.071 378.081 139.893C377.178 140.714 376.691 141.84 376.735 143.001C376.735 144.292 377.521 145.451 378.282 146.571C378.943 147.395 379.407 148.336 379.642 149.333H383.359Z" fill="white"/>
<path d="M390.36 142.085C389.927 137.133 385.562 133.47 380.61 133.903C375.659 134.337 371.996 138.702 372.429 143.653" stroke="white" stroke-width="3" stroke-dasharray="1 4"/>
<path d="M269.287 210.055C269.287 210.055 269.947 211.219 270.205 218.693C270.462 226.168 270.119 228.411 270.205 236.653C270.29 244.895 270.119 250.949 270.205 253.305C270.29 255.661 277.411 255.661 277.411 255.661C277.411 255.661 279.452 240.183 280.114 232.858C280.776 225.533 280.971 216.251 280.971 216.251L269.287 210.055Z" fill="#171E52"/>
<mask id="mask27" mask-type="alpha" maskUnits="userSpaceOnUse" x="269" y="210" width="12" height="46">
<path d="M269.287 210.055C269.287 210.055 269.947 211.219 270.205 218.693C270.462 226.168 270.119 228.411 270.205 236.653C270.29 244.895 270.119 250.949 270.205 253.305C270.29 255.661 277.411 255.661 277.411 255.661C277.411 255.661 279.452 240.183 280.114 232.858C280.776 225.533 280.971 216.251 280.971 216.251L269.287 210.055Z" fill="white"/>
</mask>
<g mask="url(#mask27)">
<path opacity="0.0813616" d="M269.747 210.938C268.083 211.047 264.092 209.993 268.912 215.444C273.732 220.895 279.539 224.991 282.028 224.826C284.516 224.662 285.519 218.527 282.028 214.579C278.536 210.631 271.411 210.828 269.747 210.938Z" fill="black"/>
</g>
<path d="M271.702 198.272C271.702 198.272 269 203.977 269 208.876C269 210.74 271.895 213.527 275.729 216.725C277.275 218.014 279.584 219.11 280.974 220.641C285.198 225.295 287.004 231.018 286.757 232.315C286.51 233.613 285.751 234.183 285.055 237.421C284.281 241.024 281.985 254.928 281.985 254.928C281.985 254.928 285.055 256 287.363 256C288.884 256 291.437 247.869 293.69 241.288C294.854 237.886 296.419 234.984 296.709 233.654C297.56 229.751 296.42 220.812 294.917 214.573C293.413 208.335 290.625 207.731 289.735 204.71C288.844 201.689 289.735 197 289.735 197L271.702 198.272Z" fill="#1A2366"/>
<path d="M311.8 150.074C311.092 149.688 311.459 151.769 310.445 153.379C309.431 154.989 308.618 154.931 308.085 155.973C307.551 157.015 308.208 157.271 306.595 160.687C304.982 164.104 303.16 166.349 303.16 166.349L308.085 167.979C308.085 167.979 309.182 163.385 310.445 160.687C311.708 157.99 313.728 157.264 313.728 155.203C313.728 153.143 312.507 150.46 311.8 150.074Z" fill="#FFEDDA"/>
<mask id="mask28" mask-type="alpha" maskUnits="userSpaceOnUse" x="303" y="150" width="11" height="18">
<path d="M311.8 150.074C311.092 149.688 311.459 151.769 310.445 153.379C309.431 154.989 308.618 154.931 308.085 155.973C307.551 157.015 308.208 157.271 306.595 160.687C304.982 164.104 303.16 166.349 303.16 166.349L308.085 167.979C308.085 167.979 309.182 163.385 310.445 160.687C311.708 157.99 313.728 157.264 313.728 155.203C313.728 153.143 312.507 150.46 311.8 150.074Z" fill="white"/>
</mask>
<g mask="url(#mask28)">
<path d="M314.178 149.086C313.375 148.648 313.792 151.009 312.641 152.836C311.49 154.663 310.568 154.596 309.963 155.779C309.357 156.961 310.102 157.251 308.272 161.128C306.442 165.005 304.375 167.552 304.375 167.552L309.963 169.401C309.963 169.401 311.208 164.189 312.641 161.128C314.074 158.067 316.365 157.244 316.365 154.906C316.365 152.568 314.981 149.524 314.178 149.086Z" fill="#F8E7D5"/>
</g>
<path d="M281.846 163.335C283.13 163.567 282.05 164.814 283.595 164.814C285.14 164.814 289.021 165.223 292.541 165.677C296.06 166.132 299.454 167.87 300.363 167.87C301.273 167.87 302.464 165.677 302.464 165.677L307.778 167.87C307.778 167.87 305.728 173.977 304.749 174.931C303.769 175.884 289.88 175.884 289.88 175.884C289.88 175.884 290.423 177.413 289.88 182.33C289.337 187.247 288.334 189.089 288.148 191.576C287.962 194.063 289.213 196.485 289.213 196.485C289.213 196.485 283.121 200.314 279.323 200.649C275.525 200.983 271.138 198.075 271.138 198.075V193.065C271.138 193.065 264.445 193.753 263.451 193.065C262.457 192.377 264.275 173.186 265.633 170.528C266.991 167.87 273.069 166.285 274.106 165.677C275.143 165.07 274.49 163.335 275.759 163.335C277.028 163.335 280.562 163.102 281.846 163.335Z" fill="#8FC3FF"/>
<mask id="mask29" mask-type="alpha" maskUnits="userSpaceOnUse" x="263" y="163" width="45" height="38">
<path d="M281.846 163.335C283.13 163.567 282.05 164.814 283.595 164.814C285.14 164.814 289.021 165.223 292.541 165.677C296.06 166.132 299.454 167.87 300.363 167.87C301.273 167.87 302.464 165.677 302.464 165.677L307.778 167.87C307.778 167.87 305.728 173.977 304.749 174.931C303.769 175.884 289.88 175.884 289.88 175.884C289.88 175.884 290.423 177.413 289.88 182.33C289.337 187.247 288.334 189.089 288.148 191.576C287.962 194.063 289.213 196.485 289.213 196.485C289.213 196.485 283.121 200.314 279.323 200.649C275.525 200.983 271.138 198.075 271.138 198.075V193.065C271.138 193.065 264.445 193.753 263.451 193.065C262.457 192.377 264.275 173.186 265.633 170.528C266.991 167.87 273.069 166.285 274.106 165.677C275.143 165.07 274.49 163.335 275.759 163.335C277.028 163.335 280.562 163.102 281.846 163.335Z" fill="white"/>
</mask>
<g mask="url(#mask29)">
<path d="M277.282 199.735C279.73 199.339 280.12 193.224 280.368 191.222C280.616 189.22 278.188 190.06 278.825 187.284C279.462 184.509 281.322 185.554 282.402 182.362C283.483 179.17 283.276 177.24 283.161 174.474C283.047 171.708 281.514 171.619 281.858 169.177C282.202 166.735 285.463 167.994 284.488 165.061C283.512 162.129 281.837 161.06 278.825 160.064C275.813 159.069 277.833 157.659 272.485 161.095C267.137 164.532 264.968 161.929 262.246 170.718C259.524 179.506 258.194 186.335 262.246 194.154C266.298 201.973 274.835 200.131 277.282 199.735Z" fill="black" fill-opacity="0.0562443"/>
<path d="M268.156 194.183C268.156 194.183 268.903 190.707 269.332 186.356C269.448 185.167 269.348 183.234 269.332 182.172C269.287 179.349 269.438 177.284 269.743 177.12C270.163 176.895 270.905 181.365 270.905 184.586C270.905 187.807 271.243 193.634 271.243 193.634L268.156 194.183Z" fill="black" fill-opacity="0.181253"/>
<path opacity="0.257366" d="M290.134 176.873C289.53 176.995 288.779 176.871 288.779 176.101C288.779 175.33 289.556 174.393 290.134 174.277C290.713 174.16 291.392 174.926 291.392 175.575C291.392 176.224 290.739 176.751 290.134 176.873Z" fill="black" fill-opacity="0.0944577"/>
</g>
<path d="M276.121 160.408C274.152 157.796 273.675 154.084 274.196 152.439C274.716 150.794 277.424 147.788 279.283 147.337C281.141 146.886 282.799 146.77 284.323 147.736C285.848 148.702 285.431 149.894 285.661 151.329C285.89 152.763 287.539 160.504 286.82 161.97C286.101 163.435 282.019 162.816 282.019 162.816C282.019 162.816 278.09 163.019 276.121 160.408Z" fill="#4D341D"/>
<path d="M284.447 258.665C284.16 259.82 278.444 260.961 275.484 260.9C272.524 260.838 270.85 259.79 271.199 258.389C271.547 256.988 269.328 255.005 274.039 255.103C278.75 255.201 284.735 257.51 284.447 258.665Z" fill="#141030"/>
<path d="M276.155 159.452C275.547 159.369 275 159.839 275 160.453V164H281.791C281.791 164 281.422 162.246 281.791 161.642C282.161 161.039 282.996 160.601 283.537 159.285C283.857 158.508 283.956 157.393 283.983 156.61C283.996 156.254 283.58 156.085 283.327 156.335V156.335C283.25 156.41 283.147 156.453 283.039 156.453H283.024C282.811 156.453 282.627 156.603 282.58 156.811C282.402 157.587 281.937 159.381 281.355 159.722C280.824 160.034 277.838 159.681 276.155 159.452Z" fill="#FFEDDA"/>
<path d="M292.959 261.311C292.401 262.362 286.579 262.087 283.721 261.311C280.864 260.535 279.494 259.113 280.17 257.838C280.847 256.563 279.174 254.102 283.721 255.337C288.269 256.572 293.517 260.26 292.959 261.311Z" fill="#1B163D"/>
<path d="M285.917 158.452C285.57 159.947 284.846 160.692 284.287 159.142C283.728 157.593 284.56 155.446 284.287 153.871C284.014 152.296 282.822 152.54 283.023 151.798C283.224 151.057 284.576 150.754 285.004 151.227C285.432 151.699 286.265 156.957 285.917 158.452Z" fill="#FFEDDA"/>
<path d="M266.026 261.949C267.278 262.156 266.374 261.711 269.158 261.072C271.942 260.433 275.278 260.769 274.981 259.894C274.684 259.019 271.244 258 268.116 258C264.987 258 262.546 258.958 262.051 259.894C261.556 260.83 264.775 261.741 266.026 261.949Z" fill="black" fill-opacity="0.0578295"/>
<rect opacity="0.660268" x="310" y="127.628" width="36" height="3" rx="1.5" transform="rotate(-1 310 127.628)" fill="white"/>
<rect opacity="0.660268" x="308" y="134.628" width="36" height="3" rx="1.5" transform="rotate(-1 308 134.628)" fill="white"/>
<rect opacity="0.660268" x="305" y="141.628" width="36" height="3" rx="1.5" transform="rotate(-1 305 141.628)" fill="white"/>
<rect opacity="0.660268" x="302" y="148.628" width="36" height="3" rx="1.5" transform="rotate(-1 302 148.628)" fill="white"/>
<rect opacity="0.660268" x="300" y="155.628" width="36" height="3" rx="1.5" transform="rotate(-1 300 155.628)" fill="white"/>
<defs>
<linearGradient id="paint0_linear" x1="147.038" y1="191.033" x2="146.456" y2="219.42" gradientUnits="userSpaceOnUse">
<stop stop-color="#354A76"/>
<stop offset="1" stop-color="#A6C6EC"/>
</linearGradient>
<linearGradient id="paint1_linear" x1="211.663" y1="191.358" x2="197.247" y2="227.461" gradientUnits="userSpaceOnUse">
<stop stop-color="#627CB4"/>
<stop offset="1" stop-color="#A6C6EC"/>
</linearGradient>
<linearGradient id="paint2_linear" x1="224.66" y1="180.034" x2="172.727" y2="155.374" gradientUnits="userSpaceOnUse">
<stop stop-color="#455984"/>
<stop offset="1" stop-color="#A6C6EC"/>
</linearGradient>
<linearGradient id="paint3_linear" x1="210.329" y1="135.253" x2="197.588" y2="206.279" gradientUnits="userSpaceOnUse">
<stop stop-color="#183258"/>
<stop offset="1" stop-color="#141D33" stop-opacity="0.409364"/>
</linearGradient>
<linearGradient id="paint4_linear" x1="415.254" y1="129.144" x2="391.594" y2="36.7917" gradientUnits="userSpaceOnUse">
<stop stop-color="#354A76"/>
<stop offset="1" stop-color="#A6C6EC"/>
</linearGradient>
<linearGradient id="paint5_linear" x1="282.035" y1="166.735" x2="207.688" y2="88.0419" gradientUnits="userSpaceOnUse">
<stop stop-color="#354A76"/>
<stop offset="1" stop-color="#A6C6EC"/>
</linearGradient>
<linearGradient id="paint6_linear" x1="296.159" y1="136.281" x2="196.975" y2="92.8935" gradientUnits="userSpaceOnUse">
<stop stop-color="#354A76"/>
<stop offset="1" stop-color="#A6C6EC"/>
</linearGradient>
<linearGradient id="paint7_linear" x1="263.968" y1="130.006" x2="205.685" y2="81.9413" gradientUnits="userSpaceOnUse">
<stop stop-color="#354A76"/>
<stop offset="1" stop-color="#A6C6EC"/>
</linearGradient>
<linearGradient id="paint8_linear" x1="275.665" y1="142.194" x2="191.304" y2="87.9698" gradientUnits="userSpaceOnUse">
<stop stop-color="#354A76"/>
<stop offset="1" stop-color="#A6C6EC"/>
</linearGradient>
<linearGradient id="paint9_linear" x1="241.962" y1="108.309" x2="181.753" y2="80.7175" gradientUnits="userSpaceOnUse">
<stop stop-color="#354A76"/>
<stop offset="1" stop-color="#A6C6EC"/>
</linearGradient>
<linearGradient id="paint10_linear" x1="318.774" y1="129.007" x2="245.363" y2="12.5045" gradientUnits="userSpaceOnUse">
<stop stop-color="#354A76"/>
<stop offset="1" stop-color="#A6C6EC"/>
</linearGradient>
<linearGradient id="paint11_linear" x1="232.394" y1="115.016" x2="196.878" y2="100.162" gradientUnits="userSpaceOnUse">
<stop stop-color="#354A76"/>
<stop offset="1" stop-color="#A6C6EC"/>
</linearGradient>
<linearGradient id="paint12_linear" x1="242.058" y1="111.157" x2="188.285" y2="96.7449" gradientUnits="userSpaceOnUse">
<stop stop-color="#354A76"/>
<stop offset="1" stop-color="#A6C6EC"/>
</linearGradient>
<linearGradient id="paint13_linear" x1="191.989" y1="119.929" x2="260.233" y2="73.5575" gradientUnits="userSpaceOnUse">
<stop stop-color="#354A76"/>
<stop offset="1" stop-color="#A6C6EC"/>
</linearGradient>
<linearGradient id="paint14_linear" x1="179.974" y1="120.728" x2="224.546" y2="99.4092" gradientUnits="userSpaceOnUse">
<stop stop-color="#354A76"/>
<stop offset="1" stop-color="#A6C6EC"/>
</linearGradient>
<linearGradient id="paint15_linear" x1="224.058" y1="102.501" x2="169.292" y2="89.9634" gradientUnits="userSpaceOnUse">
<stop stop-color="#354A76"/>
<stop offset="1" stop-color="#A6C6EC"/>
</linearGradient>
<linearGradient id="paint16_linear" x1="361.589" y1="116.144" x2="329.463" y2="29.6642" gradientUnits="userSpaceOnUse">
<stop stop-color="#354A76"/>
<stop offset="1" stop-color="#A6C6EC"/>
</linearGradient>
<linearGradient id="paint17_linear" x1="217.529" y1="111.251" x2="189.245" y2="107.366" gradientUnits="userSpaceOnUse">
<stop stop-color="#354A76"/>
<stop offset="1" stop-color="#A6C6EC"/>
</linearGradient>
<linearGradient id="paint18_linear" x1="270.924" y1="110.425" x2="204.983" y2="37.8995" gradientUnits="userSpaceOnUse">
<stop stop-color="#354A76"/>
<stop offset="1" stop-color="#A6C6EC"/>
</linearGradient>
<linearGradient id="paint19_linear" x1="236.786" y1="111.251" x2="156.73" y2="74.1376" gradientUnits="userSpaceOnUse">
<stop stop-color="#354A76"/>
<stop offset="1" stop-color="#A6C6EC"/>
</linearGradient>
<linearGradient id="paint20_linear" x1="201.508" y1="190.472" x2="225.997" y2="187.679" gradientUnits="userSpaceOnUse">
<stop stop-color="#354A76"/>
<stop offset="1" stop-color="#A6C6EC"/>
</linearGradient>
<linearGradient id="paint21_linear" x1="221.728" y1="109.157" x2="183.404" y2="102.096" gradientUnits="userSpaceOnUse">
<stop stop-color="#354A76"/>
<stop offset="1" stop-color="#A6C6EC"/>
</linearGradient>
<linearGradient id="paint22_linear" x1="247.036" y1="142.497" x2="167.965" y2="96.3785" gradientUnits="userSpaceOnUse">
<stop stop-color="#354A76"/>
<stop offset="1" stop-color="#A6C6EC"/>
</linearGradient>
<linearGradient id="paint23_linear" x1="172.756" y1="170.474" x2="248.071" y2="147.474" gradientUnits="userSpaceOnUse">
<stop stop-color="#354A76"/>
<stop offset="1" stop-color="#A6C6EC"/>
</linearGradient>
<linearGradient id="paint24_linear" x1="252.716" y1="228.954" x2="314.677" y2="156.087" gradientUnits="userSpaceOnUse">
<stop stop-color="#354A76"/>
<stop offset="1" stop-color="#A6C6EC"/>
</linearGradient>
<linearGradient id="paint25_linear" x1="157.898" y1="227.156" x2="95.734" y2="157.963" gradientUnits="userSpaceOnUse">
<stop stop-color="#354A76"/>
<stop offset="1" stop-color="#A6C6EC"/>
</linearGradient>
<linearGradient id="paint26_linear" x1="264.455" y1="150.464" x2="185.655" y2="158.658" gradientUnits="userSpaceOnUse">
<stop stop-color="#354A76"/>
<stop offset="1" stop-color="#A6C6EC"/>
</linearGradient>
<linearGradient id="paint27_linear" x1="322.404" y1="126.842" x2="288.712" y2="37.3229" gradientUnits="userSpaceOnUse">
<stop stop-color="#354A76"/>
<stop offset="1" stop-color="#A6C6EC"/>
</linearGradient>
<linearGradient id="paint28_linear" x1="364.404" y1="107.122" x2="309.779" y2="-1.73161" gradientUnits="userSpaceOnUse">
<stop stop-color="#354A76"/>
<stop offset="1" stop-color="#A6C6EC"/>
</linearGradient>
<linearGradient id="paint29_linear" x1="276.665" y1="143.612" x2="201.692" y2="86.0185" gradientUnits="userSpaceOnUse">
<stop stop-color="#354A76"/>
<stop offset="1" stop-color="#A6C6EC"/>
</linearGradient>
<linearGradient id="paint30_linear" x1="277.861" y1="165.582" x2="197.572" y2="82.1861" gradientUnits="userSpaceOnUse">
<stop stop-color="#354A76"/>
<stop offset="1" stop-color="#A6C6EC"/>
</linearGradient>
<linearGradient id="paint31_linear" x1="285.37" y1="213.925" x2="271.108" y2="320.418" gradientUnits="userSpaceOnUse">
<stop stop-color="#CDE5FF"/>
<stop offset="1" stop-color="#B0D3EF"/>
</linearGradient>
<linearGradient id="paint32_linear" x1="379.948" y1="-68.3958" x2="176.7" y2="200.005" gradientUnits="userSpaceOnUse">
<stop stop-color="#ABD3FF"/>
<stop offset="1" stop-color="#E4EEFF"/>
</linearGradient>
<linearGradient id="paint33_linear" x1="147.038" y1="191.033" x2="146.456" y2="219.421" gradientUnits="userSpaceOnUse">
<stop stop-color="#354A76"/>
<stop offset="1" stop-color="#A6C6EC"/>
</linearGradient>
<linearGradient id="paint34_linear" x1="211.663" y1="191.358" x2="197.247" y2="227.461" gradientUnits="userSpaceOnUse">
<stop stop-color="#627CB4"/>
<stop offset="1" stop-color="#A6C6EC"/>
</linearGradient>
<linearGradient id="paint35_linear" x1="224.66" y1="180.034" x2="172.727" y2="155.374" gradientUnits="userSpaceOnUse">
<stop stop-color="#455984"/>
<stop offset="1" stop-color="#A6C6EC"/>
</linearGradient>
<linearGradient id="paint36_linear" x1="210.329" y1="135.253" x2="197.588" y2="206.279" gradientUnits="userSpaceOnUse">
<stop stop-color="#183258"/>
<stop offset="1" stop-color="#141D33" stop-opacity="0.409364"/>
</linearGradient>
<linearGradient id="paint37_linear" x1="415.254" y1="129.144" x2="391.594" y2="36.7919" gradientUnits="userSpaceOnUse">
<stop stop-color="#354A76"/>
<stop offset="1" stop-color="#A6C6EC"/>
</linearGradient>
<linearGradient id="paint38_linear" x1="282.035" y1="166.735" x2="207.688" y2="88.0422" gradientUnits="userSpaceOnUse">
<stop stop-color="#354A76"/>
<stop offset="1" stop-color="#A6C6EC"/>
</linearGradient>
<linearGradient id="paint39_linear" x1="296.158" y1="136.281" x2="196.974" y2="92.8938" gradientUnits="userSpaceOnUse">
<stop stop-color="#354A76"/>
<stop offset="1" stop-color="#A6C6EC"/>
</linearGradient>
<linearGradient id="paint40_linear" x1="263.967" y1="130.006" x2="205.684" y2="81.9415" gradientUnits="userSpaceOnUse">
<stop stop-color="#354A76"/>
<stop offset="1" stop-color="#A6C6EC"/>
</linearGradient>
<linearGradient id="paint41_linear" x1="275.665" y1="142.195" x2="191.304" y2="87.97" gradientUnits="userSpaceOnUse">
<stop stop-color="#354A76"/>
<stop offset="1" stop-color="#A6C6EC"/>
</linearGradient>
<linearGradient id="paint42_linear" x1="241.962" y1="108.31" x2="181.753" y2="80.7178" gradientUnits="userSpaceOnUse">
<stop stop-color="#354A76"/>
<stop offset="1" stop-color="#A6C6EC"/>
</linearGradient>
<linearGradient id="paint43_linear" x1="318.774" y1="129.008" x2="245.363" y2="12.5048" gradientUnits="userSpaceOnUse">
<stop stop-color="#354A76"/>
<stop offset="1" stop-color="#A6C6EC"/>
</linearGradient>
<linearGradient id="paint44_linear" x1="232.394" y1="115.016" x2="196.878" y2="100.162" gradientUnits="userSpaceOnUse">
<stop stop-color="#354A76"/>
<stop offset="1" stop-color="#A6C6EC"/>
</linearGradient>
<linearGradient id="paint45_linear" x1="242.058" y1="111.158" x2="188.285" y2="96.7451" gradientUnits="userSpaceOnUse">
<stop stop-color="#354A76"/>
<stop offset="1" stop-color="#A6C6EC"/>
</linearGradient>
<linearGradient id="paint46_linear" x1="191.989" y1="119.929" x2="260.233" y2="73.5577" gradientUnits="userSpaceOnUse">
<stop stop-color="#354A76"/>
<stop offset="1" stop-color="#A6C6EC"/>
</linearGradient>
<linearGradient id="paint47_linear" x1="179.974" y1="120.728" x2="224.546" y2="99.4092" gradientUnits="userSpaceOnUse">
<stop stop-color="#354A76"/>
<stop offset="1" stop-color="#A6C6EC"/>
</linearGradient>
<linearGradient id="paint48_linear" x1="224.058" y1="102.502" x2="169.292" y2="89.9637" gradientUnits="userSpaceOnUse">
<stop stop-color="#354A76"/>
<stop offset="1" stop-color="#A6C6EC"/>
</linearGradient>
<linearGradient id="paint49_linear" x1="361.589" y1="116.144" x2="329.463" y2="29.6644" gradientUnits="userSpaceOnUse">
<stop stop-color="#354A76"/>
<stop offset="1" stop-color="#A6C6EC"/>
</linearGradient>
<linearGradient id="paint50_linear" x1="217.529" y1="111.251" x2="189.245" y2="107.366" gradientUnits="userSpaceOnUse">
<stop stop-color="#354A76"/>
<stop offset="1" stop-color="#A6C6EC"/>
</linearGradient>
<linearGradient id="paint51_linear" x1="270.924" y1="110.425" x2="204.983" y2="37.8998" gradientUnits="userSpaceOnUse">
<stop stop-color="#354A76"/>
<stop offset="1" stop-color="#A6C6EC"/>
</linearGradient>
<linearGradient id="paint52_linear" x1="236.786" y1="111.251" x2="156.73" y2="74.1379" gradientUnits="userSpaceOnUse">
<stop stop-color="#354A76"/>
<stop offset="1" stop-color="#A6C6EC"/>
</linearGradient>
<linearGradient id="paint53_linear" x1="201.508" y1="190.473" x2="225.997" y2="187.679" gradientUnits="userSpaceOnUse">
<stop stop-color="#354A76"/>
<stop offset="1" stop-color="#A6C6EC"/>
</linearGradient>
<linearGradient id="paint54_linear" x1="221.728" y1="109.158" x2="183.404" y2="102.096" gradientUnits="userSpaceOnUse">
<stop stop-color="#354A76"/>
<stop offset="1" stop-color="#A6C6EC"/>
</linearGradient>
<linearGradient id="paint55_linear" x1="247.036" y1="142.497" x2="167.965" y2="96.3788" gradientUnits="userSpaceOnUse">
<stop stop-color="#354A76"/>
<stop offset="1" stop-color="#A6C6EC"/>
</linearGradient>
<linearGradient id="paint56_linear" x1="172.756" y1="170.475" x2="248.071" y2="147.474" gradientUnits="userSpaceOnUse">
<stop stop-color="#354A76"/>
<stop offset="1" stop-color="#A6C6EC"/>
</linearGradient>
<linearGradient id="paint57_linear" x1="252.715" y1="228.954" x2="314.676" y2="156.087" gradientUnits="userSpaceOnUse">
<stop stop-color="#354A76"/>
<stop offset="1" stop-color="#A6C6EC"/>
</linearGradient>
<linearGradient id="paint58_linear" x1="157.897" y1="227.156" x2="95.7331" y2="157.963" gradientUnits="userSpaceOnUse">
<stop stop-color="#354A76"/>
<stop offset="1" stop-color="#A6C6EC"/>
</linearGradient>
<linearGradient id="paint59_linear" x1="264.454" y1="150.464" x2="185.654" y2="158.658" gradientUnits="userSpaceOnUse">
<stop stop-color="#354A76"/>
<stop offset="1" stop-color="#A6C6EC"/>
</linearGradient>
<linearGradient id="paint60_linear" x1="322.404" y1="126.842" x2="288.712" y2="37.3232" gradientUnits="userSpaceOnUse">
<stop stop-color="#354A76"/>
<stop offset="1" stop-color="#A6C6EC"/>
</linearGradient>
<linearGradient id="paint61_linear" x1="364.404" y1="107.123" x2="309.779" y2="-1.73137" gradientUnits="userSpaceOnUse">
<stop stop-color="#354A76"/>
<stop offset="1" stop-color="#A6C6EC"/>
</linearGradient>
<linearGradient id="paint62_linear" x1="276.665" y1="143.612" x2="201.692" y2="86.0188" gradientUnits="userSpaceOnUse">
<stop stop-color="#354A76"/>
<stop offset="1" stop-color="#A6C6EC"/>
</linearGradient>
<linearGradient id="paint63_linear" x1="277.861" y1="165.582" x2="197.572" y2="82.1863" gradientUnits="userSpaceOnUse">
<stop stop-color="#354A76"/>
<stop offset="1" stop-color="#A6C6EC"/>
</linearGradient>
<linearGradient id="paint64_linear" x1="285.37" y1="213.925" x2="271.108" y2="320.418" gradientUnits="userSpaceOnUse">
<stop stop-color="#CDE5FF"/>
<stop offset="1" stop-color="#B0D3EF"/>
</linearGradient>
<linearGradient id="paint65_linear" x1="379.948" y1="-68.3958" x2="176.7" y2="200.005" gradientUnits="userSpaceOnUse">
<stop stop-color="#ABD3FF"/>
<stop offset="1" stop-color="#E4EEFF"/>
</linearGradient>
</defs>
</svg>
