<svg width="458" height="341" viewBox="0 0 458 341" fill="none" xmlns="http://www.w3.org/2000/svg">
<mask id="mask0" mask-type="alpha" maskUnits="userSpaceOnUse" x="0" y="0" width="458" height="341">
<path d="M363.419 321.916C411.143 296.433 480.983 275.362 449.48 222.297C417.977 169.233 475.476 -12.1044 373.32 16.663C328.834 29.1905 278.469 -1.75209 228.685 0.0784294C164.148 2.45143 102.129 35.3335 71.1041 35.3335C16.1475 35.3335 -37.3143 213.128 35.1371 268.848C107.589 324.568 85.9911 355.651 163.609 332.953C241.226 310.254 315.694 347.398 363.419 321.916Z" fill="white"/>
</mask>
<g mask="url(#mask0)">
<path opacity="0.673437" d="M363.419 321.916C411.143 296.433 480.983 275.362 449.48 222.297C417.977 169.233 475.476 -12.1044 373.32 16.663C328.834 29.1905 278.469 -1.75209 228.685 0.0784294C164.148 2.45143 102.129 35.3335 71.1041 35.3335C16.1475 35.3335 -37.3143 213.128 35.1371 268.848C107.589 324.568 85.9911 355.651 163.609 332.953C241.226 310.254 315.694 347.398 363.419 321.916Z" fill="#F3F5F8"/>
<path d="M182.996 321.129V333.206C182.996 334.863 184.339 336.206 185.996 336.206C186.804 336.206 187.578 335.88 188.142 335.302L202.785 320.312C208.922 319.849 215.06 319.189 221.197 318.334C225.644 317.714 228.955 313.911 228.955 309.42V274.225C228.955 269.692 225.583 265.866 221.086 265.296C207.717 263.603 194.349 262.756 180.981 262.756C167.613 262.756 154.244 263.603 140.876 265.296C136.379 265.866 133.007 269.692 133.007 274.225V309.42C133.007 313.911 136.317 317.714 140.765 318.334C154.17 320.202 167.576 321.136 180.981 321.136C181.653 321.136 182.324 321.134 182.996 321.129Z" fill="#A4C9FF"/>
<path d="M212.464 276.246H158.493C156.837 276.246 155.495 277.588 155.495 279.244C155.495 280.9 156.837 282.242 158.493 282.242H212.464C214.12 282.242 215.462 280.9 215.462 279.244C215.462 277.588 214.12 276.246 212.464 276.246Z" fill="#7493C1"/>
<path d="M212.464 289.737H167.488C165.832 289.737 164.49 291.079 164.49 292.735C164.49 294.39 165.832 295.733 167.488 295.733H212.464C214.12 295.733 215.462 294.39 215.462 292.735C215.462 291.079 214.12 289.737 212.464 289.737Z" fill="#86A9DB"/>
<path d="M212.464 298.73H176.483C174.827 298.73 173.485 300.073 173.485 301.728C173.485 303.384 174.827 304.726 176.483 304.726H212.464C214.12 304.726 215.462 303.384 215.462 301.728C215.462 300.073 214.12 298.73 212.464 298.73Z" fill="#86A9DB"/>
</g>
<path d="M211.531 178.652L215.395 183.789C216.64 185.444 216.307 187.795 214.652 189.04C213.472 189.928 211.88 190.04 210.587 189.327L194.104 180.233C187.935 180.614 181.766 180.804 175.597 180.804C162.152 180.804 148.707 179.9 135.263 178.093C129.679 177.343 125.511 172.578 125.511 166.944L125.511 133.228C125.511 127.542 129.754 122.75 135.397 122.061C148.797 120.424 162.197 119.606 175.597 119.606C188.996 119.606 202.396 120.424 215.796 122.061C221.44 122.75 225.682 127.542 225.682 133.228V166.944C225.682 172.578 221.515 177.343 215.931 178.093C214.464 178.29 212.998 178.477 211.531 178.652Z" fill="#A9B7FF"/>
<path d="M265.638 247.421L253.639 260.118C252.786 261.022 251.362 261.062 250.459 260.208C250.009 259.783 249.754 259.192 249.754 258.573V245.815C249.07 245.728 248.385 245.638 247.701 245.546C242.117 244.796 237.95 240.03 237.95 234.396V200.681C237.95 194.995 242.192 190.203 247.836 189.514C261.236 187.877 274.635 187.059 288.035 187.059C301.435 187.059 314.835 187.877 328.234 189.514C333.878 190.203 338.121 194.995 338.121 200.681V234.396C338.121 240.03 333.953 244.796 328.369 245.546C314.925 247.353 301.48 248.257 288.035 248.257C280.569 248.257 273.104 247.978 265.638 247.421Z" fill="#BDD8FF"/>
<path d="M308.411 205.046H252.941V211.042H308.411V205.046Z" fill="white"/>
<path d="M296.418 216.289H252.941V222.284H296.418V216.289Z" fill="white" fill-opacity="0.428753"/>
<path d="M296.418 227.53H252.941V233.526H296.418V227.53Z" fill="white" fill-opacity="0.428753"/>
<path d="M290.398 140.406V155.574C290.398 157.645 288.719 159.324 286.648 159.324C285.635 159.324 284.666 158.915 283.96 158.189L265.662 139.381C257.988 138.799 250.314 137.971 242.641 136.897C237.084 136.12 232.95 131.367 232.95 125.756V81.4922C232.95 75.8279 237.161 71.047 242.78 70.3321C259.492 68.2061 276.205 67.1431 292.917 67.1431C309.629 67.1431 326.342 68.2061 343.054 70.3321C348.673 71.047 352.884 75.8279 352.884 81.4922V125.756C352.884 131.367 348.75 136.12 343.193 136.897C326.435 139.243 309.676 140.415 292.917 140.415C292.077 140.415 291.237 140.412 290.398 140.406Z" fill="#A4C9FF"/>
<path d="M324.153 85.8799H256.689C254.619 85.8799 252.941 87.5576 252.941 89.6273C252.941 91.6969 254.619 93.3746 256.689 93.3746H324.153C326.223 93.3746 327.9 91.6969 327.9 89.6273C327.9 87.5576 326.223 85.8799 324.153 85.8799Z" fill="#7493C1"/>
<path d="M312.909 104.617H256.689C254.619 104.617 252.941 106.294 252.941 108.364C252.941 110.434 254.619 112.111 256.689 112.111H312.909C314.979 112.111 316.657 110.434 316.657 108.364C316.657 106.294 314.979 104.617 312.909 104.617Z" fill="#86A9DB"/>
<path d="M301.665 115.859H256.689C254.619 115.859 252.941 117.537 252.941 119.606C252.941 121.676 254.619 123.354 256.689 123.354H301.665C303.735 123.354 305.413 121.676 305.413 119.606C305.413 117.537 303.735 115.859 301.665 115.859Z" fill="#86A9DB"/>
<path d="M211.531 178.652L215.395 183.789C216.64 185.444 216.307 187.795 214.652 189.04C213.472 189.928 211.88 190.04 210.587 189.327L194.104 180.233C187.935 180.614 181.766 180.804 175.597 180.804C162.152 180.804 148.707 179.9 135.263 178.093C129.679 177.343 125.511 172.578 125.511 166.944L125.511 133.228C125.511 127.542 129.754 122.75 135.397 122.061C148.797 120.424 162.197 119.606 175.597 119.606C188.996 119.606 202.396 120.424 215.796 122.061C221.44 122.75 225.682 127.542 225.682 133.228V166.944C225.682 172.578 221.515 177.343 215.931 178.093C214.464 178.29 212.998 178.477 211.531 178.652Z" fill="#A9B7FF"/>
<path d="M155.511 147.577C155.087 157.113 162.946 166.806 173.056 166.806C183.165 166.806 193.693 157.425 194.131 147.577C194.569 137.728 184.476 127.101 174.821 127.101C165.166 127.101 155.935 138.04 155.511 147.577Z" fill="white"/>
<path d="M173.734 133.96C175.309 132.451 177.81 132.504 179.319 134.079C179.437 134.202 179.547 134.333 179.648 134.47L180.62 135.791C182.323 138.104 182.174 141.294 180.262 143.438C178.149 145.807 176.981 148.871 176.981 152.045V154.059" stroke="#A9B7FF" stroke-width="3.75"/>
<path d="M176.108 160.827C177.143 160.827 177.982 159.989 177.982 158.954C177.982 157.919 177.143 157.08 176.108 157.08C175.073 157.08 174.234 157.919 174.234 158.954C174.234 159.989 175.073 160.827 176.108 160.827Z" fill="#A9B7FF"/>
</svg>
