<svg width="31" height="26" viewBox="0 0 31 26" fill="none" xmlns="http://www.w3.org/2000/svg">
<path d="M6.50781 26H0.355469V0.40625H6.50781V26ZM10.7969 26V0.40625H19.041C21.3027 0.40625 23.3359 0.921875 25.1406 1.95312C26.9453 2.97266 28.3516 4.41992 29.3594 6.29492C30.3789 8.1582 30.8945 10.25 30.9062 12.5703V13.748C30.9062 16.0918 30.4082 18.1953 29.4121 20.0586C28.4277 21.9102 27.0332 23.3633 25.2285 24.418C23.4355 25.4609 21.4316 25.9883 19.2168 26H10.7969ZM16.9668 5.16992V21.2539H19.1113C20.8809 21.2539 22.2402 20.627 23.1895 19.373C24.1387 18.1074 24.6133 16.2324 24.6133 13.748V12.6406C24.6133 10.168 24.1387 8.30469 23.1895 7.05078C22.2402 5.79688 20.8574 5.16992 19.041 5.16992H16.9668Z" fill="#388E3C"/>
<path d="M6.50781 26H0.355469V0.40625H6.50781V26ZM10.7969 26V0.40625H19.041C21.3027 0.40625 23.3359 0.921875 25.1406 1.95312C26.9453 2.97266 28.3516 4.41992 29.3594 6.29492C30.3789 8.1582 30.8945 10.25 30.9062 12.5703V13.748C30.9062 16.0918 30.4082 18.1953 29.4121 20.0586C28.4277 21.9102 27.0332 23.3633 25.2285 24.418C23.4355 25.4609 21.4316 25.9883 19.2168 26H10.7969ZM16.9668 5.16992V21.2539H19.1113C20.8809 21.2539 22.2402 20.627 23.1895 19.373C24.1387 18.1074 24.6133 16.2324 24.6133 13.748V12.6406C24.6133 10.168 24.1387 8.30469 23.1895 7.05078C22.2402 5.79688 20.8574 5.16992 19.041 5.16992H16.9668Z" fill="url(#paint0_linear)"/>
<defs>
<linearGradient id="paint0_linear" x1="15.5" y1="-7" x2="15.5" y2="36" gradientUnits="userSpaceOnUse">
<stop stop-color="#009688"/>
<stop offset="1" stop-color="white" stop-opacity="0"/>
</linearGradient>
</defs>
</svg>
