<svg width="53" height="26" viewBox="0 0 53 26" fill="none" xmlns="http://www.w3.org/2000/svg">
<path d="M7.10352 17.3164V26H0.933594V0.40625H11.1465C13.1035 0.40625 14.832 0.769531 16.332 1.49609C17.8438 2.21094 19.0098 3.23633 19.8301 4.57227C20.6621 5.89648 21.0781 7.40234 21.0781 9.08984C21.0781 11.5859 20.1816 13.584 18.3887 15.084C16.6074 16.5723 14.1582 17.3164 11.041 17.3164H7.10352ZM7.10352 12.5527H11.1465C12.3418 12.5527 13.25 12.2539 13.8711 11.6562C14.5039 11.0586 14.8203 10.2148 14.8203 9.125C14.8203 7.92969 14.498 6.97461 13.8535 6.25977C13.209 5.54492 12.3301 5.18164 11.2168 5.16992H7.10352V12.5527ZM32.4863 0.40625L38.1992 18.2129L43.8945 0.40625H52.0156V26H45.8281V20.0234L46.4258 7.78906L40.2383 26H36.1602L29.9551 7.77148L30.5527 20.0234V26H24.3828V0.40625H32.4863Z" fill="#512DA8"/>
<path d="M7.10352 17.3164V26H0.933594V0.40625H11.1465C13.1035 0.40625 14.832 0.769531 16.332 1.49609C17.8438 2.21094 19.0098 3.23633 19.8301 4.57227C20.6621 5.89648 21.0781 7.40234 21.0781 9.08984C21.0781 11.5859 20.1816 13.584 18.3887 15.084C16.6074 16.5723 14.1582 17.3164 11.041 17.3164H7.10352ZM7.10352 12.5527H11.1465C12.3418 12.5527 13.25 12.2539 13.8711 11.6562C14.5039 11.0586 14.8203 10.2148 14.8203 9.125C14.8203 7.92969 14.498 6.97461 13.8535 6.25977C13.209 5.54492 12.3301 5.18164 11.2168 5.16992H7.10352V12.5527ZM32.4863 0.40625L38.1992 18.2129L43.8945 0.40625H52.0156V26H45.8281V20.0234L46.4258 7.78906L40.2383 26H36.1602L29.9551 7.77148L30.5527 20.0234V26H24.3828V0.40625H32.4863Z" fill="url(#paint0_linear)"/>
<defs>
<linearGradient id="paint0_linear" x1="27" y1="-7" x2="27" y2="36" gradientUnits="userSpaceOnUse">
<stop stop-color="#9C27B0"/>
<stop offset="1" stop-color="white" stop-opacity="0"/>
</linearGradient>
</defs>
</svg>
