<svg width="42" height="27" viewBox="0 0 42 27" fill="none" xmlns="http://www.w3.org/2000/svg">
<path d="M14.1348 19.1973C14.1348 18.2949 13.8125 17.5918 13.168 17.0879C12.5352 16.584 11.416 16.0625 9.81055 15.5234C8.20508 14.9844 6.89258 14.4629 5.87305 13.959C2.55664 12.3301 0.898438 10.0918 0.898438 7.24414C0.898438 5.82617 1.30859 4.57812 2.12891 3.5C2.96094 2.41016 4.13281 1.56641 5.64453 0.96875C7.15625 0.359375 8.85547 0.0546875 10.7422 0.0546875C12.582 0.0546875 14.2285 0.382813 15.6816 1.03906C17.1465 1.69531 18.2832 2.63281 19.0918 3.85156C19.9004 5.05859 20.3047 6.44141 20.3047 8H14.1523C14.1523 6.95703 13.8301 6.14844 13.1855 5.57422C12.5527 5 11.6914 4.71289 10.6016 4.71289C9.5 4.71289 8.62695 4.95898 7.98242 5.45117C7.34961 5.93164 7.0332 6.54687 7.0332 7.29688C7.0332 7.95312 7.38477 8.55078 8.08789 9.08984C8.79102 9.61719 10.0273 10.168 11.7969 10.7422C13.5664 11.3047 15.0195 11.9141 16.1562 12.5703C18.9219 14.1641 20.3047 16.3613 20.3047 19.1621C20.3047 21.4004 19.4609 23.1582 17.7734 24.4355C16.0859 25.7129 13.7715 26.3516 10.8301 26.3516C8.75586 26.3516 6.875 25.9824 5.1875 25.2441C3.51172 24.4941 2.24609 23.4746 1.39062 22.1855C0.546875 20.8848 0.125 19.3906 0.125 17.7031H6.3125C6.3125 19.0742 6.66406 20.0879 7.36719 20.7441C8.08203 21.3887 9.23633 21.7109 10.8301 21.7109C11.8496 21.7109 12.6523 21.4941 13.2383 21.0605C13.8359 20.6152 14.1348 19.9941 14.1348 19.1973ZM39.3418 15.1543H29.6387V21.2539H41.0996V26H23.4688V0.40625H41.1348V5.16992H29.6387V10.5664H39.3418V15.1543Z" fill="#D32F2F"/>
<path d="M14.1348 19.1973C14.1348 18.2949 13.8125 17.5918 13.168 17.0879C12.5352 16.584 11.416 16.0625 9.81055 15.5234C8.20508 14.9844 6.89258 14.4629 5.87305 13.959C2.55664 12.3301 0.898438 10.0918 0.898438 7.24414C0.898438 5.82617 1.30859 4.57812 2.12891 3.5C2.96094 2.41016 4.13281 1.56641 5.64453 0.96875C7.15625 0.359375 8.85547 0.0546875 10.7422 0.0546875C12.582 0.0546875 14.2285 0.382813 15.6816 1.03906C17.1465 1.69531 18.2832 2.63281 19.0918 3.85156C19.9004 5.05859 20.3047 6.44141 20.3047 8H14.1523C14.1523 6.95703 13.8301 6.14844 13.1855 5.57422C12.5527 5 11.6914 4.71289 10.6016 4.71289C9.5 4.71289 8.62695 4.95898 7.98242 5.45117C7.34961 5.93164 7.0332 6.54687 7.0332 7.29688C7.0332 7.95312 7.38477 8.55078 8.08789 9.08984C8.79102 9.61719 10.0273 10.168 11.7969 10.7422C13.5664 11.3047 15.0195 11.9141 16.1562 12.5703C18.9219 14.1641 20.3047 16.3613 20.3047 19.1621C20.3047 21.4004 19.4609 23.1582 17.7734 24.4355C16.0859 25.7129 13.7715 26.3516 10.8301 26.3516C8.75586 26.3516 6.875 25.9824 5.1875 25.2441C3.51172 24.4941 2.24609 23.4746 1.39062 22.1855C0.546875 20.8848 0.125 19.3906 0.125 17.7031H6.3125C6.3125 19.0742 6.66406 20.0879 7.36719 20.7441C8.08203 21.3887 9.23633 21.7109 10.8301 21.7109C11.8496 21.7109 12.6523 21.4941 13.2383 21.0605C13.8359 20.6152 14.1348 19.9941 14.1348 19.1973ZM39.3418 15.1543H29.6387V21.2539H41.0996V26H23.4688V0.40625H41.1348V5.16992H29.6387V10.5664H39.3418V15.1543Z" fill="url(#paint0_linear)"/>
<defs>
<linearGradient id="paint0_linear" x1="20.5" y1="-7" x2="20.5" y2="36" gradientUnits="userSpaceOnUse">
<stop stop-color="#F4511E"/>
<stop offset="1" stop-color="white" stop-opacity="0"/>
</linearGradient>
</defs>
</svg>
