<svg width="66" height="27" viewBox="0 0 66 27" fill="none" xmlns="http://www.w3.org/2000/svg">
<path d="M14.1348 19.1973C14.1348 18.2949 13.8125 17.5918 13.168 17.0879C12.5352 16.584 11.416 16.0625 9.81055 15.5234C8.20508 14.9844 6.89258 14.4629 5.87305 13.959C2.55664 12.3301 0.898438 10.0918 0.898438 7.24414C0.898438 5.82617 1.30859 4.57812 2.12891 3.5C2.96094 2.41016 4.13281 1.56641 5.64453 0.96875C7.15625 0.359375 8.85547 0.0546875 10.7422 0.0546875C12.582 0.0546875 14.2285 0.382813 15.6816 1.03906C17.1465 1.69531 18.2832 2.63281 19.0918 3.85156C19.9004 5.05859 20.3047 6.44141 20.3047 8H14.1523C14.1523 6.95703 13.8301 6.14844 13.1855 5.57422C12.5527 5 11.6914 4.71289 10.6016 4.71289C9.5 4.71289 8.62695 4.95898 7.98242 5.45117C7.34961 5.93164 7.0332 6.54687 7.0332 7.29688C7.0332 7.95312 7.38477 8.55078 8.08789 9.08984C8.79102 9.61719 10.0273 10.168 11.7969 10.7422C13.5664 11.3047 15.0195 11.9141 16.1562 12.5703C18.9219 14.1641 20.3047 16.3613 20.3047 19.1621C20.3047 21.4004 19.4609 23.1582 17.7734 24.4355C16.0859 25.7129 13.7715 26.3516 10.8301 26.3516C8.75586 26.3516 6.875 25.9824 5.1875 25.2441C3.51172 24.4941 2.24609 23.4746 1.39062 22.1855C0.546875 20.8848 0.125 19.3906 0.125 17.7031H6.3125C6.3125 19.0742 6.66406 20.0879 7.36719 20.7441C8.08203 21.3887 9.23633 21.7109 10.8301 21.7109C11.8496 21.7109 12.6523 21.4941 13.2383 21.0605C13.8359 20.6152 14.1348 19.9941 14.1348 19.1973ZM43.5605 5.16992H35.8789V26H29.709V5.16992H22.168V0.40625H43.5605V5.16992ZM59.0996 19.1973C59.0996 18.2949 58.7773 17.5918 58.1328 17.0879C57.5 16.584 56.3809 16.0625 54.7754 15.5234C53.1699 14.9844 51.8574 14.4629 50.8379 13.959C47.5215 12.3301 45.8633 10.0918 45.8633 7.24414C45.8633 5.82617 46.2734 4.57812 47.0938 3.5C47.9258 2.41016 49.0977 1.56641 50.6094 0.96875C52.1211 0.359375 53.8203 0.0546875 55.707 0.0546875C57.5469 0.0546875 59.1934 0.382813 60.6465 1.03906C62.1113 1.69531 63.248 2.63281 64.0566 3.85156C64.8652 5.05859 65.2695 6.44141 65.2695 8H59.1172C59.1172 6.95703 58.7949 6.14844 58.1504 5.57422C57.5176 5 56.6562 4.71289 55.5664 4.71289C54.4648 4.71289 53.5918 4.95898 52.9473 5.45117C52.3145 5.93164 51.998 6.54687 51.998 7.29688C51.998 7.95312 52.3496 8.55078 53.0527 9.08984C53.7559 9.61719 54.9922 10.168 56.7617 10.7422C58.5312 11.3047 59.9844 11.9141 61.1211 12.5703C63.8867 14.1641 65.2695 16.3613 65.2695 19.1621C65.2695 21.4004 64.4258 23.1582 62.7383 24.4355C61.0508 25.7129 58.7363 26.3516 55.7949 26.3516C53.7207 26.3516 51.8398 25.9824 50.1523 25.2441C48.4766 24.4941 47.2109 23.4746 46.3555 22.1855C45.5117 20.8848 45.0898 19.3906 45.0898 17.7031H51.2773C51.2773 19.0742 51.6289 20.0879 52.332 20.7441C53.0469 21.3887 54.2012 21.7109 55.7949 21.7109C56.8145 21.7109 57.6172 21.4941 58.2031 21.0605C58.8008 20.6152 59.0996 19.9941 59.0996 19.1973Z" fill="#1976D2"/>
<path d="M14.1348 19.1973C14.1348 18.2949 13.8125 17.5918 13.168 17.0879C12.5352 16.584 11.416 16.0625 9.81055 15.5234C8.20508 14.9844 6.89258 14.4629 5.87305 13.959C2.55664 12.3301 0.898438 10.0918 0.898438 7.24414C0.898438 5.82617 1.30859 4.57812 2.12891 3.5C2.96094 2.41016 4.13281 1.56641 5.64453 0.96875C7.15625 0.359375 8.85547 0.0546875 10.7422 0.0546875C12.582 0.0546875 14.2285 0.382813 15.6816 1.03906C17.1465 1.69531 18.2832 2.63281 19.0918 3.85156C19.9004 5.05859 20.3047 6.44141 20.3047 8H14.1523C14.1523 6.95703 13.8301 6.14844 13.1855 5.57422C12.5527 5 11.6914 4.71289 10.6016 4.71289C9.5 4.71289 8.62695 4.95898 7.98242 5.45117C7.34961 5.93164 7.0332 6.54687 7.0332 7.29688C7.0332 7.95312 7.38477 8.55078 8.08789 9.08984C8.79102 9.61719 10.0273 10.168 11.7969 10.7422C13.5664 11.3047 15.0195 11.9141 16.1562 12.5703C18.9219 14.1641 20.3047 16.3613 20.3047 19.1621C20.3047 21.4004 19.4609 23.1582 17.7734 24.4355C16.0859 25.7129 13.7715 26.3516 10.8301 26.3516C8.75586 26.3516 6.875 25.9824 5.1875 25.2441C3.51172 24.4941 2.24609 23.4746 1.39062 22.1855C0.546875 20.8848 0.125 19.3906 0.125 17.7031H6.3125C6.3125 19.0742 6.66406 20.0879 7.36719 20.7441C8.08203 21.3887 9.23633 21.7109 10.8301 21.7109C11.8496 21.7109 12.6523 21.4941 13.2383 21.0605C13.8359 20.6152 14.1348 19.9941 14.1348 19.1973ZM43.5605 5.16992H35.8789V26H29.709V5.16992H22.168V0.40625H43.5605V5.16992ZM59.0996 19.1973C59.0996 18.2949 58.7773 17.5918 58.1328 17.0879C57.5 16.584 56.3809 16.0625 54.7754 15.5234C53.1699 14.9844 51.8574 14.4629 50.8379 13.959C47.5215 12.3301 45.8633 10.0918 45.8633 7.24414C45.8633 5.82617 46.2734 4.57812 47.0938 3.5C47.9258 2.41016 49.0977 1.56641 50.6094 0.96875C52.1211 0.359375 53.8203 0.0546875 55.707 0.0546875C57.5469 0.0546875 59.1934 0.382813 60.6465 1.03906C62.1113 1.69531 63.248 2.63281 64.0566 3.85156C64.8652 5.05859 65.2695 6.44141 65.2695 8H59.1172C59.1172 6.95703 58.7949 6.14844 58.1504 5.57422C57.5176 5 56.6562 4.71289 55.5664 4.71289C54.4648 4.71289 53.5918 4.95898 52.9473 5.45117C52.3145 5.93164 51.998 6.54687 51.998 7.29688C51.998 7.95312 52.3496 8.55078 53.0527 9.08984C53.7559 9.61719 54.9922 10.168 56.7617 10.7422C58.5312 11.3047 59.9844 11.9141 61.1211 12.5703C63.8867 14.1641 65.2695 16.3613 65.2695 19.1621C65.2695 21.4004 64.4258 23.1582 62.7383 24.4355C61.0508 25.7129 58.7363 26.3516 55.7949 26.3516C53.7207 26.3516 51.8398 25.9824 50.1523 25.2441C48.4766 24.4941 47.2109 23.4746 46.3555 22.1855C45.5117 20.8848 45.0898 19.3906 45.0898 17.7031H51.2773C51.2773 19.0742 51.6289 20.0879 52.332 20.7441C53.0469 21.3887 54.2012 21.7109 55.7949 21.7109C56.8145 21.7109 57.6172 21.4941 58.2031 21.0605C58.8008 20.6152 59.0996 19.9941 59.0996 19.1973Z" fill="url(#paint0_linear)"/>
<defs>
<linearGradient id="paint0_linear" x1="33" y1="-7" x2="33" y2="36" gradientUnits="userSpaceOnUse">
<stop stop-color="#00BCD4"/>
<stop offset="1" stop-color="white" stop-opacity="0"/>
</linearGradient>
</defs>
</svg>
