<?xml version="1.0" encoding="UTF-8"?>
<svg width="60px" height="60px" viewBox="0 0 60 60" version="1.1" xmlns="http://www.w3.org/2000/svg" xmlns:xlink="http://www.w3.org/1999/xlink">
    <!-- Generator: Sketch 51.3 (57544) - http://www.bohemiancoding.com/sketch -->
    <title>Pet friendly</title>
    <desc>Created with Sketch.</desc>
    <defs></defs>
    <g id="Icons" stroke="none" stroke-width="1" fill="none" fill-rule="evenodd">
        <g id="Desktop-HD" transform="translate(-186.000000, -294.000000)">
            <g id="Pet-friendly" transform="translate(186.000000, 294.000000)">
                <g id="Outside-Meeting-Copy" fill="#FFDCA5" fill-opacity="0.503198596">
                    <rect id="Rectangle-19" fill-rule="nonzero" x="0" y="0" width="60" height="60" rx="8"></rect>
                </g>
                <g id="pet-animal-pets-paw-dog-cat-paws-3" transform="translate(14.000000, 14.000000)" stroke="#CA9136" stroke-linecap="round" stroke-linejoin="round">
                    <g id="Group" transform="translate(0.000000, 15.000000)" stroke-width="1.5">
                        <path d="M9,9 C11.25,9 11.25,11.4 11.85,12 C12.75,13.05 14.25,13.8 14.25,15.3 C14.25,16.65 13.5,17.1 12.15,17.1 C10.65,17.1 10.35,16.2 8.85,16.2 C7.5,16.2 7.2,17.1 5.55,17.1 C4.35,17.1 3.45,16.5 3.6,15.3 C3.6,13.8 5.1,13.05 6,12 C6.75,11.4 6.75,9 9,9 Z" id="Shape"></path>
                        <path d="M17.25,9 C17.25,8.85 17.25,8.55 17.25,8.4 C17.25,7.5 16.8,6.75 16.2,6.75 C15.6,6.75 14.55,7.8 14.4,9 C14.4,9.15 14.4,9.45 14.4,9.6 C14.4,10.5 14.85,11.25 15.45,11.25 C16.05,11.25 16.95,10.2 17.25,9 Z" id="Shape"></path>
                        <path d="M14.25,3.3 C14.25,3.15 14.25,2.85 14.25,2.7 C14.25,1.5 13.65,0.6 12.9,0.6 C12.15,0.6 10.8,1.95 10.5,3.3 C10.5,3.45 10.5,3.75 10.5,3.9 C10.5,5.1 11.1,6 11.85,6 C12.6,6 13.95,4.8 14.25,3.3 Z" id="Shape"></path>
                        <path d="M0.75,9 C0.75,8.85 0.75,8.55 0.75,8.4 C0.75,7.5 1.2,6.75 1.8,6.75 C2.4,6.75 3.45,7.8 3.6,9 C3.6,9.15 3.6,9.45 3.6,9.6 C3.6,10.5 3.15,11.25 2.55,11.25 C1.95,11.25 1.05,10.2 0.75,9 Z" id="Shape"></path>
                        <path d="M3.75,3.3 C3.75,3.15 3.75,2.85 3.75,2.7 C3.75,1.5 4.35,0.6 5.1,0.6 C5.85,0.6 7.05,1.8 7.35,3.3 C7.35,3.45 7.35,3.75 7.35,3.9 C7.5,5.1 6.9,6 6.15,6 C5.4,6 4.05,4.8 3.75,3.3 Z" id="Shape"></path>
                    </g>
                    <g id="Group" transform="translate(15.000000, 0.000000)" stroke-width="1.5">
                        <path d="M9,9 C11.25,9 11.25,11.4 11.85,12 C12.75,13.05 14.25,13.8 14.25,15.3 C14.25,16.65 13.5,17.1 12.15,17.1 C10.65,17.1 10.35,16.2 9,16.2 C7.65,16.2 7.35,17.1 5.85,17.1 C4.65,17.1 3.75,16.5 3.75,15.3 C3.75,13.8 5.25,13.05 6.15,12 C6.75,11.4 6.75,9 9,9 Z" id="Shape"></path>
                        <path d="M17.25,9 C17.25,8.85 17.25,8.55 17.25,8.4 C17.25,7.5 16.8,6.75 16.2,6.75 C15.6,6.75 14.7,7.8 14.4,9 C14.4,9.15 14.4,9.45 14.4,9.6 C14.4,10.5 14.85,11.25 15.45,11.25 C16.05,11.25 16.95,10.2 17.25,9 Z" id="Shape"></path>
                        <path d="M14.25,3.3 C14.25,3.15 14.25,2.85 14.25,2.7 C14.25,1.5 13.65,0.6 12.9,0.6 C12.15,0.6 10.8,1.95 10.5,3.3 C10.5,3.45 10.5,3.75 10.5,3.9 C10.5,5.1 11.1,6 11.85,6 C12.6,6 13.95,4.8 14.25,3.3 Z" id="Shape"></path>
                        <path d="M0.75,9 C0.75,8.85 0.75,8.55 0.75,8.4 C0.75,7.5 1.2,6.75 1.8,6.75 C2.4,6.75 3.45,7.8 3.6,9 C3.6,9.15 3.6,9.45 3.6,9.6 C3.6,10.5 3.15,11.25 2.55,11.25 C1.95,11.25 1.05,10.2 0.75,9 Z" id="Shape"></path>
                        <path d="M3.75,3.3 C3.75,3.15 3.75,2.85 3.75,2.7 C3.75,1.5 4.35,0.6 5.1,0.6 C5.85,0.6 7.2,1.8 7.35,3.15 C7.35,3.3 7.35,3.6 7.35,3.75 C7.5,5.1 6.9,6 6.15,6 C5.4,6 4.05,4.8 3.75,3.3 Z" id="Shape"></path>
                    </g>
                </g>
            </g>
        </g>
    </g>
</svg>