<?xml version="1.0" encoding="UTF-8" standalone="yes"?><svg xmlns="http://www.w3.org/2000/svg" xmlns:xlink="http://www.w3.org/1999/xlink" width="60px" height="60px" viewBox="0 0 60 60" version="1.1" style="zoom: 1;"><!-- Generator: Sketch 51.3 (57544) - http://www.bohemiancoding.com/sketch --><title>Suit</title><desc>Created with Sketch.</desc><defs></defs><g id="Icons" stroke="none" stroke-width="1" fill="none" fill-rule="evenodd"><g id="Desktop-HD" transform="translate(-186.000000, -630.000000)"><g id="Suit" transform="translate(186.000000, 630.000000)"><rect id="Rectangle-19-Copy" fill-opacity="0.146880661" fill="#1373FE" fill-rule="nonzero" x="0" y="0" width="60" height="60" rx="8"></rect><g id="speech" stroke-width="1" fill-rule="evenodd" transform="translate(16.000000, 16.000000)" fill="#2100FF" fill-opacity="0.476109601"><path d="M26.32,20.0769231 L25.76,20.0769231 L25.76,18.2017385 C25.7602211,17.3091511 25.2261555,16.5023594 24.402336,16.1507692 L18.235728,13.5184615 C18.0165671,13.4255925 17.8329776,13.2653498 17.711792,13.0611538 C17.3229479,12.3951512 17.0508898,11.6680382 16.907296,10.9110269 C18.3075582,9.36146871 19.0691825,7.34281009 19.04,5.25836923 C18.9862446,2.46804646 16.7963365,0.183255765 14,0 C11.1919178,0.158074983 8.98795151,2.45753301 8.96,5.25836923 C8.93067358,7.3429484 9.69226469,9.36178446 11.092592,10.9114731 C10.9489494,11.6683303 10.6768927,12.3952885 10.288096,13.0611538 C10.1669104,13.2653498 9.98332095,13.4255925 9.76416,13.5184615 L3.597664,16.1507692 C2.77384448,16.5023594 2.2397789,17.3091511 2.24,18.2017385 L2.24,20.0769231 L1.68,20.0769231 C0.75216162,20.0769231 1.1362743e-16,20.8259851 0,21.75 L0,22.8653846 C0.00136163243,23.7422031 0.684057936,24.4683343 1.562512,24.5273077 C2.66378383,25.0730744 3.42377349,26.1247875 3.593632,27.3380769 C3.593632,27.6460819 3.84435254,27.8957692 4.153632,27.8957692 C4.46291146,27.8957692 4.713632,27.6460819 4.713632,27.3380769 C4.64051444,26.2742314 4.17130058,25.2758713 3.397856,24.5384615 L24.835776,24.5384615 C24.0623314,25.2758713 23.5931176,26.2742314 23.52,27.3380769 C23.52,27.6460819 23.7707205,27.8957692 24.08,27.8957692 C24.3892795,27.8957692 24.64,27.6460819 24.64,27.3380769 C24.8172502,26.0818607 25.6229504,25.0012522 26.7792,24.4689731 L26.785024,24.4651808 C27.5026259,24.2609606 27.9980399,23.6086337 28,22.8653846 L28,21.75 C28,21.3062724 27.8230005,20.8807187 27.5079394,20.566956 C27.1928783,20.2531932 26.7655637,20.0769231 26.32,20.0769231 Z M14,1.11538462 C16.179609,1.29206406 17.872337,3.08108093 17.92,5.25836923 C17.92,8.34385769 16.051616,11.1538462 14,11.1538462 C11.948384,11.1538462 10.08,8.34385769 10.08,5.25836923 C10.1060537,3.07232889 11.810335,1.27110148 14,1.11538462 Z M3.36,18.2017385 C3.35980341,17.7555819 3.6269091,17.3523392 4.038832,17.1769231 L10.205664,14.5446154 C10.6429714,14.359094 11.009243,14.03916 11.25096,13.6315615 C11.6069037,13.0264866 11.8832341,12.3783374 12.073152,11.7030615 C13.2458374,12.4582746 14.7542746,12.4582746 15.92696,11.7030615 C16.1168964,12.3781009 16.3931082,13.0260494 16.748816,13.6310038 C16.9906593,14.0388923 17.3571185,14.3590923 17.794672,14.5448385 L23.961168,17.1771462 C24.373016,17.3525305 24.6401069,17.7556629 24.64,18.2017385 L24.64,20.0769231 L14.56,20.0769231 L14.56,17.7437615 C15.3314261,17.4721451 15.7941684,16.6865631 15.6558056,15.8834489 C15.5174428,15.0803347 14.818221,14.4932926 14,14.4932926 C13.181779,14.4932926 12.4825572,15.0803347 12.3441944,15.8834489 C12.2058316,16.6865631 12.6685739,17.4721451 13.44,17.7437615 L13.44,20.0769231 L3.35999989,20.0769231 L3.36,18.2017385 Z M13.44,16.1730769 C13.44,15.865072 13.6907205,15.6153846 14,15.6153846 C14.3092795,15.6153846 14.56,15.865072 14.56,16.1730769 C14.56,16.4810819 14.3092795,16.7307692 14,16.7307692 C13.690874,16.7304005 13.4403703,16.480929 13.44,16.1730769 Z M1.12,21.75 C1.12037029,21.4421479 1.37087405,21.1926765 1.68,21.1923077 L26.32,21.1923077 C26.629126,21.1926765 26.8796297,21.4421479 26.88,21.75 L26.88,22.8653846 C26.8796297,23.1732367 26.629126,23.4227082 26.32,23.4230769 L1.68,23.4230769 C1.37087405,23.4227082 1.12037029,23.1732367 1.12,22.8653846 L1.12,21.75 Z" id="Shape" fill-rule="nonzero"></path></g></g></g></g><text stroke="none" id="text1" style="outline-style:none;" stroke-width="1px" x="4px" text-rendering="geometricPrecision" font-family="Helvetica" fill="#000000" font-size="32px" y="35px" transform="" text-anchor="start">Swim</text></svg>