<svg width="30" height="30" viewBox="0 0 30 30" fill="none" xmlns="http://www.w3.org/2000/svg">
<path d="M26 0H4C1.79086 0 0 1.79086 0 4V26C0 28.2091 1.79086 30 4 30H26C28.2091 30 30 28.2091 30 26V4C30 1.79086 28.2091 0 26 0Z" fill="#2196F3" fill-opacity="0.11849"/>
<path d="M15 24C17.6647 16.844 18.7511 12.7275 20 5H22L20.5 12L22 19C19.4524 20.2196 18.306 21.2658 17 24H15Z" fill="#2196F3" fill-opacity="0.13"/>
<path d="M10.7792 5H9.39762C8.71214 5 8.23138 5.67531 8.43643 6.3294C9.82631 10.7631 9.98745 13.6802 8.33861 18.1274C8.15574 18.6206 8.37046 19.1749 8.83232 19.4267C10.737 20.4651 11.7066 21.4968 12.7187 23.4396C12.8956 23.7793 13.2432 24 13.6262 24H16.3556C16.748 24 17.1019 23.7684 17.2757 23.4166C18.2333 21.4777 19.2119 20.4453 21.143 19.4246C21.6157 19.1747 21.8366 18.6105 21.6474 18.1105C19.9737 13.6852 20.1396 10.774 21.5547 6.33427C21.7635 5.67916 21.2826 5 20.595 5H19.2208C18.7903 5 18.4079 5.27586 18.211 5.65863C17.7569 6.54176 16.743 8 15 8C13.257 8 12.2431 6.54176 11.789 5.65863C11.5921 5.27586 11.2097 5 10.7792 5Z" stroke="#2196F3"/>
</svg>
