<svg width="30" height="30" viewBox="0 0 30 30" fill="none" xmlns="http://www.w3.org/2000/svg">
<path d="M26 0H4C1.79086 0 0 1.79086 0 4V26C0 28.2091 1.79086 30 4 30H26C28.2091 30 30 28.2091 30 26V4C30 1.79086 28.2091 0 26 0Z" fill="#5D4037" fill-opacity="0.11849"/>
<path d="M5 23V6H25V23H5Z" fill="#795548" fill-opacity="0.22"/>
<path d="M7.10526 8L9.41415 9.09672C10.1754 9.45832 10.1754 10.5417 9.41415 10.9033L7.10526 12M25 7V22C25 22.5523 24.5523 23 24 23H6C5.44772 23 5 22.5523 5 22V7C5 6.44772 5.44772 6 6 6H24C24.5523 6 25 6.44772 25 7Z" stroke="#795548"/>
<path d="M11 12H17" stroke="#795548"/>
</svg>
