<svg width="30" height="30" viewBox="0 0 30 30" fill="none" xmlns="http://www.w3.org/2000/svg">
<path d="M26 0H4C1.79086 0 0 1.79086 0 4V26C0 28.2091 1.79086 30 4 30H26C28.2091 30 30 28.2091 30 26V4C30 1.79086 28.2091 0 26 0Z" fill="#303F9F" fill-opacity="0.11849"/>
<path d="M15.5 10H15C15.6968 16.1807 15.2829 19.0759 13.5 23.5L14.5 24.5L18 20L17 10L17.5 5.5L16 5C16.0896 7.02377 15.9597 8.1134 15.5 10Z" fill="#303F9F" fill-opacity="0.22"/>
<path d="M17 10L17.39 6.0995C17.4489 5.51082 16.9866 5 16.395 5H12.605C12.0134 5 11.5511 5.51082 11.61 6.0995L12 10M17 10H12M17 10L17.9631 19.6309C17.9869 19.869 17.9245 20.1078 17.7873 20.3039L15.3192 23.8297C14.9211 24.3984 14.0789 24.3984 13.6808 23.8297L11.2127 20.3039C11.0755 20.1078 11.0131 19.869 11.0369 19.6309L12 10" stroke="#3F51B5"/>
</svg>
