<?xml version="1.0" encoding="UTF-8"?>
<svg width="60px" height="60px" viewBox="0 0 60 60" version="1.1" xmlns="http://www.w3.org/2000/svg" xmlns:xlink="http://www.w3.org/1999/xlink">
    <!-- Generator: Sketch 51.3 (57544) - http://www.bohemiancoding.com/sketch -->
    <title>Vegan</title>
    <desc>Created with Sketch.</desc>
    <defs></defs>
    <g id="Icons" stroke="none" stroke-width="1" fill="none" fill-rule="evenodd">
        <g id="Desktop-HD" transform="translate(-186.000000, -521.000000)">
            <g id="Vegan" transform="translate(186.000000, 521.000000)">
                <rect id="Rectangle-19-Copy" fill-opacity="0.286118659" fill="#50E3C2" fill-rule="nonzero" x="0" y="0" width="60" height="60" rx="8"></rect>
                <g id="apple" stroke-width="1" fill-rule="evenodd" transform="translate(20.000000, 16.000000)" fill="#2DB496">
                    <path d="M6.536,26.3668 L6.33722222,26.33055 L6.13844444,26.3668 L5.35966667,26.4894923 C5.76805856,26.6706225 6.20909203,26.7658267 6.65555556,26.7692308 C6.85700376,26.7690972 7.05803316,26.7508058 7.25622222,26.7145769 L8.00377778,26.5972385 L6.536,26.3668 Z" id="Shape" fill-rule="nonzero"></path>
                    <path d="M6.02688889,2.23076923 C7.70222222,2.23076923 8.80466667,4.30471538 8.80466667,5.01923077 C8.80466667,5.02703846 8.80877778,5.03228077 8.809,5.03986538 C8.81143335,5.20645194 8.82293197,5.37278061 8.84344444,5.53810769 C9.0393931,5.5661633 9.23719169,5.57913957 9.43511111,5.57692308 C10.7478488,5.59278536 12.0130448,5.08424691 12.9521111,4.16328462 C14.0050344,3.06629123 14.508231,1.55069019 14.3214444,0.0389269231 C14.1254986,0.0108340056 13.9277,-0.0021795572 13.7297778,-1.72388145e-16 C12.41704,-0.0158622854 11.151844,0.492676163 10.2127778,1.41363846 C9.81590831,1.8112888 9.49381654,2.27759974 9.262,2.79013462 C8.50988177,1.74769021 7.30905432,1.12604671 6.02688889,1.11538462 C5.828408,1.11538461 5.6450041,1.22168016 5.54576365,1.39423077 C5.44652321,1.56678137 5.44652321,1.77937248 5.54576365,1.95192308 C5.6450041,2.12447368 5.828408,2.23076923 6.02688889,2.23076923 Z M10.9984444,2.20232692 C11.5995676,1.60914238 12.3825938,1.23707137 13.2206667,1.14639231 C13.1300501,1.98732401 12.7585606,2.7727091 12.1666667,3.37470769 C11.5655485,3.9678995 10.7825197,4.33997178 9.94444444,4.43064231 C10.0350924,3.58978463 10.406581,2.80448017 10.9984444,2.20255 L10.9984444,2.20232692 Z" id="Shape" fill-rule="nonzero"></path>
                    <path d="M13.0293333,6.83652692 C11.9651111,6.74896923 10.6055556,6.69230769 9.67055556,6.69230769 C8.73555556,6.69230769 7.37611111,6.74885769 6.31188889,6.83641538 C4.39746208,7.00171358 2.64757068,7.98937526 1.51212218,9.54546671 C0.376673676,11.1015582 -0.0335621079,13.0742733 0.386888889,14.9564154 L2.32144444,24.39045 C2.83739947,26.7312557 5.10543689,28.2430346 7.45477778,27.8121154 L9.67022222,27.46445 L11.8856667,27.8121154 C14.2349951,28.2429736 16.5029938,26.7312204 17.019,24.39045 L18.9535556,14.9564154 C19.3739622,13.0744132 18.9638085,11.1018496 17.828533,9.54581228 C16.6932574,7.98977492 14.9435955,7.00204076 13.0293333,6.83652692 Z M17.8696667,14.7141538 L15.935,24.1480769 C15.5485968,25.9041741 13.8470036,27.0383318 12.0847778,26.7143538 L9.86933333,26.3666885 L9.67055556,26.3304385 L9.47177778,26.3666885 L7.25633333,26.7143538 C5.49414601,27.0382651 3.79262523,25.9041229 3.40622222,24.1480769 L1.47155556,14.7141538 C1.12205723,13.13532 1.47032203,11.4819094 2.42655556,10.1802269 C3.36825989,8.89429688 4.81822594,8.08035618 6.40266667,7.94823077 C7.53455556,7.85509615 8.84011111,7.80769231 9.67055556,7.80769231 C10.501,7.80769231 11.8066667,7.85498462 12.9385556,7.94811923 C14.5229963,8.08024465 15.9729623,8.89418534 16.9146667,10.1801154 C17.8709324,11.481826 18.2191987,13.1352846 17.8696667,14.7141538 Z" id="Shape" fill-rule="nonzero"></path>
                </g>
            </g>
        </g>
    </g>
</svg>