<svg width="30" height="30" viewBox="0 0 30 30" fill="none" xmlns="http://www.w3.org/2000/svg">
<path d="M26 0H4C1.79086 0 0 1.79086 0 4V26C0 28.2091 1.79086 30 4 30H26C28.2091 30 30 28.2091 30 26V4C30 1.79086 28.2091 0 26 0Z" fill="#F57C00" fill-opacity="0.11849"/>
<path d="M15 11C16.3987 14.5949 16.0731 17.2872 14 23L15 24.5C16.8653 22.6255 17.1739 20.0383 18 16L17 11H15Z" fill="#FF9800" fill-opacity="0.22"/>
<path d="M16.4624 11H13.5376C13.0756 11 12.6739 11.3164 12.5749 11.7677C12.3532 12.7771 12 14.5294 12 15.4444C12 16.2805 13.1795 20.6114 14.0593 23.7256C14.3308 24.6863 15.6692 24.6863 15.9407 23.7256C16.8205 20.6114 18 16.2805 18 15.4444C18 14.5294 17.6468 12.7771 17.4251 11.7677C17.3261 11.3164 16.9244 11 16.4624 11Z" stroke="#FF9800"/>
<path d="M11 3L13.518 10.3251C13.6568 10.7289 14.0367 11 14.4637 11H14.5M14.5 11L13.25 3M14.5 11H15.25M15.25 11V3M15.25 11H16M16 11L16.75 3M16 11V11C16.4435 11 16.833 10.705 16.9531 10.278L19 3" stroke="#FF9800"/>
</svg>
