<?xml version="1.0" encoding="UTF-8"?>
<svg width="60px" height="60px" viewBox="0 0 60 60" version="1.1" xmlns="http://www.w3.org/2000/svg" xmlns:xlink="http://www.w3.org/1999/xlink">
    <!-- Generator: Sketch 51.3 (57544) - http://www.bohemiancoding.com/sketch -->
    <title>Vegetarian </title>
    <desc>Created with Sketch.</desc>
    <defs></defs>
    <g id="Icons" stroke="none" stroke-width="1" fill="none" fill-rule="evenodd">
        <g id="Desktop-HD" transform="translate(-186.000000, -412.000000)">
            <g id="Vegetarian-" transform="translate(186.000000, 412.000000)">
                <g id="Pet-friendly-Copy" fill="#39FF00" fill-opacity="0.265285326">
                    <g id="Outside-Meeting-Copy" fill-rule="nonzero">
                        <rect id="Rectangle-19" x="0" y="0" width="60" height="60" rx="8"></rect>
                    </g>
                </g>
                <g id="vegetarian" transform="translate(18.000000, 19.000000)" fill="#417505">
                    <path d="M24.9194,0.259 L24.9112,0.2466 C24.8208136,0.0971505979 24.6604066,0.00416432557 24.4858,0 L24.4825,0 C9.7,0.15 0.2184,6.7109 7.7007786e-16,21.4783 C-0.000244678357,21.7636501 0.228975481,21.9961684 0.5143,22 L0.5176,22 C15.3,21.85 24.7817,15.289 25,0.5216 C24.9986094,0.428189748 24.9706529,0.337105983 24.9194,0.259 Z M10.9007,8.9384 L9.9693,4.3369 C13.8422591,2.29700945 18.1334085,1.17758065 22.5093,1.0656 C18.3823753,3.28871015 14.4927483,5.92660408 10.9007,8.9384 Z M23.9666,1.4216 C23.892339,3.89251851 23.4381537,6.33728108 22.62,8.67 L15.21,6.8107 C17.950566,4.73954214 20.8827564,2.93497563 23.9666,1.4216 Z M9.0613,4.89 L10.0283,9.6689 C6.58064678,12.4464521 3.57157907,15.7280509 1.1026,19.403 C1.7016,12.1542 4.8368,7.636 9.0613,4.89 Z M5.0948,15.7486 L15.3798,17.4656 C11.2229,19.9613 6.1165,20.8481 1.3498,20.9817 C2.3568421,19.0766856 3.61656138,17.3164087 5.0948,15.7486 Z M16.6024,16.6559 L5.9078,14.8705 C8.46812517,12.2273795 11.2329682,9.79035333 14.1766,7.5821 L22.2457,9.6069 C21.0581925,12.4365179 19.1035918,14.8779936 16.6024,16.6559 Z" id="Shape" fill-rule="nonzero"></path>
                </g>
            </g>
        </g>
    </g>
</svg>