<svg width="30" height="30" viewBox="0 0 30 30" fill="none" xmlns="http://www.w3.org/2000/svg">
<circle cx="15" cy="15" r="14.5" stroke="#1976D2"/>
<path d="M0.5 15H29.5M15 29.5V0.5" stroke="#1976D2"/>
<path d="M23.5 15C23.5 19.0671 22.5099 22.725 20.9352 25.3494C19.3546 27.9837 17.2407 29.5 15 29.5C12.7593 29.5 10.6454 27.9837 9.06479 25.3494C7.49014 22.725 6.5 19.0671 6.5 15C6.5 10.9329 7.49014 7.27505 9.06479 4.65065C10.6454 2.01629 12.7593 0.5 15 0.5C17.2407 0.5 19.3546 2.01629 20.9352 4.65065C22.5099 7.27505 23.5 10.9329 23.5 15Z" stroke="#1976D2"/>
</svg>
