<?xml version="1.0" encoding="UTF-8"?>
<svg width="22px" height="15px" viewBox="0 0 22 15" version="1.1" xmlns="http://www.w3.org/2000/svg" xmlns:xlink="http://www.w3.org/1999/xlink">
    <!-- Generator: Sketch 51.3 (57544) - http://www.bohemiancoding.com/sketch -->
    <title>cloud</title>
    <desc>Created with Sketch.</desc>
    <defs></defs>
    <g id="Icons" stroke="none" stroke-width="1" fill="none" fill-rule="evenodd">
        <g id="Desktop-HD-Copy" transform="translate(-193.000000, -292.000000)" fill="#1485FC">
            <g id="cloud" transform="translate(192.000000, 292.000000)">
                <g id="Shape">
                    <path d="M19.3734,4.6266 C19.7787678,5.35235668 19.9942975,6.16872791 20,7 C19.9968588,9.76012159 17.7601216,11.9968588 15,12 L6.0343,12 C4.96059688,11.9227632 3.92351186,11.5769765 3.0183,10.9944 C4.1193094,12.7347675 5.9803821,13.849927 8.0343,14 L17,14 C19.2873051,14.0079485 21.2862662,12.4576056 21.8476881,10.2402573 C22.4091101,8.02290907 21.3887875,5.70809797 19.3733,4.6266 L19.3734,4.6266 Z" fill-rule="nonzero" opacity="0.2"></path>
                    <path d="M8.5,1 C11.304,1 12.9668,2.4516 14.3982,4.6569 C15.2073298,4.25120686 16.0952637,4.02702216 17,4 C19.7614237,4 22,6.23857625 22,9 C22,11.7614237 19.7614237,14 17,14 L8.0343,14 C4.54348021,13.7442889 1.87996977,10.7736097 2.00527636,7.27568042 C2.13058295,3.77775115 4.99983099,1.00527233 8.5,1 Z M8.5,4.4408921e-16 C4.45354464,0.00424449446 1.1382511,3.21423671 1.00344405,7.25844813 C0.868637001,11.3026596 3.96280943,14.7263006 8,15 L17,15 C19.4178139,15.0039091 21.601738,13.5562159 22.5397561,11.3277722 C23.4777741,9.09932844 22.9865852,6.52560086 21.2938031,4.79923818 C19.601021,3.0728755 17.0374373,2.5312313 14.791,3.4253 C13.4115076,1.2895467 11.0425266,-0.000307201959 8.5,4.4408921e-16 Z" fill-rule="nonzero"></path>
                </g>
            </g>
        </g>
    </g>
</svg>