<?xml version="1.0" encoding="UTF-8"?>
<svg width="22px" height="20px" viewBox="0 0 22 20" version="1.1" xmlns="http://www.w3.org/2000/svg" xmlns:xlink="http://www.w3.org/1999/xlink">
    <!-- Generator: Sketch 51.3 (57544) - http://www.bohemiancoding.com/sketch -->
    <title>lighting</title>
    <desc>Created with Sketch.</desc>
    <defs></defs>
    <g id="Icons" stroke="none" stroke-width="1" fill="none" fill-rule="evenodd">
        <g id="Desktop-HD-Copy" transform="translate(-192.000000, -244.000000)" fill="#1485FC">
            <g id="lighting" transform="translate(192.000000, 244.000000)">
                <g id="Shape">
                    <path d="M10.7278,12 L5.0343,12 C3.96059688,11.9227632 2.92351186,11.5769765 2.0183,10.9944 C3.1193094,12.7347675 4.9803821,13.849927 7.0343,14 L9.1278,14 L10.7278,12 Z" fill-opacity="0.2" fill-rule="nonzero"></path>
                    <path d="M18.3734,4.6266 C18.7787678,5.35235668 18.9942975,6.16872791 19,7 C18.9968588,9.76012159 16.7601216,11.9968588 14,12 L12.29,12 L12,13.16 L13.68,14 L16,14 C18.2873051,14.0079485 20.2862662,12.4576056 20.8476881,10.2402573 C21.4091101,8.02290907 20.3887875,5.70809797 18.3733,4.6266 L18.3734,4.6266 Z" fill-rule="nonzero" opacity="0.2"></path>
                    <path d="M16,3 C15.2435881,2.99940414 14.4940703,3.14377457 13.792,3.4253 C11.9863302,0.638382355 8.56272769,-0.629028278 5.37760605,0.310308561 C2.19248441,1.2496454 0.00449968017,4.17199144 6.42188138e-05,7.49273441 C-0.00437124254,10.8134774 2.17579903,13.7416579 5.3584,14.6895 C5.53139515,14.7466949 5.7218073,14.705257 5.85538943,14.5813442 C5.98897156,14.4574313 6.04457311,14.2706632 6.00051348,14.0938658 C5.95645385,13.9170684 5.81970916,13.7782347 5.6436,13.7315 C2.83734318,12.896652 0.935579676,10.2886954 0.998542896,7.36156645 C1.06150612,4.43443745 3.07365419,1.91067003 5.91321429,1.19726486 C8.75277439,0.483859693 11.7188281,1.75691407 13.1578,4.3067 C13.2871888,4.53762252 13.5746928,4.62686607 13.8121,4.5098 C14.4926655,4.17436141 15.2412587,3.99993259 16,4 C18.4956967,4.00032351 20.6091116,5.840639 20.9525696,8.31258941 C21.2960276,10.7845398 19.7643751,13.1313087 17.3633,13.812 C17.1234189,13.8800854 16.9703708,14.1145081 17.0045384,14.3615124 C17.0387061,14.6085168 17.249644,14.7925899 17.499,14.793 C17.5452359,14.7931639 17.5912613,14.7867668 17.6357,14.774 C20.5170305,13.9573684 22.3551365,11.1413168 21.9430395,8.17498434 C21.5309425,5.20865183 18.9948209,3.00028871 16,3 Z" fill-rule="nonzero"></path>
                    <path d="M14.4473,13.2654 L13.1647,12.6242 C13.2104,12.4412 14.0025,9.3415 14.0025,9.1598 C14.003744,8.61237187 13.5636926,8.16616277 13.0163,8.1598 L13,8.1598 C12.9784,8.1598 12.9568,8.1604 12.9354,8.1619 C12.7640603,8.17255974 12.5984081,8.22744409 12.4546,8.3212 C12.2202,8.4736 8.3933,13.3168 8.2186,13.5351 C8.02991302,13.7709121 7.95790515,14.0793675 8.02268002,14.3743494 C8.08745489,14.6693314 8.28207314,14.9192385 8.5522,15.0543 L9.8179,15.6871 L8.9817,18.7356 C8.857246,19.1890622 9.0655386,19.6679737 9.48210009,19.8861325 C9.89866159,20.1042913 10.410943,20.0027539 10.7128,19.6422 L14.7661,14.8022 C14.9625243,14.5676514 15.0407765,14.2560933 14.9784929,13.9565666 C14.9162093,13.6570398 14.7202431,13.4025027 14.4466,13.2657 L14.4473,13.2654 Z M9.9467,19 L11,15.16 L9,14.16 L13,9.16 L12,13.16 L14,14.16 L9.9467,19 Z" fill-rule="nonzero"></path>
                </g>
            </g>
        </g>
    </g>
</svg>