<svg width="21" height="21" viewBox="0 0 21 21" fill="none" xmlns="http://www.w3.org/2000/svg">
<path opacity="0.108817" d="M10.4999 3.35986H10.4982C13.3897 4.9006 14.8614 8.2117 14.0675 11.3904C13.2736 14.5692 10.418 16.7996 7.1416 16.7999C9.76442 18.1987 12.9795 17.8262 15.213 15.8648C17.4465 13.9033 18.2312 10.7632 17.1828 7.98171C16.1344 5.20018 13.4725 3.35916 10.4999 3.35986Z" fill="#1814FC"/>
<path d="M10.5002 6.72021C8.41258 6.72021 6.72021 8.41258 6.72021 10.5002C6.72021 12.5879 8.41258 14.2802 10.5002 14.2802C12.5879 14.2802 14.2802 12.5879 14.2802 10.5002C14.2802 9.4977 13.882 8.53624 13.1731 7.82735C12.4642 7.11846 11.5027 6.72021 10.5002 6.72021ZM10.5002 13.4402C8.8765 13.4402 7.56021 12.1239 7.56021 10.5002C7.56021 8.8765 8.8765 7.56021 10.5002 7.56021C12.1239 7.56021 13.4402 8.8765 13.4402 10.5002C13.4384 12.1232 12.1232 13.4384 10.5002 13.4402Z" fill="#1814FC"/>
<path d="M20.58 10.08H18.4587C18.2451 6.00823 14.9918 2.75486 10.92 2.54134V0.42C10.92 0.18804 10.732 0 10.5 0C10.268 0 10.08 0.18804 10.08 0.42V2.54134C6.00814 2.75474 2.75462 6.00814 2.54108 10.08H0.42C0.18804 10.08 0 10.268 0 10.5C0 10.732 0.18804 10.92 0.42 10.92H2.54108C2.75462 14.9919 6.00814 18.2453 10.08 18.4587V20.58C10.08 20.812 10.268 21 10.5 21C10.732 21 10.92 20.812 10.92 20.58V18.4587C14.9918 18.2451 18.2451 14.9918 18.4587 10.92H20.58C20.812 10.92 21 10.732 21 10.5C21 10.268 20.812 10.08 20.58 10.08ZM10.5 17.64C6.55669 17.64 3.36 14.4433 3.36 10.5C3.36 6.55669 6.55669 3.36 10.5 3.36C14.4433 3.36 17.64 6.55669 17.64 10.5C17.6354 14.4414 14.4414 17.6354 10.5 17.64Z" fill="#1814FC"/>
</svg>
