<?xml version="1.0" encoding="UTF-8"?>
<svg width="22px" height="21px" viewBox="0 0 22 21" version="1.1" xmlns="http://www.w3.org/2000/svg" xmlns:xlink="http://www.w3.org/1999/xlink">
    <!-- Generator: Sketch 51.3 (57544) - http://www.bohemiancoding.com/sketch -->
    <title>rain</title>
    <desc>Created with Sketch.</desc>
    <defs></defs>
    <g id="Icons" stroke="none" stroke-width="1" fill="none" fill-rule="evenodd">
        <g id="Desktop-HD-Copy" transform="translate(-191.000000, -149.000000)" fill="#1485FC">
            <g id="rain" transform="translate(191.000000, 149.000000)">
                <g id="Shape">
                    <path d="M18.355,4.6266 C18.7604375,5.35233817 18.9760363,6.16871048 18.9818,7 C18.9786588,9.76012159 16.7419216,11.9968588 13.9818,12 L5.016,12 C3.94229688,11.9227632 2.90521186,11.5769765 2,10.9944 C3.1010094,12.7347675 4.9620821,13.849927 7.016,14 L15.9818,14 C18.2690864,14.0079023 20.2680046,12.4575441 20.8293997,10.2402085 C21.3907948,8.02287299 20.3704707,5.70808933 18.355,4.6266 Z" fill-rule="nonzero" opacity="0.197087"></path>
                    <path d="M8.5,12 C8.22385763,12 8,12.2238576 8,12.5 L8,15.5 C8,15.7761424 8.22385763,16 8.5,16 C8.77614237,16 9,15.7761424 9,15.5 L9,12.5 C9,12.2238576 8.77614237,12 8.5,12 Z" fill-rule="nonzero"></path>
                    <path d="M14.5,12 C14.2238576,12 14,12.2238576 14,12.5 L14,15.5 C14,15.7761424 14.2238576,16 14.5,16 C14.7761424,16 15,15.7761424 15,15.5 L15,12.5 C15,12.2238576 14.7761424,12 14.5,12 Z" fill-rule="nonzero"></path>
                    <path d="M8.5,17 C8.22385763,17 8,17.2238576 8,17.5 L8,18.5 C8,18.7761424 8.22385763,19 8.5,19 C8.77614237,19 9,18.7761424 9,18.5 L9,17.5 C9,17.2238576 8.77614237,17 8.5,17 Z" fill-rule="nonzero"></path>
                    <path d="M14.5,17 C14.2238576,17 14,17.2238576 14,17.5 L14,18.5 C14,18.7761424 14.2238576,19 14.5,19 C14.7761424,19 15,18.7761424 15,18.5 L15,17.5 C15,17.2238576 14.7761424,17 14.5,17 Z" fill-rule="nonzero"></path>
                    <path d="M11.5,19 C11.2238576,19 11,19.2238576 11,19.5 L11,20.5 C11,20.7761424 11.2238576,21 11.5,21 C11.7761424,21 12,20.7761424 12,20.5 L12,19.5 C12,19.2238576 11.7761424,19 11.5,19 Z" fill-rule="nonzero"></path>
                    <path d="M11.5,14 C11.2238576,14 11,14.2238576 11,14.5 L11,17.5 C11,17.7761424 11.2238576,18 11.5,18 C11.7761424,18 12,17.7761424 12,17.5 L12,14.5 C12,14.2238576 11.7761424,14 11.5,14 Z" fill-rule="nonzero"></path>
                    <path d="M16,3 C15.2435881,2.99940414 14.4940703,3.14377457 13.792,3.4253 C11.9863302,0.638382355 8.56272769,-0.629028278 5.37760605,0.310308561 C2.19248441,1.2496454 0.00449968017,4.17199144 6.42188138e-05,7.49273441 C-0.00437124254,10.8134774 2.17579903,13.7416579 5.3584,14.6895 C5.53139515,14.7466949 5.7218073,14.705257 5.85538943,14.5813442 C5.98897156,14.4574313 6.04457311,14.2706632 6.00051348,14.0938658 C5.95645385,13.9170684 5.81970916,13.7782347 5.6436,13.7315 C2.83734318,12.896652 0.935579676,10.2886954 0.998542896,7.36156645 C1.06150612,4.43443745 3.07365419,1.91067003 5.91321429,1.19726486 C8.75277439,0.483859693 11.7188281,1.75691407 13.1578,4.3067 C13.2871888,4.53762252 13.5746928,4.62686607 13.8121,4.5098 C14.4926655,4.17436141 15.2412587,3.99993259 16,4 C18.4956967,4.00032351 20.6091116,5.840639 20.9525696,8.31258941 C21.2960276,10.7845398 19.7643751,13.1313087 17.3633,13.812 C17.1234189,13.8800854 16.9703708,14.1145081 17.0045384,14.3615124 C17.0387061,14.6085168 17.249644,14.7925899 17.499,14.793 C17.5452359,14.7931639 17.5912613,14.7867668 17.6357,14.774 C20.5170305,13.9573684 22.3551365,11.1413168 21.9430395,8.17498434 C21.5309425,5.20865183 18.9948209,3.00028871 16,3 Z" fill-rule="nonzero"></path>
                </g>
            </g>
        </g>
    </g>
</svg>