<?xml version="1.0" encoding="UTF-8"?>
<svg width="19px" height="21px" viewBox="0 0 19 21" version="1.1" xmlns="http://www.w3.org/2000/svg" xmlns:xlink="http://www.w3.org/1999/xlink">
    <!-- Generator: Sketch 51.3 (57544) - http://www.bohemiancoding.com/sketch -->
    <title>snowflakes</title>
    <desc>Created with Sketch.</desc>
    <defs></defs>
    <g id="Icons" stroke="none" stroke-width="1" fill="none" fill-rule="evenodd">
        <g id="Desktop-HD-Copy" transform="translate(-196.000000, -335.000000)" fill="#1485FC">
            <g id="snowflakes" transform="translate(196.000000, 335.000000)">
                <g id="Shape">
                    <path d="M18.9829,12.3706 C18.9114044,12.1039247 18.6372934,11.9456718 18.3706,12.0171 L14.7898,12.9766 L10.5,10.5 L14.79,8.0233 L18.3708,8.9828 C18.6356279,9.04926893 18.9048081,8.89099551 18.9754803,8.6272582 C19.0461525,8.36352089 18.89218,8.0918576 18.6296,8.017 L16.0145,7.3163 L18.42,5.9272 C18.5322264,5.86247302 18.6141374,5.75580854 18.6477078,5.63067913 C18.6812782,5.50554973 18.663757,5.37220903 18.599,5.26 L18.5875,5.24 C18.5227222,5.12777029 18.4159991,5.04588391 18.2908257,5.01236806 C18.1656524,4.97885222 18.0322907,4.99645458 17.9201,5.0613 L15.1744,6.6465 L15.9829,3.6294 C16.0493689,3.36457211 15.8910955,3.09539188 15.6273582,3.02471967 C15.3636209,2.95404747 15.0919576,3.10801998 15.0171,3.3706 L13.95,7.3535 L10,9.634 L10,4.707 L12.8535,1.8535 C12.9834783,1.72796276 13.0356063,1.54206105 12.9898486,1.36724634 C12.9440909,1.19243162 12.8075684,1.05590914 12.6327537,1.01015142 C12.4579389,0.964393701 12.2720372,1.01652171 12.1465,1.1465 L10,3.293 L10,0.4885 C9.99994479,0.21873177 9.78126823,5.52068429e-05 9.5115,0 L9.4886,0 C9.21879272,-5.65088798e-09 9.00005522,0.218692724 9,0.4885 L9,3.293 L6.8535,1.1465 C6.65731056,0.957013895 6.34545761,0.959723813 6.15259071,1.15259071 C5.95972381,1.34545761 5.9570139,1.65731056 6.1465,1.8535 L9,4.707 L9,9.634 L5.05,7.3535 L3.9829,3.3706 C3.9389525,3.1955028 3.80403038,3.05769273 3.62990306,3.0100473 C3.45577574,2.96240187 3.26948645,3.01232076 3.14251412,3.14065017 C3.01554178,3.26897959 2.96760613,3.45578903 3.0171,3.6294 L3.8256,6.6465 L1.08,5.0613 C0.967809326,4.99645458 0.834447592,4.97885222 0.709274256,5.01236806 C0.584100919,5.04588391 0.47737784,5.12777029 0.4126,5.24 L0.4011,5.26 C0.336326361,5.37218479 0.318774744,5.50550725 0.352306853,5.63063377 C0.385838963,5.7557603 0.467707588,5.86243957 0.5799,5.9272 L2.9857,7.3162 L0.3707,8.0169 C0.108119978,8.0917576 -0.0458525324,8.36342089 0.0248196725,8.6271582 C0.0954918773,8.89089551 0.364672113,9.04916893 0.6295,8.9827 L4.21,8.0233 L8.5,10.5 L4.21,12.9766 L0.6292,12.0171 C0.364372113,11.9506311 0.0951918773,12.1089045 0.0245196725,12.3726418 C-0.0461525324,12.6363791 0.107819978,12.9080424 0.3704,12.9829 L2.9854,13.6836 L0.58,15.0728 C0.467807588,15.1375604 0.385938963,15.2442397 0.352406853,15.3693662 C0.318874744,15.4944928 0.336426361,15.6278152 0.4012,15.74 L0.4127,15.76 C0.47747784,15.8722297 0.584200919,15.9541161 0.709374256,15.9876319 C0.834547592,16.0211478 0.967909326,16.0035454 1.0801,15.9387 L3.8258,14.3535 L3.0171,17.37 C2.96760613,17.543611 3.01554178,17.7304204 3.14251412,17.8587498 C3.26948645,17.9870792 3.45577574,18.0369981 3.62990306,17.9893527 C3.80403038,17.9417073 3.9389525,17.8038972 3.9829,17.6288 L5.05,13.6465 L9,11.366 L9,16.293 L6.1465,19.1465 C6.01652171,19.2720372 5.9643937,19.4579389 6.01015142,19.6327537 C6.05590914,19.8075684 6.19243162,19.9440909 6.36724634,19.9898486 C6.54206105,20.0356063 6.72796276,19.9834783 6.8535,19.8535 L9,17.707 L9,20.5114 C8.99999999,20.7812073 9.21869272,20.9999448 9.4885,21 L9.5114,21 C9.78120728,21 9.99994478,20.7813073 10,20.5115 L10,17.707 L12.1465,19.8535 C12.3426894,20.0429861 12.6545424,20.0402762 12.8474093,19.8474093 C13.0402762,19.6545424 13.0429861,19.3426894 12.8535,19.1465 L10,16.293 L10,11.366 L13.95,13.6465 L15.0173,17.6293 C15.0921576,17.89188 15.3638209,18.0458525 15.6275582,17.9751803 C15.8912955,17.9045081 16.0495689,17.6353279 15.9831,17.3705 L15.1746,14.3535 L17.92,15.9387 C18.0321907,16.0035454 18.1655524,16.0211478 18.2907257,15.9876319 C18.4158991,15.9541161 18.5226222,15.8722297 18.5874,15.76 L18.5989,15.74 C18.6636736,15.6278152 18.6812253,15.4944928 18.6476931,15.3693662 C18.614161,15.2442397 18.5322924,15.1375604 18.4201,15.0728 L16.0143,13.6836 L18.6293,12.9829 C18.8960158,12.9114487 19.0543215,12.6373237 18.9829,12.3706 Z" fill-rule="nonzero"></path>
                </g>
            </g>
        </g>
    </g>
</svg>