<?xml version="1.0" encoding="UTF-8"?>
<svg width="25px" height="25px" viewBox="0 0 25 25" version="1.1" xmlns="http://www.w3.org/2000/svg" xmlns:xlink="http://www.w3.org/1999/xlink">
    <!-- Generator: Sketch 51.3 (57544) - http://www.bohemiancoding.com/sketch -->
    <title>Sun</title>
    <desc>Created with Sketch.</desc>
    <defs></defs>
    <g id="Icons" stroke="none" stroke-width="1" fill="none" fill-rule="evenodd">
        <g id="Desktop-HD-Copy" transform="translate(-189.000000, -96.000000)" fill="#1485FC">
            <g id="Sun" transform="translate(189.000000, 96.000000)">
                <g id="day">
                    <path d="M15.98,7.02 C17.6168832,9.58622199 17.249952,12.9453308 15.0976414,15.0976414 C12.9453308,17.249952 9.58622199,17.6168832 7.02,15.98 C8.445405,18.2328251 11.1028487,19.3856569 13.7217497,18.8873015 C16.3406507,18.3889461 18.3889461,16.3406507 18.8873015,13.7217497 C19.3856569,11.1028487 18.2328251,8.445405 15.98,7.02 Z" id="Shape" opacity="0.203236607"></path>
                    <path d="M12.5,5 C8.35786438,5 5,8.35786438 5,12.5 C5,16.6421356 8.35786438,20 12.5,20 C16.6421356,20 20,16.6421356 20,12.5 C20,10.5108763 19.2098237,8.60322198 17.8033009,7.19669914 C16.396778,5.7901763 14.4891237,5 12.5,5 Z M12.5,19 C8.91014913,19 6,16.0898509 6,12.5 C6,8.91014913 8.91014913,6 12.5,6 C16.0898509,6 19,8.91014913 19,12.5 C18.995922,16.0881603 16.0881603,18.995922 12.5,19 Z" id="Shape"></path>
                    <path d="M12.5,3 C12.7761424,3 13,2.77614237 13,2.5 L13,0.5 C13,0.223857625 12.7761424,1.69088438e-17 12.5,0 C12.2238576,-1.69088438e-17 12,0.223857625 12,0.5 L12,2.5 C12,2.77614237 12.2238576,3 12.5,3 Z" id="Shape"></path>
                    <path d="M12.5,22 C12.2238576,22 12,22.2238576 12,22.5 L12,24.5 C12,24.7761424 12.2238576,25 12.5,25 C12.7761424,25 13,24.7761424 13,24.5 L13,22.5 C13,22.2238576 12.7761424,22 12.5,22 Z" id="Shape"></path>
                    <path d="M2.5,12 L0.5,12 C0.223857625,12 3.38176876e-17,12.2238576 0,12.5 C-3.38176876e-17,12.7761424 0.223857625,13 0.5,13 L2.5,13 C2.77614237,13 3,12.7761424 3,12.5 C3,12.2238576 2.77614237,12 2.5,12 Z" id="Shape"></path>
                    <path d="M24.5,12 L22.5,12 C22.2238576,12 22,12.2238576 22,12.5 C22,12.7761424 22.2238576,13 22.5,13 L24.5,13 C24.7761424,13 25,12.7761424 25,12.5 C25,12.2238576 24.7761424,12 24.5,12 Z" id="Shape"></path>
                    <path d="M5.0754,5.7825 C5.27158944,5.9719861 5.58344239,5.96927619 5.77630929,5.77640929 C5.96917619,5.58354239 5.9718861,5.27168944 5.7824,5.0755 L4.3683,3.6611 C4.17301211,3.46581212 3.85638789,3.46581213 3.66110001,3.66110001 C3.46581213,3.85638789 3.46581212,4.17301211 3.6611,4.3683 L5.0754,5.7825 Z" id="Shape"></path>
                    <path d="M19.9246,19.2175 C19.7284106,19.0280139 19.4165576,19.0307238 19.2236907,19.2235907 C19.0308238,19.4164576 19.0281139,19.7283106 19.2176,19.9245 L20.6318,21.3388 C20.7581291,21.4651291 20.9422578,21.5144663 21.1148266,21.4682266 C21.2873954,21.4219869 21.4221869,21.2871954 21.4684266,21.1146266 C21.5146663,20.9420578 21.4653291,20.7579291 21.339,20.6316 L19.9246,19.2175 Z" id="Shape"></path>
                    <path d="M5.0754,19.2175 L3.6611,20.6317 C3.53477089,20.7580291 3.48543375,20.9421578 3.53167342,21.1147266 C3.57791308,21.2872954 3.71270464,21.4220869 3.88527342,21.4683266 C4.05784219,21.5145662 4.24197089,21.4652291 4.3683,21.3389 L5.7825,19.9246 C5.9719861,19.7284106 5.96927619,19.4165576 5.77640929,19.2236907 C5.58354239,19.0308238 5.27168944,19.0281139 5.0755,19.2176 L5.0754,19.2175 Z" id="Shape"></path>
                    <path d="M20.6317,3.6611 L19.2175,5.0754 C19.0280139,5.27158944 19.0307238,5.58344239 19.2235907,5.77630929 C19.4164576,5.96917619 19.7283106,5.9718861 19.9245,5.7824 L21.3388,4.3682 C21.4651291,4.24187089 21.5144663,4.05774219 21.4682266,3.88517341 C21.4219869,3.71260463 21.2871954,3.57781306 21.1146266,3.5315734 C20.9420578,3.48533374 20.7579291,3.53467088 20.6316,3.661 L20.6317,3.6611 Z" id="Shape"></path>
                </g>
            </g>
        </g>
    </g>
</svg>