<svg width="21" height="21" viewBox="0 0 21 21" fill="none" xmlns="http://www.w3.org/2000/svg">
<path opacity="0.329018" d="M10.5002 16.435C13.7779 16.435 16.435 13.7779 16.435 10.5002C16.435 7.22252 13.7779 4.56543 10.5002 4.56543C7.22252 4.56543 4.56543 7.22252 4.56543 10.5002C4.56543 13.7779 7.22252 16.435 10.5002 16.435Z" fill="#1485FC"/>
<path d="M10.5 2.73913C10.7521 2.73913 10.9565 2.53474 10.9565 2.28261V0.456522C10.9565 0.204392 10.7521 0 10.5 0C10.2478 0 10.0435 0.204392 10.0435 0.456522V2.28261C10.0435 2.53474 10.2478 2.73913 10.5 2.73913Z" fill="#1485FC"/>
<path d="M10.5 18.2607C10.2478 18.2607 10.0435 18.4651 10.0435 18.7173V20.5434C10.0435 20.7955 10.2478 20.9999 10.5 20.9999C10.7521 20.9999 10.9565 20.7955 10.9565 20.5434V18.7173C10.9565 18.4651 10.7521 18.2607 10.5 18.2607Z" fill="#1485FC"/>
<path d="M2.28261 10.0435H0.456522C0.204392 10.0435 0 10.2478 0 10.5C0 10.7521 0.204392 10.9565 0.456522 10.9565H2.28261C2.53474 10.9565 2.73913 10.7521 2.73913 10.5C2.73913 10.2478 2.53474 10.0435 2.28261 10.0435Z" fill="#1485FC"/>
<path d="M20.5434 10.0435H18.7173C18.4651 10.0435 18.2607 10.2478 18.2607 10.5C18.2607 10.7521 18.4651 10.9565 18.7173 10.9565H20.5434C20.7955 10.9565 20.9999 10.7521 20.9999 10.5C20.9999 10.2478 20.7955 10.0435 20.5434 10.0435Z" fill="#1485FC"/>
<path d="M4.36678 3.72117C4.18827 3.54422 3.90031 3.54485 3.72258 3.72258C3.54485 3.90031 3.54422 4.18827 3.72117 4.36678L4.36678 5.01239C4.54506 5.19078 4.8342 5.19086 5.01258 5.01258C5.19096 4.8343 5.19104 4.54516 5.01276 4.36678L4.36678 3.72117Z" fill="#1485FC"/>
<path d="M16.6334 15.9872C16.4551 15.8089 16.166 15.809 15.9877 15.9873C15.8094 16.1656 15.8094 16.4546 15.9877 16.6329L16.6334 17.2785C16.7485 17.3947 16.917 17.4404 17.0751 17.3983C17.2332 17.3562 17.3566 17.2327 17.3987 17.0747C17.4408 16.9166 17.3951 16.7481 17.279 16.6329L16.6334 15.9872Z" fill="#1485FC"/>
<path d="M4.36669 15.9872L3.72108 16.6329C3.60491 16.7481 3.55923 16.9166 3.60133 17.0747C3.64344 17.2327 3.76689 17.3562 3.92496 17.3983C4.08302 17.4404 4.25153 17.3947 4.36669 17.2785L5.0123 16.6329C5.19061 16.4546 5.19063 16.1656 5.01235 15.9873C4.83407 15.809 4.545 15.8089 4.36669 15.9872Z" fill="#1485FC"/>
<path d="M16.6334 3.72108L15.9878 4.36669C15.8108 4.5452 15.8114 4.83316 15.9892 5.01089C16.1669 5.18862 16.4549 5.18925 16.6334 5.0123L17.279 4.36669C17.3952 4.25153 17.4408 4.08302 17.3987 3.92496C17.3566 3.76689 17.2332 3.64344 17.0751 3.60133C16.9171 3.55923 16.7485 3.60491 16.6334 3.72108Z" fill="#1485FC"/>
<path d="M10.9565 10.311V5.02195C10.9565 4.76982 10.7521 4.56543 10.5 4.56543C10.2478 4.56543 10.0435 4.76982 10.0435 5.02195V10.5002V10.5017C10.0439 10.62 10.0905 10.7334 10.1734 10.8178L10.1769 10.823L13.829 14.4751C13.9442 14.5913 14.1127 14.637 14.2708 14.5949C14.4288 14.5528 14.5523 14.4293 14.5944 14.2713C14.6365 14.1132 14.5908 13.9447 14.4746 13.8295L10.9565 10.311Z" fill="#1485FC"/>
</svg>
