<?xml version="1.0" encoding="UTF-8"?>
<svg width="25px" height="18px" viewBox="0 0 25 18" version="1.1" xmlns="http://www.w3.org/2000/svg" xmlns:xlink="http://www.w3.org/1999/xlink">
    <!-- Generator: Sketch 51.3 (57544) - http://www.bohemiancoding.com/sketch -->
    <title>windy</title>
    <desc>Created with Sketch.</desc>
    <defs></defs>
    <g id="Icons" stroke="none" stroke-width="1" fill="none" fill-rule="evenodd">
        <g id="Desktop-HD-Copy" transform="translate(-190.000000, -198.000000)" fill="#1485FC">
            <g id="windy" transform="translate(189.000000, 198.000000)">
                <g id="Shape">
                    <path d="M12,12 L12,11.9614 C11.8333,11.9743 11.67,12 11.5,12 C8.96826643,12.0015355 6.66629402,10.532057 5.60192703,8.23492835 C4.53756004,5.93779967 4.90473648,3.23157993 6.5427,1.3011 C3.95150393,2.11229616 2.13789151,4.44913159 1.99516945,7.16058263 C1.8524474,9.87203366 3.41071062,12.3863538 5.90242631,13.465098 C8.394142,14.5438423 11.2938978,13.9595428 13.1734,12 L12,12 Z" fill-rule="nonzero" opacity="0.2"></path>
                    <path d="M24,14 L8.5,14 C5.33685248,14.0020756 2.63145819,11.7267928 2.09123319,8.61011775 C1.55100818,5.49344268 3.33281958,2.44037569 6.31213873,1.37775443 C9.29145788,0.315133174 12.6031689,1.55151488 14.1572,4.3066 C14.2874142,4.5371134 14.5747446,4.62616697 14.8125,4.5097 C16.0001952,3.92707271 17.3707015,3.84015112 18.6224878,4.26805921 C19.8742742,4.6959673 20.9047875,5.60364852 21.4873,6.7914 C21.563701,6.95601353 21.7232991,7.06630558 21.9042931,7.07956786 C22.0852872,7.09283015 22.2592575,7.00698022 22.3588377,6.85526167 C22.4584179,6.70354312 22.4679718,6.50977884 22.3838,6.349 C21.0051766,3.54123228 17.6978064,2.2675214 14.792,3.4253 C12.839881,0.411313227 9.0249857,-0.795601956 5.69453161,0.547141662 C2.36407753,1.88988528 0.453094494,5.40531047 1.13736652,8.9304568 C1.82163854,12.4556031 4.90905524,15.0007806 8.5,15 L24,15 C24.5522847,15 25,15.4477153 25,16 C25,16.5522847 24.5522847,17 24,17 L22.5,17 C22.2238576,17 22,17.2238576 22,17.5 C22,17.7761424 22.2238576,18 22.5,18 L24,18 C25.1045695,18 26,17.1045695 26,16 C26,14.8954305 25.1045695,14 24,14 Z" fill-rule="nonzero"></path>
                    <path d="M21,12 L11.5,12 C11.2238576,12 11,12.2238576 11,12.5 C11,12.7761424 11.2238576,13 11.5,13 L21,13 C22.1045695,13 23,12.1045695 23,11 C23,9.8954305 22.1045695,9 21,9 L19.5,9 C19.2238576,9 19,9.22385763 19,9.5 C19,9.77614237 19.2238576,10 19.5,10 L21,10 C21.5522847,10 22,10.4477153 22,11 C22,11.5522847 21.5522847,12 21,12 Z" fill-rule="nonzero"></path>
                    <path d="M20.5,17 L18.5,17 C18.2238576,17 18,17.2238576 18,17.5 C18,17.7761424 18.2238576,18 18.5,18 L20.5,18 C20.7761424,18 21,17.7761424 21,17.5 C21,17.2238576 20.7761424,17 20.5,17 Z" fill-rule="nonzero"></path>
                </g>
            </g>
        </g>
    </g>
</svg>