<?xml version="1.0" encoding="UTF-8"?>
<svg width="458px" height="341px" viewBox="0 0 458 341" version="1.1" xmlns="http://www.w3.org/2000/svg" xmlns:xlink="http://www.w3.org/1999/xlink">
    <!-- Generator: Sketch 51.3 (57544) - http://www.bohemiancoding.com/sketch -->
    <title>Group 5</title>
    <desc>Created with Sketch.</desc>
    <defs>
        <path d="M363.839042,322.225108 C411.563644,296.742569 481.403123,275.67125 449.900204,222.606692 C418.397285,169.542134 475.895965,-11.7948959 373.740429,16.9725343 C329.25444,29.4999767 278.889225,-1.44257971 229.105307,0.387942441 C164.567774,2.7609454 102.548791,35.6430318 71.5243139,35.6430318 C16.5677159,35.6430318 -36.8940233,213.437741 35.5573519,269.157699 C108.008727,324.877658 86.4113015,355.960936 164.028975,333.262341 C241.646648,310.563746 316.11444,347.707648 363.839042,322.225108 Z" id="path-1"></path>
        <path d="M15.5421834,81.8369447 C19.5964219,73.4641719 22.1952533,67.2442611 23.3386777,63.1772124 C24.482102,59.1101637 25.796557,53.4789706 27.2820426,46.2836332 C24.9167968,47.0231512 23.7341739,46.6781173 23.7341739,45.2485315 C23.7341739,43.8189456 25.0631228,41.5553984 27.7210206,38.4578899 C28.148796,29.4261406 27.6495121,21.5166985 26.223169,14.7295635 C24.0836542,4.54886112 22.6743557,1.31798452 19.7239813,0.404645689 C16.7736069,-0.50869314 6.06150393,17.5464187 4.91597125,20.2808422 C3.77043858,23.0152657 9.249019,25.2457201 8.02224345,27.2064464 C7.20439308,28.5135973 4.66398925,28.5135973 0.401031942,27.2064464 L5.66565799,81.8369447 L15.5421834,81.8369447 Z" id="path-3"></path>
        <path d="M18.9157432,91.9234439 C11.1251736,77.6733628 6.22166432,67.6470292 4.20521538,61.8444432 C2.18876644,56.0418572 0.948220857,48.3878984 0.483578633,38.8825668 C4.04417217,38.6589076 5.82446894,38.0363547 5.82446894,37.0149083 C5.82446894,35.9934618 4.04417217,34.6017381 0.483578633,32.8397372 C0.405273733,23.1872793 0.843475381,15.8469954 1.79818358,10.8188854 C3.23024587,3.27672058 4.95298926,0.0602962564 7.27816598,0.0602962564 C8.8282838,0.0602962564 12.7074762,4.26445717 18.9157432,12.672779 C18.3237438,17.0155508 18.3237438,19.6398665 18.9157432,20.5457263 C19.5077426,21.451586 20.5827316,20.4721863 22.1407104,17.6075271 C25.4382672,23.4413985 27.7743169,28.2376625 29.1488595,31.9963189 C31.2106733,37.6343035 33.6361696,40.2063598 34.9993438,59.3786334 C35.9081267,72.1601491 35.4379215,83.8474578 33.5887284,94.4405596 L18.9157432,91.9234439 Z" id="path-5"></path>
        <path d="M0.0223525441,0.488006761 C1.45874589,1.40088805 2.17694256,2.29421731 2.17694256,3.16799453 C2.17694256,4.47866037 3.93058247,23.9715733 4.40784647,26.4340953 C4.72602246,28.0757766 5.75994355,29.565425 7.50960973,30.9030404 L34.6331655,30.9030404 C36.0295154,29.1487077 36.9312613,27.6590593 37.3384032,26.4340953 C37.9491161,24.5966493 38.5701136,4.65813329 38.7508055,3.16799453 C38.8712667,2.1745687 39.4948533,1.28123944 40.6215652,0.488006761 L0.0223525441,0.488006761 Z" id="path-7"></path>
    </defs>
    <g id="Layout" stroke="none" stroke-width="1" fill="none" fill-rule="evenodd">
        <g id="Google-Calendar" transform="translate(-492.000000, -280.000000)">
            <g id="Group-5" transform="translate(492.000000, 280.000000)">
                <g id="Group-3">
                    <mask id="mask-2" fill="white">
                        <use xlink:href="#path-1"></use>
                    </mask>
                    <use id="Mask" fill="#F3F5F8" opacity="0.6734375" xlink:href="#path-1"></use>
                </g>
                <g id="Group" transform="translate(346.000000, 213.000000) scale(-1, 1) translate(-346.000000, -213.000000) translate(301.000000, 127.000000)" fill-rule="nonzero">
                    <path d="M7.27635169,0.595974718 C24.6407312,-5.58671749 43.9754875,38.2447244 50.3001104,43.8603209 C56.6247333,49.4759174 61.5413554,48.1646047 65.4695169,56.9958848 C69.3976784,65.8271649 55.0814546,82.7412674 59.1418933,88.8313034 C63.202332,94.9213395 86.3537016,108.49405 89.1413862,126.38091 C91.9290707,144.26777 88.399591,160.59217 71.5563914,168.487515 C54.7131917,176.38286 37.5062339,170.798303 26.6555912,153.443526 C15.8049485,136.088748 24.6407312,118.529003 24.6407312,108.852051 C24.6407312,99.1750991 5.74687444,84.6996417 2.76071939,74.5383903 C-0.225435655,64.377139 5.20005447,61.2885609 7.27635169,45.8430614 C9.35264892,30.3975619 -10.0880278,6.77866692 7.27635169,0.595974718 Z" id="Path" fill="#CCF2D7"></path>
                    <path d="M9,4.08872093 C9,-4.93537628 24.3841705,17.3799044 33.4392419,30.9940826 C42.4943133,44.6082608 53.6147836,55.2512826 55.5748453,62.55768 C57.5349069,69.8640775 50.8011944,89.6131799 54.0518843,93.2066197 C57.3025742,96.8000594 77.4111726,116.490885 81.1452328,129.387955 C84.879293,142.285026 75.6391429,163.48316 67.744751,166.711131 C59.850359,169.939103 42.7197548,145.451757 40.5736301,126.33284 C38.4275053,107.213923 41.9331706,107.19318 35.526299,74.4818155 C29.1194275,41.7704509 9,13.1128181 9,4.08872093 Z" id="Path-2" fill="#9CD2AA"></path>
                    <path d="M8,13.2712778 C8,9.66123341 21.0657415,43.0044745 26.0018762,58.4081913 C30.938011,73.8119081 30.10712,70.2994479 34.0756287,94.6429625 C38.0441375,118.986477 34.4609481,127.223679 40.3165269,146.216718 C46.1721058,165.209758 53.0183832,165.209758 57,169" id="Path-3" stroke="#FFFFFF"></path>
                    <path d="M38.1552232,82.8442812 C37.117998,84.2755273 41.5208099,75.4852957 44.1776,71.0342122 C46.8343901,66.5831288 49.5635386,63 50,63" id="Path-4" stroke="#FFFFFF"></path>
                    <path d="M7.1894528,90.7817679 C6.10160851,92.199247 9.78256261,86.4540928 16.0724199,80.9994014 C22.3622771,75.54471 29.5422383,71 30,71" id="Path-4" stroke="#FFFFFF" transform="translate(18.500000, 81.000000) scale(-1, 1) translate(-18.500000, -81.000000) "></path>
                    <path d="M54.8896674,159 C53.4455614,153.624312 53.7595074,146.160358 55.8315054,136.608137 C57.9035033,127.055915 60.6263348,120.51987 64,117" id="Path-5" stroke="#FFFFFF"></path>
                    <path d="M24,124 C26.3387723,126.358842 28.5873477,128.783481 30.745726,131.273917 C32.9041043,133.764354 34.9888623,136.339715 37,139" id="Path-6" stroke="#FFFFFF"></path>
                    <path d="M9,45 L21,55" id="Path-7" stroke="#FFFFFF"></path>
                </g>
                <g id="Group" transform="translate(91.000000, 76.000000)" fill-rule="nonzero">
                    <path d="M9.82170184,0.86447808 C31.3884075,-6.77300758 55.4023378,47.372015 63.2575727,54.3089668 C71.1128077,61.2459185 77.2192938,59.6260526 82.0981034,70.5353415 C86.9769131,81.4446304 69.1960425,102.338638 74.2391416,109.861665 C79.2822407,117.384692 108.036437,134.151075 111.498765,156.246731 C114.961092,178.342386 110.577449,198.507933 89.6580528,208.26106 C68.7386569,218.014187 47.3674703,211.115579 33.8908806,189.677205 C20.4142909,168.238832 31.3884075,146.547263 31.3884075,134.593314 C31.3884075,122.639366 7.92207821,104.757819 4.21324847,92.2056156 C0.504418736,79.653412 7.24292319,75.8380884 9.82170184,56.758248 C12.4004805,37.6784076 -11.7450038,8.50196374 9.82170184,0.86447808 Z" id="Path" fill="#CCF2D7"></path>
                    <path d="M12.0418255,5.61853253 C12.0418255,-5.58268999 31.2013597,22.1163051 42.4785976,39.0149971 C53.7558354,55.9136891 67.6053329,69.1244129 70.046405,78.1935288 C72.487477,87.2626448 64.1012727,111.776354 68.1497006,116.236735 C72.1981284,120.697117 97.2414922,145.138489 101.891912,161.147066 C106.542332,177.155643 95.0345963,203.467972 85.2028753,207.474714 C75.3711543,211.481456 54.0366016,181.08637 51.3638055,157.354883 C48.6910094,133.623396 53.056985,133.597649 45.0778305,92.9944437 C37.0986759,52.3912381 12.0418255,16.8197551 12.0418255,5.61853253 Z" id="Path-2" fill="#9CD2AA"></path>
                    <path d="M11.1284159,16.3464985 C11.1284159,11.8652739 27.5073275,53.2549459 33.695152,72.3759062 C39.8829765,91.4968664 38.8413908,87.136775 43.8162217,117.354896 C48.7910525,147.573017 44.2992491,157.79803 51.6396675,181.374493 C58.9800858,204.950955 67.5624211,204.950955 72.5536839,209.655863" id="Path-3" stroke="#FFFFFF"></path>
                    <path d="M49.2415073,101.812219 C47.9187925,103.543368 53.5334503,92.9112341 56.9215049,87.5274723 C60.3095595,82.1437105 63.7898888,77.8097742 64.3464834,77.8097742" id="Path-4" stroke="#FFFFFF"></path>
                    <path d="M10.6434443,111.812219 C9.32072947,113.543368 13.7964183,106.526885 21.4442844,99.8651405 C29.0921505,93.2033962 37.822298,87.6530004 38.3788926,87.6530004" id="Path-4" stroke="#FFFFFF" transform="translate(24.395990, 99.865872) scale(-1, 1) translate(-24.395990, -99.865872) "></path>
                    <path d="M69.6359704,197.644314 C67.8473002,190.922093 68.2361538,181.588523 70.8025313,169.643605 C73.3689087,157.698687 76.741409,149.525455 80.920032,145.123907" id="Path-5" stroke="#FFFFFF"></path>
                    <path d="M30.6698454,153.135598 C33.5014185,156.049802 36.2237892,159.045294 38.8369576,162.122075 C41.450126,165.198856 43.9741616,168.380555 46.4090645,171.667174" id="Path-6" stroke="#FFFFFF"></path>
                    <path d="M12.2860738,55.6123198 L27.3006748,68.5114304" id="Path-7" stroke="#FFFFFF"></path>
                </g>
                <g id="Group" transform="translate(118.014031, 234.782297) rotate(-10.000000) translate(-118.014031, -234.782297) translate(81.514031, 165.282297)" fill-rule="nonzero">
                    <path d="M5.9019297,0.481630731 C19.9863708,-4.51484727 35.6690066,30.9070738 40.7989785,35.4452593 C45.9289504,39.9834449 49.9168772,38.9237212 53.1030526,46.0606278 C56.289228,53.1975344 44.6771799,66.8664893 47.9706468,71.7880882 C51.2641137,76.7096871 70.0424469,87.6783313 72.3035688,102.13341 C74.5646907,116.588489 71.7018905,129.780882 58.0401841,136.161422 C44.3784777,142.541962 30.4217231,138.028861 21.6206462,124.003779 C12.8195693,109.978697 19.9863708,95.7879737 19.9863708,87.9676461 C19.9863708,80.1473185 4.66135372,68.449129 2.23925018,60.2374201 C-0.182853365,52.0257112 4.21782196,49.5297091 5.9019297,37.0475903 C7.58603745,24.5654716 -8.18251143,5.47810873 5.9019297,0.481630731 Z" id="Path" fill="#9FD7AE"></path>
                    <path d="M7,3.69629458 C7,-3.63236619 19.6445237,14.4903466 27.0870481,25.5467095 C34.5295726,36.6030724 43.6696852,45.2464962 45.2806948,51.1801765 C46.8917043,57.1138569 41.3571461,73.1525219 44.028946,76.0708305 C46.7007459,78.9891392 63.228361,94.9804759 66.2974516,105.454461 C69.3665422,115.928445 61.7718983,133.143899 55.283357,135.765404 C48.7948156,138.386908 34.714867,118.500215 32.9509288,102.973337 C31.1869907,87.4464586 34.0683594,87.429613 28.8024375,60.8640199 C23.5365157,34.2984268 7,11.0249553 7,3.69629458 Z" id="Path-2" fill="#7AB689"></path>
                    <path d="M6,10.219109 C6,7.30330391 16.6659114,34.2343832 20.6954092,46.6758468 C24.7249069,59.1173104 24.0466286,56.2803233 27.2862275,75.9423928 C30.5258265,95.6044623 27.600774,102.257587 32.3808383,117.598119 C37.1609027,132.938651 42.7497006,132.938651 46,136" id="Path-3" stroke="#FFFFFF"></path>
                    <path d="M31.1293526,66.875425 C30.2649983,68.0204219 33.9340082,60.9882365 36.148,57.4273698 C38.3619917,53.866503 40.6362822,51 41,51" id="Path-4" stroke="#FFFFFF"></path>
                    <path d="M6.14826741,72.8254143 C5.29691101,73.9593976 8.1776577,69.3632743 13.1001547,64.9995211 C18.0226516,60.635768 23.6417517,57 24,57" id="Path-4" stroke="#FFFFFF" transform="translate(15.000000, 65.000000) scale(-1, 1) translate(-15.000000, -65.000000) "></path>
                    <path d="M44.7117339,129 C43.5564492,124.648253 43.807606,118.606004 45.4652043,110.873253 C47.1228026,103.140503 49.3010679,97.8494183 52,95" id="Path-5" stroke="#FFFFFF"></path>
                    <path d="M19,100 C20.7990556,101.887073 22.528729,103.826784 24.18902,105.819134 C25.849311,107.811483 27.452971,109.871772 29,112" id="Path-6" stroke="#FFFFFF"></path>
                    <path d="M7,36 L17,44" id="Path-7" stroke="#FFFFFF"></path>
                </g>
                <rect id="Rectangle" stroke-opacity="0.4512851" stroke="#FFFFFF" stroke-width="3" fill="#E2EEFF" fill-rule="nonzero" x="126.5" y="36.5" width="205" height="269"></rect>
                <rect id="Rectangle-3" fill="#FFFFFF" fill-rule="nonzero" x="155" y="89" width="49" height="4"></rect>
                <rect id="Rectangle-3-Copy" fill="#FFFFFF" fill-rule="nonzero" x="155" y="101" width="73" height="4"></rect>
                <g id="Group-4" transform="translate(149.000000, 89.000000)" fill="#FFFFFF" fill-rule="nonzero" stroke="#7A8A9D">
                    <rect id="Rectangle-4" x="96.5" y="0.5" width="31" height="29"></rect>
                    <rect id="Rectangle-4-Copy" x="127.5" y="29.5" width="32" height="29"></rect>
                    <rect id="Rectangle-4-Copy-3" x="95.5" y="29.5" width="32" height="29"></rect>
                    <rect id="Rectangle-4-Copy-4" x="64.5" y="29.5" width="32" height="29"></rect>
                    <rect id="Rectangle-4-Copy-5" x="32.5" y="29.5" width="32" height="29"></rect>
                    <rect id="Rectangle-4-Copy-6" x="0.5" y="29.5" width="32" height="29"></rect>
                    <rect id="Rectangle-4-Copy" x="127.5" y="58.5" width="32" height="29"></rect>
                    <rect id="Rectangle-4-Copy-3" x="95.5" y="58.5" width="32" height="29"></rect>
                    <rect id="Rectangle-4-Copy-4" x="64.5" y="58.5" width="32" height="29"></rect>
                    <rect id="Rectangle-4-Copy-5" x="32.5" y="58.5" width="32" height="29"></rect>
                    <rect id="Rectangle-4-Copy-6" x="0.5" y="58.5" width="32" height="29"></rect>
                    <rect id="Rectangle-4-Copy" x="127.5" y="87.5" width="32" height="29"></rect>
                    <rect id="Rectangle-4-Copy-3" x="95.5" y="87.5" width="32" height="29"></rect>
                    <rect id="Rectangle-4-Copy-4" x="64.5" y="87.5" width="32" height="29"></rect>
                    <rect id="Rectangle-4-Copy-5" x="32.5" y="87.5" width="32" height="29"></rect>
                    <rect id="Rectangle-4-Copy-6" x="0.5" y="87.5" width="32" height="29"></rect>
                    <rect id="Rectangle-4-Copy" x="127.5" y="116.5" width="32" height="29"></rect>
                    <rect id="Rectangle-4-Copy-3" x="95.5" y="116.5" width="32" height="29"></rect>
                    <rect id="Rectangle-4-Copy-4" x="64.5" y="116.5" width="32" height="29"></rect>
                    <rect id="Rectangle-4-Copy-5" x="32.5" y="116.5" width="32" height="29"></rect>
                    <rect id="Rectangle-4-Copy-6" x="0.5" y="116.5" width="32" height="29"></rect>
                    <rect id="Rectangle-4-Copy" x="127.5" y="145.5" width="32" height="29"></rect>
                    <rect id="Rectangle-4-Copy-3" x="95.5" y="145.5" width="32" height="29"></rect>
                    <rect id="Rectangle-4-Copy-4" x="64.5" y="145.5" width="32" height="29"></rect>
                    <rect id="Rectangle-4-Copy-5" x="32.5" y="145.5" width="32" height="29"></rect>
                    <rect id="Rectangle-4-Copy-6" x="0.5" y="145.5" width="32" height="29"></rect>
                    <rect id="Rectangle-4-Copy-2" x="127.5" y="0.5" width="32" height="29"></rect>
                </g>
                <g id="Group" transform="translate(296.000000, 182.000000)">
                    <g id="Path-6" transform="translate(27.000000, 10.000000)">
                        <mask id="mask-4" fill="white">
                            <use xlink:href="#path-3"></use>
                        </mask>
                        <use id="Mask" fill="#11228B" fill-rule="nonzero" xlink:href="#path-3"></use>
                        <path d="M24.5220923,58.4860407 C23.8371043,55.7542004 20.8730459,69.9535006 18.6733771,68.9047382 C16.4737083,67.8559758 16.8736305,55.9833748 16.0256574,54.4350938 C15.1776843,52.8868129 14.8840387,58.4860407 12.9671936,58.4860407 C11.0503485,58.4860407 11.5296318,55.8044993 8.97490133,54.4350938 C6.42017088,53.0656884 5.20696016,40.3879833 3.49129199,53.4066981 C1.77562382,66.4254129 0.234603721,80.1033884 4.64418399,87.2971442 C9.05376427,94.4909 17.8872127,91.4318411 22.6066907,84.5914147 C27.3261687,77.7509882 25.2070803,61.2178811 24.5220923,58.4860407 Z" fill-opacity="0.0866168478" fill="#000000" fill-rule="nonzero" mask="url(#mask-4)"></path>
                        <path d="M7.41729997,80.9790125 C8.45002302,65.2183057 10.0416955,50.3796733 12.1923175,36.4631154 C14.3429395,22.5465575 16.8473004,10.8799808 19.7054001,1.46338526" id="Path-3" stroke-opacity="0.0437330163" stroke="#000000" fill-rule="nonzero" mask="url(#mask-4)"></path>
                    </g>
                    <g id="Path-4">
                        <mask id="mask-6" fill="white">
                            <use xlink:href="#path-5"></use>
                        </mask>
                        <use id="Mask" fill="#4C5DC7" fill-rule="nonzero" xlink:href="#path-5"></use>
                        <path d="M26.6892522,91.0836574 C19.7082455,66.2822621 15.0910087,48.6733381 12.8375417,38.2568856 C10.5840747,27.840433 8.63883682,15.0452513 7.00182814,-0.128659483" stroke="#000000" opacity="0.140848214" fill-rule="nonzero" mask="url(#mask-6)"></path>
                        <path d="M32.7857266,45.7692185 C30.7332606,49.9616343 29.2118779,50.6389949 29.2118779,55.2114567 C29.2118779,59.7839184 33.3335993,61.0367676 32.7857266,64.2971236 C32.2378538,67.5574796 30.7698816,64.9407004 27.0252797,68.2237642 C23.2806778,71.506828 21.406707,73.5199726 19.7697169,75.7088548 C18.1327267,77.8977371 20.0061369,80.9551061 17.1216543,81.4662817 C14.2371717,81.9774573 10.5740035,72.0012787 10.5740035,77.3384797 C10.5740035,82.6756807 7.60111324,91.76831 17.1216543,97.8358779 C26.6421953,103.903446 35.3029185,111.446841 40.2805937,96.2708861 C45.2582689,81.0949314 35.2326023,45.4810865 34.9401794,43.5106921 C34.6477565,41.5402977 34.8381926,41.5768028 32.7857266,45.7692185 Z" id="Path-5" fill-opacity="0.106119792" fill="#000000" fill-rule="nonzero" mask="url(#mask-6)"></path>
                    </g>
                    <ellipse id="Oval" fill-opacity="0.1" fill="#000000" fill-rule="nonzero" cx="31" cy="123.5" rx="31" ry="1.5"></ellipse>
                    <g id="Path" transform="translate(11.000000, 91.000000)">
                        <mask id="mask-8" fill="white">
                            <use xlink:href="#path-7"></use>
                        </mask>
                        <use id="Mask" fill="#B9DAFF" fill-rule="nonzero" xlink:href="#path-7"></use>
                        <path d="M-8.328844,-0.268090799 C-6.78787302,0.711253456 -6.01738754,1.66962218 -6.01738754,2.60701537 C-6.01738754,4.01310515 -4.13607264,24.9252133 -3.6240611,27.5670209 C-3.28272008,29.3282261 -2.17352364,30.9263293 -0.29647179,32.3613308 L28.8018336,32.3613308 C30.2998457,30.4792726 31.2672438,28.8811693 31.704028,27.5670209 C32.3592042,25.5957984 33.025414,4.20564472 33.2192612,2.60701537 C33.3484927,1.54126247 34.0174799,0.582893745 35.2262229,-0.268090799 L-8.328844,-0.268090799 Z" fill="#C2DDFD" fill-rule="nonzero" mask="url(#mask-8)"></path>
                    </g>
                </g>
                <circle id="Oval-5" fill="#593DFF" fill-rule="nonzero" cx="155.5" cy="152.5" r="1.5"></circle>
                <circle id="Oval-5-Copy" fill="#FF7E8E" fill-rule="nonzero" cx="160.5" cy="152.5" r="1.5"></circle>
                <circle id="Oval-5-Copy-2" fill="#593DFF" fill-rule="nonzero" cx="155.5" cy="181.5" r="1.5"></circle>
                <circle id="Oval-5-Copy-4" fill="#593DFF" fill-rule="nonzero" cx="250.5" cy="181.5" r="1.5"></circle>
                <circle id="Oval-5-Copy-3" fill="#593DFF" fill-rule="nonzero" cx="219.5" cy="152.5" r="1.5"></circle>
                <circle id="Oval-5-Copy-5" fill="#593DFF" fill-rule="nonzero" cx="219.5" cy="210.5" r="1.5"></circle>
                <circle id="Oval-5-Copy-6" fill="#593DFF" fill-rule="nonzero" cx="250.5" cy="239.5" r="1.5"></circle>
                <circle id="Oval-5-Copy-7" fill="#593DFF" fill-rule="nonzero" cx="187.5" cy="239.5" r="1.5"></circle>
                <circle id="Oval-5-Copy-8" fill="#FF7E8E" fill-rule="nonzero" cx="192.5" cy="239.5" r="1.5"></circle>
                <circle id="Oval-5-Copy-9" fill="#593DFF" fill-rule="nonzero" cx="282.5" cy="123.5" r="1.5"></circle>
            </g>
        </g>
    </g>
</svg>