<?xml version="1.0" encoding="UTF-8"?>
<svg width="60px" height="55px" viewBox="0 0 60 55" version="1.1" xmlns="http://www.w3.org/2000/svg" xmlns:xlink="http://www.w3.org/1999/xlink">
    <!-- Generator: Sketch 51.3 (57544) - http://www.bohemiancoding.com/sketch -->
    <title>Group 10</title>
    <desc>Created with Sketch.</desc>
    <defs>
        <circle id="path-1" cx="27.5" cy="27.5" r="27.5"></circle>
        <linearGradient x1="28.9538003%" y1="122.14271%" x2="82.3874367%" y2="31.4064756%" id="linearGradient-3">
            <stop stop-color="#F4F8FC" offset="0%"></stop>
            <stop stop-color="#F3F7FC" offset="16.796218%"></stop>
            <stop stop-color="#CCD8E6" offset="100%"></stop>
        </linearGradient>
        <linearGradient x1="50%" y1="0%" x2="50%" y2="97.2337372%" id="linearGradient-4">
            <stop stop-color="#000000" stop-opacity="0" offset="0%"></stop>
            <stop stop-color="#FFFFFF" stop-opacity="0.155485734" offset="100%"></stop>
        </linearGradient>
        <filter x="-10.3%" y="-10.7%" width="123.0%" height="121.4%" filterUnits="objectBoundingBox" id="filter-5">
            <feOffset dx="0" dy="0" in="SourceAlpha" result="shadowOffsetOuter1"></feOffset>
            <feGaussianBlur stdDeviation="0.5" in="shadowOffsetOuter1" result="shadowBlurOuter1"></feGaussianBlur>
            <feColorMatrix values="0 0 0 0 0.349239854   0 0 0 0 0.238083965   0 0 0 0 1  0 0 0 1 0" type="matrix" in="shadowBlurOuter1" result="shadowMatrixOuter1"></feColorMatrix>
            <feMerge>
                <feMergeNode in="shadowMatrixOuter1"></feMergeNode>
                <feMergeNode in="SourceGraphic"></feMergeNode>
            </feMerge>
        </filter>
        <path d="M3.24154737,10.0527964 L3.24154737,7.66672299 L0.708026235,6.03316204 C0.407612628,5.83945629 0.303858189,5.44901297 0.468484212,5.13172993 C1.36098118,3.41162429 2.03172456,2.23616115 2.48071434,1.6053405 C2.67348172,1.3345066 2.87157779,1.07414957 3.07500254,0.824269407 C3.63459185,0.136897681 4.55791315,-0.137855464 5.40226699,0.13174921 C7.07093542,0.664559965 8.37584022,1.15575706 9.31698138,1.6053405 C9.91711645,1.89202522 10.9608002,2.49984954 12.4480326,3.42881346 L14.621837,0.422084543 C14.8459585,0.431231172 15.0476447,0.477823182 15.2268957,0.561860571 C15.4061468,0.64589796 15.5586319,0.771058715 15.6843512,0.937342836 L13.1535054,5.15352467 C12.8942314,5.58545387 12.3367017,5.73001319 11.9002169,5.47848409 L9.6472712,4.18017827 C9.42623751,4.0528052 9.14379802,4.12873213 9.01642494,4.34976583 C8.9633169,4.44192555 8.94364248,4.54959013 8.96072448,4.65457624 C9.33038384,6.92650549 9.51521352,8.31435591 9.51521352,8.81812751 C9.51521352,9.38943704 9.44913614,10.2176741 9.31698138,11.3028387 C8.18256839,12.0271534 6.98416948,12.2280525 5.72178464,11.9055359 C4.4593998,11.5830193 3.63265405,10.9654395 3.24154737,10.0527964 Z M3.90034408,3.31497797 C3.63763892,3.8310662 3.44941879,4.17749415 3.33568369,4.35426184 C3.2219486,4.53102953 3.03372847,4.76966702 2.7710233,5.0701743 L3.81689114,5.77658764 C3.80710356,5.29055588 3.80710356,4.90318806 3.81689114,4.61448418 C3.82667871,4.3257803 3.85449636,3.89261156 3.90034408,3.31497797 Z" id="path-6"></path>
    </defs>
    <g id="Layout" stroke="none" stroke-width="1" fill="none" fill-rule="evenodd">
        <g id="Selection" transform="translate(-302.000000, -419.000000)">
            <g id="Group-8" transform="translate(260.000000, 388.000000)">
                <g id="Group-10" transform="translate(42.000000, 31.000000)">
                    <g id="Group-2">
                        <mask id="mask-2" fill="white">
                            <use xlink:href="#path-1"></use>
                        </mask>
                        <use id="Mask" fill="#FFFFFF" xlink:href="#path-1"></use>
                        <g mask="url(#mask-2)">
                            <g transform="translate(0.000000, -7.000000)">
                                <ellipse id="Oval-4" stroke="none" fill="#F9FAFB" fill-rule="evenodd" cx="36.9219858" cy="48.277533" rx="36.9219858" ry="21.277533"></ellipse>
                                <ellipse id="Oval-3" stroke="none" fill="#F2F7FC" fill-rule="evenodd" cx="36.7922999" cy="46.5682819" rx="22.7922999" ry="13.5682819"></ellipse>
                                <ellipse id="Oval-2" stroke="none" fill="#E8EDF3" fill-rule="evenodd" cx="36.8571429" cy="45.4372247" rx="10.8571429" ry="6.43722467"></ellipse>
                                <g id="Group-Copy-3" stroke="none" stroke-width="1" fill="none" fill-rule="evenodd" transform="translate(22.000000, 10.000000)">
                                    <path d="M0.550050452,5.94813817 L14.4755313,13.8217718 C14.5125412,13.8426976 14.5595075,13.8296589 14.5804333,13.792649 C14.5869687,13.7810903 14.5904033,13.7680377 14.5904033,13.7547593 L14.5904033,8.33196606 C14.5904033,8.27670559 14.5607883,8.22568339 14.5128042,8.19827449 L0.428546049,0.153230716 C0.354710233,0.111055093 0.260664379,0.13672075 0.218488756,0.210556565 C0.205203364,0.23381497 0.198215527,0.260136936 0.198215527,0.286922287 L0.198215527,5.3450263 C0.198215527,5.59478387 0.332638919,5.82521109 0.550050452,5.94813817 Z" id="Path-15" fill="#F6FAFD"></path>
                                    <polygon id="Path-16" fill="#5339EC" transform="translate(0.246313, 0.250516) rotate(51.638150) translate(-0.246313, -0.250516) " points="0.149333711 0.364864125 0.342852034 0.26671296 0.194244303 0.136343523"></polygon>
                                    <path d="M0.396048426,6.02523069 L14.3215292,13.8988643 C14.3585392,13.9197901 14.4055054,13.9067514 14.4264313,13.8697415 C14.4329667,13.8581828 14.4364013,13.8451302 14.4364013,13.8318519 L14.4364013,8.40905857 C14.4364013,8.3537981 14.4067863,8.3027759 14.3588022,8.275367 L0.274544022,0.230323227 C0.200708207,0.188147604 0.106662353,0.213813261 0.0644867295,0.287649076 C0.0512013379,0.310907481 0.0442135006,0.337229447 0.0442135006,0.364014798 L0.0442135006,5.42211881 C0.0442135006,5.67187638 0.178636893,5.9023036 0.396048426,6.02523069 Z" id="Path-15" fill="#F3F7FD"></path>
                                    <polygon id="Path-16" fill="#5339EC" points="14.3898521 13.9035855 14.5833704 13.8054344 14.4347627 13.6750649"></polygon>
                                    <path d="M0.640601938,1.4098304 L0.640601938,5.36525597 C0.640601938,5.39318528 0.655728893,5.41892383 0.680129628,5.43251245 L3.85982102,7.2032624 C3.89696575,7.22394806 3.94384655,7.21060536 3.96453222,7.17346062 C3.9709104,7.16200749 3.97425813,7.14911528 3.97425813,7.13600592 L3.97425813,3.29587009 C3.97425813,3.18358905 3.91314356,3.0802083 3.81477005,3.02608174 L0.754694717,1.34238331 C0.717444719,1.32188782 0.670632746,1.33547002 0.65013725,1.37272002 C0.643881969,1.38408882 0.640601938,1.39685434 0.640601938,1.4098304 Z" id="Path-17" fill-opacity="0.468863225" fill="#FFFFFF"></path>
                                    <path d="M4.95435115,3.72763351 L4.95435115,4.50841298 C4.95435115,4.53641276 4.96955386,4.56220468 4.99405091,4.575765 L8.05731344,6.27143126 C8.09451093,6.2920219 8.14135747,6.27855939 8.16194811,6.24136189 C8.1682647,6.22995082 8.17157849,6.21712195 8.17157849,6.20407925 L8.17157849,5.45061956 C8.17157849,5.39436721 8.14090046,5.34259244 8.09156086,5.31557521 L5.06830714,3.66011133 C5.03101567,3.63969138 4.98423133,3.65336846 4.96381138,3.69065992 C4.95760454,3.70199503 4.95435115,3.71471029 4.95435115,3.72763351 Z" id="Path-18" fill-opacity="0.28" fill="#FFFFFF"></path>
                                    <path d="M4.92806484,5.06584856 L4.92806484,5.96029109 C4.92806484,5.98787119 4.94281912,6.013344 4.96674266,6.0270672 L13.6224697,10.9922263 C13.6593491,11.0133813 13.7063954,11.0006342 13.7275504,10.9637548 C13.7342379,10.9520964 13.7377567,10.9388904 13.7377567,10.9254502 L13.7377567,10.002214 C13.7377567,9.9466997 13.7078714,9.89548409 13.6595406,9.8681718 L5.04292158,4.99882748 C5.00590686,4.97791007 4.95894358,4.99095951 4.93802617,5.02797423 C4.93149632,5.03952921 4.92806484,5.05257616 4.92806484,5.06584856 Z" id="Path-19" fill-opacity="0.27955163" fill="#FFFFFF"></path>
                                    <path d="M4.92806484,6.7618838 L4.92806484,7.65632633 C4.92806484,7.68390643 4.94281912,7.70937925 4.96674266,7.72310244 L13.6224697,12.6882615 C13.6593491,12.7094166 13.7063954,12.6966694 13.7275504,12.65979 C13.7342379,12.6481317 13.7377567,12.6349256 13.7377567,12.6214854 L13.7377567,11.6982492 C13.7377567,11.6427349 13.7078714,11.5915193 13.6595406,11.564207 L5.04292158,6.69486273 C5.00590686,6.67394531 4.95894358,6.68699475 4.93802617,6.72400947 C4.93149632,6.73556445 4.92806484,6.74861141 4.92806484,6.7618838 Z" id="Path-19-Copy" fill-opacity="0.27955163" fill="#FFFFFF"></path>
                                </g>
                                <g id="Group-Copy-4" stroke="none" stroke-width="1" fill="none" fill-rule="evenodd" transform="translate(55.000000, 30.000000)">
                                    <path d="M0.550050452,5.94813817 L14.4755313,13.8217718 C14.5125412,13.8426976 14.5595075,13.8296589 14.5804333,13.792649 C14.5869687,13.7810903 14.5904033,13.7680377 14.5904033,13.7547593 L14.5904033,8.33196606 C14.5904033,8.27670559 14.5607883,8.22568339 14.5128042,8.19827449 L0.428546049,0.153230716 C0.354710233,0.111055093 0.260664379,0.13672075 0.218488756,0.210556565 C0.205203364,0.23381497 0.198215527,0.260136936 0.198215527,0.286922287 L0.198215527,5.3450263 C0.198215527,5.59478387 0.332638919,5.82521109 0.550050452,5.94813817 Z" id="Path-15" fill="#F6FAFD"></path>
                                    <polygon id="Path-16" fill="#5339EC" transform="translate(0.246313, 0.250516) rotate(51.638150) translate(-0.246313, -0.250516) " points="0.149333711 0.364864125 0.342852034 0.26671296 0.194244303 0.136343523"></polygon>
                                    <path d="M0.396048426,6.02523069 L14.3215292,13.8988643 C14.3585392,13.9197901 14.4055054,13.9067514 14.4264313,13.8697415 C14.4329667,13.8581828 14.4364013,13.8451302 14.4364013,13.8318519 L14.4364013,8.40905857 C14.4364013,8.3537981 14.4067863,8.3027759 14.3588022,8.275367 L0.274544022,0.230323227 C0.200708207,0.188147604 0.106662353,0.213813261 0.0644867295,0.287649076 C0.0512013379,0.310907481 0.0442135006,0.337229447 0.0442135006,0.364014798 L0.0442135006,5.42211881 C0.0442135006,5.67187638 0.178636893,5.9023036 0.396048426,6.02523069 Z" id="Path-15" fill="#F3F7FD"></path>
                                    <path d="M0.640601938,1.4098304 L0.640601938,5.36525597 C0.640601938,5.39318528 0.655728893,5.41892383 0.680129628,5.43251245 L3.85982102,7.2032624 C3.89696575,7.22394806 3.94384655,7.21060536 3.96453222,7.17346062 C3.9709104,7.16200749 3.97425813,7.14911528 3.97425813,7.13600592 L3.97425813,3.29587009 C3.97425813,3.18358905 3.91314356,3.0802083 3.81477005,3.02608174 L0.754694717,1.34238331 C0.717444719,1.32188782 0.670632746,1.33547002 0.65013725,1.37272002 C0.643881969,1.38408882 0.640601938,1.39685434 0.640601938,1.4098304 Z" id="Path-17" fill-opacity="0.468863225" fill="#FFFFFF"></path>
                                    <path d="M4.95435115,3.72763351 L4.95435115,4.50841298 C4.95435115,4.53641276 4.96955386,4.56220468 4.99405091,4.575765 L8.05731344,6.27143126 C8.09451093,6.2920219 8.14135747,6.27855939 8.16194811,6.24136189 C8.1682647,6.22995082 8.17157849,6.21712195 8.17157849,6.20407925 L8.17157849,5.45061956 C8.17157849,5.39436721 8.14090046,5.34259244 8.09156086,5.31557521 L5.06830714,3.66011133 C5.03101567,3.63969138 4.98423133,3.65336846 4.96381138,3.69065992 C4.95760454,3.70199503 4.95435115,3.71471029 4.95435115,3.72763351 Z" id="Path-18" fill-opacity="0.28" fill="#FFFFFF"></path>
                                    <path d="M4.92806484,5.06584856 L4.92806484,5.96029109 C4.92806484,5.98787119 4.94281912,6.013344 4.96674266,6.0270672 L13.6224697,10.9922263 C13.6593491,11.0133813 13.7063954,11.0006342 13.7275504,10.9637548 C13.7342379,10.9520964 13.7377567,10.9388904 13.7377567,10.9254502 L13.7377567,10.002214 C13.7377567,9.9466997 13.7078714,9.89548409 13.6595406,9.8681718 L5.04292158,4.99882748 C5.00590686,4.97791007 4.95894358,4.99095951 4.93802617,5.02797423 C4.93149632,5.03952921 4.92806484,5.05257616 4.92806484,5.06584856 Z" id="Path-19" fill-opacity="0.27955163" fill="#FFFFFF"></path>
                                    <path d="M4.92806484,6.7618838 L4.92806484,7.65632633 C4.92806484,7.68390643 4.94281912,7.70937925 4.96674266,7.72310244 L13.6224697,12.6882615 C13.6593491,12.7094166 13.7063954,12.6966694 13.7275504,12.65979 C13.7342379,12.6481317 13.7377567,12.6349256 13.7377567,12.6214854 L13.7377567,11.6982492 C13.7377567,11.6427349 13.7078714,11.5915193 13.6595406,11.564207 L5.04292158,6.69486273 C5.00590686,6.67394531 4.95894358,6.68699475 4.93802617,6.72400947 C4.93149632,6.73556445 4.92806484,6.74861141 4.92806484,6.7618838 Z" id="Path-19-Copy" fill-opacity="0.27955163" fill="#FFFFFF"></path>
                                </g>
                                <polyline id="Path-25" stroke="none" fill="#F0F4FA" fill-rule="evenodd" points="59.7762354 48.0682669 60.2924441 47.7339481 60.2924441 21.490658 29.8129955 4 29 4.35600676"></polyline>
                                <path d="M48.4091495,41.2548774 L48.4091495,41.6212716 C48.4091495,42.5574711 47.9364871,43.4303878 47.1524932,43.9420743 L42.3108336,47.1020632 L34,42.203212 L38.2451758,39.6870127 C39.3210568,39.0493169 39.9807724,37.8913966 39.9807724,36.6407264 L39.9807724,36 L48.4091495,41.2548774 Z" id="Path-24" stroke="none" fill="#CAD8E7" fill-rule="evenodd"></path>
                                <path d="M48.4091495,41.2548774 L48.4091495,41.6212716 C48.4091495,42.5574711 47.9364871,43.4303878 47.1524932,43.9420743 L42.3108336,47.1020632 L34,42.203212 L38.2451758,39.6870127 C39.3210568,39.0493169 39.9807724,37.8913966 39.9807724,36.6407264 L39.9807724,36 L48.4091495,41.2548774 Z" id="Path-24" stroke="none" fill="url(#linearGradient-3)" fill-rule="evenodd"></path>
                                <path d="M59.1982975,45.1711276 L59.1982975,48.3342788 C59.1982975,48.5468598 59.0259666,48.7191908 58.8133855,48.7191908 C58.7477124,48.7191908 58.6831314,48.7023875 58.6257863,48.6703796 L28,31.5761796 L28.473104,28 L59.1982975,45.1711276 Z" id="Path-23" stroke="none" fill="#E4EDF7" fill-rule="evenodd"></path>
                                <path d="M59.9892824,21.9341649 L59.9892824,44.4056286 L29,27.0782188 L29,4.38490507 C29,4.17232404 29.172331,3.99999307 29.384912,3.99999307 C29.4523764,3.99999307 29.5186558,4.0177249 29.577108,4.05141151 L59.6809367,21.4005752 C59.8717186,21.5105249 59.9892824,21.713968 59.9892824,21.9341649 Z" id="Path-22" stroke="none" fill="#F0F4FA" fill-rule="evenodd"></path>
                                <path d="M58.7297583,22.948777 L58.7297583,43.4742816 C58.7297583,43.6443464 58.5918935,43.7822112 58.4218287,43.7822112 C58.3687932,43.7822112 58.3166566,43.7685132 58.2704702,43.7424444 L29,27.2213817 L29,6.65902748 C29,6.44644645 29.172331,6.27411548 29.384912,6.27411548 C29.4511686,6.27411548 29.5163034,6.29121843 29.5740128,6.32376918 L58.5731094,22.6805704 C58.6698927,22.7351605 58.7297583,22.8376595 58.7297583,22.948777 Z" id="Path-21" stroke="none" fill="#B6C2CD" fill-rule="evenodd"></path>
                                <path d="M10.0916314,53.345971 L11.0018266,61.5840617 L11.6773615,50.9111614 C11.9499819,50.6769851 12.2034438,50.559897 12.4397403,50.559897 C12.6760368,50.559897 12.9180543,50.7217932 13.1681562,51.0455855 C13.6128297,55.5208944 13.9086402,58.653691 14.02472,60.4439753 C14.1424638,62.2342596 14.1409147,64.1870698 14.0070793,66.3024059 L7.96763079,67.790118 C7.86266518,67.1150885 7.82809245,66.4465174 7.86177514,65.7844047 C7.91229918,64.7912356 7.93166177,64.0843578 8.32393751,60.3211656 C8.57109425,57.8123707 8.81227301,55.4873059 9.04711822,53.345971 C9.25072272,53.1706572 9.43483292,53.0830003 9.60046176,53.0830003 C9.7660906,53.0830003 9.92952946,53.1706572 10.0916314,53.345971 Z" id="Path" stroke="none" fill="url(#linearGradient-4)" fill-rule="evenodd" transform="translate(10.979860, 59.175008) rotate(58.455644) translate(-10.979860, -59.175008) "></path>
                                <path d="M17.2106885,56.6086177 C18.7986934,56.0103485 19.6716559,55.8531518 19.8295759,56.1370276 C19.987496,56.4209034 19.318082,56.9100699 17.821334,57.6045274 C17.411453,57.5166505 17.1547693,57.3883237 17.0512832,57.2195468 C16.947797,57.0507699 17.0009321,56.8471269 17.2106885,56.6086177 Z" id="Path-13" stroke="none" fill="#23272C" fill-rule="evenodd"></path>
                                <path d="M14.2106885,54.6086177 C15.7986934,54.0103485 16.6716559,53.8531518 16.8295759,54.1370276 C16.987496,54.4209034 16.318082,54.9100699 14.821334,55.6045274 C14.411453,55.5166505 14.1547693,55.3883237 14.0512832,55.2195468 C13.947797,55.0507699 14.0009321,54.8471269 14.2106885,54.6086177 Z" id="Path-13-Copy" stroke="none" fill="#23272C" fill-rule="evenodd"></path>
                                <path d="M18,56 L18,56.2708659 C18.1095413,56.5199488 18.2688955,56.6361658 18.4780624,56.6195167 C18.6872293,56.6028677 18.7637115,56.4356481 18.7075091,56.117858" id="Path-14" stroke="none" fill="#F3BBB6" fill-rule="evenodd"></path>
                                <path d="M14,54 L14,54.2708659 C14.1095413,54.5199488 14.2688955,54.6361658 14.4780624,54.6195167 C14.6872293,54.6028677 14.7637115,54.4356481 14.7075091,54.117858" id="Path-14-Copy" stroke="none" fill="#F3BBB6" fill-rule="evenodd"></path>
                                <path d="M18.1423351,29.618095 L18.2915764,29.509163 C18.3602591,29.4590312 18.3752976,29.362713 18.3251657,29.2940303 C18.3187129,29.2851896 18.3113357,29.2770622 18.3031593,29.2697859 L18,29 L18.1423351,29.618095 Z" id="Path-10" stroke="none" fill="#E2A3B0" fill-rule="evenodd"></path>
                                <path d="M17.3120998,33.0824007 L17.2250407,31.5655031 L17.5159925,31.5827264 C17.836692,31.6017121 18.1181112,31.3709919 18.1623729,31.0527946 C18.2352612,30.5288009 18.2717053,30.0641795 18.2717053,29.6589301 C18.2717053,29.1140049 18.1936817,28.5890874 18.0376345,28.0841777 L14.4359101,28 C14.0125456,28.6220922 13.8975661,29.2444214 14.0909716,29.8669878 C14.2843771,30.4895541 14.7543855,31.0100518 15.5009967,31.4284808 L15.7691982,32.6411402 L17.3120998,33.0824007 Z" id="Path-9" stroke="none" fill="#EFB5BF" fill-rule="evenodd"></path>
                                <path d="M16,32 C16.3915554,32.2002236 16.6893691,32.4119669 16.893441,32.6352299 C17.097513,32.8584929 17.2672964,33.1949268 17.4027911,33.6445316 L17.34594,32.0820877 L16,32 Z" id="Path-11" stroke="none" fill="#E2A3B0" fill-rule="evenodd"></path>
                                <path d="M14.9313259,54.6864149 L16.0482134,47.4508311 L16.8834816,56.8249286 C17.2347658,57.0306075 17.5614785,57.133447 17.8636195,57.133447 C18.1657606,57.133447 18.4674688,56.9912522 18.7687443,56.7068627 C19.0649559,52.7761615 19.2274491,50.0246001 19.2562239,48.4521785 C19.2849987,46.8797569 19.1847911,45.1645874 18.9556012,43.30667 L13.196358,42 C13.0656541,42.5928841 13.0003022,43.1800957 13.0003022,43.7616348 C13.0003022,44.6339434 12.9837132,45.2548002 13.196358,48.5600433 C13.3381212,50.7635388 13.4954751,52.8056626 13.6684198,54.6864149 C13.9069157,54.8403945 14.1268103,54.9173843 14.3281034,54.9173843 C14.5293966,54.9173843 14.7304708,54.8403945 14.9313259,54.6864149 Z" id="Path" stroke="none" fill="#323F4F" fill-rule="evenodd"></path>
                                <g id="Group" filter="url(#filter-5)" stroke="none" stroke-width="1" fill="none" fill-rule="evenodd" transform="translate(26.000000, 24.000000)">
                                    <path d="M0.550050452,5.94813817 L14.4755313,13.8217718 C14.5125412,13.8426976 14.5595075,13.8296589 14.5804333,13.792649 C14.5869687,13.7810903 14.5904033,13.7680377 14.5904033,13.7547593 L14.5904033,8.33196606 C14.5904033,8.27670559 14.5607883,8.22568339 14.5128042,8.19827449 L0.428546049,0.153230716 C0.354710233,0.111055093 0.260664379,0.13672075 0.218488756,0.210556565 C0.205203364,0.23381497 0.198215527,0.260136936 0.198215527,0.286922287 L0.198215527,5.3450263 C0.198215527,5.59478387 0.332638919,5.82521109 0.550050452,5.94813817 Z" id="Path-15" fill="#5339EC"></path>
                                    <polygon id="Path-16" fill="#5339EC" transform="translate(0.246313, 0.250516) rotate(51.638150) translate(-0.246313, -0.250516) " points="0.149333711 0.364864125 0.342852034 0.26671296 0.194244303 0.136343523"></polygon>
                                    <path d="M0.396048426,6.02523069 L14.3215292,13.8988643 C14.3585392,13.9197901 14.4055054,13.9067514 14.4264313,13.8697415 C14.4329667,13.8581828 14.4364013,13.8451302 14.4364013,13.8318519 L14.4364013,8.40905857 C14.4364013,8.3537981 14.4067863,8.3027759 14.3588022,8.275367 L0.274544022,0.230323227 C0.200708207,0.188147604 0.106662353,0.213813261 0.0644867295,0.287649076 C0.0512013379,0.310907481 0.0442135006,0.337229447 0.0442135006,0.364014798 L0.0442135006,5.42211881 C0.0442135006,5.67187638 0.178636893,5.9023036 0.396048426,6.02523069 Z" id="Path-15" fill="#593DFF"></path>
                                    <polygon id="Path-16" fill="#5339EC" points="14.3898521 13.9035855 14.5833704 13.8054344 14.4347627 13.6750649"></polygon>
                                    <path d="M0.640601938,1.4098304 L0.640601938,5.36525597 C0.640601938,5.39318528 0.655728893,5.41892383 0.680129628,5.43251245 L3.85982102,7.2032624 C3.89696575,7.22394806 3.94384655,7.21060536 3.96453222,7.17346062 C3.9709104,7.16200749 3.97425813,7.14911528 3.97425813,7.13600592 L3.97425813,3.29587009 C3.97425813,3.18358905 3.91314356,3.0802083 3.81477005,3.02608174 L0.754694717,1.34238331 C0.717444719,1.32188782 0.670632746,1.33547002 0.65013725,1.37272002 C0.643881969,1.38408882 0.640601938,1.39685434 0.640601938,1.4098304 Z" id="Path-17" fill-opacity="0.468863225" fill="#FFFFFF"></path>
                                    <path d="M4.95435115,3.72763351 L4.95435115,4.50841298 C4.95435115,4.53641276 4.96955386,4.56220468 4.99405091,4.575765 L8.05731344,6.27143126 C8.09451093,6.2920219 8.14135747,6.27855939 8.16194811,6.24136189 C8.1682647,6.22995082 8.17157849,6.21712195 8.17157849,6.20407925 L8.17157849,5.45061956 C8.17157849,5.39436721 8.14090046,5.34259244 8.09156086,5.31557521 L5.06830714,3.66011133 C5.03101567,3.63969138 4.98423133,3.65336846 4.96381138,3.69065992 C4.95760454,3.70199503 4.95435115,3.71471029 4.95435115,3.72763351 Z" id="Path-18" fill-opacity="0.28" fill="#FFFFFF"></path>
                                    <path d="M4.92806484,5.06584856 L4.92806484,5.96029109 C4.92806484,5.98787119 4.94281912,6.013344 4.96674266,6.0270672 L13.6224697,10.9922263 C13.6593491,11.0133813 13.7063954,11.0006342 13.7275504,10.9637548 C13.7342379,10.9520964 13.7377567,10.9388904 13.7377567,10.9254502 L13.7377567,10.002214 C13.7377567,9.9466997 13.7078714,9.89548409 13.6595406,9.8681718 L5.04292158,4.99882748 C5.00590686,4.97791007 4.95894358,4.99095951 4.93802617,5.02797423 C4.93149632,5.03952921 4.92806484,5.05257616 4.92806484,5.06584856 Z" id="Path-19" fill-opacity="0.27955163" fill="#FFFFFF"></path>
                                    <path d="M4.92806484,6.7618838 L4.92806484,7.65632633 C4.92806484,7.68390643 4.94281912,7.70937925 4.96674266,7.72310244 L13.6224697,12.6882615 C13.6593491,12.7094166 13.7063954,12.6966694 13.7275504,12.65979 C13.7342379,12.6481317 13.7377567,12.6349256 13.7377567,12.6214854 L13.7377567,11.6982492 C13.7377567,11.6427349 13.7078714,11.5915193 13.6595406,11.564207 L5.04292158,6.69486273 C5.00590686,6.67394531 4.95894358,6.68699475 4.93802617,6.72400947 C4.93149632,6.73556445 4.92806484,6.74861141 4.92806484,6.7618838 Z" id="Path-19-Copy" fill-opacity="0.27955163" fill="#FFFFFF"></path>
                                </g>
                                <ellipse id="Oval" stroke="none" fill-opacity="0.308423913" fill="#000000" fill-rule="evenodd" cx="26.2299382" cy="29.5396476" rx="1" ry="1"></ellipse>
                                <ellipse id="Oval" stroke="none" fill-opacity="0.308423913" fill="#000000" fill-rule="evenodd" cx="25.4620061" cy="29.8865639" rx="1" ry="1"></ellipse>
                                <polygon id="Path-2" stroke="none" fill="#000000" fill-rule="evenodd" points="15 54.5328659 16.0536316 47.1458407 15.9547364 46"></polygon>
                                <path d="M18.8673128,43.3881781 C19.0147416,44.3874049 19.1231053,45.5372156 19.192404,46.8376103 C19.2617027,48.138005 19.197568,49.8373107 19,51.9355274 C19.3944706,49.6481252 19.5917059,47.9036897 19.5917059,46.702221 C19.5917059,45.5007523 19.4962388,44.3679603 19.3053046,43.3038449 L18.8673128,43.3881781 Z" id="Path-3" stroke="none" fill="#000000" fill-rule="evenodd"></path>
                                <g id="Path-6-+-Path-7-+-Path-7-Copy-Mask" stroke="none" stroke-width="1" fill="none" fill-rule="evenodd" transform="translate(10.000000, 32.000000)">
                                    <mask id="mask-7" fill="white">
                                        <use xlink:href="#path-6"></use>
                                    </mask>
                                    <use id="Mask" fill="#9013FE" xlink:href="#path-6"></use>
                                    <path d="M7.95161631,11.2773189 C8.63372313,10.5031692 9.01056234,9.76350727 9.08213394,9.05833322 C9.23312185,7.57069349 9.09594116,5.76380422 8.67059187,3.6376654 L9.53503244,3.82457823 L10.3706409,8.09953966 L9.53503244,10.708025 L7.95161631,11.2773189 Z" id="Path-6" fill="#000000" opacity="0.097826087" mask="url(#mask-7)"></path>
                                    <path d="M12.627153,3.295485 L12.9947168,3.800232 C12.989009,3.5701008 12.989009,3.39928387 12.9947168,3.2877812 C13.0004245,3.17627853 13.0179126,3.00546159 13.047181,2.7753304 L12.627153,3.295485 Z" id="Path-7" fill="#000000" opacity="0.097826087" mask="url(#mask-7)"></path>
                                    <path d="M2.54763203,5.16285646 L2.81028043,5.52353127 C2.80620186,5.35908744 2.80620186,5.23702755 2.81028043,5.15735158 C2.81435901,5.07767562 2.82685538,4.95561572 2.84776956,4.7911719 L2.54763203,5.16285646 Z" id="Path-7-Copy" fill="#000000" opacity="0.097826087" mask="url(#mask-7)" transform="translate(2.698042, 5.157352) rotate(102.000000) translate(-2.698042, -5.157352) "></path>
                                </g>
                                <path d="M25.9503419,33.5961298 L26.0716214,33.2003148 C26.3656554,32.9320935 26.5425394,32.7234082 26.6022733,32.5742589 C26.6918741,32.3505349 26.7021451,31.9610386 26.6022733,31.8753324 C26.5024015,31.7896263 26.0716214,31.7071769 26.0716214,31.591656 C26.0716214,31.5223434 26.1907169,31.0512622 26.4289078,30.1784124 L26.3572113,30.1588472 C26.3575986,30.1574277 26.3567619,30.1559629 26.3553424,30.1555756 C26.3541652,30.1552543 26.3529203,30.1557738 26.3523207,30.1568365 L25.4880028,31.6885932 C25.2631426,31.1527927 25.1188832,30.9296756 25.0552243,31.0192417 C24.9915655,31.1088079 24.9829428,31.8698731 25.0293562,33.3024373" id="Path-8" stroke="none" fill="#E1ABB5" fill-rule="evenodd"></path>
                                <path d="M25.8849872,32.9676797 L25.9979264,32.5990847 C26.2717398,32.3493089 26.4364595,32.1549748 26.4920855,32.0160825 C26.5755245,31.8077439 26.5850891,31.4450331 26.4920855,31.365221 C26.3990818,31.2854088 25.9979264,31.2086294 25.9979264,31.1010528 C25.9979264,31.0452724 26.0807546,30.7100708 26.2464111,30.0954482 L26.2460548,30.0953522 C26.2570662,30.0544976 26.2328735,30.012452 26.1920189,30.0014407 C26.1582259,29.9923326 26.1225566,30.0072831 26.1053571,30.0377643 L25.454443,31.1913237 C25.2450464,30.6923701 25.1107076,30.4845966 25.0514266,30.5680033 C24.9921456,30.65141 24.9841159,31.3601371 25.0273374,32.6941843" id="Path-8" stroke="none" fill="#EFB5BF" fill-rule="evenodd"></path>
                                <path d="M15.6300958,28.2482388 C16.6126297,28.2864766 17.2812887,28.261937 17.6360727,28.1746201 C18.0220134,28.0796352 18.4025624,27.8652602 18.7777197,27.5314951 C19.0295717,26.6489989 19.0558209,26.1622595 18.8564673,26.071277 C18.557437,25.9348032 16.5514189,26.013447 15.7379239,26.1465592 C14.9244289,26.2796714 14.222691,26.8698677 14.0176104,28.3950139 C13.8125297,29.9201601 15.4631614,30.3479141 15.6193932,30.0203227 C15.7756251,29.6927313 15.1370903,29.1451136 15.0839101,28.8983726 C15.0839101,28.8983726 15.0839101,28.8983726 15.0839101,28.8983726 L15.0839101,28.8983726 C15.0213826,28.6082629 15.2058745,28.3223939 15.4959842,28.2598664 C15.5400231,28.2503747 15.5850808,28.2464587 15.6300969,28.2482106 Z" id="Path-12" stroke="none" fill="#142432" fill-rule="evenodd"></path>
                                <g id="Group" stroke="none" stroke-width="1" fill="none" fill-rule="evenodd" transform="translate(39.000000, 0.000000)">
                                    <path d="M0.550050452,5.94813817 L14.4755313,13.8217718 C14.5125412,13.8426976 14.5595075,13.8296589 14.5804333,13.792649 C14.5869687,13.7810903 14.5904033,13.7680377 14.5904033,13.7547593 L14.5904033,8.33196606 C14.5904033,8.27670559 14.5607883,8.22568339 14.5128042,8.19827449 L0.428546049,0.153230716 C0.354710233,0.111055093 0.260664379,0.13672075 0.218488756,0.210556565 C0.205203364,0.23381497 0.198215527,0.260136936 0.198215527,0.286922287 L0.198215527,5.3450263 C0.198215527,5.59478387 0.332638919,5.82521109 0.550050452,5.94813817 Z" id="Path-15" fill="#F6FAFD"></path>
                                    <path d="M0.396048426,6.02523069 L14.3215292,13.8988643 C14.3585392,13.9197901 14.4055054,13.9067514 14.4264313,13.8697415 C14.4329667,13.8581828 14.4364013,13.8451302 14.4364013,13.8318519 L14.4364013,8.40905857 C14.4364013,8.3537981 14.4067863,8.3027759 14.3588022,8.275367 L0.274544022,0.230323227 C0.200708207,0.188147604 0.106662353,0.213813261 0.0644867295,0.287649076 C0.0512013379,0.310907481 0.0442135006,0.337229447 0.0442135006,0.364014798 L0.0442135006,5.42211881 C0.0442135006,5.67187638 0.178636893,5.9023036 0.396048426,6.02523069 Z" id="Path-15" fill="#F3F7FD"></path>
                                    <polygon id="Path-16" fill="#5339EC" points="14.3898521 13.9035855 14.5833704 13.8054344 14.4347627 13.6750649"></polygon>
                                    <path d="M0.640601938,1.4098304 L0.640601938,5.36525597 C0.640601938,5.39318528 0.655728893,5.41892383 0.680129628,5.43251245 L3.85982102,7.2032624 C3.89696575,7.22394806 3.94384655,7.21060536 3.96453222,7.17346062 C3.9709104,7.16200749 3.97425813,7.14911528 3.97425813,7.13600592 L3.97425813,3.29587009 C3.97425813,3.18358905 3.91314356,3.0802083 3.81477005,3.02608174 L0.754694717,1.34238331 C0.717444719,1.32188782 0.670632746,1.33547002 0.65013725,1.37272002 C0.643881969,1.38408882 0.640601938,1.39685434 0.640601938,1.4098304 Z" id="Path-17" fill-opacity="0.468863225" fill="#FFFFFF"></path>
                                    <path d="M4.92806484,5.06584856 L4.92806484,5.96029109 C4.92806484,5.98787119 4.94281912,6.013344 4.96674266,6.0270672 L13.6224697,10.9922263 C13.6593491,11.0133813 13.7063954,11.0006342 13.7275504,10.9637548 C13.7342379,10.9520964 13.7377567,10.9388904 13.7377567,10.9254502 L13.7377567,10.002214 C13.7377567,9.9466997 13.7078714,9.89548409 13.6595406,9.8681718 L5.04292158,4.99882748 C5.00590686,4.97791007 4.95894358,4.99095951 4.93802617,5.02797423 C4.93149632,5.03952921 4.92806484,5.05257616 4.92806484,5.06584856 Z" id="Path-19" fill-opacity="0.27955163" fill="#FFFFFF"></path>
                                    <path d="M4.92806484,6.7618838 L4.92806484,7.65632633 C4.92806484,7.68390643 4.94281912,7.70937925 4.96674266,7.72310244 L13.6224697,12.6882615 C13.6593491,12.7094166 13.7063954,12.6966694 13.7275504,12.65979 C13.7342379,12.6481317 13.7377567,12.6349256 13.7377567,12.6214854 L13.7377567,11.6982492 C13.7377567,11.6427349 13.7078714,11.5915193 13.6595406,11.564207 L5.04292158,6.69486273 C5.00590686,6.67394531 4.95894358,6.68699475 4.93802617,6.72400947 C4.93149632,6.73556445 4.92806484,6.74861141 4.92806484,6.7618838 Z" id="Path-19-Copy" fill-opacity="0.27955163" fill="#FFFFFF"></path>
                                </g>
                                <polygon id="Path-20" stroke="none" fill="#68747F" fill-rule="evenodd" points="31 9 31 13.5879062 42.9450418 20.4061798 42.9450418 15.6294132"></polygon>
                                <polygon id="Path-20-Copy" stroke="none" fill="#68747F" fill-rule="evenodd" points="31 15 31 19.5879062 42.9450418 26.4061798 42.9450418 21.6294132"></polygon>
                                <path d="M31,21 L31,25.5879062 L42.9450418,32.4061798 L42.9450418,27.6294132 L31,21 Z" id="Path-20-Copy-5" stroke="#593DFF" stroke-width="0.64152" fill="none" stroke-linecap="round" stroke-linejoin="round" stroke-dasharray="1.231718468666077,0.5388767808675766"></path>
                                <polygon id="Path-20-Copy-2" stroke="none" fill="#68747F" fill-rule="evenodd" points="45 17 45 21.5879062 56.9450418 28.4061798 56.9450418 23.6294132"></polygon>
                                <polygon id="Path-20-Copy-3" stroke="none" fill="#68747F" fill-rule="evenodd" points="45 23 45 27.5879062 56.9450418 34.4061798 56.9450418 29.6294132"></polygon>
                                <polygon id="Path-20-Copy-4" stroke="none" fill="#68747F" fill-rule="evenodd" points="45 28 45 32.5879062 56.9450418 39.4061798 56.9450418 34.6294132"></polygon>
                            </g>
                        </g>
                    </g>
                    <path d="M59.9624712,38.056593 L59.9624712,41.2155551 C59.9624712,41.4281361 59.7901402,41.6004671 59.5775592,41.6004671 C59.5111618,41.6004671 59.4458935,41.5832914 59.3880967,41.5506091 L41,31.152718 L43.6603716,29 L59.9624712,38.056593 Z" id="Path-23" fill="#E4EDF7"></path>
                    <path d="M59.9326924,15.4010088 L59.9326924,37.864021 L50.9452148,33.1500075 L43.0160781,6.49465937 C42.9554667,6.29090227 43.0715093,6.07658927 43.2752663,6.01597788 C43.3738941,5.98663919 43.4801628,5.99801229 43.5703482,6.04755815 L59.6133695,14.8612415 C59.8103103,14.9694364 59.9326924,15.1763049 59.9326924,15.4010088 Z" id="Path-22" fill="#F0F4FA"></path>
                    <path d="M59.2630759,16.0046629 L59.2630759,36.5275145 C59.2630759,36.6975793 59.1252111,36.8354441 58.9551463,36.8354441 C58.9017837,36.8354441 58.8493371,36.8215767 58.8029483,36.7952016 L44.3981967,28.6051422 L43.0008481,7.41023387 C42.9868634,7.19811334 43.1474841,7.01481876 43.3596046,7.00083397 C43.433831,6.99594034 43.5078852,7.01265973 43.5728089,7.04896961 L59.1054523,15.7359089 C59.2027823,15.7903426 59.2630759,15.8931454 59.2630759,16.0046629 Z" id="Path-21" fill="#B6C2CD"></path>
                    <polygon id="Path-20-Copy-2" fill="#68747F" points="45 11 45 15.5879062 56.9450418 22.4061798 56.9450418 17.6294132"></polygon>
                    <polygon id="Path-20-Copy-3" fill="#68747F" points="45 16 45 20.5879062 56.9450418 27.4061798 56.9450418 22.6294132"></polygon>
                    <polygon id="Path-20-Copy-4" fill="#68747F" points="45 22 45 26.5879062 56.9450418 33.4061798 56.9450418 28.6294132"></polygon>
                </g>
            </g>
        </g>
    </g>
</svg>