<?xml version="1.0" encoding="UTF-8"?>
<svg width="785px" height="1024px" viewBox="0 0 785 1024" version="1.1" xmlns="http://www.w3.org/2000/svg" xmlns:xlink="http://www.w3.org/1999/xlink">
    <!-- Generator: Sketch 51.3 (57544) - http://www.bohemiancoding.com/sketch -->
    <title>Group 4</title>
    <desc>Created with Sketch.</desc>
    <defs>
        <polygon id="path-1" points="430.03722 19.9959093 430.03722 304.665182 0.403042605 262.724844 0.403042605 0.247224517"></polygon>
        <rect id="path-3" x="0" y="0" width="84.1282051" height="252.31185"></rect>
        <rect id="path-5" x="0" y="0" width="84.1282051" height="252.31185"></rect>
        <rect id="path-7" x="0" y="0" width="84.1282051" height="252.31185"></rect>
        <polygon id="path-9" points="4.02366061 0.811213991 77.2811443 0.811213991 84.448473 470.787921 0.676860593 487.90323"></polygon>
        <path d="M278.84128,66.7015438 L27.8043528,155.299366 C-0.476481648,195.284484 -6.74078257,225.2838 9.01144998,245.297314 C32.6397988,275.317586 52.0716365,298.842488 120.548592,283.488985 C189.025548,268.135482 142.254265,419.148934 200.311693,408.739151 C258.369122,398.329368 327.068692,429.096349 358.989324,501.370753 C400.757542,595.941976 560.648699,729.230038 608.908747,722.419966 C625.621034,720.061662 821.280356,758.978645 891.107947,672.132254 C951.207862,597.384426 778.848613,397.343602 791.467019,392.887749 C930.782824,327.625251 930.782824,256.197987 791.467019,178.605957 L278.84128,66.7015438 Z" id="path-11"></path>
        <path d="M615.473676,602.291573 L600.431014,549.971811 C597.28349,539.024433 585.857314,532.701403 574.909936,535.848927 C574.812319,535.876993 574.714911,535.90578 574.617719,535.935285 L548.730394,543.794124 L502.369658,559.709417 L520.127544,606.278124 L554.94819,596.232608 L574.167527,579.252439 C575.874822,577.744054 578.481645,577.905302 579.990029,579.612597 C580.090816,579.726675 580.185211,579.846243 580.272781,579.970755 L600.764699,609.10729 L608.648572,609.10729 L615.473676,602.291573 Z" id="path-13"></path>
        <filter x="-28.4%" y="-66.1%" width="156.8%" height="232.2%" filterUnits="objectBoundingBox" id="filter-15">
            <feGaussianBlur stdDeviation="20.7055664" in="SourceGraphic"></feGaussianBlur>
        </filter>
        <filter x="-28.4%" y="-66.1%" width="156.8%" height="232.2%" filterUnits="objectBoundingBox" id="filter-16">
            <feGaussianBlur stdDeviation="41.4111328" in="SourceGraphic"></feGaussianBlur>
        </filter>
        <filter x="-39.0%" y="-90.7%" width="178.0%" height="281.4%" filterUnits="objectBoundingBox" id="filter-17">
            <feGaussianBlur stdDeviation="20.7055664" in="SourceGraphic"></feGaussianBlur>
        </filter>
        <filter x="-56.5%" y="-100.5%" width="213.1%" height="300.9%" filterUnits="objectBoundingBox" id="filter-18">
            <feGaussianBlur stdDeviation="20.7055664" in="SourceGraphic"></feGaussianBlur>
        </filter>
        <path d="M0.271712715,37.341546 C-0.192948937,29.411738 0.892754448,22.7636424 3.52882287,17.3972592 C6.16489129,12.0308759 17.846264,6.30087796 38.572941,0.207265246 C68.9239434,-0.38873156 88.5712262,0.825784067 97.5147894,3.85081213 C106.458353,6.87584018 114.624838,15.0689207 122.014246,28.4300536 C125.354178,37.7194723 127.598689,44.5318502 128.747779,48.8671875 C129.724013,52.5503634 130.96792,58.4385434 132.4795,66.5317275 L132.479505,66.5317264 C132.814118,68.3232827 134.537718,69.5043689 136.329275,69.1697564 C136.66739,69.1066059 136.993554,68.9909824 137.295951,68.8270742 C143.049072,65.7087124 149.302569,62.6144458 156.056441,59.5442745 C164.403707,55.7497789 172.224728,52.5422518 179.519503,49.9216934 C183.061044,49.1036381 186.312384,48.1152251 189.273522,46.9564545 C192.234661,45.7976839 194.491179,44.6023368 196.043076,43.3704133 C200.849464,43.7739088 204.007564,45.9576689 205.517373,49.9216934 C207.027183,53.8857179 207.027183,57.7558302 205.517373,61.5320301 C204.455309,61.2925019 202.410022,62.4386025 199.381514,64.9703319 C194.838751,68.767926 198.869715,66.6779798 187.539548,75.126148 C176.20938,83.5743163 183.017998,78.4478109 167.217203,88.9531641 C156.68334,95.9567329 145.380145,102.743455 133.30762,109.313331 L90.6120177,117.656893 L25.40987,105.214212 L0.271712715,37.341546 Z" id="path-19"></path>
        <filter x="-46.7%" y="-233.4%" width="193.3%" height="566.8%" filterUnits="objectBoundingBox" id="filter-21">
            <feGaussianBlur stdDeviation="1.92438616" in="SourceGraphic"></feGaussianBlur>
        </filter>
        <filter x="-46.7%" y="-233.4%" width="193.3%" height="566.8%" filterUnits="objectBoundingBox" id="filter-22">
            <feGaussianBlur stdDeviation="3.84877232" in="SourceGraphic"></feGaussianBlur>
        </filter>
        <filter x="-70.0%" y="-350.1%" width="240.0%" height="800.2%" filterUnits="objectBoundingBox" id="filter-23">
            <feGaussianBlur stdDeviation="1.92438616" in="SourceGraphic"></feGaussianBlur>
        </filter>
        <filter x="-46.7%" y="-233.4%" width="193.3%" height="566.8%" filterUnits="objectBoundingBox" id="filter-24">
            <feGaussianBlur stdDeviation="1.92438616" in="SourceGraphic"></feGaussianBlur>
        </filter>
        <filter x="-46.7%" y="-233.4%" width="193.3%" height="566.8%" filterUnits="objectBoundingBox" id="filter-25">
            <feGaussianBlur stdDeviation="3.84877232" in="SourceGraphic"></feGaussianBlur>
        </filter>
        <filter x="-70.0%" y="-350.1%" width="240.0%" height="800.2%" filterUnits="objectBoundingBox" id="filter-26">
            <feGaussianBlur stdDeviation="1.92438616" in="SourceGraphic"></feGaussianBlur>
        </filter>
        <filter x="-46.7%" y="-233.4%" width="193.3%" height="566.8%" filterUnits="objectBoundingBox" id="filter-27">
            <feGaussianBlur stdDeviation="1.92438616" in="SourceGraphic"></feGaussianBlur>
        </filter>
        <filter x="-46.7%" y="-233.4%" width="193.3%" height="566.8%" filterUnits="objectBoundingBox" id="filter-28">
            <feGaussianBlur stdDeviation="3.84877232" in="SourceGraphic"></feGaussianBlur>
        </filter>
        <filter x="-70.0%" y="-350.1%" width="240.0%" height="800.2%" filterUnits="objectBoundingBox" id="filter-29">
            <feGaussianBlur stdDeviation="1.92438616" in="SourceGraphic"></feGaussianBlur>
        </filter>
        <filter x="-46.7%" y="-233.4%" width="193.3%" height="566.8%" filterUnits="objectBoundingBox" id="filter-30">
            <feGaussianBlur stdDeviation="1.92438616" in="SourceGraphic"></feGaussianBlur>
        </filter>
        <filter x="-46.7%" y="-233.4%" width="193.3%" height="566.8%" filterUnits="objectBoundingBox" id="filter-31">
            <feGaussianBlur stdDeviation="3.84877232" in="SourceGraphic"></feGaussianBlur>
        </filter>
        <filter x="-70.0%" y="-350.1%" width="240.0%" height="800.2%" filterUnits="objectBoundingBox" id="filter-32">
            <feGaussianBlur stdDeviation="1.92438616" in="SourceGraphic"></feGaussianBlur>
        </filter>
        <path d="M9.06144229,30.932027 L13.207763,27.7922525 L20.1602182,26.6165527 C22.6990759,24.5971017 24.3885076,22.9664763 25.2285132,21.7246767 C26.0685188,20.482877 27.0479261,18.1680962 28.1667349,14.7803343 C35.2935516,15.6005797 39.5362707,14.7627576 40.8948923,12.266868 C42.2535139,9.77097842 41.7700156,7.13998958 39.4443974,4.3739015 L33.9811252,4.3739015 C26.1617252,1.05294153 20.9227066,0.0496917873 18.2640693,1.36415228 C15.6054319,2.67861278 12.9042191,6.79689954 10.1604309,13.7190126 L0.78573506,19.4474617 L9.06144229,30.932027 Z" id="path-33"></path>
        <path d="M44.0290871,82.3408621 L44.0290871,64.1178187 C46.4925999,62.8011582 48.5919231,60.6791026 50.3270569,57.7516518 C52.0621906,54.824201 52.9856966,51.5853905 53.0975747,48.0352205 C52.8660773,44.783923 52.8660773,42.3482668 53.0975747,40.7282518 C53.4448209,38.2982292 56.0106665,37.2175434 54.8272215,34.8871746 C54.3462966,33.9401662 53.5537106,32.8362857 52.4494635,31.5755329 L52.4494627,31.5755337 C51.1134232,30.0501364 50.2780158,28.1512652 50.0561964,26.1356674 C49.6940112,22.8446131 47.8387902,18.4453581 44.4905334,12.9379023 C40.0685707,5.66433719 36.1152587,1.51219925 32.6305975,0.481488519 L6.22736119,12.0306352 L0.10748074,47.1829188 L11.207053,64.1178187 L15.0839208,72.9955956 L19.608443,87.3474167 L44.0290871,82.3408621 Z" id="path-35"></path>
    </defs>
    <g id="Layout" stroke="none" stroke-width="1" fill="none" fill-rule="evenodd">
        <g id="Desktop-HD-Copy-5" transform="translate(-655.000000, 0.000000)">
            <g id="Group-4" transform="translate(655.000000, -67.000000)">
                <g id="Group-2">
                    <polygon id="Path-29" fill="#66AEB9" points="849.485974 563.414473 849.485974 240.252994 376.858117 218.587926 376.858117 517.375413"></polygon>
                    <g id="Group" transform="translate(399.271368, 238.789165)">
                        <mask id="mask-2" fill="white">
                            <use xlink:href="#path-1"></use>
                        </mask>
                        <use id="Mask" fill="#E5FDFF" xlink:href="#path-1"></use>
                        <polygon id="Path-28" fill="#A1F5F3" mask="url(#mask-2)" points="442.389685 225.170425 270.402314 208.370288 270.402314 103.622011 123.023225 103.622011 123.023225 190.968371 -3.46974984 177.05015 -3.46974984 256.407749 435.884174 314.714109"></polygon>
                        <g mask="url(#mask-2)">
                            <g transform="translate(-1.649573, 44.525621)">
                                <g id="Rectangle-2" stroke-width="1" fill="none" transform="translate(320.841880, 23.087359)">
                                    <mask id="mask-4" fill="white">
                                        <use xlink:href="#path-3"></use>
                                    </mask>
                                    <use id="Mask" fill="#67C5C0" xlink:href="#path-3"></use>
                                    <rect fill-opacity="0.0394021739" fill="#000000" mask="url(#mask-4)" x="-16.4957265" y="8.2454853" width="84.1282051" height="252.31185"></rect>
                                </g>
                                <g id="Rectangle-2" stroke-width="1" fill="none" transform="translate(0.000000, 37.104684)">
                                    <mask id="mask-6" fill="white">
                                        <use xlink:href="#path-5"></use>
                                    </mask>
                                    <use id="Mask" fill="#67C5C0" xlink:href="#path-5"></use>
                                    <rect fill-opacity="0.0394021739" fill="#000000" mask="url(#mask-6)" x="-16.4957265" y="8.2454853" width="84.1282051" height="252.31185"></rect>
                                </g>
                                <g id="Rectangle-2" stroke-width="1" fill="none" transform="translate(42.064103, 0.000000)">
                                    <mask id="mask-8" fill="white">
                                        <use xlink:href="#path-7"></use>
                                    </mask>
                                    <use id="Mask" fill="#67C5C0" xlink:href="#path-7"></use>
                                    <rect fill-opacity="0.0394021739" fill="#000000" mask="url(#mask-8)" x="-16.4957265" y="8.2454853" width="84.1282051" height="252.31185"></rect>
                                </g>
                                <rect id="Rectangle-3" fill-opacity="0.263898324" fill="#000000" x="327.440171" y="40.402878" width="71.7564103" height="5.77183971"></rect>
                                <rect id="Rectangle-3-Copy-3" fill-opacity="0.263898324" fill="#000000" x="327.440171" y="95.6476295" width="71.7564103" height="5.77183971"></rect>
                                <rect id="Rectangle-3-Copy-6" fill-opacity="0.263898324" fill="#000000" x="327.440171" y="150.892381" width="71.7564103" height="5.77183971"></rect>
                                <rect id="Rectangle-3-Copy-9" fill-opacity="0.263898324" fill="#000000" x="327.440171" y="206.137133" width="71.7564103" height="5.77183971"></rect>
                                <rect id="Rectangle-3-Copy" fill-opacity="0.263898324" fill="#000000" x="327.440171" y="52.7711059" width="71.7564103" height="5.77183971"></rect>
                                <rect id="Rectangle-3-Copy-4" fill-opacity="0.263898324" fill="#000000" x="327.440171" y="108.015857" width="71.7564103" height="5.77183971"></rect>
                                <rect id="Rectangle-3-Copy-7" fill-opacity="0.263898324" fill="#000000" x="327.440171" y="163.260609" width="71.7564103" height="5.77183971"></rect>
                                <rect id="Rectangle-3-Copy-10" fill-opacity="0.263898324" fill="#000000" x="327.440171" y="218.50536" width="71.7564103" height="5.77183971"></rect>
                                <rect id="Rectangle-3-Copy-2" fill-opacity="0.263898324" fill="#000000" x="327.440171" y="65.1393339" width="71.7564103" height="5.77183971"></rect>
                                <rect id="Rectangle-3-Copy-5" fill-opacity="0.263898324" fill="#000000" x="327.440171" y="120.384085" width="71.7564103" height="5.77183971"></rect>
                                <rect id="Rectangle-3-Copy-8" fill-opacity="0.263898324" fill="#000000" x="327.440171" y="175.628837" width="71.7564103" height="5.77183971"></rect>
                                <rect id="Rectangle-3-Copy-11" fill-opacity="0.263898324" fill="#000000" x="327.440171" y="230.873588" width="71.7564103" height="5.77183971"></rect>
                            </g>
                        </g>
                        <polygon id="Path-30" fill-opacity="0.302677763" fill="#FFFFFF" mask="url(#mask-2)" points="230.072341 -1.91148432 -10.2204099 285.401311 125.838557 294.030828 336.730512 -1.91148432"></polygon>
                        <polygon id="Path-30" fill-opacity="0.302677763" fill="#FFFFFF" mask="url(#mask-2)" points="56.3654006 -103.068566 -183.92735 184.244229 -47.8683837 192.873746 163.023572 -103.068566"></polygon>
                    </g>
                    <g id="Path-13-Copy">
                        <g id="Path-25" transform="translate(53.685897, 469.662753)">
                            <g id="Path-27" transform="translate(564.905660, 91.175988) rotate(-78.449624) translate(-564.905660, -91.175988) translate(522.429164, -152.890377)">
                                <mask id="mask-10" fill="white">
                                    <use xlink:href="#path-9"></use>
                                </mask>
                                <use id="Mask" fill="#E2E6EC" xlink:href="#path-9"></use>
                                <path d="M84.2388507,499.656392 C67.272562,558.178624 31.5595916,379.933337 31.5595916,334.365827 C31.5595916,288.798317 78.8532814,324.254172 84.2388507,304.502383 C89.6244201,284.750594 70.4641504,233.036447 64.6598016,212.969493 C58.8554528,192.902538 53.0684822,215.547848 51.3256475,190.713949 C49.5828128,165.88005 50.2046885,143.099545 57.8992211,116.637024 C65.5937538,90.1745031 79.8676345,120.695451 77.9486208,99.1540038 C76.0296071,77.6125561 39.16289,59.0169155 51.3256475,42.846883 C63.488405,26.6768505 103.897885,-80.2131111 113.423251,51.9915144 C122.948617,184.19614 101.20514,441.134159 84.2388507,499.656392 Z" fill="#CCD1D9" mask="url(#mask-10)"></path>
                            </g>
                            <mask id="mask-12" fill="white">
                                <use xlink:href="#path-11"></use>
                            </mask>
                            <use id="Mask" fill="#F3F5F8" xlink:href="#path-11"></use>
                            <polygon fill="#FFFFFF" opacity="0.45850317" mask="url(#mask-12)" points="415.093212 94.7042519 56.635868 285.632275 -57.1395678 302.842621 -10.3848482 179.468664 342.078993 70.5821327"></polygon>
                            <path d="M717.488715,156.259802 C757.991814,180.08896 697.536995,218.42014 680.81643,239.612205 C664.095865,260.804269 643.403333,268.997009 623.318575,275.613406 C603.233817,282.229804 601.164668,263.84206 571.531066,275.613406 C541.897463,287.384752 569.64653,295.655159 527.614664,313.629839 C485.582798,331.604519 474.459687,309.019459 430.903352,322.492814 C387.347018,335.966168 371.502623,369.248664 343.555458,370.565185 C315.608293,371.881705 311.432292,350.976975 295.467232,354.390825 C279.502171,357.804675 300.264812,374.449796 280.815815,383.980965 C261.366818,393.512135 232.175715,403.109059 210.211807,383.980965 C188.247898,364.852871 205.500078,330.087849 210.211807,322.492814 C214.923535,314.897779 233.164871,330.292342 235.835523,313.629839 C238.506174,296.967336 182.694456,307.597224 217.725597,275.613406 C252.756738,243.629588 340.340379,232.958464 356.917801,223.375774 C373.495224,213.793084 365.565511,199.512651 356.917801,195.152423 C348.270092,190.792194 341.210055,214.822075 317.798225,203.651443 C294.386396,192.480811 273.082978,177.441504 286.832915,161.712385 C300.582852,145.983267 320.475769,155.532086 370.930734,142.870981 C421.385698,130.209876 349.16845,111.023246 470.197711,115.699055 C591.226973,120.374865 676.985616,132.430645 717.488715,156.259802 Z" id="Path-24" fill-opacity="0.400000006" fill="#9CB0C8" mask="url(#mask-12)"></path>
                        </g>
                        <path d="M328.326357,536.694984 L328.326357,184.61752 C688.261979,196.839406 883.749397,202.950348 914.788609,202.950348 C968.781572,175.829105 990.696489,44.9997121 892.500196,10.3434936 C779.778025,-29.4393136 532.873135,61.4232648 441.854313,67 C330.810801,73.8036506 331.84881,125.519394 210.166486,113.427613 C159.703223,108.412993 105.709568,145.135765 48.1855185,223.595931 C8.41465151,252.826719 -6.72079844,301.418854 2.77916863,369.372335 C17.0291192,471.302556 85.1024416,520.264796 93.96267,551.040938 C99.8694889,571.558366 95.7453083,595.556883 81.5901283,623.036489 L328.326357,536.694984 Z" id="Path-26" fill="#F7F7FA"></path>
                        <mask id="mask-14" fill="white">
                            <use xlink:href="#path-13"></use>
                        </mask>
                        <use id="Mask" fill="#2C195A" xlink:href="#path-13"></use>
                        <path d="M615.473676,620.715285 L600.524474,570.884412 C597.270598,560.038117 585.880489,553.843655 575.007476,557.007102 L548.730394,564.652283 L502.369658,579.90524 L520.127544,624.535931 L554.94819,614.908472 L574.246568,598.568028 C575.985205,597.095879 578.588061,597.311909 580.06021,599.050546 C580.121975,599.123492 580.181186,599.198563 580.237737,599.275623 L600.764699,627.247358 L608.648572,627.247358 L615.473676,620.715285 Z" fill="#1D0F3E" mask="url(#mask-14)"></path>
                    </g>
                    <g id="Tisch" transform="translate(372.878205, 463.066365)">
                        <polygon id="Path-16" fill="#E7A893" points="32.1629993 127.88982 49.9331127 116.457049 367.24994 179.121385 355.634142 193.80286"></polygon>
                        <polygon id="Path-10" fill="#B49A89" points="18.4139718 161.600885 100.230487 138.763403 100.230487 24.5556335 11.3283779 40.2625698"></polygon>
                        <path d="M342.698885,235.115509 L362.497882,240.23034 L362.497882,70.1168715 L20.703914,23.6035262 L1.58559305,28.5113245 L1.58559305,157.55047 L17.4273591,162.101979 L17.4273591,50.0120714 C17.4273591,47.7338968 19.2741845,45.8870714 21.5523591,45.8870714 C21.7623503,45.8870714 21.9720351,45.9031064 22.1795846,45.9350365 L332.905117,93.7381549 C338.539586,94.6049816 342.698885,99.4530953 342.698885,105.153852 L342.698885,235.115509 Z" id="Path-9" fill="#3E3530"></path>
                        <polygon id="Path-7" fill="#B49A89" points="362.987576 239.483695 428.914058 176.307968 428.914058 37.2505847 362.987576 86.3615215"></polygon>
                        <polygon id="Path-8" fill="#E9C6AF" points="427.985456 37.6880662 362.698214 86.1245083 0.699219838 28.4474277 121.036282 0.383688169"></polygon>
                    </g>
                    <ellipse id="Oval-6" fill="#000000" opacity="0.248604911" filter="url(#filter-15)" transform="translate(468.553419, 721.990320) rotate(-42.000000) translate(-468.553419, -721.990320) " cx="468.553419" cy="721.99032" rx="109.284188" ry="46.9992662"></ellipse>
                    <ellipse id="Oval-6" fill="#000000" opacity="0.0919642857" filter="url(#filter-16)" transform="translate(468.553419, 721.974603) rotate(-42.000000) translate(-468.553419, -721.974603) " cx="468.553419" cy="721.974603" rx="218.568376" ry="93.9985324"></ellipse>
                    <ellipse id="Oval-6" fill="#000000" opacity="0.0868303571" filter="url(#filter-17)" transform="translate(487.779627, 689.479285) rotate(-42.000000) translate(-487.779627, -689.479285) " cx="487.779627" cy="689.479285" rx="79.6123304" ry="34.2384491"></ellipse>
                    <ellipse id="Oval-6" fill="#000000" opacity="0.120703125" filter="url(#filter-18)" transform="translate(500.210413, 670.535585) rotate(-42.000000) translate(-500.210413, -670.535585) " cx="500.210413" cy="670.535585" rx="54.9366506" ry="30.91709"></ellipse>
                    <polygon id="Path-18" fill="#251A66" points="518.618896 496.110011 536.893584 485.677144 592.119125 494.54175 572.421914 506.494373"></polygon>
                    <polygon id="Path-19" fill="#251A66" points="606.056542 506.431774 619.309377 496.820625 600.423174 494.979236 593.182957 502.472214"></polygon>
                    <polygon id="Path-4-Copy" fill="#000000" transform="translate(421.963367, 664.663138) scale(-1, 1) translate(-421.963367, -664.663138) " points="407.519231 615.190684 431.152059 722.788467 436.407503 722.788467 417.925675 606.537809"></polygon>
                    <g id="Path-11" transform="translate(387.724359, 456.469977)">
                        <mask id="mask-20" fill="white">
                            <use xlink:href="#path-19"></use>
                        </mask>
                        <use id="Mask" fill="#6737E0" xlink:href="#path-19"></use>
                        <path d="M-21.3291487,49.6496544 C-21.8420682,41.7198464 -20.643608,35.0717508 -17.7337681,29.7053676 C-14.8239281,24.3389844 -1.92937467,18.6089864 20.9498922,12.5153737 C54.4530286,11.9193769 76.1407997,13.1338925 86.0132056,16.1589205 C95.8856115,19.1839486 104.900236,27.3770291 113.057078,40.738162 C116.743882,50.0275807 119.221499,56.8399587 120.489929,61.1752959 C121.579934,64.9007992 122.972243,70.8822779 124.666854,79.1197321 L124.666849,79.1197332 C125.034093,80.9048925 126.77896,82.0543403 128.564119,81.6870969 C128.840102,81.6303216 129.107677,81.5384345 129.360315,81.4136781 C135.866087,78.2010288 142.957568,75.0139304 150.634759,71.852383 C159.84894,68.0578873 168.48222,64.8503602 176.534601,62.2298018 C180.443953,61.4117465 184.032964,60.4233335 187.301634,59.2645629 C190.570305,58.1057923 193.061176,56.9104453 194.774246,55.6785218 C200.079807,56.0820173 203.565894,58.2657773 205.232507,62.2298018 C206.899119,66.1938264 206.899119,70.0639386 205.232507,73.8401385 C204.06014,73.6006103 201.802438,74.7467109 198.459401,77.2784403 C193.444846,81.0760344 197.89445,78.9860882 185.387576,87.4342565 C172.880703,95.8824247 180.396436,90.7559193 162.954634,101.261273 C151.326766,108.264841 138.849667,115.051564 125.523336,121.621439 L78.3935396,129.965002 L6.41975725,117.52232 L-21.3291487,49.6496544 Z" fill="#552FB3" mask="url(#mask-20)"></path>
                    </g>
                    <polygon id="Path-5" fill="#000000" points="465.165204 670.048913 473.696133 608.214734 462.436374 608.214734 459.671988 670.048913"></polygon>
                    <ellipse id="Oval-5" fill="#000000" opacity="0.466908482" filter="url(#filter-21)" cx="521.752137" cy="736.404203" rx="6.18589744" ry="1.2368228"></ellipse>
                    <ellipse id="Oval-5" fill="#000000" opacity="0.466908482" filter="url(#filter-22)" cx="522.16453" cy="736.816477" rx="12.3717949" ry="2.47364559"></ellipse>
                    <ellipse id="Oval-5" fill="#000000" opacity="0.745256696" filter="url(#filter-23)" cx="522.989316" cy="735.991928" rx="4.12393162" ry="1"></ellipse>
                    <ellipse id="Oval-5" fill="#000000" opacity="0.466908482" filter="url(#filter-24)" cx="410.405983" cy="723.211426" rx="6.18589744" ry="1.2368228"></ellipse>
                    <ellipse id="Oval-5" fill="#000000" opacity="0.466908482" filter="url(#filter-25)" cx="410.818376" cy="723.6237" rx="12.3717949" ry="2.47364559"></ellipse>
                    <ellipse id="Oval-5" fill="#000000" opacity="0.745256696" filter="url(#filter-26)" cx="411.643162" cy="722.799152" rx="4.12393162" ry="1"></ellipse>
                    <ellipse id="Oval-5" fill="#000000" opacity="0.466908482" filter="url(#filter-27)" cx="462.367521" cy="671.264869" rx="6.18589744" ry="1.2368228"></ellipse>
                    <ellipse id="Oval-5" fill="#000000" opacity="0.466908482" filter="url(#filter-28)" cx="462.779915" cy="671.677143" rx="12.3717949" ry="2.47364559"></ellipse>
                    <ellipse id="Oval-5" fill="#000000" opacity="0.745256696" filter="url(#filter-29)" cx="463.604701" cy="670.852595" rx="4.12393162" ry="1"></ellipse>
                    <ellipse id="Oval-5" fill="#000000" opacity="0.466908482" filter="url(#filter-30)" cx="558.867521" cy="686.931291" rx="6.18589744" ry="1.2368228"></ellipse>
                    <ellipse id="Oval-5" fill="#000000" opacity="0.466908482" filter="url(#filter-31)" cx="559.279915" cy="687.343565" rx="12.3717949" ry="2.47364559"></ellipse>
                    <ellipse id="Oval-5" fill="#000000" opacity="0.745256696" filter="url(#filter-32)" cx="560.104701" cy="686.519017" rx="4.12393162" ry="1"></ellipse>
                    <polygon id="Path-4" fill="#000000" points="495.771368 628.383461 519.404196 735.981243 524.65964 735.981243 506.177812 619.730586"></polygon>
                    <path d="M514.280061,563.154702 L518.361886,581.707402 C519.732539,587.937293 525.893997,591.876482 532.123887,590.505829 C532.372144,590.451209 532.618531,590.388409 532.862644,590.317531 L553.648118,584.282476 C554.011003,584.177112 554.396313,584.176708 554.759418,584.281311 C555.867207,584.60044 556.93135,584.760005 557.951844,584.760005 C559.135969,584.760005 560.559787,584.760005 562.223298,584.760005 L561.512386,589.046489 L526.615485,602.280727 L508.827411,582.691828 C507.502217,575.792859 507.912401,570.560336 510.057964,566.99426 C512.203526,563.428183 513.610892,562.148331 514.280061,563.154702 Z" id="Path-3" fill="#548094"></path>
                    <polygon id="Path-6" fill="#000000" points="556.852943 685.679627 561.947582 685.679627 548.418982 605.815477 537.952539 609.041144"></polygon>
                    <path d="M501.42822,500.654526 L501.433868,500.655057 L511.236272,551.825582 L519.009876,589.133187 C519.939299,593.593736 524.308734,596.456279 528.769282,595.526856 C529.052129,595.46792 529.331685,595.394167 529.606794,595.305901 L562.408045,584.781965 L562.408045,614.926409 L517.260144,630.484063 L484.59734,623.001673 L467.953846,515.063107 L424.484834,511.714728 L397.573943,511.714728 C393.133067,511.714728 389.235546,508.757532 388.039659,504.480706 L387.048739,500.936896 C385.805623,496.491165 388.401855,491.879443 392.847586,490.636327 C393.621152,490.420023 394.421859,490.316352 395.225006,490.328514 L491.732264,491.789935 C496.751137,491.865937 500.907467,495.68295 501.42822,500.654526 Z" id="Combined-Shape" fill="#79ADC5"></path>
                    <polygon id="Path-14" fill="#F4B7AE" points="607.718901 617.03711 608.781849 621.284208 612.997946 625.502559 619.051397 619.591614 614.870996 609.599609"></polygon>
                    <path d="M426.854516,457.979684 L426.322808,453.238552 C426.221247,452.332959 426.873044,451.5165 427.778637,451.41494 C427.816681,451.410673 427.854862,451.407732 427.893111,451.406122 L457.154999,450.173944 C459.475068,450.332246 461.643685,451.752456 463.660852,454.434575 C465.678019,457.116693 466.579765,459.778982 466.366092,462.421442 L426.854516,457.979684 Z" id="Path-12" fill="#6737E0"></path>
                    <path d="M600.30149,609.055478 C597.444871,612.514452 597.308323,615.016586 599.891846,616.561879 C603.767131,618.879818 607.313898,618.454059 612.845706,615.292507 C616.533579,613.184805 618.838338,609.822901 619.759984,605.206793 L619.285715,603.982968 C618.62715,602.283573 616.715646,601.439814 615.016251,602.09838 C614.717475,602.214164 614.437155,602.372846 614.184118,602.56943 L605.835444,609.055478 L600.30149,609.055478 Z" id="Path-13" fill="#180C33"></path>
                    <path d="M617.723259,617.332078 L621.681738,617.332078 L624.331487,614.680233 C626.634502,611.301344 628.565172,609.793864 630.123495,610.157795 C631.681818,610.521726 632.144083,612.540778 631.510291,616.214952 L626.807528,621.928065 L621.681738,625.463722 L621.681738,628.014641 C616.363712,631.019521 613.246384,632.521961 612.329756,632.521961 C611.413127,632.521961 610.271837,630.363847 608.905886,626.047618 L608.314056,622.386519 L617.723259,617.332078 Z" id="Path-15" fill="#000000"></path>
                    <path d="M388.760355,505.230698 C393.44307,511.711692 396.657073,517.730523 398.402364,523.287192 C399.992387,528.349516 403.780347,555.615093 409.766246,605.083923 L409.766245,605.083923 C410.835579,613.921146 417.904373,620.827053 426.76412,621.690114 L517.002081,630.480535 C512.344211,629.276422 509.595902,627.672049 508.757155,625.667415 C507.980277,623.81065 501.90483,590.970933 490.530815,527.148263 L490.530814,527.148263 C488.886146,517.919585 480.995198,511.108905 471.62524,510.830855 C428.877204,509.562323 405.659628,508.928056 401.972512,508.928056 C397.846719,508.928056 393.442666,507.695604 388.760355,505.230698 Z" id="Path" fill="#4D7181"></path>
                    <g id="Path-20-+-Path-20-Copy-+-Path-20-Copy-2-Mask" transform="translate(584.023504, 482.030981)">
                        <mask id="mask-34" fill="white">
                            <use xlink:href="#path-33"></use>
                        </mask>
                        <use id="Mask" fill="#F4B7AE" xlink:href="#path-33"></use>
                    </g>
                    <path d="M624.714183,492.050815 C633.589468,492.050815 638.361092,490.939672 639.029055,488.717384 C640.030999,485.383953 631.25022,485.602824 627.925617,483.163955 C625.709214,481.538042 623.965753,479.395121 622.695233,476.73519" id="Path-17" stroke="#000000" stroke-width="0.825"></path>
                    <path d="M558.731277,492.050815 C567.606562,492.050815 572.378186,490.939672 573.046149,488.717384 C574.048093,485.383953 565.267314,485.602824 561.942711,483.163955 C559.726308,481.538042 557.982847,479.395121 556.712327,476.73519" id="Path-17" stroke="#000000" stroke-width="0.825" transform="translate(564.918810, 484.393003) scale(-1, -1) translate(-564.918810, -484.393003) "></path>
                    <polygon id="Path-20" fill="#251A66" points="558.670988 475.682364 614.24714 483.487493 626.236596 476.795582 611.650117 474.408314 611.650117 466.751416 673.08755 475.682364 681.051747 379.112509 532.562604 365.252387 523.300282 454.417708 582.118798 463.312061 578.689255 471.84927 570.211925 471.84927"></polygon>
                    <polygon id="Path-21" fill="#FEFEFE" points="530.160949 448.246099 666.158447 466.111021 673.20175 385.084275 537.829864 372.463365"></polygon>
                    <g id="Path-22" transform="translate(413.292735, 369.067832)">
                        <mask id="mask-36" fill="white">
                            <use xlink:href="#path-35"></use>
                        </mask>
                        <use id="Mask" fill="#F4B7AE" xlink:href="#path-35"></use>
                        <path d="M27.2288501,93.8855643 L27.2288501,73.1688784 C30.4677542,71.672046 33.22784,69.2596082 35.5091076,65.9315648 C37.7903751,62.6035214 39.0045548,58.9215119 39.1516467,54.8855364 C38.8472853,51.1893312 38.8472853,48.4203795 39.1516467,46.5786815 C39.4213509,44.9466947 38.3668418,41.2590647 35.9881193,35.5157914 L35.9881205,35.5157909 C35.4612139,34.2436085 35.2054907,32.8754981 35.237292,31.4988836 C35.3265472,27.6352055 32.8592955,22.130744 27.8355367,14.9854989 C22.02176,6.71661856 16.824142,1.99630179 12.2426827,0.82454853 L-22.4709795,13.9540812 L-30.517094,53.9166057 L-15.9239283,73.1688784 L-10.8268153,83.2614908 L-4.87819851,99.5772161 L27.2288501,93.8855643 Z" fill="#CF938A" opacity="0.503571429" mask="url(#mask-36)"></path>
                    </g>
                    <path d="M424.431593,434.682354 C412.420883,424.049471 405.037756,413.974009 402.282212,404.455968 C398.148895,390.178907 407.779166,385.248079 407.085905,379.211718 C406.392644,373.175357 410.044044,367.900411 414.314667,364.167974 C418.585289,360.435536 432.638241,355.702024 443.092124,355.199502 C450.061379,354.864487 455.75506,357.853978 460.173167,364.167974 C452.393643,361.077834 446.699962,360.865505 443.092124,363.530987 C440.784085,365.236174 446.279017,363.59622 452.17996,365.095799 C455.503142,365.940304 464.88734,369.316587 464.469867,382.344178 C465.337224,384.156059 457.741378,380.534375 456.146128,384.994246 C455.082628,387.967493 455.614378,389.571587 457.741378,389.806527 C456.669173,397.784851 455.501674,402.002301 454.238881,402.458878 C450.713373,403.733564 448.297626,396.262894 445.494797,394.935489 C442.357748,393.449799 438.998625,398.058564 438.315286,399.195687 C437.099801,401.218333 443.486154,410.754879 443.092124,411.91395 C440.944979,418.229946 448.656622,419.171613 445.494797,423.431307 C439.720549,431.210528 432.699481,434.960877 424.431593,434.682354 Z" id="Path-23" fill="#2C1E11"></path>
                </g>
                <polygon id="Path-41" stroke="#0265CD" fill-rule="nonzero" points="541 433.485188 544.734384 434.356877 545.190474 429.649812 541.543623 429"></polygon>
                <polygon id="Path-41-Copy" stroke="#0265CD" fill-rule="nonzero" points="542 423.485188 545.734384 424.356877 546.317255 419.681188 542.543623 419"></polygon>
                <polygon id="Path-41-Copy-2" stroke="#0265CD" fill-rule="nonzero" points="543 413.485188 546.734384 414.356877 547.208366 409.607322 543.543623 409"></polygon>
                <polygon id="Path-41-Copy-3" stroke="#0265CD" fill-rule="nonzero" points="544 403.485188 547.734384 404.356877 548.253592 399.564639 544.543623 399"></polygon>
                <polygon id="Path-41-Copy-4" stroke="#0265CD" fill-rule="nonzero" points="545 393.485188 548.734384 394.356877 549.232254 389.557036 545.543623 389"></polygon>
                <path d="M551.121357,392.882068 C552.456044,391.204634 553.758732,390.501067 555.029422,390.771367 C556.935456,391.176818 556.200213,393.946513 557.392418,394.216044 C558.584623,394.485576 559.091161,391.960177 561.225551,392.172176 C563.359942,392.384174 563.327202,394.807062 564.886983,394.960444 C566.446765,395.113826 566.645643,392.743132 568.444613,392.882068 C570.243583,393.021003 569.982123,395.32389 571.456441,395.467807 C572.93076,395.611725 573.195525,393.3716 575.191342,393.540659 C576.521886,393.653366 577.654413,394.497138 578.588923,396.071977" id="Path-43" stroke="#979797" fill-rule="nonzero" transform="translate(564.855140, 393.393539) rotate(3.000000) translate(-564.855140, -393.393539) "></path>
                <path d="M551.121357,403.882068 C552.456044,402.204634 553.758732,401.501067 555.029422,401.771367 C556.935456,402.176818 556.200213,404.946513 557.392418,405.216044 C558.584623,405.485576 559.091161,402.960177 561.225551,403.172176 C563.359942,403.384174 563.327202,405.807062 564.886983,405.960444 C566.446765,406.113826 566.645643,403.743132 568.444613,403.882068 C570.243583,404.021003 569.982123,406.32389 571.456441,406.467807 C572.93076,406.611725 573.195525,404.3716 575.191342,404.540659 C576.521886,404.653366 577.654413,405.497138 578.588923,407.071977" id="Path-43-Copy" stroke="#979797" fill-rule="nonzero" transform="translate(564.855140, 404.393539) rotate(3.000000) translate(-564.855140, -404.393539) "></path>
                <path d="M550.121357,413.882068 C551.456044,412.204634 552.758732,411.501067 554.029422,411.771367 C555.935456,412.176818 555.200213,414.946513 556.392418,415.216044 C557.584623,415.485576 558.091161,412.960177 560.225551,413.172176 C562.359942,413.384174 562.327202,415.807062 563.886983,415.960444 C565.446765,416.113826 565.645643,413.743132 567.444613,413.882068 C569.243583,414.021003 568.982123,416.32389 570.456441,416.467807 C571.93076,416.611725 572.195525,414.3716 574.191342,414.540659 C575.521886,414.653366 576.654413,415.497138 577.588923,417.071977" id="Path-43-Copy-2" stroke="#979797" fill-rule="nonzero" transform="translate(563.855140, 414.393539) rotate(3.000000) translate(-563.855140, -414.393539) "></path>
                <path d="M549.121357,423.882068 C550.456044,422.204634 551.758732,421.501067 553.029422,421.771367 C554.935456,422.176818 554.200213,424.946513 555.392418,425.216044 C556.584623,425.485576 557.091161,422.960177 559.225551,423.172176 C561.359942,423.384174 561.327202,425.807062 562.886983,425.960444 C564.446765,426.113826 564.645643,423.743132 566.444613,423.882068 C568.243583,424.021003 567.982123,426.32389 569.456441,426.467807 C570.93076,426.611725 571.195525,424.3716 573.191342,424.540659 C574.521886,424.653366 575.654413,425.497138 576.588923,427.071977" id="Path-43-Copy-3" stroke="#979797" fill-rule="nonzero" transform="translate(562.855140, 424.393539) rotate(3.000000) translate(-562.855140, -424.393539) "></path>
                <path d="M548.121357,433.882068 C549.456044,432.204634 550.758732,431.501067 552.029422,431.771367 C553.935456,432.176818 553.200213,434.946513 554.392418,435.216044 C555.584623,435.485576 556.091161,432.960177 558.225551,433.172176 C560.359942,433.384174 560.327202,435.807062 561.886983,435.960444 C563.446765,436.113826 563.645643,433.743132 565.444613,433.882068 C567.243583,434.021003 566.982123,436.32389 568.456441,436.467807 C569.93076,436.611725 570.195525,434.3716 572.191342,434.540659 C573.521886,434.653366 574.654413,435.497138 575.588923,437.071977" id="Path-43-Copy-4" stroke="#979797" fill-rule="nonzero" transform="translate(561.855140, 434.393539) rotate(3.000000) translate(-561.855140, -434.393539) "></path>
            </g>
        </g>
    </g>
</svg>