<?xml version="1.0" encoding="UTF-8"?>
<svg width="458px" height="341px" viewBox="0 0 458 341" version="1.1" xmlns="http://www.w3.org/2000/svg" xmlns:xlink="http://www.w3.org/1999/xlink">
    <!-- Generator: Sketch 51.3 (57544) - http://www.bohemiancoding.com/sketch -->
    <title>Group 6</title>
    <desc>Created with Sketch.</desc>
    <defs></defs>
    <g id="Layout" stroke="none" stroke-width="1" fill="none" fill-rule="evenodd">
        <g id="Slack" transform="translate(-492.000000, -280.000000)">
            <g id="Group-6" transform="translate(492.000000, 280.000000)">
                <g id="Group-5">
                    <g id="Rectangle-10">
                        <g id="Combined-Shape-+-Rectangle-12-+-Rectangle-12-Copy-+-Rectangle-12-Copy-Mask">
                            <path d="M363.839042,322.225108 C411.563644,296.742569 481.403123,275.67125 449.900204,222.606692 C418.397285,169.542134 475.895965,-11.7948959 373.740429,16.9725343 C329.25444,29.4999767 278.889225,-1.44257971 229.105307,0.387942441 C164.567774,2.7609454 102.548791,35.6430318 71.5243139,35.6430318 C16.5677159,35.6430318 -36.8940233,213.437741 35.5573519,269.157699 C108.008727,324.877658 86.4113015,355.960936 164.028975,333.262341 C241.646648,310.563746 316.11444,347.707648 363.839042,322.225108 Z" id="Mask" fill="#F3F5F8" opacity="0.6734375"></path>
                            <g id="Group" transform="translate(133.000000, 243.000000)" fill-rule="nonzero">
                                <path d="M46.3855984,58.4384074 L46.3855984,70.5151066 C46.3855984,72.1719609 45.0424527,73.5151066 43.3855984,73.5151066 C42.5777761,73.5151066 41.8040917,73.1893193 41.2395988,72.6114572 L26.596686,57.6217474 C20.4594756,57.1580587 14.3222651,56.4985998 8.18505471,55.6433706 C3.73742576,55.0235867 0.42721547,51.2201081 0.42721547,46.7295029 L0.427215199,11.5342336 C0.427215199,7.00100942 3.79881642,3.17533114 8.29609597,2.60559579 C21.6643917,0.912040702 35.0326874,0.0652631579 48.4009832,0.0652631579 C61.7692798,0.0652631579 75.1375764,0.912040817 88.5058731,2.60559614 C93.0031508,3.175334 96.3747508,7.001011 96.3747508,11.5342337 L96.3747492,46.7295046 C96.3747492,51.2201092 93.0645393,55.0235872 88.616911,55.6433707 C75.2116017,57.51142 61.8062924,58.4454446 48.4009832,58.4454446 C47.7291883,58.4454446 47.0573933,58.4430989 46.3855984,58.4384074 Z" id="Combined-Shape" fill="#A4C9FF" transform="translate(48.400982, 36.789474) scale(-1, 1) translate(-48.400982, -36.789474) "></path>
                                <rect id="Rectangle-12" fill="#7493C1" x="22.9148936" y="13.5557895" width="59.9672668" height="5.99578947" rx="2.99789474"></rect>
                                <rect id="Rectangle-12-Copy" fill="#86A9DB" x="31.9099836" y="27.0463158" width="50.9721768" height="5.99578947" rx="2.99789474"></rect>
                                <rect id="Rectangle-12-Copy" fill="#86A9DB" x="40.9050736" y="36.04" width="41.9770867" height="5.99578947" rx="2.99789474"></rect>
                            </g>
                        </g>
                        <path d="M211.95107,158.961994 L215.814845,164.098405 C217.059849,165.753484 216.727417,168.104465 215.072338,169.34947 C213.891858,170.237465 212.300044,170.349712 211.006631,169.636162 L194.523709,160.542871 C188.354717,160.923338 182.185725,161.113572 176.016733,161.113572 C162.57202,161.113572 149.127307,160.210001 135.682593,158.40286 C130.098817,157.652329 125.93126,152.88712 125.93126,147.253129 L125.931263,113.53745 C125.931263,107.851666 130.173653,103.059663 135.817507,102.370418 C149.217249,100.733999 162.616991,99.9157895 176.016733,99.9157895 C189.416473,99.9157895 202.816214,100.733999 216.215954,102.370417 C221.859812,103.059658 226.102205,107.851664 226.102205,113.537452 L226.102208,147.253126 C226.102208,152.887119 221.93465,157.652329 216.350872,158.40286 C214.884271,158.59999 213.417671,158.786368 211.95107,158.961994 Z" id="Combined-Shape" fill="#A9B7FF" fill-rule="nonzero"></path>
                        <path d="M266.058019,227.730349 L254.059518,240.427744 C253.206046,241.330929 251.781995,241.371229 250.878811,240.517758 C250.42903,240.092735 250.174157,239.501225 250.174157,238.882398 L250.174157,226.12441 C249.489844,226.037112 248.805532,225.947472 248.121219,225.855492 C242.537442,225.10496 238.369885,220.339752 238.369885,214.705761 L238.369888,180.990082 C238.369888,175.304297 242.612278,170.512295 248.256132,169.823049 C261.655874,168.18663 275.055616,167.368421 288.455358,167.368421 C301.855098,167.368421 315.254839,168.18663 328.654579,169.823049 C334.298438,170.51229 338.54083,175.304296 338.54083,180.990084 L338.540833,214.705758 C338.540833,220.339751 334.373275,225.104961 328.789497,225.855492 C315.344784,227.662633 301.900071,228.566204 288.455358,228.566204 C280.989578,228.566204 273.523799,228.287585 266.058019,227.730349 Z" id="Combined-Shape" fill="#BDD8FF" fill-rule="nonzero"></path>
                        <rect id="Rectangle" fill="#FFFFFF" fill-rule="nonzero" x="253.361702" y="185.355789" width="55.4697218" height="5.99578947"></rect>
                        <rect id="Rectangle-Copy" fill-opacity="0.428753397" fill="#FFFFFF" fill-rule="nonzero" x="253.361702" y="196.597895" width="43.4762684" height="5.99578947"></rect>
                        <rect id="Rectangle-Copy-2" fill-opacity="0.428753397" fill="#FFFFFF" fill-rule="nonzero" x="253.361702" y="207.84" width="43.4762684" height="5.99578947"></rect>
                    </g>
                    <g id="Group-3" transform="translate(238.000000, 47.000000)" fill-rule="nonzero">
                        <path d="M57.8179775,73.7158197 L57.8179775,88.883742 C57.8179775,90.9548098 56.1390453,92.633742 54.0679775,92.633742 C53.0555607,92.633742 52.0861584,92.2243828 51.3801685,91.4987339 L33.0818134,72.6908429 C25.4081618,72.1087131 17.7345102,71.2807386 10.0608586,70.2069195 C4.50419278,69.4293447 0.369944052,64.676284 0.369944052,59.0654768 L0.369944301,14.8017613 C0.369944301,9.13746594 4.58121436,4.35652217 10.2002246,3.64170347 C26.9125534,1.51565554 43.6248821,0.452631579 60.3372108,0.452631579 C77.0495382,0.452631579 93.7618655,1.51565537 110.474193,3.64170294 C116.093206,4.35651784 120.304478,9.13746346 120.304478,14.8017611 L120.304478,59.0654758 C120.304478,64.6762823 116.17023,69.4293425 110.613565,70.2069192 C93.8547804,72.5520744 77.0959956,73.7246519 60.3372108,73.7246519 C59.4974664,73.7246519 58.657722,73.7217078 57.8179775,73.7158197 Z" id="Combined-Shape" fill="#A4C9FF"></path>
                        <rect id="Rectangle-12" fill="#7493C1" x="15.3617021" y="19.1894737" width="74.9590835" height="7.49473684" rx="3.74736842"></rect>
                        <rect id="Rectangle-12-Copy" fill="#86A9DB" x="15.3617021" y="37.9263158" width="63.7152209" height="7.49473684" rx="3.74736842"></rect>
                        <rect id="Rectangle-12-Copy" fill="#86A9DB" x="15.3617021" y="49.1684211" width="52.4713584" height="7.49473684" rx="3.74736842"></rect>
                    </g>
                </g>
                <path d="M211.95107,158.961994 L215.814845,164.098405 C217.059849,165.753484 216.727417,168.104465 215.072338,169.34947 C213.891858,170.237465 212.300044,170.349712 211.006631,169.636162 L194.523709,160.542871 C188.354717,160.923338 182.185725,161.113572 176.016733,161.113572 C162.57202,161.113572 149.127307,160.210001 135.682593,158.40286 C130.098817,157.652329 125.93126,152.88712 125.93126,147.253129 L125.931263,113.53745 C125.931263,107.851666 130.173653,103.059663 135.817507,102.370418 C149.217249,100.733999 162.616991,99.9157895 176.016733,99.9157895 C189.416473,99.9157895 202.816214,100.733999 216.215954,102.370417 C221.859812,103.059658 226.102205,107.851664 226.102205,113.537452 L226.102208,147.253126 C226.102208,152.887119 221.93465,157.652329 216.350872,158.40286 C214.884271,158.59999 213.417671,158.786368 211.95107,158.961994 Z" id="Combined-Shape" fill="#A9B7FF" fill-rule="nonzero"></path>
                <path d="M155.931271,127.886164 C155.507303,137.422849 163.366714,147.115714 173.476121,147.115714 C183.585529,147.115714 194.113447,137.734757 194.551281,127.886164 C194.989116,118.037571 184.896279,107.410526 175.241276,107.410526 C165.586274,107.410526 156.355239,118.34948 155.931271,127.886164 Z" id="Path-33" fill="#FFFFFF" fill-rule="nonzero"></path>
                <path d="M174.154154,114.269645 L174.154154,114.269645 C175.729317,112.7603 178.229804,112.813656 179.739148,114.388819 C179.857119,114.511934 179.966995,114.642559 180.068085,114.779873 L181.040354,116.100538 C182.743464,118.413928 182.593964,121.603902 180.681959,123.747868 L180.681959,123.747868 C178.569177,126.116968 177.401598,129.180424 177.401598,132.354771 L177.401598,134.3688" id="Path-34" stroke="#A9B7FF" stroke-width="3.75" fill-rule="nonzero"></path>
                <ellipse id="Oval-7" fill="#A9B7FF" fill-rule="nonzero" cx="176.528642" cy="139.263158" rx="1.87397709" ry="1.87368421"></ellipse>
            </g>
        </g>
    </g>
</svg>