<?xml version="1.0" encoding="UTF-8"?>
<svg width="76px" height="66px" viewBox="0 0 76 66" version="1.1" xmlns="http://www.w3.org/2000/svg" xmlns:xlink="http://www.w3.org/1999/xlink">
    <!-- Generator: Sketch 51.3 (57544) - http://www.bohemiancoding.com/sketch -->
    <title>Group 12</title>
    <desc>Created with Sketch.</desc>
    <defs>
        <circle id="path-1" cx="27.5" cy="27.5" r="27.5"></circle>
        <radialGradient cx="73.9536139%" cy="13.1766602%" fx="73.9536139%" fy="13.1766602%" r="100%" gradientTransform="translate(0.739536,0.131767),scale(0.297101,1.000000),rotate(90.000000),translate(-0.739536,-0.131767)" id="radialGradient-3">
            <stop stop-color="#304362" offset="0%"></stop>
            <stop stop-color="#1A2C48" offset="100%"></stop>
        </radialGradient>
        <circle id="path-4" cx="17.7222222" cy="17.7222222" r="17.7222222"></circle>
        <linearGradient x1="100%" y1="114.622875%" x2="18.4562693%" y2="38.3601957%" id="linearGradient-6">
            <stop stop-color="#9881FF" offset="0%"></stop>
            <stop stop-color="#5F4AFF" offset="100%"></stop>
        </linearGradient>
    </defs>
    <g id="Layout" stroke="none" stroke-width="1" fill="none" fill-rule="evenodd">
        <g id="Selection" transform="translate(-623.000000, -411.000000)">
            <g id="Group-7" transform="translate(583.000000, 375.000000)">
                <g id="Group-12" transform="translate(40.000000, 36.000000)">
                    <g id="Group-11" transform="translate(0.000000, 11.000000)">
                        <mask id="mask-2" fill="white">
                            <use xlink:href="#path-1"></use>
                        </mask>
                        <use id="Mask" fill="#FFFFFF" xlink:href="#path-1"></use>
                        <g mask="url(#mask-2)">
                            <g transform="translate(-98.000000, 0.000000)">
                                <rect id="Rectangle-13" fill="#1A2C48" x="53.7777778" y="0" width="136.888889" height="55"></rect>
                                <path d="M0,47.8972015 C11.8369259,19.0428177 23.9267182,4.3105887 36.2693769,3.70051441 C54.7833648,2.78540297 60.0702398,20.720527 76.4611804,21.8265745 C92.8521209,22.9326219 96.2762368,5.88377486 115.119928,5.37992359 C133.96362,4.87607233 136.977124,19.6955468 156.160152,19.6955468 C175.343181,19.6955468 177.607933,13.0511867 194.398512,14.3508774 C211.189091,15.6505682 210.720415,24.1743934 221.249435,24.4801137 C231.778455,24.7858339 236.009914,10.4109911 245.707008,19.6955468 C252.171738,25.8852506 252.171738,35.2858022 245.707008,47.8972015 L159.438079,59.8888889 L0,47.8972015 Z" id="Path-18" fill="#283E62"></path>
                                <path d="M54.3565221,30.0581871 C68.1229275,31.1746188 70.9987703,13.9657069 86.8251898,13.4571252 C102.651609,12.9485435 105.182588,27.9071521 121.294009,27.9071521 C137.40543,27.9071521 139.307548,21.2004107 153.409601,22.5123037 C167.511655,23.8241968 162.307861,31.9919077 175.961125,32.7366393 C189.614389,33.4813709 196.969512,18.5354274 205.113897,27.9071521 C210.543487,34.1549685 207.67303,43.6437781 196.502526,56.3735808 L123.154773,63.4670959 C90.0390344,63.0461722 69.3535846,63.0461722 61.0984239,63.4670959 C19.8970472,65.5679191 48.0613237,29.5476573 54.3565221,30.0581871 Z" id="Path-18" fill="url(#radialGradient-3)"></path>
                            </g>
                        </g>
                        <g id="Path-15" mask="url(#mask-2)">
                            <g transform="translate(-11.000000, -3.666667)">
                                <mask id="mask-5" fill="white">
                                    <use xlink:href="#path-4"></use>
                                </mask>
                                <use id="Mask" stroke="none" fill="#FFFCE6" fill-rule="evenodd" xlink:href="#path-4"></use>
                                <path d="M0,22.7920845 C3.13812711,21.2223547 5.21287977,20.6838479 6.22425798,21.1765641 C7.7413253,21.9156384 6.61047315,25.6123609 7.73411498,26.5599371 C8.8577568,27.5075133 9.97425549,26.7644454 11.1788143,28.3333333 C11.9818535,29.3792586 12.1594716,30.5149927 11.7116687,31.7405357 C12.5241376,31.4794929 13.2271921,32.0003072 13.8208322,33.3029788 C14.4144724,34.6056504 14.6956324,35.3935464 14.6643122,35.6666667 L1.76083016,35.0898086 L0,22.7920845 Z" id="Path-15" stroke="none" fill="#ECE6BA" fill-rule="evenodd" mask="url(#mask-5)"></path>
                                <path d="M28.5246661,-1.32681956 C26.7060564,-1.85856065 25.480459,-2.00803753 24.8478737,-1.7752502 C23.2995591,-1.20548036 22.5028248,0.865725311 22.1945055,1.34929955 C21.4485985,2.51919549 20.2662758,6.04886377 22.58067,7.99586623 C24.8950641,9.9428687 27.2690195,8.90244624 27.8875643,10.889844 C28.5061091,12.8772418 26.5544837,14.6078001 27.8875643,15.3950521 C29.2206449,16.182304 31.7299393,15.035014 32.5927018,13.6684672 C33.4554643,12.3019204 30.9852479,10.3096715 31.8352028,9.14230819 C32.4018394,8.36406595 33.7528347,8.36406595 35.8881889,9.14230819 L35.8881889,4.31759778 L32.5927018,-2.68115049 L28.5246661,-1.32681956 Z" id="Path-3" stroke="none" fill="#ECE6BA" fill-rule="evenodd" mask="url(#mask-5)" transform="translate(28.554856, 6.485516) rotate(-15.822576) translate(-28.554856, -6.485516) "></path>
                            </g>
                        </g>
                    </g>
                    <g id="Group-2" transform="translate(46.000000, 26.000000) scale(-1, 1) translate(-46.000000, -26.000000) translate(22.000000, 0.000000)">
                        <path d="M37.2,52 C37.2,47.3248454 30.7529004,43.5348837 22.8,43.5348837 C14.8470996,43.5348837 8.4,47.3248454 8.4,52 C15.9692784,52 32.4227696,52 37.2,52 Z" id="Oval" fill="#F3F6FA"></path>
                        <path d="M0.141124647,49.5813953 L24,49.5813953 L24,12.0930233 L12.9999585,31.597915 C11.5178348,33.1325572 9.8809836,34.6576878 8.08940482,36.1733067 C5.40203666,38.4467351 3.80366013,38.5539585 1.65983635,41.6419918 C0.230620507,43.7006807 -0.275616729,46.3471485 0.141124647,49.5813953 Z" id="Path-3" fill="#BAD5FF"></path>
                        <path d="M24.1411246,49.5813953 L48,49.5813953 L48,12.0930233 L36.9999585,31.597915 C35.5178348,33.1325572 33.8809836,34.6576878 32.0894048,36.1733067 C29.4020367,38.4467351 27.8036601,38.5539585 25.6598364,41.6419918 C24.2306205,43.7006807 23.7243833,46.3471485 24.1411246,49.5813953 Z" id="Path-3" fill="#BAD5FF" transform="translate(36.000000, 30.837209) scale(-1, 1) translate(-36.000000, -30.837209) "></path>
                        <path d="M13.2,47.1627907 L34.8,47.1627907 L34.8,29.1417024 C34.0130616,28.3679082 32.9291382,26.4864781 31.5482301,23.4974122 C30.1673219,20.5083463 27.5236452,13.8851779 23.6172001,3.62790698 C19.5744097,14.9926927 17.0837252,21.70854 16.1451466,23.7754491 C15.2065679,25.8423582 14.2248524,27.5199937 13.2,28.8083556 L13.2,47.1627907 Z" id="Path-2" fill="#F3F6FA"></path>
                        <path d="M31.2,0 L31.2,49.5813953 L24,49.5813953 L24,11.0135656 C24.6409755,8.75490719 25.583233,6.55873101 26.8267723,4.42503712 C28.0703116,2.29134322 29.5280541,0.816330847 31.2,0 Z" id="Path" fill="#FFFFFF" transform="translate(27.600000, 24.790698) scale(-1, 1) translate(-27.600000, -24.790698) "></path>
                        <path d="M22.8,0 L22.8,49.5813953 L15.6,49.5813953 L15.6,11.0135656 C16.2409755,8.75490719 17.183233,6.55873101 18.4267723,4.42503712 C19.6703116,2.29134322 21.1280541,0.816330847 22.8,0 Z" id="Path" fill="#D6E7FD"></path>
                        <path d="M28.8,12.0930233 C28.8,10.0893856 26.6509668,8.46511628 24,8.46511628 C21.3490332,8.46511628 19.2,10.0893856 19.2,12.0930233 C21.7230928,12.0930233 27.2075899,12.0930233 28.8,12.0930233 Z" id="Oval" fill="url(#linearGradient-6)"></path>
                        <ellipse id="Oval-2" fill="#FF5680" cx="25.8" cy="17.5348837" rx="1" ry="1"></ellipse>
                        <ellipse id="Oval-2" fill="#00D464" cx="25.8" cy="21.1627907" rx="1" ry="1"></ellipse>
                        <ellipse id="Oval-2" fill="#FFBD02" cx="25.8" cy="23.5813953" rx="1" ry="1"></ellipse>
                        <rect id="Rectangle" fill="#F3F6FA" x="0" y="43.5348837" width="13.2" height="1"></rect>
                        <rect id="Rectangle" fill="#F3F6FA" x="33.6" y="43.5348837" width="13.2" height="1"></rect>
                    </g>
                    <g id="Group-26" transform="translate(16.000000, 53.000000)">
                        <g id="Group-3">
                            <polygon id="Path-2" fill="#FFFFFF" points="10.2034771 11 30.9390244 11 26.6953235 2.81395349 12.7736431 3.43651835 7.43495935 4.38901389 7.83135156 8.27699598"></polygon>
                            <path d="M26.9817073,2.76393424 C26.6079749,1.63075394 25.5482094,0.831471731 24.3222804,0.831471731 C24.2105125,0.831471731 24.0202635,0.840473885 23.8346151,0.861751705 C23.142087,0.282340302 22.3886684,0 21.5391781,0 C19.6918953,0 18.1885762,1.32822699 17.8678862,3.19767442" id="Shape" stroke-opacity="0.15" stroke="#979797" stroke-width="0.605" fill="#FFFFFF" fill-rule="nonzero"></path>
                            <path d="M33.2174797,5.51422079 C33.1340897,5.51422079 33.0509669,5.51786318 32.9683787,5.52486777 C32.599271,4.36098468 31.5526195,3.54004643 30.3418607,3.54004643 C30.2314758,3.54004643 30.043581,3.54929249 29.8602299,3.57114682 C29.1762714,2.97603664 28.432176,2.68604651 27.5931976,2.68604651 C25.7687739,2.68604651 24.2840575,4.05026095 23.9673358,5.97035986 C23.1786053,6.4973854 22.6646341,7.37492075 22.6646341,8.23200269 C22.6646341,9.73098549 23.8513381,10.9497846 25.3103961,10.9497846 L30.5403258,11" id="Shape" stroke-opacity="0.15" stroke="#979797" stroke-width="0.605" fill="#FFFFFF" fill-rule="nonzero" transform="translate(27.941057, 6.843023) scale(-1, 1) translate(-27.941057, -6.843023) "></path>
                            <path d="M7.67722653,3.54523585 C7.56684167,3.54523585 7.37894687,3.55453809 7.19559576,3.57652522 C6.5116373,2.9777988 5.76754182,2.68604651 4.92856347,2.68604651 C3.1041397,2.68604651 1.61942332,4.05855073 1.30270165,5.99031731 C0.513971126,6.52054537 0,7.40341315 0,8.26570323 C0,9.77379475 1.186704,11 2.64576192,11 L10.5528455,11" id="Shape" stroke-opacity="0.15" stroke="#979797" stroke-width="0.605" fill="#FFFFFF" fill-rule="nonzero"></path>
                            <path d="M27.3756595,6.52714151 C27.3079234,6.52714151 27.1926243,6.53272286 27.0801134,6.54591513 C26.6604116,6.18667928 26.2038075,6.01162791 25.6889799,6.01162791 C24.5694471,6.01162791 23.6583712,6.83513044 23.4640192,7.99419038 C22.9800255,8.31232722 22.6646341,8.84204789 22.6646341,9.35942194 C22.6646341,10.2642768 23.3928389,11 24.2881699,11 L29.1402439,11" id="Shape" stroke-opacity="0.15" stroke="#979797" stroke-width="0.605" fill-rule="nonzero" transform="translate(25.902439, 8.505814) scale(-1, 1) translate(-25.902439, -8.505814) "></path>
                            <path d="M21.8252033,3.52100999 C21.7408801,3.52100999 21.6568271,3.52455629 21.5733147,3.5313761 C21.2000765,2.3981958 20.1417123,1.59891359 18.9174044,1.59891359 C18.8057842,1.59891359 18.6157868,1.60791575 18.4303838,1.62919357 C17.7387715,1.04978216 16.9863491,0.76744186 16.1379821,0.76744186 C14.2931419,0.76744186 12.7918107,2.09566885 12.4715447,3.96511628" id="Shape" stroke-opacity="0.15" stroke="#979797" stroke-width="0.605" fill="#FFFFFF" fill-rule="nonzero" transform="translate(17.148374, 2.366279) scale(-1, 1) translate(-17.148374, -2.366279) "></path>
                            <path d="M13.7906504,3.5313761 C13.416918,2.3981958 12.3571525,1.59891359 11.1312235,1.59891359 C11.0194556,1.59891359 10.8292066,1.60791575 10.6435581,1.62919357 C9.95103006,1.04978216 9.19761147,0.76744186 8.34812118,0.76744186 C6.50083837,0.76744186 4.9975193,2.09566885 4.67682927,3.96511628" id="Shape" stroke-opacity="0.15" stroke="#979797" stroke-width="0.605" fill="#FFFFFF" fill-rule="nonzero"></path>
                            <path d="M13.7906504,8.8255814 C11.8912915,8.42745505 10.9208085,8.23011416 10.8792013,8.23355873 C10.6002717,7.37503375 9.80933133,6.7694781 8.89437739,6.7694781 C8.81096106,6.7694781 8.66897152,6.77629835 8.53041558,6.79241895 C8.01355749,6.35344277 7.45125467,6.13953488 6.81725016,6.13953488 C5.43855797,6.13953488 4.31657803,7.14583197 4.07723577,8.56217084" id="Shape" stroke-opacity="0.15" stroke="#979797" stroke-width="0.605" fill-rule="nonzero" transform="translate(8.933943, 7.482558) rotate(-10.186324) translate(-8.933943, -7.482558) "></path>
                            <polygon id="Path-4" fill="#FFFFFF" points="17.8189629 2.94391213 21.8892304 1.79069767 24.936705 2.18572 26.1422764 5.20006781 25.8872622 8.44186047 17.148374 8.0248356"></polygon>
                            <polygon id="Path-8" fill="#FFFFFF" points="7.07520325 4.57239322 8.25867434 2.81395349 12.891284 3.02869313 12.891284 6.01162791"></polygon>
                            <path d="M26.9817073,10.2220044 C26.8973011,10.2220044 26.8131655,10.2256149 26.7295709,10.2325581 C26.3559654,9.07887054 25.2965598,8.26512362 24.0710472,8.26512362 C23.9593172,8.26512362 23.7691328,8.27428869 23.5835475,8.29595158 C22.8912546,7.7060545 22.1380918,7.41860465 21.2888901,7.41860465 C20.416615,7.41860465 19.4761448,7.79493231 18.4674797,8.54758764" id="Shape" stroke-opacity="0.15" stroke="#979797" stroke-width="0.605" fill="#FFFFFF" fill-rule="nonzero"></path>
                        </g>
                        <g id="Group-3" transform="translate(25.782520, 0.000000)">
                            <polygon id="Path-2" fill="#FFFFFF" points="10.2034771 11 30.9390244 11 26.6953235 2.81395349 12.7736431 3.43651835 7.43495935 4.38901389 7.83135156 8.27699598"></polygon>
                            <path d="M26.9817073,2.76393424 C26.6079749,1.63075394 25.5482094,0.831471731 24.3222804,0.831471731 C24.2105125,0.831471731 24.0202635,0.840473885 23.8346151,0.861751705 C23.142087,0.282340302 22.3886684,0 21.5391781,0 C19.6918953,0 18.1885762,1.32822699 17.8678862,3.19767442" id="Shape" stroke="#EFEFEF" stroke-width="0.605" fill="#FFFFFF" fill-rule="nonzero"></path>
                            <path d="M33.2174797,5.51422079 C33.1340897,5.51422079 33.0509669,5.51786318 32.9683787,5.52486777 C32.599271,4.36098468 31.5526195,3.54004643 30.3418607,3.54004643 C30.2314758,3.54004643 30.043581,3.54929249 29.8602299,3.57114682 C29.1762714,2.97603664 28.432176,2.68604651 27.5931976,2.68604651 C25.7687739,2.68604651 24.2840575,4.05026095 23.9673358,5.97035986 C23.1786053,6.4973854 22.6646341,7.37492075 22.6646341,8.23200269 C22.6646341,9.73098549 23.8513381,10.9497846 25.3103961,10.9497846 L30.5403258,11" id="Shape" stroke="#EFEFEF" stroke-width="0.605" fill="#FFFFFF" fill-rule="nonzero" transform="translate(27.941057, 6.843023) scale(-1, 1) translate(-27.941057, -6.843023) "></path>
                            <path d="M7.67722653,3.54523585 C7.56684167,3.54523585 7.37894687,3.55453809 7.19559576,3.57652522 C6.5116373,2.9777988 5.76754182,2.68604651 4.92856347,2.68604651 C3.1041397,2.68604651 1.61942332,4.05855073 1.30270165,5.99031731 C0.513971126,6.52054537 0,7.40341315 0,8.26570323 C0,9.77379475 1.186704,11 2.64576192,11 L10.5528455,11" id="Shape" stroke="#EFEFEF" stroke-width="0.605" fill="#FFFFFF" fill-rule="nonzero"></path>
                            <path d="M27.3756595,6.52714151 C27.3079234,6.52714151 27.1926243,6.53272286 27.0801134,6.54591513 C26.6604116,6.18667928 26.2038075,6.01162791 25.6889799,6.01162791 C24.5694471,6.01162791 23.6583712,6.83513044 23.4640192,7.99419038 C22.9800255,8.31232722 22.6646341,8.84204789 22.6646341,9.35942194 C22.6646341,10.2642768 23.3928389,11 24.2881699,11 L29.1402439,11" id="Shape" stroke="#EFEFEF" stroke-width="0.605" fill-rule="nonzero" transform="translate(25.902439, 8.505814) scale(-1, 1) translate(-25.902439, -8.505814) "></path>
                            <path d="M21.8252033,3.52100999 C21.7408801,3.52100999 21.6568271,3.52455629 21.5733147,3.5313761 C21.2000765,2.3981958 20.1417123,1.59891359 18.9174044,1.59891359 C18.8057842,1.59891359 18.6157868,1.60791575 18.4303838,1.62919357 C17.7387715,1.04978216 16.9863491,0.76744186 16.1379821,0.76744186 C14.2931419,0.76744186 12.7918107,2.09566885 12.4715447,3.96511628" id="Shape" stroke="#EFEFEF" stroke-width="0.605" fill="#FFFFFF" fill-rule="nonzero" transform="translate(17.148374, 2.366279) scale(-1, 1) translate(-17.148374, -2.366279) "></path>
                            <path d="M13.7906504,3.5313761 C13.416918,2.3981958 12.3571525,1.59891359 11.1312235,1.59891359 C11.0194556,1.59891359 10.8292066,1.60791575 10.6435581,1.62919357 C9.95103006,1.04978216 9.19761147,0.76744186 8.34812118,0.76744186 C6.50083837,0.76744186 4.9975193,2.09566885 4.67682927,3.96511628" id="Shape" stroke="#EFEFEF" stroke-width="0.605" fill="#FFFFFF" fill-rule="nonzero"></path>
                            <path d="M13.7906504,8.8255814 C11.8912915,8.42745505 10.9208085,8.23011416 10.8792013,8.23355873 C10.6002717,7.37503375 9.80933133,6.7694781 8.89437739,6.7694781 C8.81096106,6.7694781 8.66897152,6.77629835 8.53041558,6.79241895 C8.01355749,6.35344277 7.45125467,6.13953488 6.81725016,6.13953488 C5.43855797,6.13953488 4.31657803,7.14583197 4.07723577,8.56217084" id="Shape" stroke="#EFEFEF" stroke-width="0.605" fill-rule="nonzero" transform="translate(8.933943, 7.482558) rotate(-10.186324) translate(-8.933943, -7.482558) "></path>
                            <polygon id="Path-4" fill="#FFFFFF" points="17.8189629 2.94391213 21.8892304 1.79069767 24.936705 2.18572 26.1422764 5.20006781 25.8872622 8.44186047 17.148374 8.0248356"></polygon>
                            <polygon id="Path-8" fill="#FFFFFF" points="7.07520325 4.74510138 7.69808277 3.19767442 10.6727642 3.8115911 10.1362984 6.01162791"></polygon>
                            <path d="M26.9817073,10.2220044 C26.8973011,10.2220044 26.8131655,10.2256149 26.7295709,10.2325581 C26.3559654,9.07887054 25.2965598,8.26512362 24.0710472,8.26512362 C23.9593172,8.26512362 23.7691328,8.27428869 23.5835475,8.29595158 C22.8912546,7.7060545 22.1380918,7.41860465 21.2888901,7.41860465 C20.416615,7.41860465 19.4761448,7.79493231 18.4674797,8.54758764" id="Shape" stroke="#EFEFEF" stroke-width="0.605" fill="#FFFFFF" fill-rule="nonzero"></path>
                        </g>
                        <g id="Group-3" transform="translate(16.189024, 0.000000)">
                            <polygon id="Path-2" fill="#FFFFFF" points="10.2034771 11 30.9390244 11 26.6953235 2.81395349 12.7736431 3.43651835 7.43495935 4.38901389 7.83135156 8.27699598"></polygon>
                            <path d="M26.9817073,2.76393424 C26.6079749,1.63075394 25.5482094,0.831471731 24.3222804,0.831471731 C24.2105125,0.831471731 24.0202635,0.840473885 23.8346151,0.861751705 C23.142087,0.282340302 22.3886684,0 21.5391781,0 C19.6918953,0 18.1885762,1.32822699 17.8678862,3.19767442" id="Shape" stroke-opacity="0.153334466" stroke="#979797" stroke-width="0.605" fill="#FFFFFF" fill-rule="nonzero"></path>
                            <path d="M33.2174797,5.51422079 C33.1340897,5.51422079 33.0509669,5.51786318 32.9683787,5.52486777 C32.599271,4.36098468 31.5526195,3.54004643 30.3418607,3.54004643 C30.2314758,3.54004643 30.043581,3.54929249 29.8602299,3.57114682 C29.1762714,2.97603664 28.432176,2.68604651 27.5931976,2.68604651 C25.7687739,2.68604651 24.2840575,4.05026095 23.9673358,5.97035986 C23.1786053,6.4973854 22.6646341,7.37492075 22.6646341,8.23200269 C22.6646341,9.73098549 23.8513381,10.9497846 25.3103961,10.9497846 L30.5403258,11" id="Shape" stroke-opacity="0.153334466" stroke="#979797" stroke-width="0.605" fill="#FFFFFF" fill-rule="nonzero" transform="translate(27.941057, 6.843023) scale(-1, 1) translate(-27.941057, -6.843023) "></path>
                            <path d="M7.67722653,3.54523585 C7.56684167,3.54523585 7.37894687,3.55453809 7.19559576,3.57652522 C6.5116373,2.9777988 5.76754182,2.68604651 4.92856347,2.68604651 C3.1041397,2.68604651 1.61942332,4.05855073 1.30270165,5.99031731 C0.513971126,6.52054537 0,7.40341315 0,8.26570323 C0,9.77379475 1.186704,11 2.64576192,11 L10.5528455,11" id="Shape" stroke-opacity="0.153334466" stroke="#979797" stroke-width="0.605" fill="#FFFFFF" fill-rule="nonzero"></path>
                            <path d="M27.3756595,6.52714151 C27.3079234,6.52714151 27.1926243,6.53272286 27.0801134,6.54591513 C26.6604116,6.18667928 26.2038075,6.01162791 25.6889799,6.01162791 C24.5694471,6.01162791 23.6583712,6.83513044 23.4640192,7.99419038 C22.9800255,8.31232722 22.6646341,8.84204789 22.6646341,9.35942194 C22.6646341,10.2642768 23.3928389,11 24.2881699,11 L29.1402439,11" id="Shape" stroke-opacity="0.153334466" stroke="#979797" stroke-width="0.605" fill-rule="nonzero" transform="translate(25.902439, 8.505814) scale(-1, 1) translate(-25.902439, -8.505814) "></path>
                            <path d="M13.7906504,3.5313761 C13.416918,2.3981958 12.3571525,1.59891359 11.1312235,1.59891359 C11.0194556,1.59891359 10.8292066,1.60791575 10.6435581,1.62919357 C9.95103006,1.04978216 9.19761147,0.76744186 8.34812118,0.76744186 C6.50083837,0.76744186 4.9975193,2.09566885 4.67682927,3.96511628" id="Shape" stroke-opacity="0.153334466" stroke="#979797" stroke-width="0.605" fill="#FFFFFF" fill-rule="nonzero"></path>
                            <path d="M13.7906504,8.8255814 C11.8912915,8.42745505 10.9208085,8.23011416 10.8792013,8.23355873 C10.6002717,7.37503375 9.80933133,6.7694781 8.89437739,6.7694781 C8.81096106,6.7694781 8.66897152,6.77629835 8.53041558,6.79241895 C8.01355749,6.35344277 7.45125467,6.13953488 6.81725016,6.13953488 C5.43855797,6.13953488 4.31657803,7.14583197 4.07723577,8.56217084" id="Shape" stroke-opacity="0.153334466" stroke="#979797" stroke-width="0.605" fill-rule="nonzero" transform="translate(8.933943, 7.482558) rotate(-10.186324) translate(-8.933943, -7.482558) "></path>
                            <polygon id="Path-4" fill="#FFFFFF" points="17.8189629 2.94391213 21.8892304 1.79069767 24.936705 2.18572 26.1422764 5.20006781 25.8872622 8.44186047 17.148374 8.0248356"></polygon>
                            <polygon id="Path-8" fill="#FFFFFF" points="7.07520325 4.74510138 7.69808277 3.19767442 10.6727642 3.8115911 10.1362984 6.01162791"></polygon>
                            <path d="M26.9817073,10.2220044 C26.8973011,10.2220044 26.8131655,10.2256149 26.7295709,10.2325581 C26.3559654,9.07887054 25.2965598,8.26512362 24.0710472,8.26512362 C23.9593172,8.26512362 23.7691328,8.27428869 23.5835475,8.29595158 C22.8912546,7.7060545 22.1380918,7.41860465 21.2888901,7.41860465 C20.416615,7.41860465 19.4761448,7.79493231 18.4674797,8.54758764" id="Shape" stroke-opacity="0.153334466" stroke="#979797" stroke-width="0.605" fill="#FFFFFF" fill-rule="nonzero"></path>
                            <path d="M25.902439,4.41635882 C25.8181158,4.41635882 25.7340629,4.41990513 25.6505505,4.42672494 C25.2773123,3.29354464 24.2189481,2.49426243 22.9946401,2.49426243 C22.88302,2.49426243 22.6930225,2.50326458 22.5076196,2.5245424 C21.8160073,1.945131 21.0635849,1.6627907 20.2152179,1.6627907 C18.3703777,1.6627907 16.8690465,2.99101768 16.5487805,4.86046512" id="Shape" stroke-opacity="0.153334466" stroke="#979797" stroke-width="0.605" fill="#FFFFFF" fill-rule="nonzero" transform="translate(21.225610, 3.261628) scale(-1, 1) translate(-21.225610, -3.261628) "></path>
                        </g>
                    </g>
                </g>
            </g>
        </g>
    </g>
</svg>