<?xml version="1.0" encoding="UTF-8"?>
<svg width="458px" height="341px" viewBox="0 0 458 341" version="1.1" xmlns="http://www.w3.org/2000/svg" xmlns:xlink="http://www.w3.org/1999/xlink">
    <!-- Generator: Sketch 51.3 (57544) - http://www.bohemiancoding.com/sketch -->
    <title>Group 6</title>
    <desc>Created with Sketch.</desc>
    <defs>
        <path d="M363.839042,322.225108 C411.563644,296.742569 481.403123,275.67125 449.900204,222.606692 C418.397285,169.542134 475.895965,-11.7948959 373.740429,16.9725343 C329.25444,29.4999767 278.889225,-1.44257971 229.105307,0.387942441 C164.567774,2.7609454 102.548791,35.6430318 71.5243139,35.6430318 C16.5677159,35.6430318 -36.8940233,213.437741 35.5573519,269.157699 C108.008727,324.877658 86.4113015,355.960936 164.028975,333.262341 C241.646648,310.563746 316.11444,347.707648 363.839042,322.225108 Z" id="path-1"></path>
        <linearGradient x1="300.299549%" y1="-84.5946662%" x2="17.925003%" y2="84.3919203%" id="linearGradient-3">
            <stop stop-color="#D4F1FF" stop-opacity="0.536967844" offset="0%"></stop>
            <stop stop-color="#239BFD" stop-opacity="0.0444689764" offset="100%"></stop>
        </linearGradient>
        <linearGradient x1="50%" y1="100%" x2="85.7205186%" y2="-12.3252161%" id="linearGradient-4">
            <stop stop-color="#E0F1FF" stop-opacity="0.256142437" offset="0%"></stop>
            <stop stop-color="#B7D7EF" offset="100%"></stop>
        </linearGradient>
        <linearGradient x1="117.611269%" y1="-23.8148907%" x2="27.9503941%" y2="91.0102127%" id="linearGradient-5">
            <stop stop-color="#B2B2B2" offset="0%"></stop>
            <stop stop-color="#D8D8D8" offset="100%"></stop>
        </linearGradient>
        <linearGradient x1="105.208946%" y1="-13.1066446%" x2="1.49660486%" y2="89.1727903%" id="linearGradient-6">
            <stop stop-color="#5B92FF" offset="0%"></stop>
            <stop stop-color="#6E8AB9" offset="100%"></stop>
        </linearGradient>
        <rect id="path-7" x="0" y="0" width="21" height="36" rx="1"></rect>
        <filter x="-69.0%" y="-34.7%" width="238.1%" height="180.6%" filterUnits="objectBoundingBox" id="filter-8">
            <feOffset dx="0" dy="2" in="SourceAlpha" result="shadowOffsetOuter1"></feOffset>
            <feGaussianBlur stdDeviation="4.5" in="shadowOffsetOuter1" result="shadowBlurOuter1"></feGaussianBlur>
            <feColorMatrix values="0 0 0 0 0   0 0 0 0 0   0 0 0 0 0  0 0 0 0.1700351 0" type="matrix" in="shadowBlurOuter1"></feColorMatrix>
        </filter>
        <rect id="path-9" x="27" y="0" width="21" height="36" rx="1"></rect>
        <filter x="-69.0%" y="-34.7%" width="238.1%" height="180.6%" filterUnits="objectBoundingBox" id="filter-10">
            <feOffset dx="0" dy="2" in="SourceAlpha" result="shadowOffsetOuter1"></feOffset>
            <feGaussianBlur stdDeviation="4.5" in="shadowOffsetOuter1" result="shadowBlurOuter1"></feGaussianBlur>
            <feColorMatrix values="0 0 0 0 0   0 0 0 0 0   0 0 0 0 0  0 0 0 0.1700351 0" type="matrix" in="shadowBlurOuter1"></feColorMatrix>
        </filter>
        <rect id="path-11" x="56" y="0" width="21" height="36" rx="1"></rect>
        <filter x="-69.0%" y="-34.7%" width="238.1%" height="180.6%" filterUnits="objectBoundingBox" id="filter-12">
            <feOffset dx="0" dy="2" in="SourceAlpha" result="shadowOffsetOuter1"></feOffset>
            <feGaussianBlur stdDeviation="4.5" in="shadowOffsetOuter1" result="shadowBlurOuter1"></feGaussianBlur>
            <feColorMatrix values="0 0 0 0 0   0 0 0 0 0   0 0 0 0 0  0 0 0 0.1700351 0" type="matrix" in="shadowBlurOuter1"></feColorMatrix>
        </filter>
        <linearGradient x1="-339.385636%" y1="-53.7349707%" x2="370.85878%" y2="97.0972967%" id="linearGradient-13">
            <stop stop-color="#212B47" offset="0%"></stop>
            <stop stop-color="#7495EB" offset="100%"></stop>
        </linearGradient>
        <linearGradient x1="107.116122%" y1="31.5450269%" x2="21.3654719%" y2="50%" id="linearGradient-14">
            <stop stop-color="#6985D0" offset="0%"></stop>
            <stop stop-color="#9BB6FE" offset="100%"></stop>
        </linearGradient>
        <linearGradient x1="54.4321793%" y1="100%" x2="54.4321793%" y2="0%" id="linearGradient-15">
            <stop stop-color="#6985D0" offset="0%"></stop>
            <stop stop-color="#83A5FF" offset="100%"></stop>
        </linearGradient>
        <path d="M0.497672639,0.242639957 C1.18765072,1.55856349 1.66749068,6.44459856 1.9371925,14.9007452 C2.34174523,27.5849651 1.8036814,31.3906733 1.9371925,45.3768957 C2.07070361,59.3631182 1.8036814,72.8961012 1.9371925,76.8936426 C2.0261999,79.5586702 5.79555974,80.891184 13.245272,80.891184 C15.3806788,61.208294 16.7944422,47.2236851 17.4865624,38.9373573 C18.1786825,30.6510295 18.6268847,21.2571021 18.8311688,10.7555751 L0.497672639,0.242639957 Z" id="path-16"></path>
        <path d="M22.7261195,0.126800724 C21.4728981,-0.53018894 22.1233924,3.01088035 20.3274169,5.75132787 C18.5314414,8.49177539 17.0922777,8.39219113 16.1470011,10.1657623 C15.2017244,11.9393334 16.3654627,12.3745595 13.5087952,18.1896725 C11.6043502,22.0664145 9.57670841,25.2782909 7.42586974,27.8253016 C1.65799217,40.5034514 -0.561495239,47.0538835 0.767407506,47.4765978 C1.80731043,47.8073834 3.62736537,64.7716142 15.4661544,63.4817271 C30.5162145,61.8419582 9.22672164,45.4719421 10.0190172,44.610381 C11.0538051,43.4851278 11.6183886,36.5415771 14.2525077,29.7902582 C16.8866269,23.0389393 18.0902412,22.7808917 20.3274169,18.1896725 C22.5645926,13.5984534 26.1408077,12.363195 26.1408077,8.85602416 C26.1408077,5.34885331 23.979341,0.783790387 22.7261195,0.126800724 Z" id="path-18"></path>
        <path d="M32.6331615,0.580009606 C34.8566997,0.982918622 32.9873707,3.1429759 35.66224,3.1429759 C38.3371093,3.1429759 45.0584781,3.85045428 51.152519,4.63841384 C57.24656,5.42637339 62.1581553,28.8505769 63.732629,28.8505769 C64.782278,28.8505769 64.782278,29.5411572 63.732629,30.9223177 C59.3416072,36.2787213 55.5950804,38.9569232 52.4930484,38.9569232 C50.8202792,38.9569232 48.8376351,33.4116741 46.545116,22.321176 C47.171682,24.0876026 47.171682,27.8103574 46.545116,33.4894406 C45.6052669,42.0080653 43.867775,45.1990499 43.5456591,49.5077195 C43.3309152,52.380166 43.9458665,55.2149543 45.3905132,58.0120846 C38.3575232,62.4347509 32.6487705,64.8390658 28.2642553,65.2250293 C23.8797401,65.6109928 19.1554179,64.1250887 14.0912889,60.767317 L14.0912889,52.0863287 C6.36547079,52.8809695 1.9287742,52.8809695 0.781199091,52.0863287 C-0.940163567,50.8943676 2.20826648,17.6468177 4.55984705,13.0422525 C6.91142762,8.43768719 17.4360055,5.69043035 19.2312175,4.63841384 C21.0264294,3.58639732 19.8965807,0.580009606 22.0935033,0.580009606 C24.2904258,0.580009606 30.4096233,0.177100589 32.6331615,0.580009606 Z" id="path-20"></path>
        <linearGradient x1="-40.3898543%" y1="-4.62991152%" x2="305.54098%" y2="139.163749%" id="linearGradient-22">
            <stop stop-color="#212B47" offset="0%"></stop>
            <stop stop-color="#7495EB" offset="100%"></stop>
        </linearGradient>
        <linearGradient x1="-214.830746%" y1="-84.2981355%" x2="305.54098%" y2="139.163749%" id="linearGradient-23">
            <stop stop-color="#212B47" offset="0%"></stop>
            <stop stop-color="#7495EB" offset="100%"></stop>
        </linearGradient>
        <linearGradient x1="-47.9451716%" y1="79.1541403%" x2="211.357391%" y2="106.443921%" id="linearGradient-24">
            <stop stop-color="#212B47" offset="0%"></stop>
            <stop stop-color="#7495EB" offset="100%"></stop>
        </linearGradient>
        <path d="M7.29510199,0.517824271 L34.2926021,0.517824271 C37.7955384,0.517824271 40.7826599,3.05564329 41.3486524,6.5125516 L48.2351917,48.5734159 C48.5439148,50.4590022 50.1732538,51.8432671 52.0839463,51.8432671 L75.3709485,51.8432671 C78.2428292,51.8432671 80.5709485,54.1713864 80.5709485,57.0432671 L80.5709485,57.4075591 C80.5709485,60.4806328 78.0797302,62.9718511 75.0066565,62.9718511 L15.8763399,62.9718511 C12.4114012,62.9718511 9.44512445,60.4874452 8.83723551,57.0762474 L0.255997629,8.92222048 C-0.436786269,5.0346305 2.15311578,1.32150381 6.04070577,0.628719914 C6.45476247,0.554933375 6.87452215,0.517824271 7.29510199,0.517824271 Z" id="path-25"></path>
        <linearGradient x1="54.5108811%" y1="18.6300259%" x2="71.8134904%" y2="68.0724492%" id="linearGradient-27">
            <stop stop-color="#B3B3B3" stop-opacity="0.5" offset="0%"></stop>
            <stop stop-color="#000000" stop-opacity="0.5" offset="100%"></stop>
        </linearGradient>
        <linearGradient x1="37.0608643%" y1="57.3530091%" x2="27.2731404%" y2="32.5168218%" id="linearGradient-28">
            <stop stop-color="#000000" stop-opacity="0" offset="0%"></stop>
            <stop stop-color="#000000" stop-opacity="0.575577446" offset="100%"></stop>
        </linearGradient>
        <path d="M36.5539757,22.9256743 C38.5199238,21.7572493 40.1000616,21.2011309 41.2904082,21.2063338 C42.0885239,21.2098224 42.988329,21.4496258 43.9889214,21.9141874 C47.3283434,23.3566552 51.0176034,21.9916361 53.3314376,18.8439317 L59.7531751,11.6882591 L41.2904082,13.4337367 L35.3100762,20.2429106 C34.9304184,20.9582978 34.9995543,22.0430712 35.4633473,22.6511139 C35.7692992,23.0482263 36.1871085,23.1516056 36.5539757,22.9256743 Z" id="path-29"></path>
        <linearGradient x1="95.2873097%" y1="16.4763226%" x2="50%" y2="88.4248405%" id="linearGradient-30">
            <stop stop-color="#3A3A3A" offset="0%"></stop>
            <stop stop-color="#000000" offset="100%"></stop>
        </linearGradient>
        <path d="M14.4320274,72.854841 C18.1966775,65.401031 20.6098781,59.8637934 21.6716293,56.2431281 C22.7333804,52.6224628 23.9539458,47.6093275 25.3333253,41.2037222 C23.1370256,41.8620737 22.0388758,41.5549093 22.0388758,40.2822293 C22.0388758,39.0095492 23.2728997,36.9944401 25.7409477,34.236902 C26.1381677,26.1964422 25.674547,19.1551096 24.3500855,13.1129041 C22.3633932,4.04959588 21.0547589,1.17332768 18.3151255,0.360233357 C15.5754921,-0.452860966 5.62853936,15.6205923 4.56483045,18.0548961 C3.50112154,20.4892 8.58837479,22.4748484 7.44922606,24.2203731 C6.68979358,25.3840562 4.33084716,25.3840562 0.372386803,24.2203731 L5.26096814,72.854841 L14.4320274,72.854841 Z" id="path-31"></path>
        <path d="M17.3394312,82.2472919 C10.1980758,69.4972194 5.70319229,60.5262893 3.85478077,55.3345018 C2.00636924,50.1427143 0.869202453,43.2944354 0.443280414,34.789665 C3.70715782,34.5895489 5.33909653,34.0325279 5.33909653,33.1186021 C5.33909653,32.2046764 3.70715782,30.9594499 0.443280414,29.3829228 C0.371500922,20.7465131 0.773185766,14.1788906 1.64833495,9.6800554 C2.96105871,2.93180263 4.54024016,0.053949282 6.67165215,0.053949282 C8.09259348,0.053949282 11.6485198,3.81556695 17.3394312,11.3388023 C16.7967651,15.2244402 16.7967651,17.5725121 17.3394312,18.3830182 C17.8820974,19.1935243 18.867504,18.3172193 20.2956512,15.7541032 C23.3184116,20.9738829 25.4597905,25.265277 26.7197878,28.6282853 C28.6097839,33.6727979 30.8331554,35.9741114 32.0827318,53.1282509 C32.9157828,64.5643439 32.4847614,75.0214096 30.7896677,84.4994481 L17.3394312,82.2472919 Z" id="path-33"></path>
        <path d="M0.0201718081,0.440780301 C1.31642922,1.26531824 1.96455792,2.07219628 1.96455792,2.86141442 C1.96455792,4.04524162 3.54711101,21.6517436 3.97781267,23.875957 C4.2649471,25.358766 5.19799784,26.7042548 6.77696487,27.9124236 L31.2543201,27.9124236 C32.5144408,26.327865 33.3282114,24.9823761 33.6956322,23.875957 C34.2467633,22.2163284 34.8071757,4.20734619 34.9702391,2.86141442 C35.078948,1.96412657 35.6416968,1.15724853 36.6584857,0.440780301 L0.0201718081,0.440780301 Z" id="path-35"></path>
        <linearGradient x1="113.601669%" y1="-5.2300794%" x2="51.3786489%" y2="97.7190012%" id="linearGradient-37">
            <stop stop-color="#94C6F3" offset="0%"></stop>
            <stop stop-color="#B9D4FD" offset="100%"></stop>
        </linearGradient>
        <linearGradient x1="113.601669%" y1="-5.2300794%" x2="51.3786489%" y2="97.7190012%" id="linearGradient-38">
            <stop stop-color="#C1E2FF" offset="0%"></stop>
            <stop stop-color="#EEF5FF" offset="100%"></stop>
        </linearGradient>
        <linearGradient x1="119.07042%" y1="-11.4040684%" x2="0.499999523%" y2="101.499999%" id="linearGradient-39">
            <stop stop-color="#3023AE" offset="0%"></stop>
            <stop stop-color="#C86DD7" offset="100%"></stop>
        </linearGradient>
    </defs>
    <g id="Layout" stroke="none" stroke-width="1" fill="none" fill-rule="evenodd">
        <g id="Slack-Copy" transform="translate(-491.000000, -280.000000)">
            <g id="Group-6" transform="translate(491.000000, 280.000000)">
                <g id="Group-3">
                    <mask id="mask-2" fill="white">
                        <use xlink:href="#path-1"></use>
                    </mask>
                    <use id="Mask" fill="#F3F5F8" opacity="0.6734375" xlink:href="#path-1"></use>
                    <path d="M96.542812,278.343689 C71.5459936,278.343689 76.531767,267.696271 65.9666543,263.548348 C64.8822103,263.122589 44.9048852,267.652853 43.8461691,267.426674 C32.4729918,264.996968 8.6291115,313.561764 14.5468175,325.358305 C20.4645235,337.154846 49.6459282,321.847664 65.7430991,332.664162 C81.84027,343.480659 55.911987,367.243656 76.8808256,367.243656 C97.8496641,367.243656 121.12771,335.389961 136.645032,332.664162 C152.162355,329.938362 149.604165,357.650691 167.08892,351.397546 C184.573674,345.144401 186.73323,321.61602 193.641613,312.280238 C200.549995,302.944456 211.948725,308.378933 209.409975,294.206135 C206.871226,280.033336 196.27606,295.507574 176.274566,286.038272 C156.273073,276.568969 124.1054,278.343689 96.542812,278.343689 Z" id="Path-42" fill="#000000" fill-rule="nonzero" opacity="0.035123" mask="url(#mask-2)" transform="translate(111.694924, 315.381874) rotate(-8.000000) translate(-111.694924, -315.381874) "></path>
                    <ellipse id="Oval-3" fill-opacity="0.0748980978" fill="#000000" fill-rule="nonzero" mask="url(#mask-2)" cx="131.5" cy="281" rx="5.5" ry="1"></ellipse>
                    <ellipse id="Oval-3" fill-opacity="0.0748980978" fill="#000000" fill-rule="nonzero" mask="url(#mask-2)" cx="148" cy="281" rx="8" ry="1"></ellipse>
                    <ellipse id="Oval-3" fill-opacity="0.0748980978" fill="#000000" fill-rule="nonzero" mask="url(#mask-2)" cx="168.5" cy="281" rx="10.5" ry="1"></ellipse>
                    <ellipse id="Oval-3" fill-opacity="0.0748980978" fill="#000000" fill-rule="nonzero" mask="url(#mask-2)" cx="200.5" cy="281" rx="10.5" ry="1"></ellipse>
                    <ellipse id="Oval-3" fill-opacity="0.0748980978" fill="#000000" fill-rule="nonzero" mask="url(#mask-2)" cx="265.5" cy="281" rx="10.5" ry="1"></ellipse>
                    <g mask="url(#mask-2)" id="Rectangle-4">
                        <g transform="translate(254.000000, 39.000000)">
                            <g>
                                <path d="M1.25,41.2085492 L1.25,239.75 L86.1214286,239.75 L86.1214286,43.0803109 C86.1214286,42.7485894 86.126703,42.4851989 86.1413777,41.9490828 C86.1506544,41.6101775 86.1539024,41.4800162 86.1568795,41.3054558 C86.1660029,40.7705209 86.1578854,40.3549449 86.1252769,39.9403461 C84.4196363,18.2540382 65.8832161,1.25 43.6857143,1.25 C21.3902265,1.25 2.942115,18.2569527 1.35965852,40.0490808 L1.2754626,41.2085492 L1.25,41.2085492 Z" id="Mask" stroke="#FFFFFF" stroke-width="2.5" fill="url(#linearGradient-3)" fill-rule="nonzero"></path>
                            </g>
                        </g>
                    </g>
                    <path d="M326.259259,145.406504 L326.259259,141.02439 L326.888889,141.02439 L326.888889,145.406504 L328.777778,145.406504 L328.777778,151.666667 L331.925926,151.666667 L331.925926,154.170732 L335.703704,154.170732 L335.703704,277.495935 L306.740741,277.495935 L276.518519,277.495935 L276.518519,200.495935 L306.740741,200.495935 L306.740741,154.170732 L310.518519,154.170732 L310.518519,151.666667 L313.037037,151.666667 L313.037037,147.284553 L314.296296,147.284553 L314.296296,151.666667 L324.37037,151.666667 L324.37037,145.406504 L326.259259,145.406504 Z M267.074074,207.382114 L267.074074,147.284553 L270.222222,147.284553 L270.222222,139.772358 L272.740741,139.772358 L272.740741,134.764228 L275.259259,134.764228 L275.259259,126 L277.148148,126 L277.148148,134.764228 L279.666667,134.764228 L279.666667,139.772358 L282.185185,139.772358 L282.185185,147.284553 L284.703704,147.284553 L284.703704,277.495935 L267.074074,277.495935 L257,277.495935 L257,207.382114 L267.074074,207.382114 Z M294.777778,186.723577 L294.777778,184.219512 L296.666667,184.219512 L296.666667,186.723577 L299.185185,186.723577 L299.185185,201.747967 L292.259259,201.747967 L292.259259,186.723577 L294.777778,186.723577 Z M335.703704,213.01626 L339,213.01626 L339,277 L335.703704,277 L335.703704,213.01626 Z" id="Combined-Shape" fill="url(#linearGradient-4)" fill-rule="nonzero" mask="url(#mask-2)"></path>
                    <rect id="Rectangle-25" fill="#FFFFFF" fill-rule="nonzero" mask="url(#mask-2)" x="296" y="41" width="3" height="239"></rect>
                </g>
                <rect id="Rectangle-26-Copy" fill="#FFFFFF" fill-rule="nonzero" x="254" y="178" width="85" height="3"></rect>
                <g id="business-target" transform="translate(215.000000, 190.000000)" fill="#000000" fill-rule="nonzero" opacity="0.123716518">
                    <polygon id="Shape" points="1 1.97090658 0.152944175 2 0 1.07131959 0.152944175 0.11637368 1 0"></polygon>
                </g>
                <g id="Group-4" transform="translate(214.000000, 129.000000)" fill-rule="nonzero">
                    <path d="M32.4804257,50.7705557 L32.4804257,60.9892336 C32.4804257,61.734818 31.8760101,62.3392336 31.1304257,62.3392336 L25.3333333,62.3392336 L25.3333333,64.7924528 L41.2629333,64.7924528 C43.8724787,64.7924528 45.9879333,62.6769983 45.9879333,60.0674528 L45.9879333,50.7705557 L32.4804257,50.7705557 Z" id="Path-2" fill="url(#linearGradient-5)"></path>
                    <rect id="Rectangle" stroke="#1C2335" stroke-width="1.35" fill="url(#linearGradient-6)" x="1.675" y="2.98616272" width="71.65" height="47.7919196"></rect>
                    <path d="M1,41.2151824 L74,41.2151824 L74,50.1030823 C74,50.8486667 73.3955844,51.4530823 72.65,51.4530823 L2.35,51.4530823 C1.60441559,51.4530823 1,50.8486667 1,50.1030823 L1,41.2151824 Z" id="Rectangle-2" fill="#E5E5E5"></path>
                    <g id="Rectangle-3">
                        <use fill="black" fill-opacity="1" filter="url(#filter-8)" xlink:href="#path-7"></use>
                        <use fill="#593DFF" xlink:href="#path-7"></use>
                    </g>
                    <g id="Rectangle-3-Copy">
                        <use fill="black" fill-opacity="1" filter="url(#filter-10)" xlink:href="#path-9"></use>
                        <use fill="#00BEFF" xlink:href="#path-9"></use>
                    </g>
                    <g id="Rectangle-3-Copy-2">
                        <use fill="black" fill-opacity="1" filter="url(#filter-12)" xlink:href="#path-11"></use>
                        <use fill="#1485FC" xlink:href="#path-11"></use>
                    </g>
                </g>
                <g id="Group-2" transform="translate(122.000000, 124.000000)">
                    <g id="Group-9" transform="translate(24.675325, 69.700405)" fill-rule="nonzero">
                        <path d="M105.844156,3.91093117 L114.089861,3.91093117 L120.12987,86.2818761 C119.433682,86.9900451 118.626451,87.3441296 117.708177,87.3441296 C116.789904,87.3441296 116.103864,86.9900451 115.650059,86.2818761 L105.844156,3.91093117 Z" id="Path" fill="url(#linearGradient-13)"></path>
                        <path d="M51.9480519,3.91093117 L60.193757,3.91093117 L66.2337662,86.2818761 C65.5375778,86.9900451 64.7303468,87.3441296 63.8120732,87.3441296 C62.8937997,87.3441296 62.2077604,86.9900451 61.7539553,86.2818761 L51.9480519,3.91093117 Z" id="Path" fill="url(#linearGradient-13)" transform="translate(59.090909, 45.627530) scale(-1, 1) translate(-59.090909, -45.627530) "></path>
                        <path d="M0,3.91093117 L8.24570507,3.91093117 L14.2857143,86.2818761 C13.5895258,86.9900451 12.7822948,87.3441296 11.8640213,87.3441296 C10.9457477,87.3441296 10.2597084,86.9900451 9.80590337,86.2818761 L0,3.91093117 Z" id="Path" fill="url(#linearGradient-13)" transform="translate(7.142857, 45.627530) scale(-1, 1) translate(-7.142857, -45.627530) "></path>
                        <path d="M158.441558,3.25910931 L166.687264,3.25910931 L172.727273,85.6300542 C172.031084,86.3382232 171.223853,86.6923077 170.30558,86.6923077 C169.387306,86.6923077 168.701267,86.3382232 168.247462,85.6300542 L158.441558,3.25910931 Z" id="Path" fill="url(#linearGradient-13)" transform="translate(165.584416, 44.975709) rotate(-3.000000) translate(-165.584416, -44.975709) "></path>
                        <polyline id="Path-3" fill="url(#linearGradient-14)" points="164.285714 0 164.285714 0.443329951 164.285714 3.91093117 116.233766 3.91093117 121.096561 0"></polyline>
                        <path d="M112.987013,7.17004049 L157.91492,7.17004049 C158.451487,7.17004049 158.979707,7.03719178 159.452433,6.78335194 L162.524778,5.13359347 C162.841051,4.96376442 162.959767,4.56970114 162.789938,4.25342849 C162.676686,4.04251846 162.456669,3.91093117 162.217276,3.91093117 L112.987013,3.91093117 L112.987013,7.17004049 Z" id="Path-2" fill="url(#linearGradient-13)"></path>
                        <path d="M9.74025974,7.17004049 L54.6681663,7.17004049 C55.2047336,7.17004049 55.7329537,7.03719178 56.2056797,6.78335194 L59.2780251,5.13359347 C59.5942978,4.96376442 59.7130138,4.56970114 59.5431848,4.25342849 C59.4299323,4.04251846 59.2099158,3.91093117 58.9705225,3.91093117 L9.74025974,3.91093117 L9.74025974,7.17004049 Z" id="Path-2" fill="url(#linearGradient-13)"></path>
                        <rect id="Rectangle" fill="url(#linearGradient-15)" x="4.54545455" y="0" width="120.779221" height="3.91093117" rx="1.95"></rect>
                    </g>
                    <g id="Group-8" transform="translate(19.480519, 6.473684)">
                        <g id="Path-8" transform="translate(24.675325, 62.252652)">
                            <mask id="mask-17" fill="white">
                                <use xlink:href="#path-16"></use>
                            </mask>
                            <use id="Mask" fill="#171E52" fill-rule="nonzero" xlink:href="#path-16"></use>
                            <path d="M7.78699625,0.317155132 C4.90540666,0.506874875 -2.00514818,-1.31603206 6.34076996,8.10730287 C14.6866881,17.5306378 24.7435376,24.6111199 29.0520762,24.3274518 C33.3606149,24.0437838 35.0973447,13.4377057 29.0520762,6.6120229 C23.0068077,-0.213659862 10.6685858,0.127435389 7.78699625,0.317155132 Z" fill="#000000" fill-rule="nonzero" opacity="0.0813616071" mask="url(#mask-17)"></path>
                        </g>
                        <path d="M2.5974026,88.7058061 C2.5974026,91.979553 2.84844799,79.9108236 9.33914529,85.5286512 C11.9555012,87.7931593 15.8651693,89.7192465 18.2172617,92.4079448 C25.3692838,100.583487 60.8946934,97.5993082 60.475856,99.8784906 C60.0570186,102.157673 58.7719841,103.160116 57.5947234,108.847326 C56.7212204,113.067117 54.7719711,124.621897 51.7469754,143.511667 C55.2125736,144.766659 58.2477392,145.394154 60.8524722,145.394154 C63.4281394,145.394154 68.3983999,127.200006 72.212574,115.640313 C74.1842242,109.664794 76.8155477,104.560465 77.3238517,102.23029 C82.1867686,79.937625 56.2342049,87.0016713 48.1546749,80.7670427 C42.7683216,76.6106236 34.2147195,75.1389356 22.4938687,76.3519787 C9.22955795,78.850554 2.5974026,82.9684964 2.5974026,88.7058061 Z" id="Path-6" fill="#1A2366" fill-rule="nonzero"></path>
                        <path d="M22.4733409,12.6219476 L22.8026818,22.0889291 C26.3192505,23.0893418 28.6800353,23.6591939 29.8850363,23.7984854 C31.6925377,24.0074227 30.4857273,21.6368946 32.6052633,21.7453127 C34.7247992,21.8537308 34.1531493,18.6539267 34.4999238,18.6290188 C36.0240428,18.5195453 40.7279809,19.7851452 41.2824068,19.0698598 C41.9629782,18.1918295 42.3284644,13.0512163 42.6053776,12.2352788 C42.856145,11.4963811 43.2564767,1.24234532 44.1487076,0.733751606 C44.6570961,0.443957532 41.456192,2.22447427 38.0141662,5.55516626 C34.5721405,8.88585825 32.5478281,11.3409468 31.4431151,12.1256813 C30.7427983,12.6231524 27.9968366,12.5661183 23.2052301,11.9545791 L23.2052291,11.9545871 C22.8491368,11.9091401 22.523625,12.1609678 22.4781779,12.51706 C22.4737397,12.5518349 22.4721221,12.5869118 22.4733409,12.6219476 Z" id="Path-9" fill="#FFEDDA" fill-rule="nonzero" transform="translate(33.337575, 12.257342) rotate(2.000000) translate(-33.337575, -12.257342) "></path>
                        <g id="Path-2" transform="translate(78.404172, 53.719460) scale(1, -1) rotate(74.000000) translate(-78.404172, -53.719460) translate(64.904172, 21.719460)">
                            <mask id="mask-19" fill="white">
                                <use xlink:href="#path-18"></use>
                            </mask>
                            <use id="Mask" fill="#FFEDDA" fill-rule="nonzero" xlink:href="#path-18"></use>
                            <path d="M11.0379706,3.02834343 C9.61602752,1.89966696 9.65226787,-2.66501327 7.61449962,2.04294304 C5.57673138,6.75089934 11.2858986,14.8270982 10.213359,17.8740077 C9.14081946,20.9209171 4.69512635,26.5892091 1.45386483,36.579292 C-0.706976174,43.2393472 -2.94772963,51.0833123 -5.26839553,60.1111873 L7.94697989,51.8911798 C9.41688604,42.936599 10.9979616,35.8301445 12.6902064,30.5718162 C15.2285738,22.6843237 19.2862559,20.5622096 19.2862559,14.5370597 C19.2862559,8.51190976 12.4599137,4.1570199 11.0379706,3.02834343 Z" fill="#F8E7D5" fill-rule="nonzero" mask="url(#mask-19)" transform="translate(7.008930, 30.032899) scale(-1, -1) translate(-7.008930, -30.032899) "></path>
                        </g>
                        <g id="Path-4" transform="translate(0.000000, 20.536053)">
                            <mask id="mask-21" fill="white">
                                <use xlink:href="#path-20"></use>
                            </mask>
                            <use id="Mask" fill="#ECACF9" fill-rule="nonzero" xlink:href="#path-20"></use>
                            <path d="M33.1648495,72.6165889 C37.4028557,71.9305269 38.0786854,61.3353773 38.5081787,57.8677276 C38.937672,54.4000779 34.7331991,55.8545093 35.8365141,51.046064 C36.9398291,46.2376187 40.159583,48.0473295 42.0302842,42.5177584 C43.9009854,36.9881874 43.542653,33.6438509 43.3449517,28.8520123 C43.1472503,24.0601736 40.492043,23.9059518 41.0878376,19.6749586 C41.6836322,15.4439653 47.3311165,17.6253169 45.6412469,12.5450345 C43.9513772,7.46475205 41.0521618,5.61226664 35.8365141,3.88782002 C30.6208664,2.1633734 34.1191256,-0.27987436 24.8584458,5.67362885 C15.597766,11.6271321 11.8411889,7.11834619 7.12757637,22.3442138 C2.41396387,37.5700814 0.111477965,49.4011425 7.12757637,62.9477197 C14.1436748,76.4942969 28.9268432,73.3026509 33.1648495,72.6165889 Z" id="Path-5" fill-opacity="0.0562443388" fill="#000000" fill-rule="nonzero" mask="url(#mask-21)" transform="translate(24.321433, 37.665086) rotate(-31.000000) translate(-24.321433, -37.665086) "></path>
                            <path d="M8.92857143,54.0230243 C9.79097044,50.0085125 10.4693291,45.4885405 10.9636473,40.4631082 C11.1662081,38.4037966 10.992899,35.0541106 10.9636473,33.2157581 C10.8858228,28.3247873 11.1482838,24.7467281 11.6762594,24.4634253 C12.4026834,24.0736385 13.6885252,31.8164658 13.6885252,37.3967463 C13.6885252,41.1169334 13.8834083,46.3421296 14.2731745,53.0723351 L8.92857143,54.0230243 Z" fill-opacity="0.181253" fill="#000000" fill-rule="nonzero" mask="url(#mask-21)"></path>
                            <path d="M49.4474061,42.6154562 C47.1276075,43.6416032 44.2474273,42.6036721 44.2474273,36.1084521 C44.2474273,31.1325921 48.444327,28.2976902 50.2605537,25.4151419 C50.8151316,24.5349668 54.8804225,18.7990775 55.399623,18.5694128 C57.6191903,17.5876024 54.2727627,26.202993 54.2727627,31.6738141 C54.2727627,37.1446352 51.7672047,41.5893093 49.4474061,42.6154562 Z" id="Path-3" fill-opacity="0.094457654" fill="#000000" fill-rule="nonzero" opacity="0.257366071" mask="url(#mask-21)" transform="translate(50.203684, 30.724868) rotate(-37.000000) translate(-50.203684, -30.724868) "></path>
                        </g>
                        <path d="M48.3285698,148.49328 C47.35303,150.157383 37.1742948,149.721559 32.1787816,148.49328 C27.1832684,147.265 24.7876776,145.014449 25.9709105,142.996057 C27.1541435,140.977665 24.228489,137.081889 32.1787816,139.036679 C40.1290743,140.991469 49.3041097,146.829176 48.3285698,148.49328 Z" id="Path-7" fill="#141030" fill-rule="nonzero" transform="translate(37.036567, 144.043526) rotate(-13.997165) translate(-37.036567, -144.043526) "></path>
                        <path d="M72.4381053,149.802365 C71.4625654,151.466468 61.2838303,151.030644 56.288317,149.802365 C51.2928038,148.574086 48.897213,146.323534 50.080446,144.305142 C51.2636789,142.28675 48.3380244,138.390974 56.288317,140.345764 C64.2386097,142.300554 73.4136451,148.138261 72.4381053,149.802365 Z" id="Path-7" fill="#1B163D" fill-rule="nonzero" transform="translate(61.146102, 145.352611) rotate(-8.000000) translate(-61.146102, -145.352611) "></path>
                        <path d="M41.6149308,13.4353314 C42.0999517,16.3525593 42.3977693,18.9571446 42.0693574,19.6901957 C41.3227074,21.3568 38.5622751,21.3621339 33.7880607,19.7061977 C33.6905951,18.4934668 33.769208,17.625468 34.0238993,17.1022013 C34.5765024,15.9668709 35.8241435,15.1434293 36.6333292,12.6677321 C37.1727863,11.0172672 37.5921569,9.42223013 37.8914409,7.88262077 C38.1298324,7.38667039 38.3494331,6.91245167 38.5514114,6.45898187 C38.8128419,6.84224469 39.0450659,7.37718346 39.1609682,8.19251655 C39.5502337,10.9308664 38.3638309,14.6616779 39.1609682,17.354927 C39.9581055,20.0481762 40.7752246,18.2463327 41.2706438,15.6475205 C41.3732095,15.109493 41.4937207,14.3340756 41.6149308,13.4353314 Z" id="Combined-Shape" fill="#4D341D" fill-rule="nonzero"></path>
                        <path d="M42.2077922,6.847794 C43.9393939,9.08590086 44.8051948,10.5630545 44.8051948,11.279255 C44.8051948,11.9954555 44.173586,12.1296201 42.9103683,11.681749 L42.2077922,6.847794 Z" id="Path-12-Copy" fill="#FFEDDA" fill-rule="nonzero"></path>
                    </g>
                    <g id="Group" transform="translate(0.000000, 44.279352)">
                        <path d="M8.44155844,59.1329614 L13.3140205,59.1329614 L16.8831169,112.082348 C16.4717328,112.537571 15.9947326,112.765182 15.4521165,112.765182 C14.9095003,112.765182 14.5041134,112.537571 14.2359559,112.082348 L8.44155844,59.1329614 Z" id="Path" fill="url(#linearGradient-22)" fill-rule="nonzero" transform="translate(12.662338, 85.949072) scale(-1, 1) translate(-12.662338, -85.949072) "></path>
                        <path d="M38.961039,59.1329614 L43.8335011,59.1329614 L47.4025974,112.082348 C46.9912133,112.537571 46.5142132,112.765182 45.971597,112.765182 C45.4289808,112.765182 45.0235939,112.537571 44.7554364,112.082348 L38.961039,59.1329614 Z" id="Path" fill="url(#linearGradient-22)" fill-rule="nonzero" transform="translate(43.181818, 85.949072) scale(-1, 1) translate(-43.181818, -85.949072) "></path>
                        <path d="M40.9090909,59.1329614 L45.781553,59.1329614 L49.3506494,112.082348 C48.9392653,112.537571 48.4622651,112.765182 47.9196489,112.765182 C47.3770327,112.765182 46.9716459,112.537571 46.7034884,112.082348 L40.9090909,59.1329614 Z" id="Path" fill="url(#linearGradient-23)" fill-rule="nonzero"></path>
                        <path d="M71.4285714,59.1329614 L76.3010335,59.1329614 L79.8701299,112.082348 C79.4587458,112.537571 78.9817456,112.765182 78.4391294,112.765182 C77.8965133,112.765182 77.4911264,112.537571 77.2229689,112.082348 L71.4285714,59.1329614 Z" id="Path" fill="url(#linearGradient-23)" fill-rule="nonzero"></path>
                        <g id="Path-2">
                            <mask id="mask-26" fill="white">
                                <use xlink:href="#path-25"></use>
                            </mask>
                            <use id="Mask" fill="url(#linearGradient-24)" fill-rule="nonzero" xlink:href="#path-25"></use>
                            <path d="M33.2251305,11.273377 L42.3153573,65.1318799 L7.90694472,66.402456 L-4.35534218,6.39696897 L27.4567149,6.39696897 C30.3118782,6.39696897 32.7499572,8.45803191 33.2251305,11.273377 Z" fill="url(#linearGradient-24)" fill-rule="nonzero" mask="url(#mask-26)"></path>
                        </g>
                    </g>
                    <g id="Path-23" fill-rule="nonzero">
                        <use fill="#000000" xlink:href="#path-29"></use>
                        <use fill="url(#linearGradient-27)" xlink:href="#path-29"></use>
                        <use fill="url(#linearGradient-28)" xlink:href="#path-29"></use>
                    </g>
                    <path d="M56.8715601,0.500995925 C49.5549172,-0.938188789 43.9348603,2.70327933 40.0113897,11.4254003 L62.4269256,13.5863347 C66.0399915,6.30196023 64.188203,1.94018064 56.8715601,0.500995925 Z" id="Path-24" fill="url(#linearGradient-30)" fill-rule="nonzero" transform="translate(52.114944, 6.890787) rotate(-11.000000) translate(-52.114944, -6.890787) "></path>
                </g>
                <g id="Group-5" transform="translate(216.000000, 134.000000)" fill="#FFFFFF" fill-opacity="0.702870245" fill-rule="nonzero">
                    <rect id="Rectangle-24" x="0" y="0" width="13" height="2" rx="1"></rect>
                    <rect id="Rectangle-24-Copy" x="0" y="6" width="16" height="2" rx="1"></rect>
                    <rect id="Rectangle-24-Copy-2" x="0" y="9" width="16" height="2" rx="1"></rect>
                    <rect id="Rectangle-24-Copy-3" x="0" y="12" width="16" height="2" rx="1"></rect>
                    <rect id="Rectangle-24-Copy-4" x="0" y="15" width="16" height="2" rx="1"></rect>
                    <rect id="Rectangle-24-Copy-5" x="0" y="18" width="16" height="2" rx="1"></rect>
                </g>
                <g id="Group-5-Copy" transform="translate(243.000000, 134.000000)" fill="#FFFFFF" fill-opacity="0.702870245" fill-rule="nonzero">
                    <rect id="Rectangle-24" x="0" y="0" width="13" height="2" rx="1"></rect>
                    <rect id="Rectangle-24-Copy" x="0" y="6" width="16" height="2" rx="1"></rect>
                    <rect id="Rectangle-24-Copy-2" x="0" y="9" width="16" height="2" rx="1"></rect>
                    <rect id="Rectangle-24-Copy-3" x="0" y="12" width="16" height="2" rx="1"></rect>
                    <rect id="Rectangle-24-Copy-4" x="0" y="15" width="16" height="2" rx="1"></rect>
                    <rect id="Rectangle-24-Copy-5" x="0" y="18" width="16" height="2" rx="1"></rect>
                </g>
                <g id="Group-5-Copy-2" transform="translate(272.000000, 134.000000)" fill="#FFFFFF" fill-opacity="0.702870245" fill-rule="nonzero">
                    <rect id="Rectangle-24" x="0" y="0" width="13" height="2" rx="1"></rect>
                    <rect id="Rectangle-24-Copy" x="0" y="6" width="16" height="2" rx="1"></rect>
                    <rect id="Rectangle-24-Copy-2" x="0" y="9" width="16" height="2" rx="1"></rect>
                    <rect id="Rectangle-24-Copy-3" x="0" y="12" width="16" height="2" rx="1"></rect>
                    <rect id="Rectangle-24-Copy-4" x="0" y="15" width="16" height="2" rx="1"></rect>
                    <rect id="Rectangle-24-Copy-5" x="0" y="18" width="16" height="2" rx="1"></rect>
                </g>
                <rect id="Rectangle-26" fill="#FFFFFF" fill-rule="nonzero" x="256" y="82" width="85" height="3"></rect>
                <g id="Group" transform="translate(328.000000, 171.000000)">
                    <g id="Path-6" transform="translate(25.000000, 9.000000)">
                        <mask id="mask-32" fill="white">
                            <use xlink:href="#path-31"></use>
                        </mask>
                        <use id="Mask" fill="#11228B" fill-rule="nonzero" xlink:href="#path-31"></use>
                        <path d="M22.7705143,52.0668412 C22.134454,49.6348369 19.382114,62.2756774 17.3395645,61.3420231 C15.2970149,60.4083687 15.6683712,49.8388581 14.8809676,48.4605104 C14.093564,47.0821627 13.8208931,52.0668412 12.0409655,52.0668412 C10.2610379,52.0668412 10.7060867,49.6796152 8.33383695,48.4605104 C5.96158725,47.2414055 4.83503444,35.9551559 3.24191399,47.5449874 C1.64879355,59.1348188 0.217846313,71.3115531 4.31245657,77.7157503 C8.40706682,84.1199476 16.6095547,81.396639 20.9919271,75.3069911 C25.3742996,69.2173432 23.4065746,54.4988454 22.7705143,52.0668412 Z" fill-opacity="0.0866168478" fill="#000000" fill-rule="nonzero" mask="url(#mask-32)"></path>
                        <path d="M6.88749282,72.0910721 C7.84644995,58.060199 9.32443158,44.850197 11.3214377,32.4610661 C13.3184438,20.0719353 15.6439218,9.68583653 18.2978715,1.30276981" id="Path-3" stroke-opacity="0.0437330163" stroke="#000000" fill-rule="nonzero" mask="url(#mask-32)"></path>
                    </g>
                    <g id="Path-4">
                        <mask id="mask-34" fill="white">
                            <use xlink:href="#path-33"></use>
                        </mask>
                        <use id="Mask" fill="#4C5DC7" fill-rule="nonzero" xlink:href="#path-33"></use>
                        <path d="M24.4651478,81.495904 C18.0658917,59.3051819 13.8334246,43.5498289 11.7677465,34.229845 C9.70206844,24.9098611 7.91893375,13.4615406 6.41834247,-0.115116379" stroke="#000000" opacity="0.140848214" fill-rule="nonzero" mask="url(#mask-34)"></path>
                        <path d="M30.0535827,40.9514061 C28.1721555,44.7025149 26.7775547,45.3085744 26.7775547,49.3997244 C26.7775547,53.4908744 30.5557993,54.6118447 30.0535827,57.5290053 C29.551366,60.4461659 28.2057248,58.1048372 24.7731731,61.0423154 C21.3406213,63.9797935 19.6228147,65.7810281 18.1222405,67.7395017 C16.6216662,69.6979753 18.3389588,72.433516 15.6948498,72.8908836 C13.0507407,73.3482513 9.69283656,64.4221967 9.69283656,69.1975871 C9.69283656,73.9729775 6.96768714,82.1084879 15.6948498,87.5373644 C24.4220124,92.9662409 32.3610086,99.7155944 36.9238775,86.1371086 C41.4867465,72.5586228 32.2965521,40.6936037 32.0284978,38.9306193 C31.7604434,37.1676348 31.9350098,37.2002972 30.0535827,40.9514061 Z" id="Path-5" fill-opacity="0.106119792" fill="#000000" fill-rule="nonzero" mask="url(#mask-34)"></path>
                    </g>
                    <ellipse id="Oval" fill-opacity="0.1" fill="#000000" fill-rule="nonzero" cx="28" cy="110.5" rx="28" ry="1.5"></ellipse>
                    <g id="Path" transform="translate(10.000000, 82.000000)">
                        <mask id="mask-36" fill="white">
                            <use xlink:href="#path-35"></use>
                        </mask>
                        <use id="Mask" fill="#B9DAFF" fill-rule="nonzero" xlink:href="#path-35"></use>
                        <path d="M-7.51627385,-0.242146529 C-6.12564151,0.642422477 -5.43032534,1.50804584 -5.43032534,2.35472356 C-5.43032534,3.62474014 -3.73255336,22.5130959 -3.27049417,24.8992447 C-2.9624547,26.4900106 -1.96147255,27.9334587 -0.267547713,29.2295891 L25.9918986,29.2295891 C27.3437632,27.5296656 28.216781,26.0862175 28.6109521,24.8992447 C29.2022087,23.1187856 29.8034223,3.79864684 29.9783576,2.35472356 C30.0949812,1.39210803 30.6987014,0.526484673 31.7895182,-0.242146529 L-7.51627385,-0.242146529 Z" fill="#C2DDFD" fill-rule="nonzero" mask="url(#mask-36)"></path>
                    </g>
                </g>
                <g id="Group-Copy" transform="translate(319.500000, 258.000000) scale(-1, 1) translate(-319.500000, -258.000000) translate(288.000000, 232.000000)" fill-rule="nonzero">
                    <path d="M9.7810277,39.6494923 C11.785119,38.865455 13.2565796,35.3473425 14.6550117,34.6711936 C16.0534437,33.9950447 17.5081569,35.5383881 19.4500677,35.0043591 C20.7446749,34.6483397 21.511319,33.8869062 21.75,32.7200587 L16.9009769,27.884058 C13.3736185,29.0619626 11.0003022,30.1099227 9.7810277,31.0279381 C7.95211601,32.4049612 9.39753828,32.9783007 7.8865517,34.6711936 C6.37556512,36.3640866 3.30792405,36.9284189 3.80357458,38.230888 C4.2992251,39.5333571 7.7769364,40.4335297 9.7810277,39.6494923 Z" id="Path-8" fill="url(#linearGradient-37)"></path>
                    <path d="M46.1196171,41.5692383 C47.4990733,43.7497379 48.1888014,45.3922239 48.1888014,46.4966962 C48.1888014,47.6011685 47.4990733,48.5359559 46.1196171,49.3010584 C43.8681643,50.5979373 43.6501652,51.2463768 45.4656197,51.2463768 C47.2810742,51.2463768 48.9447078,51.2463768 50.4565207,51.2463768 C51.3294713,50.3832164 52.0478534,48.9033505 52.6116671,46.8067792 C53.1754807,44.7102079 53.365799,41.6683346 53.182622,37.6811594 L46.1196171,41.5692383 Z" id="Path-7" fill="url(#linearGradient-37)"></path>
                    <path d="M55.5,24.4366525 C57.9921238,22.7776194 59.2381856,20.3502626 59.2381856,17.1545818 C59.2381856,12.3610607 58.5968004,7.60751833 60.8997156,8.37101453 C63.2026308,9.13451073 63.2026308,12.7615609 62.7930528,17.7089255 C62.5200008,21.0071686 61.2833165,24.1476717 59.0829998,27.1304348 L55.5,24.4366525 Z" id="Path-6" fill="url(#linearGradient-37)"></path>
                    <path d="M28.5705337,16.8648275 C31.4850243,16.3041986 33.7736211,16.7821014 41.3004684,18.2591576 C48.8273156,19.7362138 52.3279806,21.0371218 56.2615136,24.2752318 C60.1950466,27.5133419 61.592944,30.491952 62.5692771,34.7034761 C63.5456102,38.9150002 62.6385509,45.9121846 62.0457047,47.7035554 C61.6504739,48.8978026 60.8792507,50.3299508 59.732035,52 C58.9571336,52 57.3530889,52 54.9199008,52 C51.2701187,52 56.749968,47.8436701 56.749968,45.7798259 C56.749968,43.7159817 55.168384,39.6154736 53.5473902,39.6154736 C51.9263963,39.6154736 51.1501913,40.9136096 45.3233425,41.7056234 C39.4964936,42.4976372 35.2979133,40.6644543 34.6057092,41.7056234 C33.9135051,42.7467925 34.8723274,50.8721522 33.5326677,51.2567125 C33.1656956,51.3620548 26.7397217,51.4286511 26.4222508,51.2567125 C25.6729315,50.8508896 29.0094971,50.2808277 28.5705337,47.7035554 C28.1445849,45.2026952 25.434211,38.2454363 23.8604841,37.0248338 C22.2867572,35.8042314 20.898263,33.5960907 19.6546032,32.3055626 C15.2217025,27.7056043 15.5594982,21.6205476 14.1971397,20.5279399 C12.8347813,19.4353323 8.99143326,20.1406491 6.26163132,19.651654 C3.53182937,19.1626589 1.12565039,16.1172235 0.281412598,12.5282792 C-0.281412598,10.1356497 0,6.80870569 1.12565039,2.54744722 L0.281412598,2.54744722 L3.27566511,2.54744722 L5.14301624,0.458402153 C15.5384437,-0.331723541 20.9524871,-0.100423057 21.3851463,1.15230361 C22.034135,3.0313936 20.5277198,15.5414753 21.3851463,17.5317378 C22.2425727,19.5220002 25.6560431,17.4254563 28.5705337,16.8648275 Z" id="Path" fill="url(#linearGradient-38)"></path>
                    <path d="M1.5,2.13694428 C2.59852396,2.30217799 3.47410367,2.30217799 4.12673914,2.13694428 C4.7793746,1.97171056 5.40379489,1.409109 6,0.449139596 L1.5,0 L1.5,2.13694428 Z" id="Path-2" fill="#0E1A29"></path>
                    <path d="M2.40419118,17.9966822 C2.7676849,18.5277962 2.93957812,16.5737042 5.3951156,15.8264975 C7.85065308,15.0792908 9.25321138,15.8773463 11.0603445,15.3626619 C12.2650999,15.0195389 13.0783184,14.4047078 13.5,13.5181686 C10.3156689,12.5760694 7.61404073,12.5760694 5.3951156,13.5181686 C2.0667279,14.9313173 2.04069745,17.4655682 2.40419118,17.9966822 Z" id="Path-3" fill="url(#linearGradient-39)"></path>
                    <path d="M19.5,0.753623188 C20.4407948,19.2985587 21.2274688,19.776264 21.8600219,19.5323829 C22.8088515,19.1665611 28.4577779,16.7492047 30.0294337,15.0864906 C31.6010894,13.4237765 31.7865762,10.4245533 31.1776709,8.17870967 C30.5687655,5.932866 27.3355136,2.22104161 25.8544739,1.57533125 C24.8671141,1.14485767 22.7489561,0.870954987 19.5,0.753623188 Z" id="Path-4" fill="url(#linearGradient-37)"></path>
                    <path d="M15.266063,3.88161306 C15.7937882,4.20478917 16.1776611,4.66937225 16.4176815,5.27536232 C16.6096996,4.20889408 16.4657881,3.52873391 15.9859471,3.23488182 C15.506106,2.94102973 14.677457,2.94102973 13.5,3.23488182 C14.1496501,3.34285988 14.7383377,3.55843696 15.266063,3.88161306 Z" id="Path-5" fill="#A2CBF7"></path>
                </g>
            </g>
        </g>
    </g>
</svg>