<?xml version="1.0" encoding="UTF-8"?>
<svg width="458px" height="341px" viewBox="0 0 458 341" version="1.1" xmlns="http://www.w3.org/2000/svg" xmlns:xlink="http://www.w3.org/1999/xlink">
    <!-- Generator: Sketch 51.3 (57544) - http://www.bohemiancoding.com/sketch -->
    <title>Group 5</title>
    <desc>Created with Sketch.</desc>
    <defs>
        <path d="M363.839042,322.225108 C411.563644,296.742569 481.403123,275.67125 449.900204,222.606692 C418.397285,169.542134 475.895965,-11.7948959 373.740429,16.9725343 C329.25444,29.4999767 278.889225,-1.44257971 229.105307,0.387942441 C164.567774,2.7609454 102.548791,35.6430318 71.5243139,35.6430318 C16.5677159,35.6430318 -36.8940233,213.437741 35.5573519,269.157699 C108.008727,324.877658 86.4113015,355.960936 164.028975,333.262341 C241.646648,310.563746 316.11444,347.707648 363.839042,322.225108 Z" id="path-1"></path>
        <linearGradient x1="54.8523608%" y1="-24.1471968%" x2="13.5566735%" y2="379.608354%" id="linearGradient-3">
            <stop stop-color="#354A76" offset="0%"></stop>
            <stop stop-color="#A6C6EC" offset="100%"></stop>
        </linearGradient>
        <linearGradient x1="90.4121613%" y1="-2.98962855%" x2="50%" y2="100%" id="linearGradient-4">
            <stop stop-color="#627CB4" offset="0%"></stop>
            <stop stop-color="#A6C6EC" offset="100%"></stop>
        </linearGradient>
        <linearGradient x1="50%" y1="100%" x2="0%" y2="-44.9908651%" id="linearGradient-5">
            <stop stop-color="#455984" offset="0%"></stop>
            <stop stop-color="#A6C6EC" offset="100%"></stop>
        </linearGradient>
        <path d="M0.0890517944,0.0723593825 C1.60434111,15.4211439 2.6439997,27.8653897 3.20802758,37.4050967 C4.05406939,51.7146572 4.67043457,68.8341241 4.67043457,77.5597517 C4.67043457,78.5859297 4.67043457,80.2952503 4.67043457,82.6877136 L13.0663615,82.6877136 C13.8007324,75.3046728 13.8007324,63.4670141 13.0663615,47.1747376 C12.3319906,30.882461 9.88812085,15.1816683 5.73475235,0.0723593825 L0.0890517944,0.0723593825 Z" id="path-6"></path>
        <linearGradient x1="50%" y1="21.948487%" x2="46.1180633%" y2="115.844652%" id="linearGradient-8">
            <stop stop-color="#183258" offset="0%"></stop>
            <stop stop-color="#141D33" stop-opacity="0.409363678" offset="100%"></stop>
        </linearGradient>
        <linearGradient x1="238.811739%" y1="151.316554%" x2="75.7474301%" y2="-134.005232%" id="linearGradient-9">
            <stop stop-color="#354A76" offset="0%"></stop>
            <stop stop-color="#A6C6EC" offset="100%"></stop>
        </linearGradient>
        <linearGradient x1="216.295153%" y1="198.522949%" x2="75.7474301%" y2="-134.005232%" id="linearGradient-10">
            <stop stop-color="#354A76" offset="0%"></stop>
            <stop stop-color="#A6C6EC" offset="100%"></stop>
        </linearGradient>
        <linearGradient x1="133.547714%" y1="110.385249%" x2="75.7474301%" y2="-134.005232%" id="linearGradient-11">
            <stop stop-color="#354A76" offset="0%"></stop>
            <stop stop-color="#A6C6EC" offset="100%"></stop>
        </linearGradient>
        <linearGradient x1="122.559995%" y1="113.011534%" x2="-122.207558%" y2="-55.0973305%" id="linearGradient-12">
            <stop stop-color="#354A76" offset="0%"></stop>
            <stop stop-color="#A6C6EC" offset="100%"></stop>
        </linearGradient>
        <linearGradient x1="-57.4944544%" y1="57.1251344%" x2="127.461615%" y2="12.7689784%" id="linearGradient-13">
            <stop stop-color="#354A76" offset="0%"></stop>
            <stop stop-color="#A6C6EC" offset="100%"></stop>
        </linearGradient>
        <linearGradient x1="0%" y1="64.9853306%" x2="201.164553%" y2="-57.4174498%" id="linearGradient-14">
            <stop stop-color="#354A76" offset="0%"></stop>
            <stop stop-color="#A6C6EC" offset="100%"></stop>
        </linearGradient>
        <linearGradient x1="50%" y1="106.832679%" x2="108.156704%" y2="-93.7471946%" id="linearGradient-15">
            <stop stop-color="#354A76" offset="0%"></stop>
            <stop stop-color="#A6C6EC" offset="100%"></stop>
        </linearGradient>
        <linearGradient x1="111.035159%" y1="-14.064391%" x2="1.89128765%" y2="97.7817139%" id="linearGradient-16">
            <stop stop-color="#CDE5FF" offset="0%"></stop>
            <stop stop-color="#B0D3EF" offset="100%"></stop>
        </linearGradient>
        <path d="M0.335761473,3.11626939 L0.335761473,4.47899398 C0.335761473,5.03127873 0.783476723,5.47899398 1.33576147,5.47899398 C1.39847957,5.47899398 1.46105859,5.47309367 1.52267141,5.46137103 L10.3714139,3.77778335 C10.8431615,3.68802729 11.184504,3.27561653 11.184504,2.7954063 L11.184504,1.23453738 C11.184504,0.682252626 10.7367888,0.234537376 10.184504,0.234537376 C10.1145954,0.234537376 10.0448795,0.241868142 9.97649992,0.256409421 L1.12775738,2.13814144 C0.665961007,2.23634488 0.335761473,2.64414673 0.335761473,3.11626939 Z" id="path-17"></path>
        <path d="M0.425328866,4.40125843 L0.425328866,5.93354104 C0.425328866,6.48582579 0.873044116,6.93354104 1.42532887,6.93354104 C1.49565538,6.93354104 1.5657857,6.92612237 1.63455568,6.91140817 L10.4554789,5.02406214 C10.9166936,4.92537954 11.2462521,4.51784872 11.2462521,4.046195 L11.2462521,2.24433717 C11.2462521,1.69205242 10.7985369,1.24433717 10.2462521,1.24433717 C10.166217,1.24433717 10.0864713,1.25394547 10.0087267,1.27295583 L1.1878035,3.4298771 C0.740198124,3.53932704 0.425328866,3.94046579 0.425328866,4.40125843 Z" id="path-19"></path>
        <path d="M0.848746834,4.69742328 L23.6565078,0.10337812 C24.1979187,-0.0056753818 24.7252243,0.344819553 24.8342778,0.886230468 C24.8473712,0.951234509 24.8539666,1.0173797 24.8539666,1.0836893 L24.8539666,2.01733311 C24.8539666,2.48838001 24.5252368,2.89555949 24.0647756,2.99486039 L1.25701461,7.91347504 C0.7171412,8.02990161 0.185104949,7.68663012 0.0686783834,7.1467567 C0.0537388953,7.07748186 0.0462056663,7.00681519 0.0462056663,6.93594776 L0.0462056663,5.67773446 C0.0462056663,5.20156822 0.381955741,4.79144651 0.848746834,4.69742328 Z" id="path-21"></path>
        <path d="M1.46730569,3.87578477 L17.0921677,0.760481909 C17.6337918,0.652492273 18.1604078,1.00402247 18.2683974,1.54564659 C18.2812347,1.61003243 18.2877002,1.675526 18.2877002,1.74117912 L18.2877002,3.0811241 C18.2877002,3.55513905 17.9549083,3.96403038 17.4907698,4.06028841 L1.86590783,7.30074006 C1.32513032,7.41289231 0.795826164,7.06542288 0.683673917,6.52464537 C0.66981982,6.45784346 0.662838221,6.38979915 0.662838221,6.32157576 L0.662838221,4.85648198 C0.662838221,4.37957722 0.999606516,3.96903516 1.46730569,3.87578477 Z" id="path-23"></path>
        <linearGradient x1="111.035159%" y1="-14.064391%" x2="4.42963184%" y2="95.1805242%" id="linearGradient-25">
            <stop stop-color="#ABD3FF" offset="0%"></stop>
            <stop stop-color="#E4EEFF" offset="100%"></stop>
        </linearGradient>
        <path d="M5.94305382,4.53931046 C1.98101794,6.2992576 5.24621785e-17,8.85960526 0,12.2203534 C0,14.1380186 2.89549512,17.0054166 6.72945222,20.2961757 C8.27489422,21.6226583 10.5842763,22.7509039 11.9736218,24.3258647 C16.1982135,29.1148581 21.0271307,33.2614847 20.7345583,36.6370967 C20.441986,40.0127087 19.0584678,42.2396693 18.3630776,45.5710701 C17.8471126,48.0429003 17.1346275,53.7981416 16.2256223,62.8367939 C16.112016,61.4183253 16.8245011,60.7090909 18.3630776,60.7090909 C19.8844854,60.7090909 22.4367818,52.3423999 24.689757,45.5710701 C25.854381,42.070786 27.4190188,39.0844007 27.7089116,37.7158708 C28.5596046,33.699908 27.4197809,24.5014734 25.916592,18.0824402 C24.4134031,11.663407 21.6254128,11.0420397 20.7345583,7.933449 C20.1406554,5.86105518 20.1406554,3.21657218 20.7345583,0 L5.94305382,4.53931046 Z" id="path-26"></path>
        <path d="M-1.13686838e-13,0.0549587971 C0.286340672,0.824122896 0.485474091,3.68003563 0.597400256,8.622697 C0.765289503,16.036689 1.46510353,15.4121165 1.5205106,23.5871357 C1.57591766,31.762155 2.08090838,41.9157173 2.13631544,44.2523009 C2.17325348,45.8100232 3.22456481,46.1557506 5.29024944,45.289483 C6.54845001,35.0547097 7.3211651,27.5156223 7.60839472,22.6722209 C7.89562434,17.8288195 7.89562434,12.3380205 7.60839472,6.19982366 L-1.13686838e-13,0.0549587971 Z" id="path-28"></path>
        <path d="M7.35787897,0.0391262628 C6.75520568,-0.283430063 7.06802792,1.45509698 6.20434462,2.80054993 C5.34066132,4.14600288 4.64856855,4.0971109 4.1939857,4.96786522 C3.73940284,5.83861954 4.29904371,6.05229861 2.92527442,8.90729251 C2.00942822,10.8106218 1.03433675,12.3875279 0,13.6380109 L4.1939857,15 C4.81698755,12.4409348 5.48710719,10.4100323 6.20434462,8.90729251 C7.28020076,6.6531828 9,6.04671907 9,4.32483484 C9,2.60295061 7.96055225,0.361682588 7.35787897,0.0391262628 Z" id="path-30"></path>
        <path d="M15.836686,0.334786923 C16.6740858,2.58829892 18.1445185,3.71505491 20.2479839,3.71505491 C23.4031821,3.71505491 21.9636687,6.55188341 25.8979908,8.85384853 C29.832313,11.1558137 29.6618232,29.2751819 30.9126589,32.4006068 C31.7465494,34.4842234 32.7726474,36.8943425 33.9909529,39.6309641 L29.6618232,41.9034365 C28.15279,36.40014 27.1088468,33.2325301 26.5299938,32.4006068 C25.9511407,31.5686835 24.7342165,24.7230644 22.8792211,11.8637495 C25.1722927,13.4318779 25.7455606,15.8175539 24.5990248,19.0207776 C22.8792211,23.8256133 23.0713879,26.0893107 22.8792211,28.5763148 C22.7511099,30.2343176 23.3243778,32.3275476 24.5990248,34.856005 C19.9905031,36.4948812 16.3783927,37.4257101 13.7626936,37.6484918 C11.1469945,37.8712735 7.95456569,37.4553118 4.18540722,36.4006068 L5.20526507,30.4409496 C2.80672608,30.8996236 1.26514837,30.8996236 0.58053194,30.4409496 C-0.446392702,29.7529386 0.930012667,10.1859069 2.33291055,7.52810907 C3.73580844,4.87031129 7.3028134,3.28456917 8.37379479,2.67733548 C9.44477619,2.07010179 8.77073491,0.334786923 10.0813675,0.334786923 C10.9551225,0.334786923 12.873562,0.334786923 15.836686,0.334786923 Z" id="path-32"></path>
        <path d="M0.503159311,37.6034453 C-0.252303925,36.56808 0.0608623018,34.0110492 0.503159311,29.3899458 C0.656956917,27.7830739 0.0814718953,25.7495885 0.503159311,23.6864036 C0.870877812,21.8872717 2.46921057,18.3459209 3.03599288,16.5589433 C4.65265473,11.4618566 5.59927839,5.989436 5.77204795,5.42538296 C6.27460709,3.7846425 8.88848937,0.786172132 10.6828605,0.336341508 C12.4772316,-0.113489115 14.0780003,-0.229080145 15.5493842,0.734512834 C17.0207682,1.69810581 16.6185691,2.88652588 16.840351,4.31771152 C17.0621329,5.74889716 14.7235452,9.239739 14.0292935,10.7018172 C13.566459,11.6765361 13.331629,13.3680851 13.3248036,15.7764644 C11.5045754,20.8471452 10.0929576,24.3979183 9.08995016,26.4287838 C8.23706862,28.1556779 6.55381032,30.2992893 5.77204795,31.556253 C2.71656704,36.4690355 1.24536199,38.620637 0.503159311,37.6034453 Z" id="path-34"></path>
        <path d="M40.6489181,29.4391969 C36.3488082,27.5078669 32.2886885,18.8814815 28.4685591,3.56004074 L28.4685908,3.56003284 C27.86133,1.1244845 25.3946458,-0.357635408 22.9590975,0.24962536 C22.8385929,0.279671038 22.7193705,0.314643381 22.6017305,0.35445433 L22.3746983,0.431284996 C19.4348429,1.4261709 16.2740993,1.57229651 13.2549902,0.852901881 L13.2549902,0.852901881 C10.8724475,0.285188548 8.48079238,1.75639847 7.91307904,4.13894122 C7.89153244,4.22936659 7.87283429,4.32044706 7.85701228,4.41204765 C5.25442402,19.479721 2.92136413,27.5284975 0.857855741,28.5583812 C-1.4090475,29.6897779 2.11198617,29.5101023 11.4209567,28.0193545 L17.7339319,29.1875076 C21.1138839,29.812934 24.5831815,29.7753935 27.9488084,29.0769748 C42.8451977,31.0906776 45.3797036,31.5639584 40.6489181,29.4391969 Z" id="path-36"></path>
        <path d="M0.287405949,0.055409279 C0.727121983,0.830878002 1.03291912,3.71019986 1.20479735,8.69337484 C1.4626147,16.1681373 1.11971208,18.4108266 1.20479735,26.6528542 C1.28988262,34.8948819 1.11971208,40.9492365 1.20479735,43.3049724 C1.26152087,44.875463 3.66369565,45.6607083 8.4113217,45.6607083 C9.77219476,35.3420433 10.6731719,27.7411602 11.114253,22.8580588 C11.5553341,17.9749574 11.8409688,12.4391518 11.9711571,6.25064189 L0.287405949,0.055409279 Z" id="path-38"></path>
        <path d="M8.79934883,0.0745019185 C8.09169645,-0.311513153 8.4590089,1.76904639 7.44488141,3.37919964 C6.43075392,4.9893529 5.61810616,4.93084205 5.08433994,5.97290591 C4.55057372,7.01496978 5.20769791,7.27068742 3.59463302,10.6873641 C2.51925643,12.9651485 1.37431468,14.8522904 0.159807779,16.3487896 L5.08433994,17.9787322 C5.8158619,14.9162044 6.60270906,12.4857483 7.44488141,10.6873641 C8.70813993,7.98978773 10.7275094,7.26401018 10.7275094,5.2033677 C10.7275094,3.14272523 9.50700121,0.46051699 8.79934883,0.0745019185 Z" id="path-40"></path>
        <path d="M18.8456508,0.334786923 C20.1297441,0.567349744 19.0502066,1.81415484 20.5949436,1.81415484 C22.1396806,1.81415484 26.0212711,2.22251792 29.5405797,2.67733548 C33.0598884,3.13215304 36.4540943,4.87031129 37.3633528,4.87031129 C37.9695252,4.87031129 38.6696948,4.13931936 39.4638617,2.67733548 L44.7781135,4.87031129 C43.4114536,8.94170161 42.4016446,11.2951623 41.7486868,11.9306933 C41.095729,12.5662243 36.1394349,12.8839898 26.8798045,12.8839898 C27.2416464,13.9035876 27.2416464,16.0523962 26.8798045,19.3304157 C26.3370416,24.2474449 25.3336401,26.0893107 25.1476181,28.5763148 C25.0236035,30.2343176 25.3787379,31.8705837 26.2130214,33.4851132 C22.1514696,36.0379172 18.854665,37.4257101 16.3226074,37.6484918 C13.7905499,37.8712735 11.0622538,37.0135959 8.13771932,35.0754589 L8.13771932,30.064712 C3.67605938,30.523386 1.1138671,30.523386 0.451142475,30.064712 C-0.54294446,29.3767009 1.27527389,10.1859069 2.63331167,7.52810907 C3.99134945,4.87031129 10.0692932,3.28456917 11.1060281,2.67733548 C12.142763,2.07010179 11.4902754,0.334786923 12.7589981,0.334786923 C14.0277209,0.334786923 17.5615575,0.102224102 18.8456508,0.334786923 Z" id="path-42"></path>
    </defs>
    <g id="Layout" stroke="none" stroke-width="1" fill="none" fill-rule="evenodd">
        <g id="Wiki" transform="translate(-492.000000, -280.000000)">
            <g id="Group-5" transform="translate(492.000000, 280.000000)">
                <g id="Group-3">
                    <mask id="mask-2" fill="white">
                        <use xlink:href="#path-1"></use>
                    </mask>
                    <use id="Mask" fill="#F3F5F8" opacity="0.6734375" xlink:href="#path-1"></use>
                    <g id="Group-7" mask="url(#mask-2)">
                        <g transform="translate(161.000000, 74.000000)">
                            <g id="Group" stroke-width="1" fill="none" fill-rule="evenodd" transform="translate(37.000000, 120.000000)">
                                <polygon id="Path-3" fill="#0D1839" fill-rule="nonzero" points="1.03536364 6.2833135 12.6717858 0.364300024 28.2199377 1.76546959 33.7100172 5.59162135 23.1365022 15.7342486"></polygon>
                                <path d="M0.101733094,5.8860019 C1.65709072,2.35807379 7.47353845,0.455461437 17.5510763,0.178164826 C27.6286141,-0.0991317847 33.3892389,1.76438077 34.8329507,5.76870249 L32.6266933,7.00753308 C29.382033,5.28915436 24.3568273,4.31463523 17.5510763,4.0839757 C12.2806686,3.9053518 7.52205533,4.91476327 3.2752366,7.11221011 L0.101733094,5.8860019 Z" id="Path-2" fill="url(#linearGradient-3)" fill-rule="nonzero"></path>
                                <path d="M0.193139629,5.52775736 L4.65558851,39.9464373 C8.03298624,40.4813288 12.7179074,40.7487745 18.710352,40.7487745 C24.7027966,40.7487745 28.5868445,40.4813288 30.3624957,39.9464373 L34.8044701,5.52775736 C30.4722875,7.15708972 25.1075814,7.97175589 18.710352,7.97175589 C12.3131225,7.97175589 6.14071841,7.15708972 0.193139629,5.52775736 Z" id="Path" fill="url(#linearGradient-4)" fill-rule="nonzero"></path>
                            </g>
                            <g id="Path-5" stroke-width="1" fill="none" fill-rule="evenodd" transform="translate(47.000000, 44.000000)">
                                <mask id="mask-7" fill="white">
                                    <use xlink:href="#path-6"></use>
                                </mask>
                                <use id="Mask" fill="url(#linearGradient-5)" fill-rule="nonzero" xlink:href="#path-6"></use>
                                <path d="M6.46284357,2.98200839 C5.11316516,-0.886502775 2.74034461,4.79801238 3.09391227,6.37358407 C3.44747993,7.94915575 8.06227536,7.60053084 7.69838801,8.48785362 C7.33450065,9.3751764 1.79568064,8.620104 1.79568064,9.5392629 C1.79568064,10.4584218 7.69838801,11.175188 7.69838801,12.1563351 C7.69838801,13.1374822 1.44395771,12.3565018 1.79568064,13.4716377 C2.14740357,14.5867736 8.97842013,15.3364909 8.97842013,16.2146708 C8.97842013,17.0928507 1.54582127,16.1960328 1.79568064,16.9907358 C2.04554001,17.7854388 9.91923363,17.6608882 9.91923363,19.2070233 C9.91923363,20.7531584 1.55787126,21.4787568 1.79568064,23.1617796 C2.03349002,24.8448024 10.3519812,24.4887062 10.8246592,25.6148944 C11.2973372,26.7410826 3.98619374,27.1442375 3.98619374,28.3808295 C3.98619374,29.6174215 11.0615494,29.177836 10.8246592,30.5653665 C10.587769,31.952897 2.77328994,31.6648986 3.09391227,33.6071664 C3.4145346,35.5494342 11.8094623,36.4165991 12.0202658,37.808119 C12.2310694,39.1996389 3.80012474,38.2988165 3.98619374,39.4971404 C4.17226274,40.6954642 12.7335855,41.1268552 12.7335855,42.4020489 C12.7335855,43.6772425 3.98619374,43.0668667 3.98619374,44.6011599 C3.98619374,46.135453 12.5463522,46.6054167 12.7335855,48.5278092 C12.9208187,50.4502016 4.47094126,50.5826251 4.77130033,52.6621378 C5.07165941,54.7416506 13.6732746,54.6605573 13.861955,56.3399883 C14.0506354,58.0194193 5.82438641,57.8586482 5.56196788,59.6998135 C5.29954936,61.5409788 12.7335855,62.1855797 12.7335855,64.2567879 C12.7335855,66.3279961 5.56196788,66.4000965 5.56196788,67.9991803 C5.56196788,69.5982641 12.9414309,69.3635854 12.7335855,70.664659 C12.52574,71.9657326 4.77130033,71.1376715 4.77130033,72.9486114 C4.77130033,74.7595514 8.95978,83.1692728 12.7335855,77.8793045 C16.5073909,72.5893363 21.3218343,77.4862283 19.2434487,52.6621378 C17.165063,27.8380473 7.81252199,6.85051956 6.46284357,2.98200839 Z" fill="url(#linearGradient-8)" fill-rule="nonzero" opacity="0.176897321" mask="url(#mask-7)"></path>
                            </g>
                            <path d="M33,41.7519922 C48.140377,42.3389379 59.0909975,42.3389379 65.8518615,41.7519922 C72.6127254,41.1650466 80.9954383,48.2477158 91,63 C82.7984204,44.8858436 74.4157076,36.236764 65.8518615,37.0527612 C57.2880154,37.8687584 46.3373949,39.4351687 33,41.7519922 Z" id="Path-16" fill="url(#linearGradient-9)" fill-rule="nonzero"></path>
                            <path d="M56,44.0044257 C60.1426132,43.8759299 63.6808015,47.3232645 66.614565,54.3464297 C69.5483285,61.3695949 71.6768068,70.5874516 73,82 C71.6245057,66.28499 69.9199379,55.9933082 67.8862967,51.1249545 C65.8526554,46.2566009 61.8905565,43.8830913 56,44.0044257 Z" id="Path-19" fill="url(#linearGradient-10)" fill-rule="nonzero"></path>
                            <path d="M63,38.0044257 C67.1426132,37.8759299 70.6808015,41.3232645 73.614565,48.3464297 C76.5483285,55.3695949 78.6768068,64.5874516 80,76 C78.6245057,60.28499 76.9199379,49.9933082 74.8862967,45.1249545 C72.8526554,40.2566009 68.8905565,37.8830913 63,38.0044257 Z" id="Path-19" fill="url(#linearGradient-10)" fill-rule="nonzero" transform="translate(71.500000, 57.000000) rotate(-23.000000) translate(-71.500000, -57.000000) "></path>
                            <path d="M63,42.0038434 C66.6552469,41.8922549 69.7771778,44.8859929 72.3657926,50.9850574 C74.9544075,57.0841219 76.8324766,65.0891027 78,75 C76.7863286,61.3527545 75.2822982,52.4152413 73.4879088,48.1874605 C71.6935195,43.9596797 68.1975499,41.898474 63,42.0038434 Z" id="Path-19" fill="url(#linearGradient-11)" fill-rule="nonzero" transform="translate(70.500000, 58.500000) rotate(-23.000000) translate(-70.500000, -58.500000) "></path>
                            <path d="M46,40.7388106 C52.6974708,35.5265922 57.0514599,33.337966 59.0619675,34.1729322 C61.0724751,35.0078983 62.718486,39.5599672 64,47.829139 L64,83 C62.7976012,63.2829156 61.1515904,50.7796196 59.0619675,45.4901119 C56.9723446,40.2006043 52.6183555,38.6168372 46,40.7388106 Z" id="Path-18" fill="url(#linearGradient-9)" fill-rule="nonzero"></path>
                            <path d="M39,11.2225057 C40.5017906,10.1346189 42.0037847,9.89839148 43.5059823,10.5138234 C44.298749,10.8386102 45.4615832,16.075785 45.6983118,23.6173448 C45.820985,27.5253943 46.5814891,35.3196127 47.9798239,47 C49.326608,34.0098797 50,25.1316526 50,20.3653187 C50,13.2158179 47.4774241,5 44.5,5 C42.5150506,5 40.6817172,7.07416856 39,11.2225057 Z" id="Path-15" fill="url(#linearGradient-9)" fill-rule="nonzero"></path>
                            <path d="M48,43.0054341 C36.3183615,33.8616025 27.7546043,29.9097889 22.3087283,31.149993 C16.8628522,32.3901972 12.5096234,44.6735329 9.24904185,68 C8.00501419,43.2180011 11.4216634,29.1847836 19.4989895,25.9003474 C27.5763157,22.6159113 37.0766525,28.3176068 48,43.0054341 Z" id="Path-13" fill="url(#linearGradient-9)" fill-rule="nonzero"></path>
                            <path d="M46,41 C46.4182219,44.4641212 47.7108619,49.2497636 49.8779199,55.356927 C52.0449779,61.4640905 54.4190046,67.0117815 57,72 C55.5878366,64.4737536 53.9990947,58.2231335 52.2337743,53.2481395 C50.4684538,48.2731456 48.3905291,44.1904324 46,41 Z" id="Path-4-Copy" fill="url(#linearGradient-12)" fill-rule="nonzero" transform="translate(51.500000, 56.500000) rotate(9.000000) translate(-51.500000, -56.500000) "></path>
                            <path d="M48,41 C48.6083228,45.5815797 50.4885264,51.9109776 53.6406108,59.9881938 C56.7926951,68.06541 60.2458249,75.4026788 64,82 C61.9459442,72.0459322 59.6350469,63.778983 57.067308,57.1991523 C54.4995692,50.6193216 51.4771332,45.2196042 48,41 Z" id="Path-4" fill="url(#linearGradient-12)" fill-rule="nonzero"></path>
                            <path d="M49,37 C58.8828864,30.1522962 67.676387,26.1778699 75.3805019,25.0767212 C83.0846168,23.9755725 91.2911161,25.2030582 100,28.7591785 C93.222978,20.2338021 85.0164786,17.2940938 75.3805019,19.9400536 C65.7445252,22.5860135 56.9510246,28.2726623 49,37 Z" id="Path-17" fill="url(#linearGradient-13)" fill-rule="nonzero"></path>
                            <path d="M40,45 C40.5322825,50.2520547 42.1774606,57.507706 44.9355344,66.7669539 C47.6936082,76.0262017 50.7150968,84.4372171 54,92 C52.2027012,80.5892394 50.180666,71.1124927 47.9338945,63.56976 C45.6871231,56.0270272 43.0424916,49.8371072 40,45 Z" id="Path-4" fill="url(#linearGradient-12)" fill-rule="nonzero" transform="translate(47.000000, 68.500000) scale(-1, 1) rotate(14.000000) translate(-47.000000, -68.500000) "></path>
                            <path d="M46,35.7074476 C40.2261184,37.2245886 36.5560236,39.7875875 34.9897155,43.3964443 C34.015998,45.6399409 32.3449984,51.7541757 32.1166437,60.8966052 C32.0239948,64.6059074 32.3797084,71.307039 33.1837846,81 C30.3366632,68.9411445 29.3990853,58.7655253 30.3710509,50.4731425 C31.3430165,42.1807597 34.1559841,36.3563788 38.8099537,33 L46,35.7074476 Z" id="Path-10" fill="url(#linearGradient-12)" fill-rule="nonzero"></path>
                            <path d="M48,46.0627396 C51.1708599,35.109187 56.1323419,29.3389379 62.8844458,28.7519922 C69.6365498,28.1650466 78.0084012,35.2477158 88,50 C79.8090472,31.8858436 71.4371958,23.236764 62.8844458,24.0527612 C54.3316958,24.8687584 49.3702139,32.2054179 48,46.0627396 Z" id="Path-16" fill="url(#linearGradient-9)" fill-rule="nonzero"></path>
                            <path d="M47.7303181,41 C49.1040884,41 44.8234353,45.9131825 44.0052009,50.5540711 C43.4597113,53.6479969 42.7592135,63.7966399 41.9037074,81 C40.0569673,69.2185327 39.5538353,59.7465887 40.3943115,52.5841679 C41.6550256,41.8405366 46.3565478,41 47.7303181,41 Z" id="Path-6" fill="url(#linearGradient-12)" fill-rule="nonzero"></path>
                            <path d="M48,47 C44.608199,28.0623498 41.5777374,17.128297 38.9086153,14.1978416 C36.2394932,11.2673861 31.9366215,11.2673861 26,14.1978416 C29.6373007,13.8614352 32.4435288,14.3953195 34.4186843,15.7994946 C36.3938398,17.2036696 40.920945,27.6038381 48,47 Z" id="Path-14" fill="url(#linearGradient-9)" fill-rule="nonzero"></path>
                            <path d="M47,41 C40.5537197,44.919786 35.1622677,50.0919928 30.825644,56.5166205 C26.4890204,62.9412482 22.8804724,71.1023747 20,81 C20.8462531,70.1986493 23.6125232,61.3266502 28.2988102,54.3840028 C32.9850972,47.4413553 39.2188272,42.9800211 47,41 Z" id="Path-9" fill="url(#linearGradient-12)" fill-rule="nonzero"></path>
                            <path d="M43.945002,38.5684714 C44.630311,40.2442962 38.684765,39.0702303 38.684765,48.8324069 C38.684765,55.3405245 39.5269516,67.3963889 41.2113247,85 C36.8396937,64.99734 34.7756813,51.5474393 35.0192874,44.650298 C35.3846965,34.3045859 43.259693,36.8926466 43.945002,38.5684714 Z" id="Path-7" fill="url(#linearGradient-14)" fill-rule="nonzero"></path>
                            <path d="M49,41.4929082 C45.3715929,41.9831034 43.0737842,43.4345678 42.1065739,45.8473016 C41.1393637,48.2600354 39.9462049,59.6442682 38.5270976,80 C37.5985529,62.9179724 37.8968141,51.1809845 39.4218811,44.7890363 C40.9469481,38.397088 44.1396544,37.2983786 49,41.4929082 Z" id="Path-8" fill="url(#linearGradient-12)" fill-rule="nonzero"></path>
                            <path d="M41,35 C35.1629484,37.5495119 31.7102139,40.653816 30.6417964,44.3129123 C29.5733789,47.9720086 28.7902007,60.8677045 28.2922619,83 C25.7889235,67.6137962 24.7131834,56.3550826 25.0650415,49.2238592 C25.4168996,42.0926358 27.6120589,37.3513494 31.6505194,35 L41,35 Z" id="Path-11" fill="url(#linearGradient-9)" fill-rule="nonzero"></path>
                            <path d="M28,29 C22.1629484,31.5495119 18.7102139,34.653816 17.6417964,38.3129123 C16.5733789,41.9720086 15.7902007,54.8677045 15.2922619,77 C12.7889235,61.6137962 11.7131834,50.3550826 12.0650415,43.2238592 C12.4168996,36.0926358 14.6120589,31.3513494 18.6505194,29 L28,29 Z" id="Path-11" fill="url(#linearGradient-15)" fill-rule="nonzero" transform="translate(20.000000, 53.000000) rotate(32.000000) translate(-20.000000, -53.000000) "></path>
                            <path d="M51,26.323706 C51,27.3674451 39.2396744,17.6556866 27.7310062,25.2672977 C20.0585607,30.3417051 14.1482253,37.5859392 10,47 C15.9322382,32.2926594 21.8425736,23.6419233 27.7310062,21.0477918 C36.563655,17.1565944 51,25.2799669 51,26.323706 Z" id="Path-12" fill="url(#linearGradient-9)" fill-rule="nonzero" transform="translate(30.500000, 33.500000) rotate(61.000000) translate(-30.500000, -33.500000) "></path>
                            <path d="M83,21.9196123 C83,22.9594543 67.9193495,10.4490958 56.3588007,18.0322867 C48.6517681,23.0877473 43.1988346,30.0769851 40,39 C44.9908897,24.8034693 50.4438233,16.4129811 56.3588007,13.8285355 C65.2312668,9.95186702 83,20.8797703 83,21.9196123 Z" id="Path-12" fill="url(#linearGradient-9)" fill-rule="nonzero" transform="translate(61.500000, 26.000000) scale(-1, 1) rotate(61.000000) translate(-61.500000, -26.000000) "></path>
                            <path d="M88,21.4532858 C80.2024849,29.2429592 75.8222862,34.7594889 74.8594038,38.0028748 C73.8965213,41.2462607 74.4592182,49.9119691 76.5474943,64 C71.8855911,52.8603377 69.7131908,44.1299845 70.0302934,37.8089402 C70.3473961,31.487896 74.9057737,25.2182492 83.7054263,19 L88,21.4532858 Z" id="Path-11" fill="url(#linearGradient-15)" fill-rule="nonzero" transform="translate(79.000000, 41.500000) scale(-1, 1) rotate(60.000000) translate(-79.000000, -41.500000) "></path>
                            <path d="M46,40.323706 C46,41.3674451 34.2396744,31.6556866 22.7310062,39.2672977 C15.0585607,44.3417051 9.14822531,51.5859392 5,61 C10.9322382,46.2926594 16.8425736,37.6419233 22.7310062,35.0477918 C31.563655,31.1565944 46,39.2799669 46,40.323706 Z" id="Path-12" fill="url(#linearGradient-9)" fill-rule="nonzero"></path>
                            <path d="M47,44 C55.1191727,25.2476586 62.2745854,15.5116605 68.4662381,14.7920056 C74.6578908,14.0723508 81.1691448,22.2198742 88,39.2345761 C82.0517983,17.4549715 75.1562784,7.06541687 67.3134404,8.06591219 C59.4706023,9.06640752 52.6994555,21.0444368 47,44 Z" id="Path-16" fill="url(#linearGradient-9)" fill-rule="nonzero"></path>
                            <path d="M47,41.0047751 C51.3862963,40.8661349 55.1326133,44.5856275 58.2389512,52.1632531 C61.345289,59.7408787 63.598972,69.686461 65,82 C63.5435943,65.0443314 61.7387578,53.9401483 59.5854906,48.6874509 C57.4322234,43.4347536 53.2370599,40.8738616 47,41.0047751 Z" id="Path-19" fill="url(#linearGradient-9)" fill-rule="nonzero"></path>
                            <path d="M48,39.0047751 C52.3862963,38.8661349 56.1326133,42.5856275 59.2389512,50.1632531 C62.345289,57.7408787 64.598972,67.686461 66,80 C64.5435943,63.0443314 62.7387578,51.9401483 60.5854906,46.6874509 C58.4322234,41.4347536 54.2370599,38.8738616 48,39.0047751 Z" id="Path-19" fill="url(#linearGradient-10)" fill-rule="nonzero"></path>
                        </g>
                    </g>
                    <g id="Group-4" mask="url(#mask-2)">
                        <g transform="translate(86.000000, 65.000000)">
                            <path d="M361.579686,198.059839 L145.869385,163 L2,184.068356 L66.8727166,203.880563 L216.575773,228.267197 L361.59394,203.979774 C363.228035,203.706098 364.330873,202.159544 364.057197,200.525448 C363.844872,199.257676 362.848466,198.266056 361.579686,198.059839 Z" id="Path-2" fill="#F2F2F2" fill-rule="nonzero"></path>
                            <path d="M222.544987,231.628687 L360.154074,203.441147 C361.084621,203.250535 361.752731,202.431698 361.752731,201.481829 L361.752731,199.28366 C361.752731,197.521922 360.32456,196.09375 358.562821,196.09375 C358.369309,196.09375 358.176197,196.111359 357.985876,196.146359 L225.095928,220.584623 C217.015451,222.07061 208.730573,222.057709 200.654763,220.546561 L2.36785578,183.443074 C1.28213053,183.239913 0.23728166,183.955372 0.0341205216,185.041097 C0.011422224,185.162401 3.53760047e-15,185.285544 3.55271368e-15,185.408953 L4.4408921e-16,191.478349 C5.61717412e-16,192.438856 0.682805452,193.263726 1.62640631,193.443146 L203.171589,231.765682 C209.576558,232.983546 216.157882,232.937008 222.544987,231.628687 Z" id="Path" fill="url(#linearGradient-16)" fill-rule="nonzero"></path>
                            <ellipse id="Oval" fill-opacity="0.197435462" fill="#000000" fill-rule="nonzero" cx="263.5" cy="219" rx="1.5" ry="2"></ellipse>
                            <polygon id="Path-3" fill-opacity="0.116225091" fill="#000000" fill-rule="nonzero" points="129.263342 202.887641 174.676599 195.843099 118.355336 186 74 191.753144"></polygon>
                            <polygon id="Path-4" fill-opacity="0.15344769" fill="#000000" fill-rule="nonzero" points="254.514345 202.898291 313.368285 193.60418 154.596083 168 96 176.311501"></polygon>
                            <g id="Path-9" stroke-width="1" fill="none" fill-rule="evenodd" transform="translate(287.000000, 210.000000)">
                                <mask id="mask-18" fill="white">
                                    <use xlink:href="#path-17"></use>
                                </mask>
                                <use id="Mask" fill="#7A7A7A" fill-rule="nonzero" xlink:href="#path-17"></use>
                                <polygon fill="#2F2F2F" fill-rule="nonzero" mask="url(#mask-18)" points="11.1742725 3.23790794 1 2.31039731 3.86893106 -2 11.718963 -2"></polygon>
                            </g>
                            <g id="Path-9" stroke-width="1" fill="none" fill-rule="evenodd" transform="translate(300.000000, 206.000000)">
                                <mask id="mask-20" fill="white">
                                    <use xlink:href="#path-19"></use>
                                </mask>
                                <use id="Mask" fill="#7A7A7A" fill-rule="nonzero" xlink:href="#path-19"></use>
                                <polygon fill="#2F2F2F" fill-rule="nonzero" mask="url(#mask-20)" points="11.1742725 4.23790794 1 3.31039731 3.86893106 -1 11.718963 -1"></polygon>
                            </g>
                            <g id="Path-9" stroke-width="1" fill="none" fill-rule="evenodd" transform="translate(314.000000, 202.000000)">
                                <mask id="mask-22" fill="white">
                                    <use xlink:href="#path-21"></use>
                                </mask>
                                <use id="Mask" fill="#7A7A7A" fill-rule="nonzero" xlink:href="#path-21"></use>
                                <polygon fill="#2F2F2F" fill-rule="nonzero" mask="url(#mask-22)" points="25.1234569 3.23790794 14 2.31039731 17.1365811 -2 25.718963 -2"></polygon>
                            </g>
                            <g id="Path-9" stroke-width="1" fill="none" fill-rule="evenodd" transform="translate(267.000000, 212.000000)">
                                <mask id="mask-24" fill="white">
                                    <use xlink:href="#path-23"></use>
                                </mask>
                                <use id="Mask" fill="#7A7A7A" fill-rule="nonzero" xlink:href="#path-23"></use>
                                <polygon fill="#2F2F2F" fill-rule="nonzero" mask="url(#mask-24)" points="18.5313499 3.71372746 8.35707747 2.78621684 11.2260085 -1.52418048 19.0760405 -1.52418048"></polygon>
                            </g>
                            <path d="M367.267873,194.81117 L405.00725,9.59726739 C405.889396,5.26794895 403.094911,1.04322195 398.765593,0.161075544 C398.149628,0.035565829 397.521016,-0.0169055785 396.892767,0.00474722104 L195.299552,6.95271891 C191.733339,7.07562956 188.679708,9.54552764 187.814075,13.007271 L150,164.229144 L362.721909,197.963168 C364.836608,198.298523 366.84038,196.909184 367.267873,194.81117 Z" id="Path-5" fill="url(#linearGradient-25)" fill-rule="nonzero"></path>
                            <polygon id="Path-6" fill="#FFFFFF" fill-rule="nonzero" points="197.269057 16.3369162 391.586316 12 358.464762 186.160208 162 154.0994"></polygon>
                            <polygon id="Path-20" fill="#593DFF" fill-rule="nonzero" points="215.758116 43.6693203 280.927656 42.6693203 259.173059 135.131182 195.754847 127.084721"></polygon>
                        </g>
                    </g>
                </g>
                <g id="Group-4" transform="translate(344.000000, 213.000000) scale(-1, 1) translate(-344.000000, -213.000000) translate(320.000000, 154.000000)">
                    <g id="Path-16" transform="translate(7.000000, 51.000000)">
                        <mask id="mask-27" fill="white">
                            <use xlink:href="#path-26"></use>
                        </mask>
                        <use id="Mask" fill="#ECD0B2" fill-rule="nonzero" xlink:href="#path-26"></use>
                        <path d="M15.5994323,29.4820462 L17.4438695,30.1977695 C18.436453,30.5829357 19.5260711,30.6412026 20.5540699,30.3640861 L21.5609678,30.0926577 C22.3928846,29.8683987 23.2686364,29.8629244 24.1032919,30.0767655 L24.8598487,30.2705976 C26.0568951,30.5772844 27.3106042,30.041097 27.9156924,28.9636718 L28.3594843,28.1734522 C28.7573747,27.4649651 28.5055863,26.5680689 27.7970992,26.1701784 C27.5125888,26.0103958 27.1830336,25.9497276 26.8602741,25.9977173 L15.8050957,27.6414633 C15.2817928,27.719271 14.9206475,28.2065673 14.9984551,28.7298702 C15.0490817,29.0703645 15.2785099,29.3575141 15.5994323,29.4820462 Z" fill-opacity="0.156787817" fill="#000000" fill-rule="nonzero" opacity="0.264174107" mask="url(#mask-27)"></path>
                    </g>
                    <g id="Path-8" transform="translate(10.000000, 64.000000)">
                        <mask id="mask-29" fill="white">
                            <use xlink:href="#path-28"></use>
                        </mask>
                        <use id="Mask" fill="#E8CFB4" fill-rule="nonzero" xlink:href="#path-28"></use>
                        <path d="M-2.91200937,3.92180562 C-4.52569954,4.03065759 -8.39561025,2.9847621 -3.7218961,8.39141419 C0.951818062,13.7980663 6.58365376,17.8605032 8.99643541,17.6977482 C11.4092171,17.5349933 12.3817858,11.4497405 8.99643541,7.53349514 C5.61108507,3.61724974 -1.2983192,3.81295364 -2.91200937,3.92180562 Z" fill="#000000" fill-rule="nonzero" opacity="0.0813616071" mask="url(#mask-29)"></path>
                    </g>
                    <g id="Path-2" transform="translate(38.921929, 61.478348) rotate(139.000000) translate(-38.921929, -61.478348) translate(34.421929, 53.978348)">
                        <mask id="mask-31" fill="white">
                            <use xlink:href="#path-30"></use>
                        </mask>
                        <use id="Mask" fill="#FFEDDA" fill-rule="nonzero" xlink:href="#path-30"></use>
                        <path d="M9.49151536,-0.767454682 C8.81023251,-1.12488196 9.16385765,0.801593953 8.18752001,2.29250128 C7.21118236,3.7834086 6.42881662,3.72923099 5.91494035,4.69412092 C5.40106408,5.65901084 6.03370159,5.89579036 4.48074499,9.05943224 C3.44544059,11.1685268 2.34316328,12.9159093 1.17391304,14.3015797 L5.91494035,15.8108108 C6.61920332,12.9750899 7.37672987,10.7246304 8.18752001,9.05943224 C9.40370521,6.561635 11.3478261,5.88960762 11.3478261,3.98157374 C11.3478261,2.07353986 10.1727982,-0.410027402 9.49151536,-0.767454682 Z" fill="#F8E7D5" fill-rule="nonzero" mask="url(#mask-31)"></path>
                    </g>
                    <g id="Path-4" transform="translate(5.000000, 16.000000)">
                        <mask id="mask-33" fill="white">
                            <use xlink:href="#path-32"></use>
                        </mask>
                        <use id="Mask" fill="#FFDF6E" fill-rule="nonzero" xlink:href="#path-32"></use>
                        <path d="M38.5379739,36.7351125 C42.173054,36.3391112 42.7527358,30.2234925 43.1211266,28.221933 C43.4895175,26.2203734 39.8831999,27.0598847 40.8295502,24.2844055 C41.7759005,21.5089263 44.5375915,22.5535081 46.1421546,19.3617884 C47.7467178,16.1700687 47.4393641,14.2396867 47.2697891,11.473793 C47.100214,8.70789926 44.8227536,8.61888104 45.3337866,6.1767125 C45.8448196,3.73454396 50.6888564,4.99364035 49.2393985,2.0612542 C47.7899406,-0.871131938 45.3031863,-1.94040369 40.8295502,-2.93577028 C36.3559142,-3.93113686 39.3564885,-5.34140212 31.4132928,-1.90498486 C23.470097,1.53143241 20.2479548,-1.07108061 16.2049312,7.71743138 C12.1619076,16.5059434 10.1869882,23.3349415 16.2049312,31.1541515 C22.2228742,38.9733615 34.9028937,37.1311138 38.5379739,36.7351125 Z" id="Path-5" fill-opacity="0.0562443388" fill="#000000" fill-rule="nonzero" mask="url(#mask-33)" transform="translate(30.952679, 16.560781) scale(-1, 1) translate(-30.952679, -16.560781) "></path>
                        <path d="M2.22747748,31.1825906 C2.74196453,28.8653772 3.1466574,26.2564074 3.44155609,23.3556813 C3.56239909,22.1670276 3.45900694,20.2335577 3.44155609,19.1724436 C3.39512778,16.3493299 3.55170587,14.2840409 3.86668376,14.120516 C4.3000513,13.8955274 5.0671544,18.3647591 5.0671544,21.5857488 C5.0671544,23.7330753 5.1834171,26.749107 5.4159425,30.633844 L2.22747748,31.1825906 Z" fill-opacity="0.181253" fill="#000000" fill-rule="nonzero" mask="url(#mask-33)"></path>
                        <path d="M24.9315115,13.8728015 C24.3069857,13.9945376 23.5315965,13.8714035 23.5315965,13.1008482 C23.5315965,12.3302929 24.3339695,11.3931716 24.9315115,11.2766953 C25.5290534,11.160219 26.2305723,11.9257219 26.2305723,12.5747484 C26.2305723,13.2237749 25.5560372,13.7510653 24.9315115,13.8728015 Z" id="Path-3" fill-opacity="0.094457654" fill="#000000" fill-rule="nonzero" opacity="0.257366071" mask="url(#mask-33)"></path>
                    </g>
                    <g id="Path-11" transform="translate(5.000000, 0.000000)">
                        <mask id="mask-35" fill="white">
                            <use xlink:href="#path-34"></use>
                        </mask>
                        <use id="Mask" fill="#805E40" fill-rule="nonzero" xlink:href="#path-34"></use>
                        <path d="M-2.94340767,29.2434453 C-3.69887091,28.20808 -3.38570468,25.6510492 -2.94340767,21.0299458 C-2.78961007,19.4230739 -3.36509509,17.3895885 -2.94340767,15.3264036 C-2.57568917,13.5272717 -0.977356415,9.9859209 -0.410574102,8.19894325 C1.20608774,3.10185657 2.15271141,-2.370564 2.32548097,-2.93461704 C2.82804011,-4.5753575 5.44192239,-7.57382787 7.23629349,-8.02365849 C9.03066459,-8.47348912 9.14756984,-8.98725147 10.6189538,-8.02365849 C12.0903377,-7.06006551 13.2610427,-5.53163236 13.4828246,-4.10044671 C13.7046065,-2.66926107 12.797069,0.725157405 12.1028172,2.18723565 C11.4085655,3.6493139 9.03650515,2.46703384 7.23629349,8.19894325 C5.43608183,13.9308527 6.51991141,15.471006 5.01540019,18.5173043 C3.51088897,21.5636025 1.66181866,21.5309205 0.880056293,22.7878842 C-2.17542461,27.7006667 -2.201205,30.260637 -2.94340767,29.2434453 Z" fill="#937154" fill-rule="nonzero" opacity="0.425111607" mask="url(#mask-35)"></path>
                    </g>
                    <path d="M19.9741823,14.1928267 L19,18 L20.6216598,17.2344704 C20.3562192,16.0309012 20.3562192,15.2220248 20.6216598,14.8078413 C21.0198207,14.1865661 21.9187695,13.7359627 22.5018029,12.3812123 C22.8410849,11.5928485 23.0070737,10.5510665 22.9997691,9.25586634 L22.9997778,9.25586629 C22.9989763,9.11374828 22.8831171,8.99918862 22.7409991,8.99999013 C22.6758135,9.00035776 22.6131966,9.02545063 22.5657964,9.0702002 L22.3612679,9.26329164 C22.2230414,9.39378866 22.040143,9.46648479 21.8500482,9.46648479 L21.8500482,9.46648479 C21.6783529,9.46648479 21.5298466,9.58609372 21.493261,9.75384582 C21.1079651,11.5205547 20.6606858,12.5465439 20.1514335,12.8318157 C19.8031815,13.0268988 19.6810864,13.1892408 19.7851483,13.3188418 L19.7851452,13.3188443 C19.9821545,13.5642042 20.0521859,13.8879831 19.9741823,14.1928267 Z" id="Path-9" fill="#FFEDDA" fill-rule="nonzero"></path>
                    <path d="M22.9555915,113.537403 C22.5554235,114.147721 18.7675447,114.160643 15.9551959,113.537403 C14.5172077,113.218733 13.9914117,112.335458 12.9436472,112.105124 C11.4572031,111.778352 10.9643397,113.705188 10.287634,113.537403 C9.55445713,113.355617 8.71366365,111.072179 9.09512248,110.490395 C9.82865917,109.371638 8.01492085,107.212283 12.9436472,108.295786 C17.8723736,109.37929 23.5603704,112.615022 22.9555915,113.537403 Z" id="Path-7" fill="#1B163D" fill-rule="nonzero"></path>
                    <path d="M34.9555915,114.537403 C34.5554235,115.147721 30.7675447,115.160643 27.9551959,114.537403 C26.5172077,114.218733 25.9914117,113.335458 24.9436472,113.105124 C23.4572031,112.778352 22.9643397,114.705188 22.287634,114.537403 C21.5544571,114.355617 20.7136636,112.072179 21.0951225,111.490395 C21.8286592,110.371638 20.0149208,108.212283 24.9436472,109.295786 C29.8723736,110.37929 35.5603704,113.615022 34.9555915,114.537403 Z" id="Path-7" fill="#1B163D" fill-rule="nonzero"></path>
                    <path d="M23.9217846,12.2197896 C23.5932076,13.668277 19.6548509,14.7889405 19.1261653,13.2878172 C18.6568693,11.9553216 19.6513571,9.59887253 19.6041555,8.14641948 C19.5569539,6.69396643 21.3006681,7.76987106 21.5,7.51526249 C22.22285,6.59195918 20.992791,6.49180478 21.1830335,5.77330225 C21.3732759,5.05479973 22.6525448,4.7617941 23.0576563,5.21971455 C23.4627678,5.67763501 24.2503615,10.7713023 23.9217846,12.2197896 Z" id="Path-10" fill="#FFEDDA" fill-rule="nonzero"></path>
                    <path d="M11.3358889,117.935692 C12.6837177,118.194967 11.710553,117.638251 14.7088454,116.839845 C17.7071377,116.04144 21.2999212,116.461605 20.9800704,115.367575 C20.6602196,114.273544 16.9551958,113 13.5862279,113 C10.21726,113 7.58852304,114.19803 7.05529064,115.367575 C6.52205824,116.537119 9.98806008,117.676418 11.3358889,117.935692 Z" id="Path-13" fill-opacity="0.0578294837" fill="#000000" fill-rule="nonzero"></path>
                    <path d="M23.3358889,117.935692 C24.6837177,118.194967 23.710553,117.638251 26.7088454,116.839845 C29.7071377,116.04144 33.2999212,116.461605 32.9800704,115.367575 C32.6602196,114.273544 28.9551958,113 25.5862279,113 C22.21726,113 19.588523,114.19803 19.0552906,115.367575 C18.5220582,116.537119 21.9880601,117.676418 23.3358889,117.935692 Z" id="Path-13" fill-opacity="0.0578294837" fill="#000000" fill-rule="nonzero"></path>
                    <g id="Path-17" transform="translate(0.000000, 49.000000)">
                        <mask id="mask-37" fill="white">
                            <use xlink:href="#path-36"></use>
                        </mask>
                        <use id="Mask" fill="#F36576" fill-rule="nonzero" xlink:href="#path-36"></use>
                        <path d="M18.8262028,0.519596989 C21.5292318,3.82273712 22.8807463,6.30957062 22.8807463,7.98009749 C22.8807463,9.65062435 22.3565094,12.0505554 21.3080357,15.1798906 C22.1978956,17.842517 23.5274588,19.8387679 25.2967253,21.1686435 C27.0659918,22.4985191 30.0707695,24.0623291 34.3110585,25.8600735 L44.3643566,31.9770134 L31.4889943,43.4756098 L4.25687873,35.8462809 L4.25687873,21.9976034 L-1.53571429,7.14327823 C-0.266541829,-0.431012555 1.66432251,-4.63983401 4.25687873,-5.48318613 C6.84943496,-6.32653825 11.7058763,-4.32561055 18.8262028,0.519596989 Z" fill-opacity="0.235705389" fill="#000000" fill-rule="nonzero" opacity="0.276897321" mask="url(#mask-37)" transform="translate(21.414321, 18.902439) scale(-1, 1) translate(-21.414321, -18.902439) "></path>
                    </g>
                </g>
                <path d="M399.072816,159.193435 L403.839998,165.530813 C404.088999,165.861829 404.022512,166.332026 403.691497,166.581026 C403.4554,166.758626 403.137038,166.781075 402.878355,166.638365 L390.751584,159.948273 C387.806008,160.129939 384.860432,160.220772 381.914856,160.220772 C374.507732,160.220772 367.100607,159.646388 359.693483,158.49762 C358.718914,158.346472 358,157.507468 358,156.521247 L358.000022,134.547389 C358.000022,133.550874 358.733629,132.706395 359.720355,132.567058 C367.118522,131.522353 374.516689,131 381.914856,131 C389.313028,131 396.7112,131.522353 404.109372,132.56706 L404.109371,132.567071 C405.096102,132.706409 405.829712,133.550892 405.829712,134.547413 L405.829704,156.521256 C405.829704,157.507474 405.110793,158.346475 404.136226,158.497621 C402.448423,158.759381 400.760619,158.991319 399.072816,159.193435 Z" id="Combined-Shape" fill="#CED6FF" fill-rule="nonzero" transform="translate(381.914856, 148.865836) scale(-1, 1) translate(-381.914856, -148.865836) "></path>
                <g id="lightbulb" transform="translate(376.000000, 138.000000)" fill="#FFFFFF" fill-rule="nonzero">
                    <path d="M7.64285714,13 L3.35714286,13 C3.1598983,13 3,13.2238576 3,13.5 C3,13.7761424 3.1598983,14 3.35714286,14 L7.64285714,14 C7.8401017,14 8,13.7761424 8,13.5 C8,13.2238576 7.8401017,13 7.64285714,13 Z" id="Shape"></path>
                    <path d="M7.64285714,14 L3.35714286,14 C3.1598983,14 3,14.1491138 3,14.3330551 C3,14.5169963 3.1598983,14.6661102 3.35714286,14.6661102 L3.75,14.6661102 C3.91899731,15.4422364 4.65075657,16 5.5,16 C6.34924343,16 7.08100269,15.4422364 7.25,14.6661102 L7.64285714,14.6661102 C7.8401017,14.6661102 8,14.5169963 8,14.3330551 C8,14.1491138 7.8401017,14 7.64285714,14 Z" id="Shape"></path>
                    <path d="M5.5,0.0012597807 C4.03171766,-0.0290290751 2.61368458,0.487967536 1.575185,1.43219683 C0.536685411,2.37642612 -0.0319272901,3.66573656 0.00138555513,5.00073487 C0.00138555513,6.48104612 0.881163866,7.77777664 1.6574216,8.92152322 C2.31395616,9.88888832 2.93397993,10.8035256 2.93397993,11.6667017 C2.93397993,11.8507773 3.09810083,12 3.30055422,12 L7.69944578,12 C7.90189917,12 8.06602007,11.8507773 8.06602007,11.6667017 C8.06602007,10.8035256 8.68604384,9.88888832 9.3425784,8.92152322 C10.1188361,7.77777664 10.9986144,6.48104612 10.9986144,5.00073487 C11.0319273,3.66573656 10.4633146,2.37642612 9.424815,1.43219683 C8.38631542,0.487967536 6.96828234,-0.0290290751 5.5,0.0012597807 Z M8.71852232,8.57129332 C8.05690633,9.39493853 7.59356286,10.33608 7.35867831,11.3334033 L3.64161495,11.3334033 C3.40664195,10.3360589 2.94319782,9.39491585 2.28147768,8.57129332 C1.52068938,7.45101094 0.734534148,6.29226594 0.734534148,5.00073487 C0.69037921,3.83974163 1.17826013,2.71417675 2.08170791,1.89273988 C2.98515569,1.07130301 4.22309511,0.627709707 5.5,0.66785646 C6.77690489,0.627709707 8.01484431,1.07130301 8.91829209,1.89273988 C9.82173987,2.71417675 10.3096208,3.83974163 10.2654659,5.00073487 C10.2654659,6.29226594 9.47931062,7.45101094 8.71852232,8.57129332 Z" id="Shape"></path>
                </g>
                <path d="M390.002817,142.886133 C390.002817,137.91557 385.97338,133.886133 381.002817,133.886133 C376.032254,133.886133 372.002817,137.91557 372.002817,142.886133" id="Oval-2" stroke="#FFFFFF" stroke-width="3" stroke-dasharray="1,4" fill-rule="nonzero" transform="translate(381.002817, 138.386133) rotate(-5.000000) translate(-381.002817, -138.386133) "></path>
                <g id="Group-4" transform="translate(262.000000, 147.000000)">
                    <g id="Path-8" transform="translate(7.000000, 63.000000)">
                        <mask id="mask-39" fill="white">
                            <use xlink:href="#path-38"></use>
                        </mask>
                        <use id="Mask" fill="#171E52" fill-rule="nonzero" xlink:href="#path-38"></use>
                        <path d="M0.746990336,0.937558121 C-0.917127655,1.04730233 -4.90797307,-0.00716608447 -0.0882053481,5.44380283 C4.73156238,10.8947717 10.5393929,14.9905073 13.027574,14.8264183 C15.5157551,14.6623293 16.5187166,8.52719742 13.027574,4.57885165 C9.53643147,0.630505888 2.41110833,0.827813913 0.746990336,0.937558121 Z" fill="#000000" fill-rule="nonzero" opacity="0.0813616071" mask="url(#mask-39)"></path>
                    </g>
                    <path d="M9.70202941,51.2720534 C7.90067647,55.0754314 7,58.6101884 7,61.8763243 C7,63.7400031 9.89549512,66.5266777 13.7294522,69.7247949 C15.2748942,71.0139342 17.5842763,72.1104172 18.9736218,73.6410395 C23.1982135,78.2952125 25.0044555,84.0177628 24.7570545,85.3152559 C24.5096535,86.612749 23.750603,87.18342 23.0552129,90.4210347 C22.5392478,92.8232777 21.5157095,98.6590454 19.9845979,107.928338 C22.0316745,108.642779 23.8245011,109 25.3630776,109 C26.8844854,109 29.4367818,100.868849 31.689757,94.2881469 C32.854381,90.8864033 34.4190188,87.9840911 34.7089116,86.6540883 C35.5596046,82.7511834 34.4197809,73.8117045 32.916592,67.5733808 C31.4134031,61.3350572 28.6254128,60.7311827 27.7345583,57.7101054 C27.1406554,55.6960539 27.1406554,53.1260188 27.7345583,50 L9.70202941,51.2720534 Z" id="Path-6" fill="#1A2366" fill-rule="nonzero"></path>
                    <g id="Path-2" transform="translate(41.000000, 3.000000)">
                        <mask id="mask-41" fill="white">
                            <use xlink:href="#path-40"></use>
                        </mask>
                        <use id="Mask" fill="#FFEDDA" fill-rule="nonzero" xlink:href="#path-40"></use>
                        <path d="M11.1776852,-0.913574717 C10.3747614,-1.35155912 10.7915252,1.00910682 9.64086543,2.83603552 C8.49020563,4.66296422 7.56815084,4.59657604 6.9625235,5.7789333 C6.35689616,6.96129056 7.1024892,7.25143555 5.27225686,11.1281005 C4.05210198,13.7125438 2.75301635,15.8537521 1.375,17.5517255 L6.9625235,19.4011079 C7.7925305,15.9262709 8.68531115,13.1686018 9.64086543,11.1281005 C11.0741969,8.06734856 13.3654347,7.24385934 13.3654347,4.90579191 C13.3654347,2.56772448 11.9806091,-0.475590313 11.1776852,-0.913574717 Z" fill="#F8E7D5" fill-rule="nonzero" mask="url(#mask-41)"></path>
                    </g>
                    <g id="Path-4" transform="translate(1.000000, 16.000000)">
                        <mask id="mask-43" fill="white">
                            <use xlink:href="#path-42"></use>
                        </mask>
                        <use id="Mask" fill="#8FC3FF" fill-rule="nonzero" xlink:href="#path-42"></use>
                        <path d="M14.2819719,36.7351125 C16.7294205,36.3391112 17.1197121,30.2234925 17.3677445,28.221933 C17.6157769,26.2203734 15.1876938,27.0598847 15.8248582,24.2844055 C16.4620226,21.5089263 18.3214305,22.5535081 19.4017604,19.3617884 C20.4820904,16.1700687 20.2751534,14.2396867 20.1609809,11.473793 C20.0468084,8.70789926 18.5134261,8.61888104 18.8574975,6.1767125 C19.2015689,3.73454396 22.4629911,4.99364035 21.4870914,2.0612542 C20.5111916,-0.871131938 18.8368947,-1.94040369 15.8248582,-2.93577028 C12.8128216,-3.93113686 14.8330663,-5.34140212 9.48502375,-1.90498486 C4.13698118,1.53143241 1.96755788,-1.07108061 -0.754553336,7.71743138 C-3.47666456,16.5059434 -4.80635017,23.3349415 -0.754553336,31.1541515 C3.2972435,38.9733615 11.8345232,37.1311138 14.2819719,36.7351125 Z" id="Path-5" fill-opacity="0.0562443388" fill="#000000" fill-rule="nonzero" mask="url(#mask-43)"></path>
                        <path d="M5.15625,31.1825906 C5.65428543,28.8653772 6.04603754,26.2564074 6.33150633,23.3556813 C6.44848516,22.1670276 6.34839916,20.2335577 6.33150633,19.1724436 C6.28656265,16.3493299 6.43813388,14.2840409 6.7430398,14.120516 C7.16254966,13.8955274 7.9051233,18.3647591 7.9051233,21.5857488 C7.9051233,23.7330753 8.0176683,26.749107 8.24275829,30.633844 L5.15625,31.1825906 Z" fill-opacity="0.181253" fill="#000000" fill-rule="nonzero" mask="url(#mask-43)"></path>
                        <path d="M27.1342829,13.8728015 C26.5297274,13.9945376 25.7791327,13.8714035 25.7791327,13.1008482 C25.7791327,12.3302929 26.5558484,11.3931716 27.1342829,11.2766953 C27.7127174,11.160219 28.391804,11.9257219 28.391804,12.5747484 C28.391804,13.2237749 27.7388383,13.7510653 27.1342829,13.8728015 Z" id="Path-3" fill-opacity="0.094457654" fill="#000000" fill-rule="nonzero" opacity="0.257366071" mask="url(#mask-43)"></path>
                    </g>
                    <path d="M14.1210022,13.4075748 C12.1522598,10.7962314 11.6751268,7.08383301 12.1956972,5.43898041 C12.7162676,3.79412781 15.4238291,0.788142488 17.2825088,0.337184469 C19.1411886,-0.113773549 20.7993275,-0.229654281 22.3234445,0.736353719 C23.8475615,1.70236172 23.430948,2.89376028 23.6606783,4.32853285 C23.8904087,5.76330543 25.5387941,13.5039198 24.819661,14.9696624 C24.340239,15.9468241 22.7400642,16.2289382 20.0191368,15.8160045 C17.399542,15.9512802 15.4334971,15.1484703 14.1210022,13.4075748 Z" id="Path-11" fill="#4D341D" fill-rule="nonzero"></path>
                    <path d="M21.9590258,113.31097 C21.401017,114.362207 15.5787805,114.086891 12.721347,113.31097 C9.86391341,112.535049 8.49363546,111.113345 9.1704447,109.8383 C9.84725393,108.563254 8.17377956,106.10224 12.721347,107.337107 C17.2689144,108.571974 22.5170346,112.259733 21.9590258,113.31097 Z" id="Path-7" fill="#141030" fill-rule="nonzero" transform="translate(15.500000, 110.500000) rotate(-13.997165) translate(-15.500000, -110.500000) "></path>
                    <path d="M13,13.4466546 L13,17 L19.7913415,17 C19.5448387,15.8306678 19.5448387,15.044801 19.7913415,14.6423995 C20.1610958,14.0387972 20.9959094,13.6010117 21.5373466,12.284799 C21.8535473,11.5161273 22.0076673,10.4994854 21.9997068,9.23487345 L21.9997659,9.23487308 C21.998943,9.10416172 21.8923135,8.99886625 21.7616022,8.99968906 C21.6998558,9.00007775 21.6407062,9.02458189 21.5967745,9.06797282 L21.4025298,9.25982671 C21.2772286,9.38358571 21.1082066,9.4529846 20.932091,9.4529846 L20.932091,9.4529846 C20.7729188,9.4529846 20.6355965,9.56469198 20.6031947,9.72053137 C20.2448278,11.4441169 19.8286515,12.4448015 19.3546633,12.7225844 C18.9098784,12.9832527 17.172656,12.8947023 14.142996,12.4569332 L14.1429941,12.4569463 C13.5963933,12.3779655 13.0892593,12.7570464 13.0102785,13.3036472 C13.003435,13.351009 13,13.3988009 13,13.4466546 Z" id="Path-9" fill="#FFEDDA" fill-rule="nonzero"></path>
                    <path d="M30.9590258,114.31097 C30.401017,115.362207 24.5787805,115.086891 21.721347,114.31097 C18.8639134,113.535049 17.4936355,112.113345 18.1704447,110.8383 C18.8472539,109.563254 17.1737796,107.10224 21.721347,108.337107 C26.2689144,109.571974 31.5170346,113.259733 30.9590258,114.31097 Z" id="Path-7" fill="#1B163D" fill-rule="nonzero"></path>
                    <path d="M23.9173332,11.4522439 C23.5700561,12.9473679 22.8459044,13.6917114 22.2871301,12.1422567 C21.7283559,10.5928021 22.5599959,8.44642679 22.2871301,6.87102522 C22.0142643,5.29562365 20.8216441,5.53983614 21.0227137,4.79820012 C21.2237832,4.0565641 22.5758582,3.75412463 23.0040255,4.22678866 C23.4321928,4.6994527 24.2646102,9.95711979 23.9173332,11.4522439 Z" id="Path-10" fill="#FFEDDA" fill-rule="nonzero"></path>
                    <path d="M4.02618252,114.948554 C5.27773783,115.155973 4.37408491,114.710601 7.15821354,114.071876 C9.94234218,113.433152 13.2784983,113.769284 12.9814939,112.89406 C12.6844896,112.018835 9.24411039,111 6.11578307,111 C2.98745574,111 0.546485681,111.958424 0.0513413086,112.89406 C-0.443803064,113.829695 2.77462722,114.741135 4.02618252,114.948554 Z" id="Path-13" fill-opacity="0.0578294837" fill="#000000" fill-rule="nonzero"></path>
                </g>
                <rect id="Rectangle-5" fill="#FFFFFF" fill-rule="nonzero" opacity="0.660267857" transform="translate(328.023437, 128.813915) rotate(-1.000000) translate(-328.023437, -128.813915) " x="310.023437" y="127.313915" width="36" height="3" rx="1.5"></rect>
                <rect id="Rectangle-5-Copy" fill="#FFFFFF" fill-rule="nonzero" opacity="0.660267857" transform="translate(326.023437, 135.813915) rotate(-1.000000) translate(-326.023437, -135.813915) " x="308.023437" y="134.313915" width="36" height="3" rx="1.5"></rect>
                <rect id="Rectangle-5-Copy-2" fill="#FFFFFF" fill-rule="nonzero" opacity="0.660267857" transform="translate(323.023437, 142.813915) rotate(-1.000000) translate(-323.023437, -142.813915) " x="305.023437" y="141.313915" width="36" height="3" rx="1.5"></rect>
                <rect id="Rectangle-5-Copy-3" fill="#FFFFFF" fill-rule="nonzero" opacity="0.660267857" transform="translate(320.023437, 149.813915) rotate(-1.000000) translate(-320.023437, -149.813915) " x="302.023437" y="148.313915" width="36" height="3" rx="1.5"></rect>
                <rect id="Rectangle-5-Copy-4" fill="#FFFFFF" fill-rule="nonzero" opacity="0.660267857" transform="translate(318.023437, 156.813915) rotate(-1.000000) translate(-318.023437, -156.813915) " x="300.023437" y="155.313915" width="36" height="3" rx="1.5"></rect>
            </g>
        </g>
    </g>
</svg>